<?xml version="1.0" encoding="UTF-8"?>
<svg width="1200pt" height="1200pt" version="1.1" viewBox="0 0 1200 1200" xmlns="http://www.w3.org/2000/svg">
 <path d="m1132.8 99.602c2.3984 30 6 54 6 78 0 48 0 96-1.1992 144 0 19.199-3.6016 38.398-4.8008 57.602-1.1992 10.801 0 21.602 0 32.398 0 15.602 1.1992 31.199 1.1992 46.801 0 13.199 1.1992 25.199 1.1992 38.398-1.1992 20.398-1.1992 40.801-4.8008 60-2.3984 18-39.602 31.199-55.199 21.602-10.801-7.1992-10.801-18-8.3984-26.398 4.8008-16.801 2.3984-32.398-2.3984-49.199-1.1992-2.3984-2.3984-4.8008-2.3984-8.3984 0-39.602 1.1992-79.199 1.1992-118.8 0-33.602-1.1992-68.398-1.1992-102 0-45.602 0-90 2.3984-135.6 0-8.3984 9.6016-20.398 18-25.199 15.598-4.8047 31.199-7.2031 50.398-13.203z"/>
 <path d="m654 106.8c6 18 14.398 34.801 19.199 54 6 30 9.6016 60 14.398 90 3.6016 24 7.1992 46.801 12 70.801 9.6016 45.602 13.199 92.398 9.6016 139.2-3.5977 33.598-8.3984 67.199-13.199 103.2-8.3984 3.6016-18 8.3984-27.602 13.199-19.199 7.1992-30-1.1992-30-21.602 0-52.801 1.1992-105.6 0-157.2-1.1992-30-9.6016-60-13.199-90-4.8008-45.602-9.6016-91.199-12-136.8-1.1992-15.602 4.8008-32.398 9.6016-48 3.5977-13.199 14.398-16.797 31.199-16.797z"/>
 <path d="m486 142.8c-31.199 6-62.398 10.801-94.801 16.801-4.8008 1.1992-9.6016 2.3984-13.199 2.3984-52.801 2.3984-106.8 6-159.6 7.1992-13.199 0-26.398-3.6016-39.602-7.1992-20.398-6-43.199-4.8008-64.801-2.3984-19.195 3.5977-29.996-2.4023-40.797-15.602-9.6016-10.801-7.1992-20.398 6-25.199 4.8008-2.4023 9.6016-3.6016 15.602-3.6016 28.801-3.6016 58.801-8.3984 87.602-10.801 30-2.3984 61.199-1.1992 91.199-4.8008 80.398-10.797 162-5.9961 242.4-1.1992 8.3984 0 16.801 0 25.199 2.3984 9.6016 2.3984 14.398 9.6016 8.3984 18-9.6016 16.801-20.398 31.199-43.199 27.602-6-1.1992-13.199 0-19.199 0 0-1.1992 0-2.3984-1.1992-3.5977z"/>
 <path d="m984 104.4c3.6016 30 10.801 57.602 8.3984 86.398-4.8008 55.199 2.3984 108 4.8008 162 2.3984 54 1.1992 108 1.1992 163.2 0 18-25.199 36-43.199 31.199-12-3.6016-20.398-12-20.398-26.398 1.1992-24 2.3984-48 1.1992-72-2.3984-51.602-6-103.2-8.3984-153.6-1.1992-16.801 0-34.801 0-52.801 0-14.398 1.1992-30 2.3984-44.398 2.3984-21.602 3.6016-44.398 8.3984-64.801 6-22.797 13.203-26.395 45.602-28.797z"/>
 <path d="m381.6 549.6c-14.398 1.1992-28.801 1.1992-44.398 2.3984-3.6016 0-7.1992 1.1992-10.801 0-79.199-15.602-158.4-18-237.6-15.602-19.199 1.1992-27.602-6-28.801-21.602 0-13.199 3.6016-22.801 18-22.801 26.398-2.3984 54-7.1992 79.199-4.8008 64.801 7.1992 128.4 3.6016 193.2-1.1992 32.398-2.3984 64.801-4.8008 96-4.8008 16.801 0 34.801 1.1992 51.602 4.8008 9.6016 1.1992 21.602 6 25.199 13.199 6 13.199-10.801 13.199-16.801 20.398-20.398 24-49.199 22.801-75.602 28.801-15.602 3.6016-32.398 2.3984-49.199 3.6016l0.003906-2.3945z"/>
 <path d="m195.6 1100.4c-24 7.1992-42 0-58.801-9.6016-19.199-99.602-27.602-200.4-15.602-302.4 3.6016-32.398 1.1992-66 1.1992-99.602 0-15.602-3.6016-33.602 14.398-49.199 4.8008 8.3984 12 14.398 13.199 22.801 6 26.398 13.199 51.602 15.602 78 4.8008 64.801 7.1992 130.8 12 195.6 2.3984 26.398 9.6016 52.801 12 79.199 3.6016 28.801 3.6016 56.402 6.0039 85.199z"/>
 <path d="m636 1099.2c-1.1992-4.8008-4.8008-12-6-19.199-1.1992-9.6016 2.3984-15.602 12-18 1.1992 0 1.1992 0 2.3984-1.1992 37.199-4.8008 74.398-10.801 111.6-14.398 42-4.8008 84-7.1992 126-9.6016 32.398-1.1992 64.801-2.3984 96-2.3984 21.602 0 42 3.6016 63.602 3.6016 31.199 0 61.199 8.3984 91.199 21.602-13.199 21.602-32.398 26.398-52.801 27.602-42 2.3984-84 1.1992-127.2 2.3984-38.398 1.1992-76.801 4.8008-115.2 6-16.801 1.1992-33.602 2.3984-49.199-1.1992-45.602-10.801-90-3.6016-134.4 4.8008-6 1.1992-10.801 1.1992-16.801 2.3984 2.3984-1.207 2.3984-1.207-1.2031-2.4062z"/>
 <path d="m807.6 99.602c20.398 142.8 37.199 285.6 38.398 434.4-10.801 1.1992-20.398 4.8008-30 4.8008-16.801 0-26.398-10.801-26.398-27.602-2.3984-56.398-4.8008-111.6-7.1992-168-2.3984-67.199-7.1992-134.4-19.199-200.4-6.0039-34.801 7.1953-46.801 44.398-43.199z"/>
 <path d="m307.2 646.8c19.199 104.4 27.602 207.6 31.199 312 1.1992 31.199-1.1992 62.398-2.3984 93.602 0 31.199-9.6016 40.801-43.199 45.602-7.1992-14.398-10.801-30-9.6016-46.801 2.3984-31.199 2.3984-62.398 1.1992-93.602-2.3984-68.398-7.1992-138-9.6016-206.4-1.1992-21.602-2.3984-44.398-2.3984-66 1.2031-26.402 6-31.203 34.801-38.402z"/>
 <path d="m66 369.6c16.801-4.8008 32.398-12 49.199-13.199 133.2-12 266.4-27.602 399.6-18 2.3984 0 4.8008 1.1992 7.1992 1.1992 3.6016 24-6 40.801-27.602 44.398-9.6016 1.1992-20.398 1.1992-30 1.1992-62.398-2.3984-124.8 3.6016-187.2 9.6016-56.398 4.8008-112.8 4.8008-168 7.1992-3.6016 0-8.3984 0-10.801-1.1992-10.801-7.1992-21.602-15.602-32.398-24v-7.1992z"/>
 <path d="m646.8 980.4c-3.6016-27.602 1.1992-34.801 25.199-38.398 56.398-8.3984 112.8-18 169.2-22.801 42-3.6016 85.199-1.1992 127.2-1.1992 37.199 0 75.602 0 112.8 1.1992 13.199 0 25.199 1.1992 38.398 3.6016 8.3984 1.1992 12 9.6016 7.1992 16.801-7.1992 10.801-15.602 20.398-30 20.398-44.398 1.1992-87.602 2.3984-132 3.6016-42 1.1992-84 2.3984-127.2 4.8008-19.199 1.1992-38.398 3.6016-57.602 4.8008-12 1.1992-24 0-36 3.6016-31.195 8.3945-63.598 9.5938-97.195 3.5938z"/>
 <path d="m84 254.4c-1.1992-26.398-1.1992-27.602 20.398-30 28.801-3.6016 56.398-6 85.199-8.3984 100.8-9.6016 201.6-12 303.6-6 18 1.1992 36 6 52.801 8.3984-6 30-16.801 39.602-43.199 39.602-36 0-72-2.3984-108-2.3984-40.801 0-80.398 2.3984-121.2 3.6016-54 1.1992-108 12-162 3.6016-4.8008-1.1992-9.6016-1.1992-13.199-2.3984-4.8008-2.4062-9.6016-4.8047-14.402-6.0078z"/>
 <path d="m1124.4 674.4c-9.6016 6-15.602 10.801-21.602 13.199-56.398 19.199-114 31.199-172.8 33.602-45.602 2.3984-92.398 3.6016-138 6h-2.3984-141.6c-10.801-22.801-7.1992-36 19.199-42 31.199-7.1992 62.398-16.801 94.801-9.6016 6 1.1992 13.199 1.1992 19.199 1.1992 48-1.1992 96-3.6016 142.8-4.8008 9.6016 0 20.398 0 30-1.1992 22.801-1.1992 45.602-1.1992 68.398-2.3984 26.398-1.1992 52.801-1.1992 80.398-2.3984 7.207 1.1992 12.008 4.8008 21.605 8.3984z"/>
 <path d="m433.2 650.4c2.3984 45.602 4.8008 90 8.3984 133.2 1.1992 25.199 4.8008 49.199 6 74.398 2.3984 38.398 3.6016 76.801 6 115.2 1.1992 21.602 2.3984 44.398 3.6016 66 2.3984 27.602-6 51.602-32.398 64.801-6 2.3984-13.199 1.1992-20.398 2.3984 0-6-3.6016-13.199-1.1992-18 8.3984-16.801 8.3984-33.602 7.1992-50.398-1.1992-36 0-72-1.1992-108-2.3984-42-2.3984-85.199-12-126-8.3984-34.801-9.6016-68.398-12-103.2-3.6016-34.797 8.3984-47.996 47.996-50.398z"/>
 <path d="m546 666c1.1992 6 4.8008 12 4.8008 18 2.3984 38.398 4.8008 76.801 6 115.2 0 9.6016-1.1992 20.398 1.1992 30 8.3984 34.801 7.1992 70.801 6 106.8-1.1992 45.602 0 92.398 1.1992 138 0 13.199-2.3984 21.602-16.801 24-18 2.3984-21.602 1.1992-30-15.602-12-25.199-14.398-50.398-10.801-76.801 4.8008-39.602 10.801-78 15.602-117.6v-6c-14.398-54 1.1992-110.4-6-164.4-1.1992-12 1.1992-24 3.6016-34.801 4.8008-10.797 12-17.996 25.199-16.797z"/>
 <path d="m1131.6 800.4c-20.398 15.602-43.199 26.398-69.602 26.398-37.199 0-73.199 1.1992-110.4 2.3984-6 0-13.199 0-19.199 2.3984-57.602 18-116.4 14.398-175.2 13.199-36-1.1992-73.199 3.6016-110.4 4.8008-8.3984-20.398-3.6016-32.398 19.199-37.199 28.801-4.8008 58.801-4.8008 87.602-7.1992 63.602-4.8008 126-10.801 189.6-14.398 28.801-2.3984 58.801-1.1992 88.801-2.3984 25.199-1.1992 51.602-1.1992 76.801-2.3984 10.793-1.1992 20.391 0 22.793 14.398z"/>
</svg>
