<?xml version="1.0" encoding="UTF-8"?>
<svg width="1200pt" height="1200pt" version="1.1" viewBox="0 0 1200 1200" xmlns="http://www.w3.org/2000/svg">
 <path d="m556.8 1137.6c-60-4.8008-120-4.8008-178.8-15.602-63.602-12-123.6-37.199-171.6-82.801-10.801-9.6016-21.602-20.398-32.398-30-42-38.398-75.602-82.801-96-135.6-9.6016-26.398-14.398-55.199-16.801-84-9.6016-144 12-284.4 67.199-418.8 13.199-32.398 32.398-62.398 52.801-90 15.602-20.398 37.199-38.398 57.602-54 42-33.602 82.801-68.398 127.2-96 34.801-22.801 74.398-40.801 116.4-46.801 16.801-2.3984 32.398-3.6016 49.199-3.6016 26.398 0 52.801-1.1992 78-12 12-4.8008 28.801-2.3984 43.199 0 21.602 3.6016 43.199 7.1992 64.801 14.398 24 7.1992 48 16.801 72 26.398 56.398 22.801 104.4 58.801 150 98.398 28.801 24 55.199 51.602 78 81.602 34.801 44.398 69.602 88.801 87.602 142.8 6 18 12 36 16.801 55.199 25.199 110.4 21.602 219.6-14.398 326.4-16.801 51.602-44.398 98.398-67.199 147.6-22.801 50.398-62.398 86.398-108 114-19.199 12-40.801 21.602-63.602 26.398-62.398 13.199-124.8 25.199-187.2 33.602-42 4.8008-84 1.1992-127.2 1.1992 3.5977-2.3906 3.5977-1.1914 2.3984 1.2109zm-54-102c20.398-1.1992 40.801-1.1992 60-3.6016 36-3.6016 73.199-8.3984 109.2-12 57.602-4.8008 112.8-13.199 168-28.801 21.602-6 46.801-12 63.602-26.398 32.398-26.398 56.398-60 75.602-97.199 14.398-27.602 26.398-56.398 34.801-86.398 7.1992-27.602 18-54 24-81.602 3.6016-18 4.8008-37.199 3.6016-55.199-6-58.801-10.801-118.8-37.199-174-13.199-28.801-21.602-60-46.801-79.199-18-13.199-38.398-22.801-39.602-49.199 0-3.6016-4.8008-8.3984-8.3984-10.801-18-18-34.801-38.398-54-55.199-20.398-18-43.199-33.602-57.602-58.801-4.8008-8.3984-14.398-14.398-22.801-19.199-50.398-30-103.2-39.602-159.6-19.199-24 8.3984-50.398 13.199-75.602 13.199-54-1.1992-100.8 18-147.6 39.602-51.602 22.801-88.801 63.602-129.6 100.8-31.199 28.801-55.199 61.199-68.398 102-10.801 33.602-22.801 66-33.602 99.602-4.8008 16.801-8.3984 34.801-8.3984 51.602 2.3984 63.602 6 126 10.801 189.6 1.1992 15.602 6 33.602 13.199 48 37.203 64.789 79.203 124.79 150 158.39 3.6016 1.1992 6 3.6016 9.6016 6 51.602 26.398 104.4 55.199 166.8 48z"/>
 <path d="m583.2 474c21.602 2.3984 37.199 4.8008 52.801 7.1992 42 4.8008 72 25.199 90 63.602 19.199 42 28.801 87.602 34.801 133.2 4.8008 44.398-21.602 76.801-51.602 104.4-38.398 34.801-86.398 45.602-135.6 38.398-33.602-4.8008-68.398-15.602-99.602-27.602-36-14.398-79.199-60-67.199-120 8.3984-42 22.801-81.602 45.602-116.4 13.199-20.398 38.398-33.602 57.602-49.199 10.801-8.3984 22.801-18 36-24 12-4.7969 27.602-7.1992 37.199-9.5977zm-14.398 127.2c-9.6016 2.3984-20.398 2.3984-30 6-48 15.602-55.199 27.602-40.801 75.602 1.1992 2.3984 1.1992 4.8008 2.3984 7.1992 12 26.398 28.801 44.398 61.199 40.801 18-2.3984 36-2.3984 54-6 9.6016-1.1992 19.199-6 27.602-12 4.8008-3.6016 8.3984-12 8.3984-18-3.6016-24-10.801-45.602-26.398-64.801-15.598-16.801-32.398-28.801-56.398-28.801z"/>
</svg>
