<?xml version="1.0" encoding="UTF-8"?>
<svg width="1200pt" height="1200pt" version="1.1" viewBox="0 0 1200 1200" xmlns="http://www.w3.org/2000/svg">
 <path d="m372 348c-15.602 3.6016-27.602 6-39.602 8.3984-21.602 2.3984-43.199 4.8008-66 7.1992-12 1.1992-25.199 1.1992-37.199 2.3984-4.8008 0-10.801 2.3984-15.602 1.1992-38.398-2.3984-78-4.8008-117.6-7.1992-13.195-35.996-21.598-223.2-8.3945-278.39 43.199-4.8008 87.602-10.801 132-15.602 31.199-3.6016 63.602-3.6016 96-6 15.602-1.1992 27.602 1.1992 34.801 16.801 1.1992 3.6016 6 9.6016 10.801 9.6016 20.398 3.6016 24 18 24 36-1.1992 32.398-3.6016 63.602-3.6016 96 0 21.602 0 44.398 3.6016 66 1.1953 22.797-2.4023 44.398-13.203 63.598zm-54-50.398c-1.1992-48-3.6016-94.801-4.8008-140.4-1.1992-21.602-2.3984-25.199-25.199-24-39.602 1.1992-79.199 2.3984-118.8 4.8008-27.602 1.1992-32.398 6-31.199 33.602 1.1992 34.801 3.6016 69.602 6 103.2 0 7.1992 3.6016 14.398 4.8008 22.801 57.598-0.003907 112.8-0.003907 169.2-0.003907z"/>
 <path d="m814.8 88.801h212.4c10.801 0 21.602 2.3984 31.199 3.6016 15.602 2.3984 25.199 9.6016 26.398 27.602 2.3984 18 12 34.801 14.398 52.801 4.8008 38.398 6 78 8.3984 116.4 1.1992 26.398 0 52.801 1.1992 79.199 0 30-18 45.602-48 42-34.801-3.6016-70.801-6-105.6-12-31.199-4.8008-62.398-13.199-93.602-21.602-13.199-3.6016-20.398-14.398-21.602-27.602-4.8008-37.199-9.6016-73.199-14.398-110.4-2.3984-22.801-6-45.602-7.1992-68.398-2.3906-25.203-2.3906-51.602-3.5898-81.602zm73.199 50.398c2.3984 63.602 3.6016 124.8 6 188.4 50.398-13.199 96 6 146.4 8.3984 1.1992-66 2.3984-129.6 3.6016-195.6-51.602-1.1953-102-1.1953-156-1.1953z"/>
 <path d="m392.4 600c0 28.801 1.1992 56.398 0 85.199-1.1992 18-7.1992 36-12 54-3.6016 10.801-12 13.199-22.801 14.398-13.199 1.1992-27.602 6-40.801 7.1992-20.398 2.3984-42 4.8008-63.602 4.8008-25.199 0-51.602-2.3984-76.801-3.6016-16.801 0-33.602 1.1992-49.199 3.6016-20.398 2.3984-33.602-7.1992-34.801-27.602-3.6016-62.398-7.1992-123.6-10.801-186-2.3945-11.996 0.007812-23.996 1.207-35.996 2.3984-25.199 19.199-37.199 44.398-36 32.398 0 64.801-2.3984 97.199-3.6016 44.398-1.1992 88.801-3.6016 132-3.6016 18 0 31.199 14.398 32.398 37.199 1.1992 30 0 60 0 90 2.4023 0.003906 3.6016 0.003906 3.6016 0.003906zm-238.8-72v88.801 66c0 22.801 1.1992 24 24 24 13.199 0 26.398 1.1992 39.602 1.1992 32.398 1.1992 64.801 2.3984 98.398 2.3984 7.1992 0 14.398-3.6016 22.801-6 1.1992-43.199 2.3984-82.801 3.6016-123.6 0-8.3984 0-18-1.1992-26.398-1.1992-19.199-4.8008-22.801-25.199-22.801h-8.3984c-40.801-1.1992-81.602-2.3984-122.4-2.3984-9.6094-2.3984-21.609-1.1992-31.207-1.1992z"/>
 <path d="m100.8 861.6c20.398-9.6016 37.199-20.398 58.801-9.6016 2.3984 1.1992 7.1992 1.1992 10.801 1.1992 40.801-8.3984 81.602 2.3984 122.4 1.1992 7.1992 0 14.398-2.3984 20.398-2.3984 12 0 25.199-1.1992 37.199 1.1992 14.398 3.6016 28.801 9.6016 30 28.801 1.1992 7.1992 4.8008 13.199 8.3984 19.199 8.3984 13.199 8.3984 27.602 7.1992 43.199-1.1992 34.801-1.1992 70.801 0 105.6 0 21.602-7.1992 37.199-21.602 52.801-2.3984 2.3984-4.8008 3.6016-6 4.8008-15.602 30-42 25.199-68.398 24-21.602-1.1992-44.398-2.3984-66-1.1992-30 1.1992-60 6-88.801 8.3984-8.3945 1.1992-15.594 1.1992-21.594 1.1992-15.602-1.1992-27.602-13.199-27.602-27.602 0-42 0-85.199 1.1992-127.2 1.1992-40.801 2.4023-81.598 3.6016-123.6zm57.598 204h164.4c2.3984-58.801 4.8008-112.8 7.1992-170.4-31.199 3.6016-57.602 7.1992-85.199 8.3984-27.602 1.1992-55.199-2.3984-86.398-3.6016v165.6z"/>
 <path d="m462 109.2c7.1992-25.199 26.398-34.801 52.801-33.602 40.801 2.3984 81.602 3.6016 122.4 3.6016 15.602 0 31.199-2.3984 48-2.3984 25.199-2.4023 42 15.598 58.801 31.199 4.8008 4.8008 6 16.801 6 25.199-1.1992 54 6 108 14.398 160.8 4.8008 31.199-12 58.801-26.398 84-3.6016 6-19.199 9.6016-28.801 9.6016-30-1.1992-60-3.6016-90-6-31.199-2.3984-61.199-4.8008-92.398-7.1992-4.8008 0-8.3984 1.1992-13.199 1.1992-22.801 3.6016-27.602 0-33.602-21.602 0-1.1992-1.1992-3.6016-1.1992-4.8008-8.3984-68.398-16.801-136.8-13.199-206.4 0-10.801-2.4023-22.801-3.6016-33.602zm64.801 19.199c6 72 10.801 139.2 15.602 206.4 3.6016 2.3984 7.1992 3.6016 9.6016 4.8008 4.8008 1.1992 10.801 2.3984 15.602 3.6016 45.602 6 88.801-9.6016 135.6-10.801-7.1992-66-13.199-129.6-20.398-193.2-49.207-4.8008-99.609-7.1992-156.01-10.801z"/>
 <path d="m930 860.4c32.398 2.3984 64.801 4.8008 98.398 7.1992 14.398 1.1992 30-1.1992 44.398-1.1992 32.398 0 42 7.1992 44.398 39.602 2.3984 22.801 4.8008 44.398-3.6016 67.199-6 15.602-1.1992 34.801 1.1992 52.801 7.1992 39.602-8.3984 73.199-28.801 104.4-2.3984 3.6016-8.3984 6-13.199 6-8.3984 1.1992-16.801 1.1992-24-1.1992-36-10.801-72-6-108-3.6016-24 1.1992-48 2.3984-72 2.3984-30 0-42-15.602-37.199-45.602 3.6016-16.801 2.3984-34.801 2.3984-52.801 1.1992-38.398 0-75.602 2.3984-114 1.1992-30 13.199-55.199 50.398-56.398 14.398 0 27.602-3.6016 42-4.8008 1.2109-1.1953 1.2109-1.1953 1.2109 0.003907zm109.2 66c-49.199-3.6016-94.801-7.1992-140.4-9.6016-1.1992 4.8008-2.3984 7.1992-2.3984 9.6016-1.1992 37.199-1.1992 75.602-1.1992 112.8 0 4.8008 0 10.801 1.1992 15.602 2.3984 10.801 8.3984 16.801 20.398 15.602 34.801-1.1992 70.801-2.3984 105.6-3.6016 10.801 0 16.801-4.8008 16.801-15.602-0.003906-39.598-0.003906-81.598-0.003906-124.8z"/>
 <path d="m493.2 770.4v-64.801c0-22.801 2.3984-45.602 3.6016-68.398 1.1992-31.199 1.1992-62.398 3.6016-92.398 1.1992-13.199 8.3984-26.398 14.398-39.602 1.1992-3.6016 8.3984-6 13.199-7.1992 7.1992-2.3984 15.602-3.6016 24-2.3984 42 3.6016 82.801-2.3984 123.6-3.6016 21.602 0 44.398 2.3984 66 3.6016 14.398 1.1992 20.398 8.3984 19.199 22.801-4.8008 54 8.3984 106.8 12 160.8 1.1992 21.602 0 44.398-3.6016 66-3.6016 22.801-31.199 38.398-61.199 40.801-46.801 3.6016-93.602-2.3984-139.2-8.3984-24-4.8047-48-4.8047-75.602-7.207zm222-223.2c-52.801-3.6016-100.8-7.1992-147.6-10.801-1.1992 33.602 1.1992 63.602-4.8008 92.398-6 28.801 0 56.398-3.6016 87.602 27.602 1.1992 52.801 1.1992 76.801 2.3984s48 3.6016 73.199 6c2.4062-59.996-11.996-116.4 6.0039-177.6z"/>
 <path d="m1087.2 486c2.3984 14.398 6 27.602 8.3984 40.801 2.3984 14.398 3.6016 30 6 44.398 1.1992 13.199 4.8008 26.398 4.8008 39.602 0 42 1.1992 82.801 0 124.8 0 12-3.6016 25.199-8.3984 36-7.1992 16.801-26.398 22.801-44.398 16.801-8.3984-3.6016-19.199-4.8008-27.602-4.8008-40.801 1.1992-81.602 3.6016-122.4 4.8008-9.6016 0-19.199-1.1992-28.801-2.3984-18-1.1992-24-12-30-28.801-9.6016-25.199-8.3984-49.199-4.8008-74.398 2.3984-14.398-1.1992-30-1.1992-44.398 1.1992-37.199 2.3984-74.398 3.6016-111.6 1.1992-22.801 6-30 27.602-34.801 26.398-6 51.602-8.3984 78-12 46.797-6.0039 89.996 3.5977 139.2 5.9961zm-42 238.8c2.3984-6 4.8008-7.1992 4.8008-8.3984v-168c0-16.801-3.6016-20.398-21.602-19.199-28.801 1.1992-56.398 6-85.199 7.1992-54 2.3984-51.602-3.6016-48 61.199 1.1992 33.602 6 67.199 9.6016 100.8 2.3984 25.199 1.1992 26.398 27.602 26.398h112.8z"/>
 <path d="m603.6 1118.4c-30 2.3984-64.801 4.8008-99.602 8.3984-28.801 2.3984-33.602-3.6016-25.199-31.199 2.3984-9.6016 3.6016-20.398 3.6016-31.199-1.1992-38.398-3.6016-75.602-3.6016-114 0-21.602 1.1992-44.398 4.8008-66 2.3984-21.602 15.602-31.199 36-30 66 4.8008 130.8-3.6016 195.6-3.6016 14.398 0 31.199-4.8008 40.801 12 3.6016 7.1992 7.1992 14.398 8.3984 21.602 1.1992 21.602 0 42 1.1992 63.602 2.3984 31.199 7.1992 63.602 8.3984 94.801 1.1992 20.398-1.1992 42-3.6016 63.602 0 3.6016-6 9.6016-9.6016 10.801-15.602 3.6016-32.398 8.3984-49.199 8.3984-34.797-1.2031-68.398-4.8008-108-7.2031zm103.2-222h-166.8c7.1992 58.801 15.602 116.4 1.1992 174 55.199-2.3984 109.2-4.8008 165.6-8.3984v-165.6z"/>
</svg>
