<?xml version="1.0" encoding="UTF-8"?>
<svg width="1200pt" height="1200pt" version="1.1" viewBox="0 0 1200 1200" xmlns="http://www.w3.org/2000/svg">
 <path d="m82.801 1124.4c-9.6016-28.801-18-55.199-10.801-84 2.3984-9.6016 1.1992-20.398 1.1992-31.199-2.3984-36-6-73.199-9.6016-109.2v-2.3984c1.1992-58.801 1.1992-118.8 2.3984-177.6 2.3984-70.801 4.8008-141.6 7.1992-212.4 1.1992-66 2.3984-133.2 3.6016-199.2 1.1992-40.801 1.1992-81.602 2.3984-123.6 1.1992-26.398 3.6016-52.801 4.8008-78 1.2031-39.602 30.004-49.199 63.605-46.801 13.199 1.1992 27.602 6 40.801 6 54 3.6016 108 9.6016 162 7.1992 67.199-3.5977 134.4 9.6016 201.6 10.801 93.602 1.1992 188.4 8.3984 282 14.398 40.801 2.3984 81.602 8.3984 122.4 9.6016 34.801 1.1992 69.602 0 104.4 0 36 0 63.602 19.199 70.801 49.199 2.3984 8.3984 1.1992 16.801 0 25.199-2.3984 27.602-6 55.199-1.1992 82.801 3.6016 20.398 3.6016 42 3.6016 62.398-1.1992 54-3.6016 108-4.8008 162 0 10.801 2.3984 22.801 3.6016 33.602 1.1992 12 2.3984 24 2.3984 36-1.1992 64.801-4.8008 129.6-6 193.2-1.1992 46.801 0 92.398-2.3984 139.2-3.6016 60 2.3984 118.8 9.6016 177.6 1.1992 6 2.3984 12 0 18-3.6016 14.398-9.6016 27.602-15.602 44.398-14.398 10.801-34.801 6-55.199 4.8008-28.801-1.1992-57.602-4.8008-86.398-4.8008-44.398-1.1992-88.801-2.3984-133.2-3.6016-33.602 0-66 0-99.602-1.1992-84-1.1992-168-2.3984-250.8-3.6016-52.801 0-104.4 0-157.2 1.1992-66 1.1992-133.2 2.3984-199.2 3.6016-18.008 1.2031-37.207-1.1953-56.406-3.5977zm960-927.6c-14.398 0-31.199 1.1992-46.801 0-112.8-8.3984-225.6-16.801-339.6-25.199h-24c-14.398 0-30-1.1992-44.398-2.3984-68.398-4.8008-136.8-12-206.4-14.398-62.398-3.6016-126-2.3984-188.4-3.6016-12 0-24 2.3984-38.398 3.6016 0 31.199-1.1992 58.801-1.1992 86.398 0 30 3.6016 61.199 3.6016 91.199s-2.3984 61.199-2.3984 91.199c0 40.801 3.6016 81.602 4.8008 122.4 2.3984 74.398-10.801 150-4.8008 224.4 2.3984 27.602-3.6016 55.199-4.8008 82.801-2.3984 55.199 7.1992 109.2 1.1992 164.4 0 3.6016 1.1992 6 3.6016 12h49.199c55.199-2.3984 111.6-8.3984 166.8-6 109.2 3.6016 218.4 10.801 326.4 19.199 56.398 4.8008 112.8 3.6016 170.4 0 19.199-1.1992 38.398-1.1992 57.602 0 36 1.1992 70.801 4.8008 106.8 6 3.6016 0 8.3984-1.1992 13.199-2.3984v-24c-2.3984-94.801-7.1992-188.4-8.3984-283.2-1.1992-50.398 2.3984-100.8 2.3984-152.4 1.1992-62.398 1.1992-126 2.3984-188.4 0-25.199 4.8008-50.398 2.3984-75.602-3.6016-39.602-9.6016-79.199 1.1992-120 1.1953 0-1.2031-1.1992-2.4023-6z"/>
 <path d="m567.6 915.6c-68.398 1.1992-135.6 2.3984-204 4.8008-14.398 0-30 0-44.398-1.1992-18-1.1992-21.602-4.8008-22.801-22.801-1.1992-30-2.3984-61.199-2.3984-91.199 0-46.801 1.1992-94.801 2.3984-141.6 0-52.801 1.1992-104.4 0-157.2 0-43.199-2.3984-87.602-3.6016-130.8v-4.8008c2.3984-12 1.1992-30 8.3984-37.199 13.199-13.199 31.199-22.801 51.602-22.801 8.3984 0 18-1.1992 26.398 1.1992 70.801 13.199 142.8 7.1992 213.6 6 55.199-1.1992 111.6-1.1992 166.8 1.1992 32.398 1.1992 63.602 6 96 9.6016 4.8008 0 8.3984 1.1992 13.199 0 25.199-1.1992 33.602 4.8008 38.398 26.398 2.3984 12 7.1992 22.801 9.6016 34.801 1.1992 6 1.1992 13.199 1.1992 20.398-2.3984 27.602-7.1992 55.199 2.3984 82.801 3.6016 6 3.6016 14.402 3.6016 22.801 0 27.602 1.1992 56.398 1.1992 84 0 18-1.1992 36-3.6016 55.199-6 67.199-12 135.6-19.199 202.8-3.6016 37.199-16.801 44.398-46.801 49.199-44.398 6-90 10.801-135.6 9.6016-51.598-1.1992-102-1.1992-152.39-1.1992zm-201.6-82.801h88.801c37.199 0 74.398 1.1992 112.8 2.3984 51.602 0 103.2 1.1992 154.8 1.1992h90c1.1992-10.801 2.3984-18 2.3984-25.199 1.1992-56.398 1.1992-111.6 3.6016-168 3.6016-72 10.801-145.2 15.602-217.2 1.1992-9.6016 0-18 0-30-21.602-1.1992-39.602-2.3984-57.602-2.3984-50.398 1.1992-100.8 6-151.2 0-32.398-3.6016-64.801-3.6016-97.199-6-36.004-1.2031-72.004-3.6016-108-7.2031-18-1.1992-36-6-54 1.1992-1.1992 7.1992-2.3984 12-2.3984 18 1.1992 49.199-1.1992 97.199 6 146.4 9.6016 70.801 7.1992 142.8 1.1992 214.8-2.4023 24.004-3.6016 48.004-4.8008 72.004z"/>
 <path d="m721.2 723.6c-66 1.1992-128.4 1.1992-192 3.6016-15.602 0-26.398-7.1992-36-16.801-3.6016-3.6016-3.6016-10.801-3.6016-16.801 0-30-2.3984-60 1.1992-88.801 3.6016-37.199 3.6016-74.398 18-110.4 4.8008-12 12-20.398 27.602-20.398 33.602-1.1992 68.398-2.3984 102-3.6016 25.199-1.1992 49.199 3.6016 72 10.801 6 2.3984 13.199 8.3984 16.801 14.398 3.6016 9.6016 6 20.398 6 30 1.1992 45.602 2.3984 92.398 1.1992 138-3.5977 19.199-9.5977 37.199-13.199 60zm-166.8-61.203c37.199-1.1992 70.801-2.3984 109.2-4.8008 1.1992-38.398 3.6016-78 4.8008-121.2h-109.2c-12 40.801-3.5977 81.602-4.8008 126z"/>
</svg>
