<?xml version="1.0" encoding="UTF-8"?>
<svg width="1200pt" height="1200pt" version="1.1" viewBox="0 0 1200 1200" xmlns="http://www.w3.org/2000/svg">
 <path d="m262.8 93.602c6-3.6016 6-3.6016 7.1992-3.6016 57.602-4.8008 62.398 2.3984 66 57.602 2.3984 58.801 0 116.4 1.1992 175.2 0 60 1.1992 120 2.3984 180 1.1992 86.398 1.1992 174 2.3984 260.4 1.1992 96 1.1992 190.8 2.3984 286.8 0 31.199-31.199 61.199-62.398 58.801-13.199-1.1992-18-8.3984-18-21.602-2.3984-49.199-6-97.199-7.1992-146.4-3.5977-212.4-3.5977-424.8-4.7969-637.2 0-51.602 1.1992-103.2 2.3984-153.6 1.2031-20.398 6-39.602 8.4023-56.398z"/>
 <path d="m82.801 74.398c16.801-10.801 30-4.8008 46.801 0 2.3984 14.398 4.8008 30 6 45.602 0 2.3984-1.1992 6 0 8.3984 26.398 46.801 19.199 97.199 18 147.6 0 49.199-1.1992 97.199-4.8008 146.4-8.3984 127.2-4.8008 253.2-1.1992 380.4 1.1992 54 0 108 1.1992 162 0 18 3.6016 37.199 3.6016 55.199 0 19.199-1.1992 38.398-2.3984 57.602 0 3.6016-1.1992 8.3984-3.6016 9.6016-20.398 12-37.199 31.199-68.398 19.199-3.6016-36-10.801-73.199-12-111.6-1.2031-65.996-0.003906-130.8-1.2031-196.8-1.1992-88.801-2.3984-177.6-2.3984-266.4 0-34.801 6-70.801 7.1992-105.6 1.1992-49.199 0-99.602 2.3984-148.8 3.6016-68.398 7.1992-135.6 10.801-202.8z"/>
 <path d="m822 64.801c8.3984-1.1992 13.199-2.3984 16.801-3.6016 57.602-4.8008 64.801 3.6016 63.602 61.199-1.1992 55.199-2.3984 111.6 0 166.8 4.8008 122.4 12 246 19.199 368.4 4.8008 93.602-3.6016 186-6 278.4-1.1992 21.602 0 44.398 0 66 0 30-4.8008 57.602-16.801 85.199-4.8008 10.801-6 21.602-9.6016 33.602-4.8008 19.199-4.8008 19.199-30 16.801-1.1992-6-2.3984-13.199-3.6016-20.398-4.8008-75.602-13.199-152.4-13.199-228 0-174-8.3984-349.2-18-523.2-2.3984-40.801-9.6016-81.602-9.6016-121.2 2.4023-58.801 6.0039-118.8 7.2031-180z"/>
 <path d="m1070.4 1118.4c-3.6016-40.801-10.801-80.398-12-121.2-2.3984-74.398 0-148.8-2.3984-223.2-2.3984-55.199-8.3984-109.2-13.199-164.4 0-6-1.1992-12-2.3984-18-3.6016-112.8-8.3984-226.8-12-339.6 0-16.801 2.3984-33.602 3.6016-50.398 2.3984-21.602 6-42 7.1992-63.602 4.7969-32.398 9.5977-38.398 40.797-44.398 4.8008-1.1992 8.3984-1.1992 13.199-1.1992 36-2.3984 46.801 8.3984 44.398 44.398-3.6016 46.801-6 93.602-9.6016 140.4-1.1992 10.801-2.3984 22.801-6 33.602-10.801 32.398-9.6016 66-8.3984 99.602 2.3984 62.398 2.3984 126 8.3984 188.4 6 67.199 13.199 134.4 10.801 201.6-2.3984 58.801-8.3984 118.8-12 177.6-1.1992 24 0 48-1.1992 72 0 20.398-6 38.398-15.602 55.199-5.9961 10.797-14.395 17.996-33.598 13.195z"/>
 <path d="m436.8 90c3.6016-2.3984 4.8008-3.6016 4.8008-3.6016 38.398-6 50.398 1.1992 51.602 38.398 1.1992 18 2.3984 36 7.1992 54 4.8008 19.199 3.6016 39.602 4.8008 60 3.6016 75.602 6 152.4 9.6016 228 2.3984 73.199 4.8008 147.6 7.1992 220.8 1.1992 22.801 4.8008 45.602 6 68.398 2.3984 49.199 3.6016 97.199 6 146.4 1.1992 27.602 3.6016 55.199 4.8008 81.602 0 24 0 48-2.3984 72-2.3984 27.602-24 49.199-51.602 52.801-10.801 1.1992-16.801-4.8008-18-14.398-1.1992-10.801-2.3984-21.602-2.3984-31.199-7.1992-126-14.398-250.8-21.602-376.8-2.3984-40.801-4.8008-81.602-6-122.4-1.1992-76.801-2.3984-153.6-3.6016-231.6 0-8.3984 0-15.602-1.1992-24-7.1992-57.602-2.3984-115.2 2.3984-172.8-0.003906-14.398 1.1992-29.996 2.3984-45.598z"/>
 <path d="m650.4 97.199c45.602 3.6016 50.398 9.6016 54 46.801 3.6016 44.398 9.6016 88.801 13.199 134.4 2.3984 28.801 2.3984 58.801 3.6016 87.602 3.6016 66 7.1992 132 13.199 199.2 6 72 9.6016 145.2 3.6016 217.2-4.8008 52.801-3.6016 105.6-6 159.6-2.3984 42-7.1992 84-10.801 127.2-1.1992 16.801-7.1992 31.199-22.801 39.602-16.801 8.3984-33.602 4.8008-34.801-19.199-1.1992-72-4.8008-142.8-4.8008-214.8 0-38.398 3.6016-75.602 3.6016-114 0-34.801-2.3984-70.801-4.8008-105.6-3.6016-74.398-7.1992-148.8-10.801-223.2-3.6016-54-8.3984-108-13.199-160.8-5.9961-60 6.0039-116.4 16.801-174z"/>
</svg>
