<?xml version="1.0" encoding="UTF-8"?>
<svg width="1200pt" height="1200pt" version="1.1" viewBox="0 0 1200 1200" xmlns="http://www.w3.org/2000/svg">
 <path d="m834.84 425.63c11.484-100.88-79.641-212.16-194.95-238.18-17.203-3.8906-35.391-5.8594-54-5.8594-62.109 0-125.16 21.422-172.97 58.781-48 37.5-75.047 86.531-76.172 138.1-0.98438 46.125 19.266 91.734 58.5 131.9 14.953 15.281 35.766 22.781 57.094 20.391 21.422-2.3438 40.172-14.203 51.469-32.531 16.875-27.281 13.031-62.109-9.2812-84.75-12.094-12.281-19.219-24.234-19.078-32.016 0.14062-7.0312 7.2656-19.594 22.922-31.828 30.141-23.531 75.516-34.828 111-26.906 50.625 11.438 90.422 62.391 87.609 87.141-0.75 6.5156-11.297 15.188-36.141 33.375-33.141 24.234-74.391 54.375-105.19 110.16-38.297 69.562-45.844 153.98-22.359 250.97 4.5469 18.797 16.969 34.922 34.078 44.25 10.312 5.625 21.797 8.4375 33.328 8.4375 7.7344 0 15.516-1.2656 22.969-3.8906 33.703-11.812 52.734-47.109 44.297-82.125-14.906-61.828-11.766-112.5 9.1875-150.61 15.938-28.875 38.953-45.703 65.578-65.156 35.625-26.062 84.375-61.734 92.156-129.71zm-182.34 181.31c-24.469 44.438-28.5 101.91-11.953 170.76 5.0625 20.906-6.2344 41.953-26.25 48.984-11.062 3.8438-23.25 2.9062-33.562-2.7188-10.312-5.5781-17.438-14.906-20.203-26.156-21.75-89.906-15.141-167.53 19.688-230.72 27.797-50.391 66.234-78.469 97.172-101.06 30.562-22.359 45.375-33.938 47.531-52.922 5.0156-44.109-51.188-104.62-109.41-117.75-9.7031-2.1562-19.922-3.2812-30.469-3.2812-36.75 0-75.609 13.266-104.06 35.438-21.047 16.453-33.328 35.906-33.703 53.344-0.32812 16.125 8.8125 33.75 27.141 52.359 13.172 13.359 15.375 34.031 5.3906 50.203-6.75 10.875-17.906 17.953-30.656 19.359s-25.031-3-33.891-12.094c-34.359-35.109-51.328-72.656-50.484-111.61 0.9375-42.938 24.188-84.328 65.391-116.58 42.938-33.562 99.656-52.828 155.63-52.828 16.594 0 32.672 1.7344 47.812 5.1562 102.19 23.062 183.14 120.1 173.21 207.56-6.375 55.734-45.891 84.656-80.766 110.2-26.859 19.641-54.656 39.938-73.594 74.297z"/>
 <path d="m1125.6 537.98c-7.6406-12.141-16.969-23.672-27.609-34.312-35.578-35.578-83.906-59.391-132.66-65.344-49.125-6.0938-93.047 6.7031-123.42 35.766-27.188 26.062-41.859 63.984-42.375 109.64-0.1875 18 7.7812 34.781 21.844 46.031 14.156 11.297 32.297 15.375 49.875 11.203 26.203-6.1875 44.625-29.156 44.859-55.875 0.09375-15.328 3.375-23.953 6.4219-26.859 3.4688-3.3281 13.875-6 28.641-4.2656 23.203 2.8594 47.109 14.625 64.031 31.547 4.6875 4.6875 8.6719 9.6094 11.906 14.719 20.766 32.859 15.703 83.297 0.89062 95.109-3.5156 2.7656-18.188 0.75-37.125-2.1562-32.719-5.0625-73.5-11.391-122.95 2.9062-61.688 17.812-114.23 61.734-156.19 130.45-8.4844 13.922-10.641 30.891-6 46.594 4.6875 15.844 15.891 28.969 30.703 36.094 8.1094 3.8906 16.641 5.7656 25.125 5.7656 19.734 0 38.906-10.125 49.969-28.219 26.156-42.75 56.016-69.234 88.734-78.703 24.75-7.1719 46.969-3.7031 72.75 0.28125 35.344 5.4844 83.766 12.984 127.55-21.844 64.547-51.375 76.266-167.53 25.078-248.58z"/>
 <path d="m398.02 781.78c-1.125-25.734 7.4531-46.5 17.391-70.641 13.641-33.094 32.344-78.375 8.8125-129.1-34.734-74.859-144.84-113.53-235.74-82.875-13.547 4.5938-26.953 10.922-39.844 18.75-42.938 26.203-77.484 67.641-94.734 113.58-17.438 46.406-15.422 91.969 5.7188 128.39 18.938 32.578 52.359 55.734 96.609 66.984 17.438 4.5 35.625 0.65625 49.875-10.359 14.297-11.062 22.547-27.75 22.688-45.844 0.14062-26.953-17.859-50.25-43.781-56.766-14.906-3.7031-22.453-8.9531-24.562-12.562-2.4375-4.1719-2.625-14.953 2.5781-28.875 8.2031-21.844 25.266-42.375 45.75-54.844 5.625-3.4219 11.344-6.1406 17.062-8.0625 36.844-12.469 84.656 4.3125 92.625 21.516 1.875 4.0781-3.5156 17.906-10.875 35.672-12.609 30.562-28.312 68.625-26.016 120.1 2.8125 64.125 33.141 125.53 90.047 182.44 11.484 11.484 27.562 17.672 43.781 16.828 16.5-0.84375 31.922-8.625 42.375-21.375 18.984-23.203 17.156-56.859-4.1719-78.281-35.391-35.484-54.141-70.734-55.594-104.77z"/>
 <path d="m646.4 900.32c-12.141-11.25-26.766-15.75-40.312-12.469-13.5 3.3281-24.375 14.203-29.906 29.812-4.875 13.734-5.2969 30.281-1.3125 46.547 4.0312 16.266 12.141 30.703 22.828 40.594 9.5156 8.8125 20.625 13.5 31.453 13.5 3 0 5.9531-0.32812 8.8594-1.0781 13.5-3.3281 24.375-14.203 29.906-29.812 4.875-13.734 5.2969-30.281 1.3125-46.547-4.0312-16.266-12.141-30.703-22.828-40.594z"/>
</svg>
