<?xml version="1.0" encoding="UTF-8"?>
<svg width="1200pt" height="1200pt" version="1.1" viewBox="0 0 1200 1200" xmlns="http://www.w3.org/2000/svg">
 <path d="m932.4 1084.8c-27.602 21.602-51.602 30-79.199 31.199-44.398 1.1992-88.801 4.8008-133.2 7.1992-7.1992 0-14.398 1.1992-20.398 2.3984-32.398 9.6016-66 6-98.398 4.8008-9.6016 0-20.398-4.8008-30-8.3984-15.602-6-22.801-14.398-21.602-34.801 1.1992-20.398-9.6016-44.398-21.602-63.602-24-40.801-36-82.801-32.398-129.6 1.1992-14.398 8.3984-20.398 18-26.398 9.6016-6 19.199-3.6016 28.801 2.3984 13.199 8.3984 26.398 15.602 40.801 21.602 48 20.398 94.801 38.398 138 68.398 14.398 10.801 32.398 18 49.199 25.199 51.602 24 99.602 52.801 145.2 87.602 4.7969 6.0039 9.5977 8.4023 16.797 12.004zm-390-158.4c3.6016 15.602 2.3984 25.199 7.1992 31.199 14.398 25.199 14.398 52.801 19.199 80.398 8.3984 43.199-3.6016 43.199 49.199 43.199 36 0 70.801-2.3984 106.8-2.3984 32.398 0 64.801 1.1992 96 1.1992 6 0 10.801-1.1992 21.602-3.6016-15.602-8.3984-26.398-14.398-37.199-19.199-36-18-75.602-32.398-109.2-55.199-39.602-26.398-82.801-44.398-124.8-63.602-6-3.5938-14.398-5.9961-28.801-11.996z"/>
 <path d="m763.2 332.4c-6 2.3984-12 3.6016-16.801 4.8008-14.398 1.1992-20.398-8.3984-16.801-21.602 1.1992-3.6016 2.3984-6 4.8008-9.6016 19.199-30 38.398-60 57.602-90 18-27.602 38.398-54 56.398-81.602 15.602-24 36-42 58.801-58.801 8.3984-7.1992 16.801-7.1992 25.199 2.3984 6 8.3984 14.398 15.602 20.398 24 33.602 57.602 66 115.2 98.398 172.8 18 32.398 33.602 67.199 49.199 100.8 3.6016 6 7.1992 13.199 8.3984 19.199 0 7.1992-1.1992 15.602-6 20.398-3.6016 3.6016-14.398 6-18 3.6016-27.602-15.602-58.801-14.398-88.801-18-7.1992-1.1992-15.602-2.3984-22.801-4.8008-32.398-15.602-67.199-16.801-102-22.801-39.59-7.1914-77.992-13.191-107.99-40.793zm279.6 48c1.1992-1.1992 2.3984-3.6016 3.6016-4.8008-14.398-20.398-30-39.602-42-61.199-16.801-28.801-36-58.801-45.602-90-12-39.602-30-75.602-45.602-112.8-1.1992-2.3984-3.6016-3.6016-6-4.8008-21.602 20.398-121.2 176.4-129.6 202.8 44.398 9.6016 90 16.801 134.4 28.801 44.402 10.801 87.605 27.602 130.8 42z"/>
 <path d="m888 534c-4.8008 54 3.6016 98.398 8.3984 145.2 2.3984 26.398 4.8008 54 7.1992 80.398 2.3984 19.199 4.8008 38.398 8.3984 56.398 4.8008 21.602 1.1992 42-7.1992 61.199-3.6016 9.6016-10.801 15.602-22.801 14.398-19.199-27.602-48-40.801-79.199-50.398-22.801-7.1992-46.801-12-69.602-22.801-27.602-12-57.602-20.398-86.398-27.602-44.398-12-56.398-51.602-24-85.199 49.203-45.594 102-85.195 160.8-117.59 21.602-12 43.199-26.398 64.801-38.398 10.797-6 23.996-9.6016 39.598-15.602zm-44.398 61.199c-54 27.602-177.6 112.8-204 154.8 34.801 7.1992 69.602 12 104.4 21.602 34.801 8.3984 69.602 21.602 106.8 32.398 0-24 1.1992-43.199 0-63.602-3.6016-46.797-19.199-93.598-7.1992-145.2z"/>
 <path d="m990 870c2.3984-18 2.3984-36 6-54 6-34.801 10.801-68.398 20.398-102 9.6016-36 40.801-55.199 69.602-75.602 1.1992-1.1992 3.6016-1.1992 4.8008-1.1992s3.6016 1.1992 4.8008 1.1992c1.1992 1.1992 2.3984 2.3984 2.3984 3.6016 3.6016 69.602 25.199 135.6 33.602 204 4.8008 40.801 4.8008 82.801 7.1992 124.8 0 13.199 1.1992 25.199 1.1992 38.398 0 18-1.1992 36-3.6016 55.199-1.1992 10.801-2.3984 25.199-16.801 26.398-12 1.1992-25.199-2.3984-33.602-14.398-19.199-26.398-38.398-51.602-57.602-78-19.199-25.199-37.199-50.398-56.398-74.398-21.598-28.801-19.195-38.398 18.004-54zm91.199 132c2.3984-1.1992 6-1.1992 8.3984-2.3984 0-13.199-1.1992-26.398-2.3984-40.801-1.1992-10.801-3.6016-22.801-2.3984-33.602 4.8008-30 1.1992-58.801-1.1992-88.801v-15.602c0-25.199 0-50.398-1.1992-75.602 0-3.6016-3.6016-8.3984-7.1992-15.602-3.6016 9.6016-6 14.398-8.3984 20.398-13.199 33.602-22.801 69.602-40.801 102-18 32.398-20.398 58.801 9.6016 84 4.8008 3.6016 7.1992 9.6016 10.801 14.398 11.992 16.809 23.992 33.609 34.793 51.609z"/>
 <path d="m94.801 607.2c-8.3984-14.398-15.602-24-18-33.602-4.8008-21.602-9.6016-44.398-9.6016-66 0-48 2.3984-94.801 4.8008-142.8 1.1992-14.398 3.6016-28.801 7.1992-43.199 3.6016-14.398 8.3984-27.602 14.398-44.398 4.8008 1.1992 9.6016 1.1992 13.199 3.6016 76.801 45.602 154.8 91.199 222 152.4 21.602 20.398 21.602 44.398-1.1992 63.602-6 4.8008-13.199 8.3984-20.398 10.801-14.398 7.1992-28.801 13.199-42 19.199-19.199 9.6016-39.602 18-58.801 27.602-26.398 13.199-51.602 28.801-78 43.199-12 3.5977-24 6-33.598 9.5977zm13.199-285.6c-6 32.398-2.3984 212.4 4.8008 232.8 4.8008-2.3984 9.6016-3.6016 14.398-6 36-22.801 73.199-44.398 114-57.602 18-6 36-16.801 51.602-34.801-16.801-13.199-33.602-27.602-50.398-39.602-33.602-24-72-42-102-72-8.4023-9.5977-19.203-14.398-32.402-22.797z"/>
 <path d="m696 504c0 25.199-3.6016 33.602-22.801 36-43.199 6-85.199 19.199-127.2 27.602-50.398 9.6016-98.398 22.801-144 45.602-7.1992 3.6016-14.398 7.1992-21.602 8.3984-18 3.6016-28.801-9.6016-21.602-26.398 4.8008-12 10.801-24 16.801-34.801 37.199-60 74.398-120 111.6-180 8.3984-13.199 15.602-27.602 24-40.801 10.801-16.801 26.398-18 40.801-1.1992 7.1992 8.3984 13.199 16.801 21.602 22.801 46.801 34.801 80.398 82.801 116.4 127.2 3.6016 3.5977 4.8008 13.199 6 15.598zm-271.2 39.602c2.3984 1.1992 3.6016 3.6016 6 4.8008 64.801-32.398 139.2-28.801 213.6-49.199-44.398-49.199-68.398-105.6-111.6-153.6-18 50.398-44.398 92.398-72 133.2-14.402 19.199-24 42-36 64.801z"/>
 <path d="m361.2 357.6c-20.398-21.602-40.801-39.602-52.801-66-24-52.801-52.801-104.4-79.199-156-2.3984-6-6-10.801-9.6016-15.602-15.598-24-7.1992-37.199 21.602-40.801 49.199-6 97.199-1.1992 146.4-2.3984 51.602-1.1992 104.4 1.1992 156-9.6016 15.602-3.6016 28.801-1.1992 39.602 13.199-3.6016 16.801-13.199 31.199-24 44.398-16.801 19.199-34.801 38.398-51.602 60-12 14.398-20.398 32.398-31.199 48-7.1992 10.801-14.398 21.602-24 31.199-25.199 27.602-51.602 54-76.801 81.602-3.5977 3.6016-8.3984 7.2031-14.398 12.004zm-104.4-237.6c12 19.199 25.199 38.398 36 57.602 12 20.398 24 40.801 36 61.199 10.801 19.199 21.602 38.398 33.602 60 75.602-58.801 128.4-135.6 196.8-204-30 2.3984-54 6-76.801 7.1992-21.602 0-43.199 3.6016-64.801 7.1992-27.602 3.6016-56.398 13.199-85.199 3.6016-10.801-3.6016-24-2.3984-36-3.6016-13.203-1.1992-25.203 1.1992-39.602 10.801z"/>
 <path d="m171.6 1118.4c-25.199 0-50.398 1.1992-75.602 0-22.801-1.1992-24-2.3984-27.602-25.199-2.3984-19.199-4.8008-38.398-6-56.398-1.1992-14.398-2.3984-27.602-1.1992-42 1.1992-18 3.6016-36 9.6016-52.801 3.5977-18 13.199-21.602 28.801-15.602 26.398 9.6016 52.801 19.199 76.801 32.398 40.801 21.602 81.602 44.398 121.2 67.199 26.398 15.602 51.602 34.801 78 52.801 8.3984 6 13.199 14.398 10.801 25.199-3.6016 12-14.398 10.801-24 10.801-8.3984 0-16.801-3.6016-25.199-3.6016-10.801-1.1992-24-3.6016-33.602 0-43.203 14.406-87.602 9.6055-132 7.2031zm106.8-42v-4.8008c-32.398-18-63.602-38.398-98.398-52.801-34.801-14.398-56.398-49.199-94.801-62.398 3.6016 42 8.3984 81.602 12 123.6 62.402-8.3984 122.4 3.6016 181.2-3.6016z"/>
 <path d="m67.199 840c2.3984-4.8008 6-15.602 13.199-24 26.398-32.398 54-63.602 82.801-94.801 14.398-15.602 32.398-28.801 49.199-42 9.6016-7.1992 20.398-8.3984 32.398-4.8008 44.398 15.602 88.801 31.199 133.2 48 13.199 4.8008 25.199 15.602 38.398 22.801 8.3984 4.8008 15.602 10.801 13.199 19.199-2.3984 6-10.801 12-16.801 14.398-36 10.801-72 19.199-108 28.801-49.199 13.199-98.398 27.602-147.6 42-16.801 4.8008-32.398 13.199-48 20.398-26.391 12.004-41.992 2.4023-41.992-29.996zm278.4-84c-37.199-13.199-69.602-25.199-102-37.199-15.602-6-28.801-6-37.199 12-2.3984 6-10.801 8.3984-15.602 13.199-6 4.8008-13.199 9.6016-18 15.602-10.801 13.199-21.602 27.602-31.199 42-2.3984 3.6016-3.6016 8.3984-7.1992 16.801 70.797-21.602 138-42.004 211.2-62.402z"/>
</svg>
