<?xml version="1.0" encoding="UTF-8"?>
<svg width="1200pt" height="1200pt" version="1.1" viewBox="0 0 1200 1200" xmlns="http://www.w3.org/2000/svg">
 <path d="m732 1018.8c-26.398 1.1992-52.801 3.6016-79.199 6-8.3984 1.1992-15.602 1.1992-22.801 3.6016-67.199 25.199-134.4 18-202.8 8.3984-57.602-8.3984-112.8-25.199-164.4-52.801-10.801-4.8008-22.801-8.3984-34.801-13.199-26.398-10.801-43.199-32.398-62.398-51.602-33.602-31.199-61.203-68.398-80.402-109.2-15.602-33.602-22.801-68.398-18-104.4 1.1992-13.199 1.1992-26.398 2.3984-39.602 7.2031-56.398 2.4023-114 22.801-169.2 12-34.801 32.398-63.602 45.602-97.199 1.1992-1.1992 2.3984-2.3984 3.6016-4.8008 24-28.801 44.398-60 72-84 36-30 67.199-66 111.6-87.602 30-14.398 56.398-34.801 85.199-51.602 26.398-14.398 52.801-28.801 80.398-38.398 21.602-7.1992 45.602-7.1992 67.199-6 52.801 2.3984 104.4 14.398 154.8 27.602 34.801 8.3984 63.602 27.602 91.199 46.801 55.199 39.602 103.2 87.602 146.4 139.2 18 21.602 36 43.199 55.199 63.602 24 25.199 31.199 57.602 38.398 88.801 7.1992 33.602 10.801 69.602 15.602 103.2 6 45.602 4.8008 91.199 1.1992 136.8-2.3984 26.398-27.602 78-45.602 99.602-6 6-10.801 14.398-14.398 21.602-14.398 28.801-34.801 52.801-56.398 75.602-9.6016 9.6016-22.801 16.801-33.602 24-39.602 25.199-80.398 48-126 60-16.797 5.9922-34.797 4.793-52.797 7.1914v-2.3984zm-247.2-1.1992h15.602c45.602 1.1992 88.801-4.8008 130.8-24 15.602-7.1992 33.602-9.6016 51.602-9.6016 73.199-2.3984 142.8-19.199 205.2-58.801 26.398-16.801 54-33.602 72-60 19.199-27.602 38.398-55.199 56.398-82.801 13.199-20.398 19.199-43.199 21.602-68.398 3.6016-34.801-4.8008-68.398-3.6016-102 1.1992-26.398 1.1992-52.801-10.801-78-7.1992-15.602-13.199-32.398-18-49.199-9.6016-32.398-30-56.398-54-79.199-34.801-33.602-69.602-66-103.2-100.8-36-37.199-82.801-58.801-122.4-90-56.398-18-112.8-40.801-174-36-39.602 3.6016-78 9.6016-111.6 33.602-24 16.801-52.801 27.602-78 44.398-26.398 16.801-56.398 27.602-79.199 51.602-16.801 16.801-37.199 30-54 45.602-10.801 9.6016-20.398 21.602-28.801 33.602-18 25.199-34.801 49.199-50.398 75.602-22.801 39.602-44.398 79.199-48 127.2-2.3984 32.398-6 64.801-12 96-6 33.602-1.1992 63.602 12 94.801 36 92.398 91.199 165.6 188.4 199.2 1.1992 0 1.1992 1.1992 2.3984 1.1992 61.199 28.793 124.8 41.996 192 35.996z"/>
 <path d="m86.398 918c20.398 9.6016 31.199 19.199 36 34.801 8.3984 22.801 26.398 37.199 45.602 49.199 60 39.602 124.8 63.602 194.4 76.801 43.199 8.3984 86.398 16.801 130.8 19.199 31.199 2.3984 62.398-3.6016 94.801-6 25.199-1.1992 50.398-1.1992 76.801-3.6016 25.199-2.3984 50.398-6 75.602-9.6016 13.199-1.1992 26.398-4.8008 39.602-4.8008 54-1.1992 104.4-12 148.8-44.398 22.801-16.801 49.199-31.199 73.199-46.801 28.801-19.199 45.602-46.801 60-78 27.602-58.801 32.398-121.2 42-183.6 6-32.398-1.1992-64.801 1.1992-97.199 3.6016-43.199 1.1992-87.602-2.3984-130.8-3.6016-43.199-20.398-80.398-43.199-114-28.801-43.199-58.801-85.199-93.602-123.6-26.398-30-61.199-52.801-92.398-78-66-54-144-75.602-226.8-80.398-32.398-2.3984-64.801-7.1992-97.199-7.1992-37.199-1.1992-75.602-1.1992-112.8 2.3984-18.004 0.003907-36.004 8.4062-52.805 15.605-42 16.801-84 31.199-123.6 51.602-21.602 10.801-43.199 28.801-58.801 48-31.199 37.199-60 78-87.602 118.8-15.602 24-21.602 51.602-22.801 80.398 0 9.6016 1.1992 21.602-12 26.398-19.199-15.602-22.801-28.801-15.602-50.398 20.398-58.801 50.398-111.6 91.199-157.2 14.398-16.801 26.398-33.602 43.199-49.199 32.398-28.801 68.398-49.199 108-64.801 34.801-13.199 68.398-27.602 103.2-38.398 20.398-6 40.801-9.6016 62.398-10.801 96-3.6016 192 1.1992 285.6 25.199 36 9.6016 74.398 19.199 105.6 39.602 68.398 43.199 133.2 92.398 177.6 163.2 22.801 36 44.398 70.801 57.602 111.6 7.1992 24 22.801 44.398 27.602 70.801 8.3984 49.199 8.3984 98.398 12 146.4 4.8008 64.801-12 127.2-18 190.8 0 2.3984 0 4.8008-1.1992 8.3984-18 46.801-33.602 94.801-52.801 140.4-20.398 46.801-58.801 74.398-104.4 94.801-20.398 8.3984-38.398 20.398-57.602 31.199-9.6016 6-20.398 7.1992-32.398 7.1992-16.801-1.1992-34.801 2.3984-52.801 4.8008-15.602 1.1992-31.199 1.1992-46.801 3.6016-10.801 1.1992-21.602 2.3984-30 7.1992-22.801 13.199-46.801 18-70.801 18-45.602-1.1992-88.801 7.1992-133.2 13.199-42 6-82.801 3.6016-123.6-3.6016-39.598-7.1992-77.996-13.199-114-24-39.602-12-78-28.801-114-48-26.398-15.602-50.398-36-67.199-64.801-10.801-18-21.602-36-28.801-55.199-2.3984-7.1992-2.3984-13.199-3.6016-25.199z"/>
 <path d="m1140 348c-8.3984 3.6016-15.602 3.6016-20.398-7.1992-9.6016-20.398-18-40.801-15.602-62.398 1.1992-16.801-4.8008-31.199-16.801-43.199-28.801-28.801-56.398-56.398-86.398-84-8.3984-8.3984-19.199-15.602-30-20.398-20.398-8.3984-32.398-25.199-48-42 6-3.6016 9.6016-8.3984 13.199-8.3984 42 0 79.199 12 110.4 38.398 37.199 31.199 61.199 72 79.199 116.4 2.3984 4.8008 3.6016 9.6016 3.6016 15.602 3.6016 32.395 7.1992 63.594 10.801 97.195z"/>
 <path d="m289.2 74.398c-1.1992 16.801-13.199 18-22.801 20.402-51.602 16.801-94.801 49.199-133.2 86.398-13.199 12-21.602 30-32.398 44.398-3.6016 6-7.1992 12-13.199 15.602-3.6016 2.3984-10.801 4.8008-13.199 2.3984-2.3984-1.1992-4.8008-9.6016-3.6016-13.199 10.801-25.199 20.398-50.398 43.199-68.398 25.199-20.398 50.398-40.801 76.801-60 27.598-19.199 61.199-26.398 98.398-27.602z"/>
 <path d="m1126.8 949.2c-1.1992 9.6016-1.1992 19.199-2.3984 27.602-4.8008 27.602-14.398 54-34.801 74.398-19.199 19.199-37.199 39.602-57.602 57.602-12 12-26.398 24-46.801 19.199-4.8008-14.398 1.1992-25.199 12-31.199 36-18 55.199-54 84-79.199 4.8008-3.6016 6-12 8.3984-18 6-14.398 9.6016-30 16.801-44.398 2.3984-4.8008 10.801-8.3984 16.801-12 1.1992 2.3984 2.4023 3.5977 3.6016 5.9961z"/>
 <path d="m94.801 1036.8c24 19.199 46.801 36 69.602 54 3.6016 3.6016 7.1992 10.801 6 15.602-2.3984 9.6016-10.801 8.3984-16.801 4.8008-20.398-12-40.801-22.801-60-37.199-16.801-13.203-15.602-18.004 1.1992-37.203z"/>
 <path d="m141.6 70.801c-3.6016 4.8008-6 9.6016-10.801 14.398-13.199 13.199-26.398 25.199-39.602 38.398-7.1992 8.4023-14.398 13.203-25.199 1.2031 13.199-32.398 39.602-46.801 69.602-57.602 2.3984 1.1992 3.5977 2.4023 6 3.6016z"/>
 <path d="m1086 104.4c6-8.3984 9.6016-14.398 14.398-22.797 8.3984 8.3984 16.801 14.398 22.801 21.602 2.3984 3.6016 2.3984 12 1.1992 13.199-3.6016 3.6016-12 6-15.602 3.6016-8.3984-2.4023-14.398-9.6055-22.797-15.605z"/>
 <path d="m1089.6 1134c3.6016-20.398 12-27.602 37.199-33.602 1.1992 22.801-13.199 34.801-37.199 33.602z"/>
 <path d="m954 604.8c1.1992 13.199 2.3984 30 3.6016 48 0 3.6016 1.1992 7.1992 1.1992 10.801-9.6016 56.398-22.801 110.4-68.398 150-4.8008 4.8008-10.801 9.6016-14.398 15.602-25.199 40.801-64.801 58.801-106.8 72-26.398 8.3984-52.801 14.398-79.199 19.199-15.602 2.3984-32.398 2.3984-46.801-1.1992-30-8.3984-57.602-1.1992-85.199 7.1992-20.398 6-39.602 13.199-60 19.199-8.3984 2.3984-18 3.6016-26.398 1.1992-34.801-7.1992-70.801-10.801-104.4-27.602-33.602-15.602-66-31.199-96-54-25.199-18-46.801-38.398-62.398-66-8.3984-15.602-18-30-30-43.199-24-28.801-28.801-60-24-96 2.3984-14.398-1.1992-30 1.1992-44.398 2.3984-21.602 6-43.199 13.199-63.602 8.3984-21.602 21.602-42 34.801-61.199 12-18 26.398-33.602 39.602-49.199 16.801-21.602 37.199-39.602 62.398-51.602 46.801-22.801 87.602-54 127.2-88.801 12-10.801 25.199-19.199 37.199-30 30-26.398 64.801-30 103.2-21.602 18 3.6016 36 6 54 7.1992 33.602 3.6016 64.801 15.602 94.801 30 86.398 42 153.6 104.4 194.4 190.8 2.3984 4.8008 3.6016 9.6016 7.1992 14.398 27.598 28.805 34.797 67.203 29.996 112.8zm-26.398 6c1.1992-15.602 1.1992-25.199 2.3984-34.801 2.3984-19.199-1.1992-34.801-16.801-46.801-6-6-12-13.199-15.602-21.602-28.801-68.398-85.199-111.6-142.8-154.8-4.8008-3.6016-10.801-6-16.801-8.3984-25.199-9.6016-49.199-18-74.398-26.398-14.398-4.8008-28.801-13.199-44.398-16.801-25.199-6-51.602-9.6016-78-13.199-10.801-1.1992-24-1.1992-33.602 2.3984-21.602 9.6016-45.602 18-62.398 33.602-25.199 21.602-50.398 39.602-76.801 58.801-19.199 14.398-37.199 28.801-61.199 36-8.3984 3.6016-16.801 9.6016-24 15.602-33.602 28.801-63.602 62.398-87.602 100.8-16.801 27.602-27.602 56.398-22.801 90 1.1992 7.1992-1.1992 15.602-2.3984 24-1.1992 7.1992-3.6016 15.602-2.3984 22.801 12 57.598 48 100.8 84 144 0 1.1992 1.1992 1.1992 2.3984 1.1992 50.398 38.398 108 61.199 169.2 75.602 45.602 10.801 91.199 16.801 136.8-4.8008 28.801-13.199 61.199-14.398 93.602-8.3984 15.602 3.6016 31.199 2.3984 46.801 0 38.398-3.6016 74.398-18 110.4-32.398 19.199-8.3984 34.801-19.199 48-36 9.6016-12 19.199-25.199 31.199-36 28.801-28.801 37.199-66 40.801-103.2 1.1992-21.605-2.3984-44.402-3.5977-61.203z"/>
 <path d="m858 594c-3.6016 19.199-8.3984 33.602-8.3984 46.801 1.1992 37.199-10.801 70.801-28.801 102-3.6016 7.1992-9.6016 13.199-15.602 18-32.398 24-66 45.602-105.6 57.602-10.801 3.6016-19.199 3.6016-30-3.6016-15.602-12-32.398-12-51.602-12-38.398 1.1992-70.801 18-106.8 26.398-32.398 7.1992-61.199 2.3984-88.801-13.199-9.6016-4.8008-18-10.801-27.602-14.398-39.602-15.602-64.801-45.602-86.398-80.398-4.8008-7.1992-9.6016-14.398-14.398-22.801-26.398-40.801-28.801-82.801-14.398-128.4 4.8008-12 8.3984-25.199 12-37.199 8.3984-36 36-57.602 63.602-76.801 18-12 39.602-19.199 60-26.398 24-8.3984 43.199-20.398 62.398-37.199 36-32.398 81.602-44.398 129.6-44.398 51.602 0 92.398 25.199 129.6 56.398 28.801 24 52.801 54 79.199 81.602 14.398 15.602 25.199 33.602 28.801 55.199 3.5977 20.395 9.5977 38.395 13.199 52.793zm-265.2-201.6c-39.602 1.1992-78 9.6016-108 36-27.602 24-58.801 38.398-91.199 50.398-40.801 14.398-70.801 40.801-85.199 82.801-1.1992 3.6016-2.3984 7.1992-4.8008 9.6016-14.398 24-15.602 48-8.3984 75.602 18 68.398 52.801 120 120 145.2 8.3984 3.6016 16.801 4.8008 25.199 8.3984 22.801 9.6016 45.602 10.801 69.602 6 38.398-7.1992 78-15.602 116.4-20.398 12-1.1992 25.199 0 36 4.8008 18 7.1992 34.801 6 51.602 0 9.6016-3.6016 20.398-7.1992 28.801-13.199 21.602-14.398 46.801-27.602 62.398-46.801 28.801-34.801 25.199-80.398 27.602-123.6 1.1992-16.801-4.8008-34.801-9.6016-51.602-3.6016-10.801-7.1992-22.801-14.398-30-30-34.801-62.398-67.199-99.602-93.602-36.004-26.395-73.203-43.195-116.4-39.598z"/>
 <path d="m595.2 738c-13.199-2.3984-30 3.6016-46.801 12-25.199 13.199-54 15.602-82.801 12-69.602-8.3984-136.8-105.6-84-182.4 8.3984-12 15.602-22.801 22.801-36 10.801-21.602 28.801-32.398 52.801-32.398 22.801 0 39.602-12 56.398-26.398 6-4.8008 12-10.801 18-15.602 31.199-31.199 69.602-32.398 110.4-25.199 3.6016 1.1992 7.1992 1.1992 9.6016 3.6016 24 19.199 50.398 36 72 57.602 18 18 28.801 40.801 27.602 69.602-1.1992 22.801 3.6016 45.602-1.1992 68.398-7.1992 34.801-24 60-57.602 75.602-31.199 11.992-58.797 21.59-97.199 19.191zm16.801-28.801c14.398-2.3984 30-3.6016 43.199-8.3984 36-14.398 74.398-27.602 74.398-76.801 0-19.199-1.1992-38.398-6-56.398-3.6016-13.199-12-27.602-22.801-37.199-12-13.199-27.602-24-43.199-34.801-7.1992-4.8008-15.602-8.3984-24-9.6016-36-7.1992-68.398-2.3984-96 24-19.199 18-43.199 31.199-69.602 34.801-25.199 3.6016-42 18-58.801 36-28.801 32.398-19.199 91.199 4.8008 116.4 38.398 40.801 82.801 39.602 121.2 24 26.406-10.801 49.203-20.398 76.805-12z"/>
 <path d="m657.6 565.2c2.3984 28.801-6 50.398-19.199 70.801-9.6016 15.602-24 24-42 20.398-15.602-3.6016-32.398-9.6016-46.801-16.801-7.1992-3.6016-12-12-15.602-20.398-10.801-24-2.3984-44.398 13.199-62.398 15.602-18 36-22.801 57.602-15.602 18 6 34.801 15.602 52.801 24zm-15.602 25.199c-20.398-15.602-42-27.602-68.398-24-15.602 2.3984-24 12-25.199 26.398-1.1992 14.398 4.8008 25.199 19.199 30 36 13.203 57.598 13.203 74.398-32.398z"/>
</svg>
