<?xml version="1.0" encoding="UTF-8"?>
<svg width="1200pt" height="1200pt" version="1.1" viewBox="0 0 1200 1200" xmlns="http://www.w3.org/2000/svg">
 <path d="m1140 600c-18 15.602-24-2.3984-33.602-7.1992-7.1992 9.6016-3.6016 18-2.3984 26.398 12 51.602 12 102-1.1992 153.6-8.3984 33.602-18 68.398-24 102-13.199 62.398-50.398 105.6-98.398 144-50.398 39.602-104.4 67.199-166.8 80.398-19.199 3.6016-37.199 12-55.199 18-42 14.398-84 16.801-127.2 4.8008-37.199-10.801-75.602-18-112.8-27.602-85.199-20.398-162-57.602-224.4-120-55.199-55.199-110.4-110.4-163.2-168-15.602-16.801-26.398-39.602-37.199-60-25.199-48-38.398-99.602-31.199-154.8 3.6016-22.801 2.3984-45.602 4.8008-68.398 2.3984-42 14.398-81.602 30-120 25.199-64.801 52.801-128.4 88.801-188.4 33.602-58.801 82.801-99.602 147.6-121.2 27.602-9.6016 55.199-16.801 82.801-24 13.199-3.6016 27.602-3.6016 42-3.6016 44.398 2.3984 88.801 6 134.4 9.6016 74.398 6 144 30 207.6 69.602 54 33.602 106.8 67.199 157.2 105.6 74.398 57.602 138 124.8 165.6 218.4 6 21.602 9.6016 44.398 12 67.199 1.1875 23.996 2.3906 44.398 4.7891 63.598zm-988.8-127.2c-12 9.6016-8.3984 24-8.3984 37.199-2.3984 45.602-13.199 90 2.3984 135.6 9.6016 27.602 20.398 55.199 32.398 82.801 3.6016 8.3984 10.801 14.398 16.801 21.602-1.1992-13.199-4.8008-24-9.6016-33.602-14.398-27.602-24-56.398-27.602-87.602-2.3984-20.398-2.3984-42-4.8008-62.398-1.1992-19.199 1.1992-38.398-10.801-55.199 3.6055-13.203 6.0078-25.203 9.6055-38.402 3.6016-13.199 7.1992-27.602 9.6016-40.801 16.801-27.602 25.199-58.801 27.602-91.199-10.801 21.602-19.199 44.398-28.801 67.199-2.3984 8.3984-8.3984 16.801 1.1992 24-10.801 12-14.402 25.199-9.6016 40.801zm856.8 102c-2.3984-42-8.3984-82.801-28.801-118.8-15.602-30-34.801-58.801-50.398-88.801-28.801-55.199-79.199-88.801-130.8-118.8-40.801-22.801-82.801-43.199-123.6-63.602-37.199-19.199-75.602-33.602-118.8-24-14.398 3.6016-30 3.6016-44.398 6-39.602 7.1992-79.199 16.801-114 39.602-27.602 18-54 39.602-80.398 60-19.199 14.398-34.801 32.398-43.199 55.199-9.6016 26.398-19.199 52.801-28.801 79.199-6 16.801-13.199 33.602-13.199 50.398-1.1992 43.199 1.1992 86.398 2.3984 128.4 0 56.398 20.398 108 51.602 152.4 46.801 67.199 103.2 127.2 175.2 168 44.398 26.398 88.801 52.801 130.8 82.801 26.398 19.199 55.199 30 87.602 31.199 21.602 1.1992 43.199 3.6016 66 4.8008 50.398 3.6016 96-8.3984 130.8-48 4.8008-6 10.801-12 16.801-16.801 31.199-24 46.801-54 45.602-92.398 0-4.8008 1.1992-8.3984 2.3984-13.199 3.6016-45.602 7.1992-91.199 10.801-136.8 1.1992-8.3984-2.3984-18-3.6016-27.602-4.8008 2.3984-7.1992 4.8008-7.1992 7.1992-6 40.801-26.398 74.398-56.398 102-38.398 34.801-78 68.398-116.4 103.2-28.801 25.199-63.602 38.398-102 36-32.398-2.3984-63.602-9.6016-96-15.602-22.801-4.8008-46.801-6-66-15.602-48-24-91.199-55.199-128.4-96-42-46.801-69.602-100.8-96-156s-26.398-109.2 1.1992-164.4c6-12 10.801-26.398 12-39.602 9.6016-78 52.801-133.2 120-169.2 79.199-42 163.2-67.199 254.4-66 33.602 1.1992 62.398 12 87.602 30 9.6016 7.1992 16.801 18 25.199 26.398 19.199 20.398 38.398 40.801 56.398 62.398 20.398 25.199 39.602 51.602 60 76.801 24 32.398 50.398 63.602 72 97.199 17.992 21.613 27.594 48.016 39.594 72.016zm-531.6 237.6c32.398 30 62.398 52.801 99.602 62.398 36 9.6016 74.398 14.398 111.6 20.398 20.398 3.6016 38.398-2.3984 55.199-13.199 37.199-22.801 67.199-52.801 96-85.199 34.801-38.398 45.602-84 38.398-134.4-4.8008-30-9.6016-58.801-16.801-87.602-12-42-26.398-84-39.602-126-7.1992-21.602-18-39.602-36-52.801-15.602-10.801-31.199-22.801-45.602-36-27.602-24-60-33.602-96-40.801-64.801-12-127.2 1.1992-188.4 20.398-22.801 7.1992-36 24-48 43.199-13.199 21.602-25.199 44.398-38.398 66-6 10.801-12 21.602-14.398 33.602-6 20.398-4.8008 40.801 7.1992 62.398 10.801-12 14.398-24 18-37.199 6-24 19.199-43.199 38.398-57.602 19.199-15.602 39.602-28.801 61.199-40.801 28.801-18 58.801-32.398 93.602-33.602 20.398-1.1992 40.801 3.6016 60 2.3984 25.199-1.1992 40.801 10.801 52.801 30 15.602 24 31.199 49.199 50.398 69.602 27.602 30 51.602 62.398 70.801 97.199 18 31.199 32.398 64.801 36 100.8 2.3984 22.801 0 44.398-10.801 63.602-22.801 38.398-60 61.199-98.398 81.602-15.602 8.3984-33.602 9.6016-51.602 3.6016-21.602-7.1992-43.199-7.1992-64.801-4.8008-40.801 3.6016-82.801 7.1992-122.4-7.1992-2.3984-1.1953-7.1992 0.003907-18 0.003907zm153.6-243.6c39.602 18 54 62.398 36 96-4.8008 9.6016-10.801 18-16.801 26.398-15.602 21.602-37.199 31.199-63.602 30-27.602-1.1992-50.398-13.199-72-28.801-32.398-22.801-61.199-49.199-84-82.801-3.6016-4.8008-9.6016-9.6016-14.398-14.398-14.398 27.602-14.398 33.602 4.8008 52.801 9.6016 9.6016 19.199 18 28.801 26.398 51.602 40.801 108 70.801 168 97.199 37.199 16.801 73.199 15.602 110.4 6 19.199-4.8008 22.801-8.3984 24-28.801 3.6016-34.801-7.1992-66-20.398-98.398-21.602-50.398-49.199-97.199-72-146.4-10.801-24-28.801-39.602-54-48-19.199-6-38.398-13.199-58.801-16.801-27.602-4.8008-52.801 1.1992-69.602 25.199-9.6016 13.199-18 26.398-27.602 38.398-13.199 18-12 34.801-2.3984 54 25.199 51.602 63.602 90 110.4 120 10.801 7.1992 24 9.6016 37.199 10.801 31.199 3.6016 52.801-21.602 46.801-52.801-3.5977-19.195-7.1953-40.797-10.797-65.996zm-280.8 345.6c3.6016 7.1992 4.8008 9.6016 6 10.801 61.199 67.199 138 108 224.4 130.8 37.199 9.6016 74.398 19.199 112.8 27.602 12 2.3984 26.398 3.6016 38.398 0 40.801-12 80.398-25.199 120-38.398 39.602-14.398 76.801-34.801 106.8-64.801 16.801-16.801 25.199-36 25.199-56.398-15.602 15.602-30 28.801-44.398 43.199-75.602 73.199-164.4 103.2-268.8 90-8.3984-1.1992-18-3.6016-26.398-2.3984-50.398 2.3984-93.602-15.602-132-45.602-38.398-30-80.398-52.801-124.8-73.199-9.5977-6.0039-20.398-12.004-37.199-21.605zm-139.2-616.8c1.1992 1.1992 3.6016 2.3984 4.8008 2.3984 14.398-13.199 27.602-26.398 42-38.398 15.602-12 33.602-22.801 49.199-33.602 15.602-10.801 30-24 45.602-36 16.801-12 33.602-21.602 51.602-32.398 15.602-9.6016 36-10.801 51.602-27.602-10.801-2.3984-18-4.8008-25.199-4.8008-38.398-3.6016-76.801 0-114 14.398-15.602 6-30 14.398-39.602 28.801-19.199 30-37.199 61.199-54 93.602-4.8047 9.6016-8.4023 21.602-12.004 33.602zm190.8 378c-7.1992 38.398 3.6016 62.398 34.801 81.602 37.199 21.602 78 34.801 121.2 37.199 3.6016 0 8.3984-2.3984 16.801-6-32.398-19.199-61.199-34.801-87.602-52.801-28.801-18-55.199-38.402-85.199-60zm237.6-410.4c-54-32.398-193.2-1.1992-217.2 45.602 36-9.6016 70.801-19.199 106.8-27.602 34.801-8.3984 72-7.1992 110.4-18zm384 508.8h4.8008c8.3984-27.602 9.6016-55.199-1.1992-84-1.1992 27.602-2.3984 56.398-3.6016 84z"/>
</svg>
