<?xml version="1.0" encoding="UTF-8"?>
<svg width="1200pt" height="1200pt" version="1.1" viewBox="0 0 1200 1200" xmlns="http://www.w3.org/2000/svg">
 <path d="m262.8 409.2c-13.199 12-15.602 26.398-18 40.801-2.3984 19.199-10.801 37.199-22.801 52.801-13.199 16.801-22.801 18-37.199 3.6016-30-30-60-60-88.801-91.199-15.602-15.602-13.199-27.602 8.3984-40.801 32.398 27.602 64.801 55.199 100.8 85.199 4.8008-13.199 8.3984-25.199 13.199-37.199 3.6016-12 8.3984-22.801 10.801-34.801 7.1992-28.801 7.1992-28.801 34.801-37.199 24 16.797 48 33.598 66 57.598 13.199 18 34.801 26.398 58.801 36 1.1992-19.199 2.3984-37.199 3.6016-54 2.3984-24 3.6016-48 7.1992-70.801 3.6016-24 20.398-32.398 42-21.602 27.602 14.398 52.801 32.398 80.398 46.801 24 13.199 49.199 22.801 78 36 4.8008-20.398 8.3984-38.398 13.199-56.398 4.8008-19.199 12-37.199 18-55.199 3.6016-9.6016 10.801-12 19.199-9.6016 9.6016 2.3984 12 10.801 8.3984 19.199-16.801 34.801-19.199 73.199-24 110.4-1.1992 7.1992-3.6016 13.199-7.1992 19.199-9.6016 15.602-13.199 18-30 10.801-36-15.602-72-32.398-108-50.398-18-8.3984-34.801-19.199-57.602-31.199-2.3984 20.398-7.1992 36-7.1992 52.801 0 24 1.1992 48 4.8008 70.801 2.3984 16.801-3.6016 28.801-14.398 37.199-12 8.3984-22.801-1.1992-33.602-8.3984-37.199-26.398-73.199-52.801-109.2-78-3.5977 0-6-1.2031-9.5977-2.4023z"/>
 <path d="m376.8 1140c-27.602-6-54-10.801-80.398-16.801-14.398-3.6016-28.801-7.1992-43.199-12-25.199-7.1992-36-26.398-24-50.398 13.199-25.199 30-46.801 46.801-69.602 6-8.3984 13.199-15.602 21.602-26.398-34.801-14.398-64.801-26.398-96-39.602-10.801-4.8008-21.602-7.1992-32.398-12-27.602-10.801-30-34.801-8.3984-56.398 22.801-24 45.602-49.199 67.199-74.398 2.3984-2.3984 3.6016-6 6-12-27.602-10.801-55.199-16.801-81.602-22.801-27.602-6-49.199-22.801-72-43.199 7.1992-8.3984 14.398-15.602 22.801-25.199 44.398 32.398 98.398 30 146.4 42 33.602 8.3984 40.801 26.398 22.801 55.199-19.199 30-40.801 57.602-68.398 80.398-7.1992 6-12 13.199-20.398 22.801 15.602 6 27.602 10.801 40.801 16.801 28.801 13.199 56.398 24 87.602 28.801 30 4.8008 38.398 27.602 20.398 51.602-14.398 19.199-31.199 38.398-46.801 57.602-9.6016 12-18 22.801-30 38.398 24 6 43.199 10.801 62.398 16.801 15.602 4.8008 32.398 9.6016 46.801 15.602 13.191 4.793 21.59 14.395 11.992 34.793z"/>
 <path d="m673.2 687.6c-13.199 19.199-24 37.199-36 54-6 9.6016-13.199 19.199-20.398 27.602-14.398 15.602-36 14.398-51.602 0-22.801-24-43.199-49.199-55.199-80.398-3.6016-8.3984-9.6016-16.801-15.602-27.602-30 12-37.199 49.199-70.801 57.602 0-7.1992-2.3984-14.398 0-19.199 8.3984-14.398 16.801-30 27.602-40.801 16.801-15.602 36-28.801 55.199-40.801 16.801-10.801 21.602-8.3984 30 9.6016 10.801 24 20.398 49.199 30 73.199 8.3984 18 8.3984 18 28.801 31.199 18-10.801 25.199-31.199 34.801-48 10.801-20.398 25.199-36 43.199-49.199 15.602-10.801 20.398-9.6016 31.199 4.8008 15.602 20.398 27.602 43.199 43.199 63.602 18 22.801 37.199 44.398 58.801 69.602 14.398-13.199 27.602-25.199 40.801-38.398 14.398-15.602 28.801-31.199 43.199-46.801 0-1.1992 1.1992-1.1992 2.3984-2.3984 10.801-9.6016 26.398-13.199 31.199-6 9.6016 12-1.1992 19.199-6 27.602-10.801 18-25.199 31.199-42 43.199-14.398 12-25.199 30-37.199 44.398-9.6016 12-18 24-36 24-14.398 0-25.199-3.6016-34.801-15.602-28.801-36-64.801-66-86.398-106.8 0.003906-2.4062-2.3984-3.6094-8.3984-8.4062z"/>
 <path d="m1026 482.4c-24 15.602-46.801 31.199-69.602 44.398-22.801 13.199-45.602 25.199-70.801 39.602-32.398-48-33.602-103.2-52.801-153.6-37.199 3.6016-64.801 28.801-102 38.398 0-8.3984-3.6016-14.398-1.1992-19.199 7.1992-12 14.398-25.199 24-33.602 9.6016-8.3984 24-12 36-15.602 19.199-3.6016 34.801-8.3984 48-25.199 7.1992-10.801 18-8.3984 22.801 3.6016 6 13.199 8.3984 26.398 12 40.801 7.1992 27.602 13.199 55.199 20.398 82.801 1.1992 7.1992 4.8008 13.199 7.1992 21.602 54-19.199 96-56.398 142.8-90 4.8008 8.3984 8.3984 14.398 10.801 20.398 15.602 46.801 28.801 94.801 56.398 136.8 15.602 22.801 8.3984 33.602-22.801 50.398-12-22.801-26.398-44.398-37.199-67.199-9.5977-23.996-15.598-49.195-23.996-74.398z"/>
 <path d="m644.4 1130.4c18-24 37.199-48 58.801-75.602-52.801-12-105.6 1.1992-158.4-8.3984-10.801-42 26.398-68.398 36-108-46.801-2.3984-90-4.8008-135.6-7.1992-9.6016-14.398 3.6016-22.801 10.801-32.398 6-9.6016 14.398-10.801 25.199-7.1992 15.602 4.8008 32.398 10.801 49.199 12 18 1.1992 36-2.3984 55.199-4.8008 10.801-1.1992 22.801-3.6016 33.602-3.6016 14.398 1.1992 18 12 10.801 25.199-14.398 25.199-30 49.199-44.398 74.398-2.3984 4.8008-4.8008 10.801-7.1992 20.398 27.602-3.6016 51.602-9.6016 75.602-10.801 28.801-1.1992 57.602 0 86.398 1.1992 13.199 1.1992 19.199 12 13.199 25.199-8.3984 16.801-18 34.801-31.199 49.199-16.801 19.199-37.199 34.801-55.199 52.801-7.2031 8.4062-13.203 12.008-22.805-2.3945z"/>
 <path d="m976.8 118.8c40.801 3.6016 80.398-4.8008 121.2-6 3.6016 0 8.3984-1.1992 10.801 1.1992 4.8008 3.6016 10.801 7.1992 12 12s-3.6016 13.199-7.1992 14.398c-14.398 4.8008-28.801 8.3984-43.199 10.801-21.602 3.6016-43.199 7.1992-67.199 10.801 7.1992 18 12 31.199 18 45.602 2.3984 7.1992 6 14.398 8.3984 22.801 8.3984 33.602 3.6016 40.801-30 42-33.602 1.1992-64.801-10.801-99.602-27.602 32.398-14.398 61.199-3.6016 92.398-4.8008-7.1992-19.199-14.398-36-21.602-52.801-10.797-25.199-11.996-46.801 6.0039-68.398z"/>
 <path d="m981.6 1021.2c7.1992-8.3984 15.602-14.398 21.602-22.801 19.199-22.801 38.398-45.602 57.602-68.398 1.1992-1.1992 2.3984-3.6016 3.6016-4.8008 9.6016-9.6016 25.199-14.398 30-8.3984 10.801 12-1.1992 19.199-7.1992 26.398-19.199 24-37.199 49.199-58.801 72-13.199 14.398-31.199 26.398-48 36-14.398 8.3984-28.801 2.3984-32.398-12-7.1992-32.398-31.199-57.602-44.398-87.602-4.8008-9.6016-7.1992-20.398-13.199-36 32.398 4.8008 42 27.602 55.199 44.398 14.391 19.203 22.789 39.605 35.992 61.203z"/>
 <path d="m223.2 170.4c19.199 10.801 33.602 19.199 51.602 21.602 10.801 1.1992 22.801 2.3984 33.602 6 4.8008 1.1992 10.801 7.1992 10.801 12s-6 10.801-10.801 13.199c-6 2.3984-13.199 2.3984-20.398 1.1992-34.801-1.1992-67.199-9.6016-100.8-21.602-3.6016-15.602-1.1992-28.801 7.1992-43.199 14.398-22.801 26.398-48 39.602-72 6-9.6016 14.398-18 21.602-25.199 2.3984-2.3984 10.801-2.3984 14.398 0 4.7969 2.4023 5.9961 9.6016 4.7969 13.203-6 13.199-12 25.199-19.199 37.199-10.801 19.199-20.402 37.199-32.402 57.598z"/>
</svg>
