<?xml version="1.0" encoding="UTF-8"?>
<svg width="1200pt" height="1200pt" version="1.1" viewBox="0 0 1200 1200" xmlns="http://www.w3.org/2000/svg">
 <path d="m1140 406.8c-12-6-22.801-10.801-32.398-14.398-10.801 16.801-21.602 34.801-32.398 50.398-4.8008 7.1992-6 13.199-1.1992 21.602 7.1992 12 14.398 22.801 21.602 36 12 21.602 22.801 44.398 32.398 67.199 2.3984 6 3.6016 12 4.8008 21.602-25.199-12-34.801-33.602-48-50.398-13.199-16.801-25.199-33.602-39.602-52.801-16.801 14.398-31.199 26.398-46.801 40.801 22.801 36 44.398 69.602 67.199 104.4 6-2.3984 13.199-4.8008 18-6 19.199 19.199 18 19.199 8.3984 42-2.3984 6-2.3984 14.398-1.1992 21.602 1.1992 8.3984 3.6016 18 7.1992 28.801-7.1992-1.1992-10.801-1.1992-13.199-2.3984-13.199-8.3984-22.801-3.6016-30 7.1992-8.3984 12-18 24-25.199 36-3.6016 4.8008-6 14.398-3.6016 18 12 25.199 26.398 49.199 40.801 75.602 14.398-8.3984 25.199-15.602 37.199-22.801 7.1992 13.199 2.3984 24-1.1992 33.602-7.1992 19.199-16.801 37.199-24 56.398-6 13.199-15.602 22.801-30 20.398-21.602-3.6016-34.801 8.3984-52.801 22.801 10.801 16.801 21.602 33.602 32.398 51.602 28.801-7.1992 45.602-39.602 78-32.398 2.3984 18-12 24-19.199 32.398-16.801 16.801-28.801 34.801-37.199 57.602-6 16.801-14.398 33.602-37.199 32.398-7.1992 0-14.398 7.1992-21.602 12-7.1992 4.8008-13.199 10.801-19.199 16.801-8.3984 7.1992-18 4.8008-26.398 0-9.6016-6-4.8008-15.602 0-22.801 7.1992-10.801 14.398-21.602 22.801-31.199 7.1992-9.6016 9.6016-18 2.3984-27.602-9.6016-14.398-19.199-28.801-30-44.398-19.199 14.398-37.199 27.602-56.398 42 12 18 22.801 33.602 33.602 49.199 0 2.3984 0 3.6016-1.1992 4.8008-21.602 32.398-42 36-67.199 0-20.398-28.801-39.602-60-58.801-90-7.1992-10.801-15.602-19.199-22.801-27.602-27.602 8.3984-43.199 27.602-60 44.398-9.6016 9.6016-20.398 18-32.398 25.199-21.602 13.199-46.801 16.801-72 21.602-7.1992 1.1992-18-6-22.801-12-15.602-18-28.801-38.398-43.199-57.602-4.8008-7.1992-9.6016-14.398-15.602-22.801-19.199 14.398-37.199 27.602-55.199 40.801 3.6016 7.1992 6 12 9.6016 15.602 16.801 14.398 14.398 31.199 6 49.199-7.1992 14.398-16.801 15.602-27.602 2.3984-8.3984-10.801-16.801-21.602-25.199-32.398-13.199 8.3984-24 15.602-33.602 22.801-12 8.3984-22.801 8.3984-34.801-1.1992-15.602-13.199-18-20.398-4.8008-36 8.3984-12 19.199-21.602 31.199-34.801-16.801-27.602-38.398-50.398-58.801-78-33.602 15.602-52.801 44.398-76.801 73.199 24 32.398 46.801 66 69.602 97.199-20.398 28.801-31.199 31.199-52.801 8.3984-20.398-21.602-39.602-44.398-61.199-68.398-21.602 10.801-45.602 18-56.398 44.398-34.801-12-51.602-40.801-68.398-69.602-1.1992-2.3984 0-7.1992 2.3984-8.3984s7.1992-2.3984 9.6016-1.1992c6 3.6016 10.801 8.3984 15.602 13.199 6 6 9.6016 14.398 16.801 24 16.801-18 28.801-30 38.398-43.199 3.6016-3.6016 3.6016-13.199 0-18-8.3984-16.801-18-33.602-27.602-49.199-6-8.3984-13.199-14.398-21.602-20.398-20.398-13.199-24-24-13.199-46.801 3.6016-7.1992 3.6016-15.602 4.8008-24 0-7.1992 0-13.199-1.1992-22.801 9.6016 3.6016 15.602 6 24 8.3984 15.602-16.801 32.398-33.602 49.199-51.602 6-7.1992 7.1992-13.199 1.1992-20.398-10.801-12-20.398-25.199-31.199-38.398-21.602 15.602-42 30-61.199 43.199-26.398-18-28.801-32.398-9.6016-54 8.3984-8.3984 16.801-16.801 25.199-25.199 8.3984-8.3984 8.3984-16.801 3.6016-27.602-7.1992-15.602-13.199-31.199-18-48-3.6016-12-2.3984-21.602 8.3984-32.398 24-25.199 44.398-54 69.602-84-14.398-18-20.398-43.199-42-62.398-10.801 7.1992-20.398 13.199-30 19.199-16.801-12-19.199-18-14.398-33.602-3.6055-6.0039-1.207-10.805 2.3945-14.402 19.199-15.602 22.801-32.398 7.1992-52.801 0-1.1992-1.1992-1.1992-1.1992-2.3984 0-4.8008 1.1992-10.801 2.3984-15.602 4.8008 1.1992 10.801 0 14.398 2.3984 7.1992 4.8008 13.199 12 21.602 19.199 31.199-28.801 61.199-56.398 94.801-87.602-12-13.199-21.602-25.199-34.801-39.602-13.199 13.199-26.398 22.801-36 34.801-13.199 14.398-31.199 21.602-48 27.602-2.3984 1.1992-7.1992-2.3984-15.602-3.6016 22.801-31.199 56.398-49.199 78-81.602-10.801-14.398-21.602-28.801-32.398-43.199-12-16.801-21.602-36-12-57.602 3.6016-7.1992 9.6016-12 14.398-19.199 25.199 27.602 49.199 52.801 72 78 33.602-28.801 63.602-56.398 97.199-85.199 18 20.398 33.602 38.398 48 56.398 42.004-20.395 84.004-40.793 126-61.195 19.199 25.199 37.199 48 57.602 74.398 9.6016-8.3984 16.801-14.398 22.801-21.602 8.3984-8.3984 16.801-16.801 27.602-24 27.602-19.199 57.602-14.398 79.199 9.6016 9.6016 12 20.398 24 30 34.801 1.1992 1.1992 3.6016 1.1992 6 2.3984 19.199-14.398 38.398-28.801 58.801-43.199 0-13.199-12-26.398 2.3984-38.398 10.801 0 19.199 7.1992 26.398 15.602 15.602 18 30 36 44.398 52.801 8.3984 9.6016 16.801 19.199 27.602 31.199 20.398-18 43.199-31.199 57.602-51.602 12-15.602 27.602-20.398 45.602-31.199 1.1953 10.801 5.9961 19.199 5.9961 26.402-3.6016 30 15.602 46.801 37.199 67.199l45.602-45.602c7.1992-7.1992 14.398-15.602 21.602-21.602 3.5977-3.5977 9.5977-5.9961 15.598-8.3984 6 20.398 4.8008 38.398-7.1992 52.801-10.801 15.602-24 30-36 43.199-14.398 16.801-14.398 15.602-2.3984 34.801 26.398 43.199 52.801 86.398 78 129.6 8.3984 14.398 17.996 28.797 15.598 49.199zm-478.8 447.6c-38.398 31.199-75.602 60-104.4 98.398 21.602 27.602 42 54 64.801 82.801 32.398-38.398 62.398-74.398 93.602-112.8-16.805-22.797-34.805-44.398-54.004-68.398zm-93.598-129.6c-12 10.801-21.602 20.398-32.398 28.801-20.398 15.602-40.801 31.199-61.199 46.801-7.1992 6-14.398 12-8.3984 21.602 14.398 22.801 27.602 46.801 48 69.602 33.602-30 64.801-57.602 97.199-84 8.3984-7.1992 8.3984-15.602 2.3984-22.801-14.402-20.406-28.805-38.406-45.602-60.004zm-369.6-268.8c37.199-31.199 70.801-61.199 105.6-90-16.801-20.398-30-38.398-43.199-55.199-40.801 22.801-72 51.602-103.2 86.398 13.195 18 26.398 37.199 40.797 58.801zm217.2 291.6c37.199-27.602 70.801-51.602 108-79.199-15.602-21.602-27.602-42-50.398-57.602-32.398 26.398-64.801 52.801-99.602 80.398 15.602 20.402 27.602 37.199 42 56.402zm-91.199-122.4c36-27.602 69.602-54 104.4-80.398-13.199-21.602-22.801-40.801-40.801-56.398-36 27.602-75.602 48-105.6 84 14.402 17.996 26.402 33.598 42.004 52.797zm30 271.2c21.602 27.602 39.602 54 63.602 75.602 20.398-18 39.602-33.602 58.801-50.398-18-27.602-34.801-52.801-52.801-79.199-22.801 17.996-44.402 34.797-69.602 53.996zm628.8-186c12-10.801 19.199-19.199 27.602-26.398 15.602-15.602 16.801-16.801 4.8008-34.801-15.602-25.199-32.398-50.398-49.199-74.398-3.6016-4.8008-8.3984-9.6016-14.398-15.602-12 9.6016-22.801 18-32.398 26.398-7.1992 6-8.3984 13.199-3.6016 20.398 21.594 33.605 43.195 67.203 67.195 104.4zm12-453.6c-8.3984 10.801-14.398 18-20.398 25.199-9.6016 12-9.6016 21.602 0 34.801 19.199 26.398 37.199 54 55.199 80.398 3.6016 6 9.6016 10.801 15.602 18 15.602-14.398 28.801-26.398 43.199-39.602-32.402-39.598-61.203-77.996-93.602-118.8zm-624-57.602c-30 19.199-46.801 46.801-70.801 69.602 16.801 20.398 31.199 39.602 45.602 57.602 24-14.398 61.199-52.801 69.602-72-14.402-18.004-28.805-36.004-44.402-55.203zm567.6 139.2c-16.801 20.398-31.199 37.199-46.801 55.199 25.199 30 48 58.801 72 88.801 16.801-13.199 32.398-24 48-37.199-23.996-36-46.797-68.398-73.199-106.8zm-22.797 433.2c-19.199-55.199-43.199-100.8-61.199-114-12 14.398-25.199 30-37.199 45.602-3.6016 4.8008-4.8008 14.398-2.3984 18 18 27.602 38.398 54 60 84 15.594-12.004 28.797-22.805 40.797-33.602zm-87.602 69.598c-13.199-28.801-46.801-75.602-63.602-88.801-16.801 14.398-33.602 30-51.602 46.801 19.199 27.602 37.199 51.602 56.398 79.199 21.605-13.199 39.605-24 58.805-37.199zm-518.4-3.5977c26.398-22.801 50.398-42 75.602-63.602-12-15.602-21.602-30-33.602-44.398-8.3984-10.801-19.199-10.801-28.801-2.3984-16.801 14.398-33.602 28.801-50.398 43.199-7.1992 6-7.1992 13.199-1.1992 20.398 11.996 14.398 23.996 30 38.398 46.801zm-104.4 110.4c22.801-25.199 42-45.602 62.398-67.199 8.3984-9.6016 7.1992-19.199-1.1992-26.398-10.801-10.801-22.801-21.602-36-34.801-20.398 20.398-40.801 38.398-58.801 58.801-3.6016 3.6016-3.6016 13.199-1.1992 18 9.6016 16.797 21.602 32.398 34.801 51.598zm565.2-415.2c-18 19.199-40.801 30-54 52.801 18 24 36 46.801 54 70.801 22.801-15.602 36-36 49.199-58.801-15.598-20.402-31.199-40.801-49.199-64.801zm-130.8 31.199c-16.801-22.801-31.199-43.199-49.199-66-21.602 21.602-40.801 40.801-62.398 61.199 16.801 20.398 32.398 38.398 49.199 58.801 22.797-19.199 41.996-36 62.398-54zm172.8 380.4c15.602 24 25.199 49.199 46.801 67.199 21.602-16.801 40.801-31.199 61.199-48-15.602-24-30-45.602-46.801-70.801-22.797 18.004-40.797 33.602-61.199 51.602zm-526.8-292.8c-10.801-18-21.602-36-39.602-51.602-20.398 19.199-38.398 37.199-56.398 55.199-6 6-12 14.398-6 22.801 10.801 14.398 19.199 32.398 37.199 42 21.598-21.602 42-43.199 64.801-68.398zm-27.602-115.2c37.199-30 72-58.801 106.8-87.602-10.801-16.801-16.801-31.199-31.199-39.602-33.602 31.199-67.199 62.398-102 93.602 8.3984 10.805 16.797 20.402 26.398 33.602zm414 206.4c21.602-16.801 39.602-32.398 58.801-46.801-14.398-28.801-31.199-50.398-52.801-74.398-18 20.398-33.602 38.398-50.398 58.801 12 17.996 26.398 38.398 44.398 62.398zm-187.2-548.4c-15.602-28.801-30-55.199-48-87.602-1.1992 26.398-16.801 38.398-31.199 50.398-3.6016 3.6016-8.3984 7.1992-10.801 10.801-2.3984 4.8008-3.6016 13.199 0 16.801 14.398 16.801 25.199 38.398 46.801 51.602 14.398-14.398 30-28.797 43.199-42zm367.2 234c-10.801 12-20.398 20.398-26.398 30-3.6016 6-4.8008 18-1.1992 24 15.602 22.801 32.398 45.602 52.801 66 15.602-13.199 30-24 46.801-37.199-24.004-27.598-46.805-52.801-72.004-82.801zm-79.199-187.2c20.398-16.801 37.199-32.398 55.199-48-18-25.199-33.602-48-50.398-70.801-16.801 22.801-32.398 43.199-49.199 63.602 15.598 19.199 28.797 36 44.398 55.199zm-258 144c-26.398 22.801-49.199 43.199-73.199 64.801 14.398 16.801 22.801 34.801 42 48 21.602-20.398 42-40.801 63.602-61.199-10.805-18-20.402-32.402-32.402-51.602zm164.4 31.199c-19.199 18-37.199 33.602-55.199 50.398 16.801 21.602 32.398 40.801 45.602 57.602 19.199-19.199 36-37.199 55.199-55.199-14.402-16.801-28.801-33.598-45.602-52.801zm-412.8-196.8c21.602-24 42-45.602 64.801-70.801-9.6016-14.398-19.199-30-30-48-6 4.8008-10.801 7.1992-14.398 10.801-10.801 13.199-20.398 27.602-32.398 39.602-34.801 33.602-22.801 31.199 1.1992 61.199 1.1992 2.3984 3.5977 3.5977 10.797 7.1992zm186 80.398c-22.801 27.602-56.398 36-73.199 67.199 8.3984 13.199 16.801 28.801 32.398 37.199 22.801-22.801 45.602-44.398 69.602-67.199-9.5977-12-18-21.598-28.801-37.199zm411.6-57.602c-18 19.199-33.602 34.801-49.199 51.602 12 21.602 24 38.398 42 52.801 13.199-14.398 25.199-28.801 38.398-43.199 6-7.1992 6-13.199 0-20.398-9.5977-12.004-18-24.004-31.199-40.805zm-43.199 146.4c-15.602-20.398-28.801-37.199-42-55.199-19.199 10.801-33.602 21.602-45.602 38.398 16.801 18 28.801 38.398 50.398 55.199 13.203-13.199 25.203-25.199 37.203-38.398zm-192-26.402c-14.398-15.602-26.398-30-39.602-46.801-16.801 15.602-32.398 30-46.801 43.199 14.398 26.398 22.801 36 39.602 46.801 14.398-13.199 28.801-27.598 46.801-43.199zm1.1992-231.6c-20.398 19.199-37.199 34.801-56.398 52.801 10.801 13.199 21.602 26.398 34.801 42 15.602-14.398 30-25.199 43.199-38.398 3.6016-3.6016 4.8008-13.199 2.3984-18-6-12.004-15.602-24.004-24-38.402zm375.6 771.6c-19.199-26.398-34.801-50.398-52.801-76.801-12 10.801-22.801 21.602-34.801 32.398 19.199 25.199 37.199 46.801 55.199 69.602 10.801-9.5977 21.602-16.797 32.402-25.199zm-276-626.4c-12-19.199-22.801-36-40.801-49.199-15.602 14.398-30 27.602-45.602 42 14.398 15.602 26.398 30 40.801 45.602 16.801-13.203 31.199-25.203 45.602-38.402zm165.6-68.398c13.199 19.199 21.602 36 40.801 48 9.6016-12 19.199-22.801 27.602-33.602 2.3984-2.3984 3.6016-7.1992 2.3984-9.6016-8.3984-14.398-8.3984-32.398-26.398-45.602-13.203 13.203-27.602 26.402-44.402 40.805zm-752.4 418.8c26.398-21.602 50.398-40.801 75.602-61.199-10.801-12-18-22.801-28.801-36-12 15.602-20.398 28.801-30 39.602-10.801 10.801-22.801 19.199-36 31.199 6 8.3984 12 16.801 19.199 26.398zm361.2-307.2c18-16.801 33.602-31.199 49.199-46.801-12-12-20.398-21.602-30-33.602-16.801 15.602-32.398 28.801-48 43.199 9.6016 13.203 18 22.805 28.801 37.203z"/>
</svg>
