<?xml version="1.0" encoding="UTF-8"?>
<svg width="1200pt" height="1200pt" version="1.1" viewBox="0 0 1200 1200" xmlns="http://www.w3.org/2000/svg">
 <path d="m321.6 242.4c12 6 24 12 34.801 20.398 40.801 27.602 70.801 62.398 88.801 109.2 2.3984 6 4.8008 12 2.3984 16.801-7.1992 27.602-9.6016 57.602-28.801 81.602-20.398 26.398-16.801 51.602 12 68.398 16.801 10.801 32.398 20.398 32.398 44.398s-20.398 38.398-42 27.602c-27.602-14.398-46.801-37.199-49.199-69.602-3.6016-44.398-1.1992-88.801 25.199-127.2 3.6016-6 6-14.398 9.6016-20.398 6-10.801 3.6016-20.398-3.6016-28.801-9.6016-10.801-19.199-21.602-30-31.199-16.801-16.801-33.602-33.602-50.398-50.398-13.199-15.598-13.199-20.398-1.1992-40.801z"/>
 <path d="m652.8 592.8c2.3984 7.1992 7.1992 13.199 8.3984 20.398 4.8008 32.398 4.8008 64.801-8.3984 94.801-7.1992 18-7.1992 25.199 9.6016 36 13.199 8.3984 26.398 15.602 42 18 37.199 8.3984 58.801 37.199 52.801 82.801-1.1992 7.1992-2.3984 13.199-6 19.199-7.1992 14.398-19.199 16.801-27.602 4.8008-16.801-24-40.801-32.398-66-38.398-38.398-8.3984-49.199-40.801-61.199-72-1.1992-3.6016 0-8.3984 1.1992-12 2.3984-6 3.6016-13.199 7.1992-19.199 18-34.801 28.801-70.801 32.398-109.2 1.1992-8.3984 6-16.801 9.6016-25.199 1.1992-0.003907 3.5977-0.003907 6-0.003907z"/>
 <path d="m427.2 109.2c16.801 42 61.199 60 100.8 38.398 16.801-8.3984 33.602-16.801 52.801-15.602 26.398 2.3984 50.398 19.199 55.199 42 3.6016 16.801 3.6016 34.801-12 51.602-4.8008-6-8.3984-9.6016-10.801-14.398-20.398-30-48-36-79.199-18-8.3984 4.8008-16.801 10.801-25.199 18-9.6016 9.6016-21.602 13.199-34.801 13.199-31.199 0-57.602-13.199-78-37.199-7.1992-8.3984-6-21.602-7.1992-33.602-1.1992-6 1.1992-12 2.3984-18 1.1992-21.598 9.6016-28.797 36-26.398z"/>
 <path d="m811.2 271.2c16.801-33.602-8.3984-67.199-34.801-76.801-8.3984-3.6016-18-6-26.398-9.6016-9.6016-3.6016-12-10.801-7.1992-20.398 8.3984-16.801 19.199-21.602 37.199-15.602 4.8008 1.1992 9.6016 3.6016 14.398 4.8008 43.199 19.199 60 45.602 52.801 92.398-6 38.398 7.1992 66 34.801 90 7.1992 6 15.602 7.1992 24 12 7.1992 3.6016 14.398 4.8008 20.398 9.6016 8.3984 7.1992 8.3984 15.602 2.3984 24-18 25.199-54 40.801-88.801 3.6016-10.801-12-21.602-26.398-30-40.801-4.8008-7.1992-7.1992-18-6-26.398 2.4023-16.801 6.0039-33.602 7.2031-46.801z"/>
 <path d="m241.2 294c36 33.602 42 85.199 12 120-16.801 20.398-38.398 26.398-63.602 20.398-12-2.3984-22.801-6-34.801-9.6016-12-4.8008-19.199-2.3984-25.199 9.6016-9.6016 18-20.398 36-28.801 54-3.6016 7.1992-3.6016 16.801-7.1992 24-2.3984 6-6 14.398-9.6016 15.602-9.6016 2.3984-14.398-6-15.602-15.602-3.6016-24-1.1992-48 12-69.602 9.6016-16.801 22.801-32.398 32.398-48 14.398-22.801 33.602-31.199 60-27.602 14.398 1.1992 28.801 1.1992 43.199-2.3984 20.398-4.8008 21.602-8.3984 19.199-28.801-1.1914-14.395-4.793-28.797 6.0078-41.996z"/>
 <path d="m774 465.6c-9.6016 20.398-25.199 26.398-40.801 30-13.199 3.6016-26.398 6-39.602 9.6016-21.602 7.1992-40.801 1.1992-55.199-15.602-10.801-14.398-19.199-31.199-27.602-48-4.8008-9.6016-7.1992-21.602-13.199-30-21.598-26.402-21.598-37.203-57.598-20.402-3.6016 1.1992-8.3984 1.1992-12 1.1992-1.1992-2.3984-3.6016-3.6016-3.6016-4.8008 2.3984-39.602 82.801-61.199 108-31.199 16.801 20.398 36 38.398 37.199 67.199 0 4.8008 2.3984 9.6016 4.8008 14.398 9.6016 25.199 22.801 32.398 49.199 31.199 16.801 0.003907 31.203-2.3945 50.402-3.5938z"/>
 <path d="m1072.8 416.4c8.3984 26.398 1.1992 44.398-8.3984 58.801-13.199 20.398-28.801 37.199-44.398 55.199-3.6016 4.8008-10.801 8.3984-18 9.6016-22.801 3.6016-45.602 9.6016-67.199 8.3984-31.199-1.1992-49.199 20.398-52.801 44.398-1.1992 8.3984-2.3984 16.801-1.1992 25.199 4.8008 20.398-3.6016 38.398-10.801 56.398-2.3984 6-9.6016 12-15.602 13.199-9.6016 1.1992-14.398-7.1992-15.602-16.801-7.1992-64.801 19.199-132 80.398-165.6 9.6016-4.8008 21.602-4.8008 32.398-6 13.199-1.1992 25.199 0 38.398-1.1992 27.602-3.6016 49.199-18 61.199-43.199 6.0039-10.793 12.004-21.594 21.605-38.395z"/>
 <path d="m498 699.6c22.801 22.801 15.602 62.398-14.398 76.801-25.199 12-51.602 21.602-81.602 14.398-10.801-2.3984-21.602-1.1992-32.398 0-20.398 3.6016-28.801 14.398-30 34.801-1.1992 13.199 1.1992 25.199-1.1992 38.398 0 4.8008-6 9.6016-10.801 12-2.3984 1.1992-8.3984-4.8008-10.801-8.3984-13.199-26.398-4.8008-82.801 13.199-104.4 18-21.602 43.199-27.602 69.602-22.801 42 5.9961 74.398-8.4023 98.398-40.801z"/>
 <path d="m457.2 908.4c10.801-10.801 19.199-4.8008 25.199 0 25.199 21.602 50.398 43.199 48 79.199-1.1992 30 14.398 43.199 38.398 52.801 9.6016 4.8008 20.398 7.1992 31.199 12 10.801 4.8008 22.801 8.3984 32.398 15.602 22.801 14.398 20.398 45.602-4.8008 56.398-3.6016 2.3984-9.6016 1.1992-14.398 0-34.801-10.801-66-27.602-92.398-51.602-15.602-14.398-18-34.801-14.398-51.602 8.3984-40.801-9.6016-68.398-36-96-3.5977-5.9961-7.1992-10.797-13.199-16.797z"/>
 <path d="m873.6 818.4c19.199 6 39.602 10.801 58.801 16.801 15.602 4.8008 30 3.6016 44.398-2.3984 31.199-12 74.398 10.801 88.801 38.398 6 12 3.6016 27.602 3.6016 42 0 7.1992-6 13.199-8.3984 20.398-18-14.398-33.602-27.602-49.199-39.602-20.398-15.602-42-26.398-70.801-13.199-21.602 9.6016-44.398 3.6016-63.602-6-25.203-11.996-25.203-34.797-3.6016-56.398z"/>
 <path d="m60 709.2c49.199-7.1992 79.199-37.199 98.398-78 19.199-38.398 55.199-57.602 96-46.801 20.398 4.8008 24 10.801 20.398 37.199h-28.801c-25.199-1.1992-43.199 8.3984-52.801 31.199-4.8008 10.801-9.6016 21.602-15.602 32.398-16.801 33.602-51.602 42-80.398 56.398-21.594 12.008-33.594 0.007812-37.195-32.395z"/>
 <path d="m111.6 1106.4c-10.801-19.199-12-36-1.1992-50.398 13.199-19.199 30-37.199 45.602-55.199 8.3984-8.3984 18-8.3984 30-7.1992 45.602 4.8008 97.199-20.398 96-72 0-4.8008 2.3984-8.3984 4.8008-13.199 21.602 21.602 25.199 34.801 13.199 58.801-13.199 28.801-30 51.602-63.602 55.199-7.1992 1.1992-14.398 6-21.602 7.1992-7.1992 2.3984-16.801 4.7969-22.801 2.3984-24-9.6016-25.199-2.3984-37.199 14.398-10.801 14.398-18 32.398-27.602 48-3.5977 3.6016-9.5977 7.2031-15.598 12z"/>
 <path d="m1138.8 200.4c-10.801-4.8008-20.398-7.1992-28.801-12-24-15.602-46.801-15.602-70.801 1.1992-12 8.3984-25.199 14.398-38.398 19.199-26.398 10.801-55.199-8.3984-55.199-37.199 0-16.801 20.398-33.602 34.801-25.199 25.199 15.602 46.801 8.3984 69.602-2.3984 18-8.3984 34.801-14.398 56.398-7.1992 27.598 12 37.199 26.398 32.398 63.598z"/>
 <path d="m988.8 1095.6c-7.1992-6-12-8.3984-14.398-12-7.1992-7.1992-13.199-15.602-19.199-24-18-28.801-57.602-28.801-86.398-13.199-18 9.6016-37.199 18-56.398 21.602-32.398 7.1992-48-9.6016-46.801-44.398 12-7.1992 25.199-6 36 1.1992 14.398 8.3984 28.801 7.1992 43.199 0 9.6016-4.8008 19.199-7.1992 27.602-12 20.398-12 40.801-9.6016 62.398-6 18 2.3984 33.602 12 42 30 7.1953 16.797 13.195 34.797 11.996 58.797z"/>
 <path d="m175.2 75.602c32.398 31.199 32.398 73.199 1.1992 110.4-22.801 27.602-54 30-88.801 6-1.1992-16.801 10.801-27.602 22.801-36 9.6016-6 20.398-9.6016 30-14.398 16.801-9.6016 27.602-21.602 28.801-42 0-7.2031 3.6016-15.602 6-24z"/>
 <path d="m92.398 844.8c21.602 2.3984 42 4.8008 61.199 6 14.398 1.1992 26.398 2.3984 37.199 12 13.199 10.801 13.199 20.398-1.1992 31.199-31.199 25.199-78 16.801-98.398-18-3.5977-7.1992-3.5977-15.602 1.1992-31.199z"/>
 <path d="m422.4 1107.6c-12-4.8008-25.199-9.6016-36-15.602-26.398-15.602-50.398-8.3984-75.598 0-8.3984 3.6016-18 9.6016-24-2.3984-4.8008-9.6016-2.3984-19.199 7.1992-26.398 33.602-26.398 96-20.398 122.4 13.199 6 7.1992 8.3984 16.801 12 25.199-2.3984 2.3984-4.7969 3.5977-6 6z"/>
 <path d="m942 693.6c-8.3984-14.398-1.1992-21.602 9.6016-27.602 21.602-12 92.398-4.8008 111.6 12 2.3984 1.1992 2.3984 3.6016 4.8008 7.1992-2.3984 13.199-13.199 12-21.602 9.6016-34.801-14.402-68.402-10.801-104.4-1.1992z"/>
</svg>
