<?xml version="1.0" encoding="UTF-8"?>
<svg width="1200pt" height="1200pt" version="1.1" viewBox="0 0 1200 1200" xmlns="http://www.w3.org/2000/svg">
 <path d="m472.8 453.6c-79.199-79.199-79.199-79.199-103.2-129.6-27.602-2.3984-56.398-4.8008-88.801-7.1992-3.6016 26.398-7.1992 49.199-10.801 73.199-3.6016 25.199-7.1992 50.398-13.199 74.398-3.6016 14.398-1.1992 26.398 3.6016 39.602 12 33.602 20.398 68.398 18 103.2-1.1992 16.801-3.6016 33.602-6 51.602-3.6016 24-8.3984 48-10.801 72-2.3984 18 2.3984 32.398 18 45.602 33.602 30 38.398 70.801 37.199 111.6 0 4.8008-1.1992 10.801-2.3984 15.602-4.8008 27.602-7.1992 54-1.1992 82.801 7.1992 34.801 2.3984 70.801-14.398 103.2-2.3984 4.8008-7.1992 9.6016-12 16.801-14.398-28.801 2.3984-60-10.801-87.602-4.8008 2.3984-8.3984 2.3984-10.801 4.8008-24 20.398-50.398 18-75.602 4.8008-18-9.6016-36-21.602-50.398-36-19.199-20.398-19.199-39.602 1.1992-63.602 16.801-19.199 37.199-33.602 56.398-50.398 30 14.398 56.398 28.801 85.199 43.199 1.1992-4.8008 6-12 6-19.199 2.3984-28.801-6-55.199-22.801-79.199-10.801-15.602-21.602-18-39.602-12-38.398 14.398-69.602-1.1992-98.398-21.602-19.199-9.6055-19.199-34.805-4.8008-49.207 15.602-16.801 32.398-31.199 50.398-46.801 16.801 10.801 33.602 21.602 51.602 33.602 19.199-27.602 26.398-57.602 25.199-88.801-2.3984-33.602-10.801-66-26.398-96-7.1992-13.199-14.398-15.602-28.801-12-25.199 7.1992-50.398 6-75.602-1.1992-31.199-8.3984-52.801-26.398-57.602-61.199-2.3984-16.801 2.3984-31.199 12-43.199 14.398-20.398 32.398-38.398 45.602-55.199 50.398 3.6016 79.199 34.801 109.2 70.801 4.8008-9.6016 8.3984-14.398 8.3984-18 3.6016-30 8.3984-58.801 10.801-88.801 2.3984-20.398 0-24-18-30-28.801-10.801-52.801-30-76.801-49.199-40.801-33.602-40.801-91.199-12-129.6 9.6016-13.199 22.801-25.199 37.199-40.801 25.199 27.602 49.199 52.801 72 81.602 10.801 13.199 18 28.801 24 45.602s16.801 25.199 32.398 27.602c18 2.3984 36 3.6016 54 6 14.398 2.3984 20.398-3.6016 26.398-16.801 26.398-61.199 94.801-111.6 159.6-123.6 10.801 10.801 19.199 21.602 30 30 12 8.3984 15.602 19.199 14.398 32.398-4.8008 38.398-18 74.398-42 104.4-9.6016 12-27.602 19.199-43.199 25.199-16.801 6-34.801 9.6016-51.602 13.199 7.1992 25.199 42 57.602 79.199 74.398 13.199-9.6016 26.398-19.199 40.801-28.801 57.602-42 152.4-36 201.6 9.6016 18 18 24 37.199 14.398 58.801-8.3984 20.398-20.398 39.602-34.801 57.602-13.199 16.801-32.398 22.801-52.801 22.801-61.199 0-121.2-9.6016-178.8-27.602-4.8008-1.1992-8.3984-2.3984-12-3.6016-22.801 28.801-20.398 84 6 122.4 10.801-6 22.801-13.199 34.801-18 32.398-14.398 66-27.602 102-20.398 10.801 2.3984 22.801 6 33.602 12 19.199 9.6016 31.199 25.199 31.199 48 0 34.801-8.3984 67.199-30 93.602-7.1992 9.6016-19.199 19.199-30 21.602-42 8.3984-84 12-124.8-7.1992-20.398-9.6016-38.398-24-50.398-44.398-2.3984-4.8008-6-8.3984-10.801-13.199-6 4.8008-13.199 7.1992-15.602 12-16.801 33.602-32.398 67.199-21.602 106.8 6 20.398 8.3984 40.801 13.199 61.199 6 27.602 62.398 97.199 88.801 110.4 4.8008 2.3984 9.6016 3.6016 15.602 6 3.6016 1.1992 7.1992 0 14.398 1.1992 0-8.3984 2.3984-16.801 1.1992-24-7.1992-56.398 4.8008-72 64.801-105.6 6-3.6016 13.199-4.8008 20.398-8.3984 28.801-12 54 1.1992 56.398 31.199 4.8008 50.398 4.8008 99.602-28.801 142.8-1.1992 2.3984-2.3984 4.8008-4.8008 10.801 6 4.8008 13.199 10.801 20.398 14.398 42 18 84 33.602 129.6 40.801 34.801 6 68.398-1.1992 100.8-12 9.6016-3.6016 20.398-8.3984 22.801-22.801-4.8008 0-8.3984-2.3984-12-1.1992-20.398 7.1992-39.602 3.6016-57.602-4.8008-22.801-10.801-45.602-22.801-66-37.199-25.199-18-21.602-58.801 4.8008-79.199 19.199-15.602 42-25.199 66-30 9.6016-2.3984 21.602 1.1992 30 6 37.199 22.801 78 40.801 94.801 84 22.801 1.1992 39.602-6 50.398-24 8.3984-13.199 19.199-26.398 26.398-40.801 13.199-26.398 13.199-52.801-1.1992-79.199-9.6016-18-21.602-36-33.602-52.801-9.6016-13.199-22.801-18-40.801-10.801-20.398 8.3984-40.801 15.602-62.398 18-10.801 1.1992-26.398-6-36-14.398-12-12-21.602-26.398-30-42-3.6016-6-4.8008-15.602-2.3984-20.398 9.6172-15.602 19.219-31.203 31.219-43.203 21.602-20.398 48-13.199 70.801-1.1992 21.602 12 40.801 26.398 61.199 40.801 26.398 18 57.602 6 62.398-25.199 7.1992-54 1.1992-104.4-32.398-152.4-13.199 3.6016-27.602 7.1992-40.801 9.6016-46.801 9.6016-91.199-14.398-110.4-57.602-6-12-4.8008-22.801 3.6016-32.398 16.801-20.398 38.398-36 63.602-44.398 22.801-8.3984 44.398-2.3984 62.398 15.602 13.199 13.199 24 26.398 37.199 39.602 8.3984-13.199 18-57.602 18-78 0-40.801-9.6016-78-33.602-112.8-34.801-51.602-84-72-144-72-1.1992 0-3.6016 0-4.8008 1.1992-1.1992 1.1992-2.3984 2.3984-7.1992 4.8008 4.8008 8.3984 10.801 18 14.398 27.602 6 15.602 13.199 31.199 18 48 6 24-6 39.602-25.199 52.801-16.801 12-34.801 10.801-54 2.3984-50.398-24-66-67.199-39.602-117.6 2.3984-3.6016 3.6016-8.3984 6-15.602-28.801-8.3984-57.602-15.602-85.199-22.801 33.602-14.398 66-24 102-15.602 16.801 4.8008 31.199 1.1992 48-1.1992 84-14.398 141.6 2.3984 190.8 68.398 42 56.398 50.398 118.8 38.398 186-4.8008 25.199-12 50.398-16.801 76.801-1.1992 6 1.1992 14.398 3.6016 20.398 31.199 56.398 26.398 115.2 12 175.2-2.3984 10.801-8.3984 21.602-15.602 31.199-7.1992 10.801-15.602 19.199-25.199 30 6 9.6016 10.801 19.199 15.602 27.602 34.801 58.801 30 115.2-7.1992 170.4-7.1992 10.801-14.398 20.398-22.801 30-14.398 16.801-30 31.199-52.801 37.199-16.801 4.8008-28.801 13.199-38.398 31.199-18 32.398-46.801 54-82.801 67.199-51.602 18-102 20.398-154.8 2.3984-15.602-4.8008-31.199-9.6016-46.801-13.199-28.801-6-55.199-18-78-36-12-9.6016-22.801-12-37.199-10.801-21.602 0-43.199 0-64.801-2.3984-30-3.6016-52.801-18-67.199-46.801-12-25.199-30-48-44.398-70.801-2.3984-3.6016-4.8008-6-4.8008-9.6016-8.3984-44.398-25.199-88.801-20.398-133.2s24-86.398 54-120c18-20.398 24-39.602 13.199-63.602-10.801-25.199-13.199-50.398-4.8008-76.801 2.3984-10.801 6-20.398 10.801-30 3.6016-16.793 10.801-28.793 16.801-40.793zm60 180c6 22.801 21.602 36 39.602 44.398 25.199 12 51.602 16.801 79.199 15.602 24-1.1992 36-20.398 24-40.801-4.8008-9.6016-14.398-19.199-25.199-22.801-39.602-18-78.004-10.801-117.6 3.6016zm358.8-342c28.801 1.1992 39.602-13.199 28.801-37.199-8.3984-18-19.199-32.398-36-43.199-10.801-7.1992-18-6-26.398 3.6016-14.398 15.602-15.602 33.602-8.3984 52.801 7.1953 21.594 26.395 21.594 41.996 23.996zm-325.2 116.4c56.398 16.801 108 28.801 165.6 24-28.801-38.398-112.8-51.602-165.6-24zm106.8 514.8c1.1992-27.602-7.1992-42-25.199-46.801-16.801-4.8008-26.398 1.1992-26.398 19.199 0 16.801 3.6016 33.602 4.8008 50.398 1.1992 10.801 4.8008 19.199 18 19.199 13.199-1.1992 22.801-4.8008 25.199-19.199 1.1992-9.5977 2.3984-17.996 3.5977-22.797zm382.8-433.2c-14.398-15.602-25.199-28.801-38.398-40.801-10.801-10.801-25.199-12-39.602-7.1992-18 6-22.801 15.602-9.6016 30 21.602 24 40.801 42 87.602 18zm-510-284.4c-10.801-18-18-24-32.398-20.398-24 6-48 15.602-72 24-9.6016 3.6016-14.398 12-9.6016 24 37.199 4.8008 97.199-9.6016 114-27.602zm457.2 534c0-2.3984 1.1992-4.8008 1.1992-8.3984-18-18-39.602-32.398-64.801-40.801-18-6-32.398 7.1992-28.801 22.801 4.8008 19.199 26.398 37.199 45.602 34.801 16.801 0 32.402-4.8008 46.801-8.4023zm-150 193.2c18 28.801 64.801 51.602 93.602 44.398-32.402-19.195-55.199-46.797-93.602-44.398z"/>
</svg>
