<?xml version="1.0" encoding="utf-8" ?><svg xmlns="http://www.w3.org/2000/svg" xmlns:xlink="http://www.w3.org/1999/xlink" width="800" height="1400" viewBox="0 0 800 1400"><path transform="scale(1.04167 1.04167)" d="M169.112 94.7441C184.053 93.6242 200.817 97.2388 213.831 104.383C294.579 148.712 345.691 266.053 372.503 348.032C379.247 278.627 415.169 130.839 487.669 103.232C503.74 97.0767 521.605 97.5993 537.289 104.683C571.713 120.368 594.812 163.295 607.098 197.09C656.687 333.487 648.58 523.024 588.501 654.096C597.355 654.238 604.825 654.714 613.637 655.991C661.288 663.271 704.116 689.123 732.751 727.891C761.806 767.056 772.348 814.845 765.05 862.826C757.587 909.607 731.832 951.505 693.457 979.294C657.313 1005.73 609.134 1019.22 564.63 1012.34C556.213 1021.56 542.522 1032.29 532.638 1039.95C534.41 1043.31 536.588 1046.8 538.624 1050.01C555.565 1076.71 574.636 1101.64 594.488 1126.19L580.764 1136.96C575.567 1131.24 568.675 1122.16 563.896 1116.03C547.17 1094.69 531.638 1072.45 517.371 1049.4C500.744 1058.38 490.48 1063.32 472.578 1069.64C479.677 1087.43 487.006 1105.63 493.276 1123.7C508.975 1170 522.375 1217.05 533.427 1264.67C528.211 1265.61 521.918 1267.24 516.673 1268.46C508.181 1239.92 501.522 1209.14 492.889 1179.82C483.518 1145.98 468.633 1107.1 455.677 1074.6C435.928 1079.37 421.402 1081.32 400.908 1082.21L401.03 1111.97C408.409 1119.72 421.008 1130.35 429.172 1137.47C425.12 1141.83 421.195 1146.3 417.402 1150.88C409.259 1144 400.949 1136.01 392.647 1128.86C385.033 1136.24 377.731 1143.28 370.484 1151.01C366.18 1146.91 362.026 1142.52 357.889 1138.24C366.34 1129.87 374.842 1121.55 383.397 1113.29L383.339 1082.29C364.936 1081.17 347.206 1079.02 329.43 1073.84C322.401 1099.37 308.633 1135.34 299.458 1160.18C287.604 1192.29 274.259 1229.33 260.827 1260.57L244.637 1254.37C268.128 1194.69 293.16 1130.18 312.658 1069.36C293.839 1061.89 282.835 1056.92 265.169 1046.51C252.641 1072.52 219.601 1112.76 201.212 1135C197.352 1132.45 190.817 1126.85 187.409 1123.65C211.538 1096.05 232.272 1069.4 250.379 1037.35C239.185 1027.89 229.712 1018.88 219.142 1009.78C187.155 1016.83 153.835 1014.84 122.914 1004.04C77.3045 988.427 39.8592 955.186 18.9583 911.754C-1.72471 868.636 -4.43225 819.071 11.431 773.957C27.5993 729.013 60.8539 692.263 103.97 671.692C141.099 653.929 189.893 647.725 229.174 661.5C215.759 646.401 204.199 632.91 192.936 615.931C136.578 530.205 104.32 425.875 91.7488 324.687C83.5557 258.741 79.8486 104.838 169.112 94.7441ZM250.986 655.844C265.975 644.754 280.915 637.21 297.803 629.732C330.221 617.234 347.173 614.063 380.989 610.901C381.591 607.383 383.459 597.848 383.186 595.096C382.203 585.217 379.196 574.417 377.353 564.539C374.538 548.676 372.315 532.713 370.687 516.683C368.192 491.813 367.07 466.824 367.326 441.83L367.622 413.72C367.666 410.922 368.161 400.264 367.649 398.291C348.95 326.254 318.797 251.529 276.559 190.058C254.648 158.17 210.204 108.215 168.515 113.685C86.5806 128.91 106.246 313.721 118.463 372.593C135.788 456.08 163.67 539.194 212.097 610.267C222.009 624.936 237.902 644.828 250.986 655.844ZM408.234 611.052C450.034 614.734 481.45 623.221 518.21 644.51C526.572 649.479 532.891 653.466 540.428 659.602C549.618 657.078 557.456 656.038 566.924 654.946C629.825 526.092 636.123 349.547 592.892 213.717C581.936 179.292 549.781 111.233 504.721 117.667C425.695 132.557 391.875 314.871 387.922 381.213C383.488 455.605 385.837 539.306 408.234 611.052Z"/></svg>