<?xml version="1.0" encoding="UTF-8"?>
<svg width="1200pt" height="1200pt" version="1.1" viewBox="0 0 1200 1200" xmlns="http://www.w3.org/2000/svg">
 <path d="m786.71 286.31c-20.391-17.062-46.688-18.703-70.219-29.297-22.547-10.078-41.766-27.703-66.234-33.703-23.859-5.625-45.844 2.7656-66.703 13.688-10.078 5.2969-20.062 11.062-30.609 15-12.703 4.7812-25.312 5.2969-38.766 5.3906-23.391 0.23438-44.625 5.7656-56.531 27.609-11.625 21.234-13.688 46.312-24.375 68.062-11.625 23.766-28.312 43.781-48.609 60.703-11.062 9.375-22.078 18.844-27.609 32.625-4.7812 11.625-4.7812 24.141-2.3906 36.375 5.3906 28.312 23.391 53.156 24.938 82.453 1.2188 22.078-7.5469 42.703-4.9219 65.062 2.8594 24.938 9.8438 51.141 29.625 67.688 0.60938 0.60938 1.2188 1.2188 2.0625 1.7812 0.70312 0.46875 1.3125 0.84375 2.0625 1.2188 13.688 8.0625 29.531 7.4531 43.922 13.781 15.375 6.8438 27.141 18.938 35.859 33.141 3.1406 4.9219 9.9375 5.8594 14.156 1.7812 18.609-17.625 46.688-5.7656 47.531 19.547 0.14062 2.1562 0.70312 3.8438 1.7812 5.2969 3.9375 5.1562 13.453 4.7812 15.938-2.8594 7.6875-24.141 36.469-37.688 60.375-31.078 13.922 3.8438 22.453 15.609 33.844 23.531 5.7656 3.9375 11.859 6.6094 18.703 7.5469 9 1.3125 18.141-1.3125 26.859 0.375 13.688 2.625 22.078 15.844 27.844 27.375 7.7812 15.703 13.078 32.766 19.219 49.078 14.531 38.531 29.062 76.922 43.453 115.31 3.1406 8.2969 14.625 9 17.531 0 14.531-46.453-6.7031-91.453-24.375-133.78-6.2344-14.859-12.375-30.234-16.688-45.938-2.0625-7.7812-3.7031-15.703-4.5469-23.766-3-28.547 5.1562-56.156 15.375-82.547 10.453-27 22.547-53.297 30.938-81 8.2969-27.375 13.922-55.453 17.062-83.859 6.2344-55.078 3.6094-113.86-12-167.29-6.4219-22.078-16.5-44.391-34.5-59.297zm-147.47 82.828c3.1406-5.7656 9.4688-5.3906 13.453-2.1562 1.3125 0.23438 2.625 0.70312 4.0781 1.6875 18.469 13.922 30.609 34.078 32.859 57.375 2.0625 21.469-3 46.453-11.859 66.141-3.375 7.4531-10.219 21.609-19.453 22.781-9.6094 1.3125-17.766-11.297-21.469-18.609-5.0625-10.078-6.8438-21.234-8.5312-32.297-1.6875-10.781-2.8594-21.703-3-32.766-0.375-21.609 3.4688-43.078 13.922-62.156zm-116.62 36.234c2.0625-12.375 5.625-24.469 12.938-34.781 2.625-3.8438 6.7031-4.6875 10.219-3.7031 1.2188-0.14062 2.5312-0.14062 3.8438 0.375 26.391 9.8438 34.547 37.453 34.312 63.375-0.14062 28.547-6.9375 56.531-18.844 82.312-2.625 5.625-10.312 5.3906-14.297 1.9219-19.219-16.922-28.453-41.766-30.469-66.844-1.1719-14.25 0-28.641 2.2969-42.656zm238.78 137.63c-10.688 20.531-13.547 44.297-25.688 64.219-10.547 17.156-24.375 24.703-43.078 30.844-18.375 6-31.688 21.234-50.062 27.469-15.141 5.1562-32.859 5.7656-47.297-1.7812-8.625-4.5469-12.703-12.469-20.062-18.469-7.0781-5.625-16.219-1.5469-23.859 0.60938-14.766 4.2188-30.141 5.2969-41.156-7.0781-10.219-11.391-11.531-30.375-25.688-37.922-8.625-4.6875-17.859-6.1406-25.547-12.609-6.1406-5.0625-10.453-11.625-13.312-18.938-8.1562-20.062-3.375-41.625 1.9219-61.781 2.8594-11.297 20.297-6.4688 17.391 4.7812-4.9219 18.938-12.141 45.703 4.5469 61.312 7.0781 6.4688 17.297 7.6875 25.547 12.375 6.4688 3.7031 11.391 9.2344 15.234 15.703 5.625 9.7031 9.1406 28.688 22.781 29.391 14.156 0.70312 26.859-9.7031 41.531-6 15.234 3.7031 20.156 20.859 35.062 24.938 15.141 4.2188 31.312-1.7812 43.922-10.078 7.5469-4.9219 14.766-10.781 22.922-14.859 7.7812-3.8438 16.312-5.1562 24.141-8.7656 16.078-7.2188 24-24.844 29.297-40.547 3.1406-9.1406 5.7656-18.375 9.2344-27.375 3.1406-8.0625 9.2344-15.844 11.391-24 2.0625-7.6875-3.8438-17.297-4.9219-24.938-1.2188-8.7656-0.70312-17.156 1.2188-25.781 2.3906-11.391 19.781-6.4688 17.391 4.7812-2.8594 13.922 1.4531 23.625 4.3125 36.703 2.2969 10.5-2.4844 18.938-7.1719 27.797z"/>
 <path d="m845.16 268.45c-39.234-55.453-102.38-99-172.22-100.45-17.766-0.375-35.531 2.3906-52.688 7.4531-21.469 6.375-42.375 16.219-65.062 18-37.781 3.1406-80.297-10.922-114.23 12.141-26.156 17.625-35.156 48.609-42 77.766-3.7031 15.609-7.0781 31.547-12.844 46.688-5.8594 15.469-15.469 29.156-26.062 41.766-20.391 24.375-46.078 47.766-54.703 79.312-4.7812 17.625-2.625 35.531 2.8594 52.688 6.7031 20.859 14.531 40.547 17.391 62.391 5.2969 41.531 0.84375 86.531 18.844 125.39 13.078 28.078 39.938 54.469 71.297 60.234 12 2.1562 23.766 0.84375 34.688-3.6094 0.14062 0.14062 0.14062 0.23438 0.23438 0.375 10.219 13.219 20.531 26.531 30.703 39.844 2.7656 3.6094 5.7656 4.7812 10.219 4.2188 12.469-1.7812 23.766-7.3125 33-15.609 14.766 18.141 25.078 39 30.609 61.922 1.3125 5.5312 8.5312 8.5312 13.312 5.3906 21.844-13.922 40.078-32.391 53.531-54.375 7.3125 9.8438 15.609 19.219 25.922 26.062 6.6094 4.4531 14.156 7.5469 22.078 8.5312 4.2188 0.60938 8.1562 0.60938 12.234 0 5.1562-0.70312 11.156-3.4688 16.219-2.625 8.5312 1.3125 14.766 14.531 18.703 21.375 5.3906 9.2344 10.078 19.078 14.062 29.062 7.4531 19.312 12.703 39.375 17.297 59.391 4.5469 19.781 8.625 39.609 13.547 59.297 3.7031 15.141 8.8594 33.844 25.453 39.375 37.219 12.141 58.688-42.938 62.625-70.078 5.8594-40.781-6.375-80.156-22.219-117.23-8.7656-20.531-19.922-40.547-26.391-61.922-3.2344-10.547-4.7812-21.609 0.84375-31.688 5.1562-9.1406 14.531-15.609 22.219-22.688 27.938-26.062 41.391-62.625 50.156-99 9.8438-40.547 16.922-82.312 20.391-123.94 6.8906-80.531-2.1094-167.9-50.016-235.45zm21.984 307.69c-6.6094 35.859-13.219 73.781-30.938 106.22-8.7656 15.938-20.391 27.844-33.703 39.938-13.312 12.234-22.922 26.531-21.844 45.375 0.375 4.7812 1.0781 9.4688 2.2969 14.156 3.6094 13.922 10.312 27.234 16.078 40.078 8.5312 18.844 17.156 37.547 23.766 57.141 11.531 34.312 17.391 74.531 0.70312 108.38-5.625 11.531-25.078 39.469-37.312 18.938-4.0781-6.9375-5.5312-15.609-7.4531-23.391-2.3906-9.8438-4.5469-19.688-6.7031-29.625-7.9219-35.531-15.469-71.531-31.453-104.62-6.7031-14.156-15.938-34.219-30.469-42.141-15.234-8.1562-31.312 4.7812-46.922-2.625-14.859-7.0781-25.312-22.078-34.219-35.391-3.4688-5.2969-12.375-6.4688-15.609 0-10.547 21.141-25.453 39.234-44.156 53.391-5.0625-15.844-12.375-30.703-21.703-44.391-4.7812-7.0781-10.219-13.922-16.078-20.297-3.1406-3.2344-9.8438-3.7031-12.844 0-6.9375 8.625-15.469 13.922-25.688 16.547-8.8594-11.391-17.766-22.922-26.531-34.453-0.9375-1.0781-1.9219-1.9219-3-2.5312 0-6.2344-6.4688-12.375-13.453-8.2969-28.078 16.312-59.391-3-77.156-25.547-24.141-30.703-24-71.531-26.531-108.7-1.3125-19.547-3-39.469-8.0625-58.547-5.0625-18.844-14.859-36.703-17.156-56.156-3.6094-31.688 18.703-57 38.156-79.219 20.297-23.062 38.625-45.844 47.859-75.609 8.5312-27.375 10.781-57.938 25.078-83.297 19.219-33.609 55.781-32.156 89.859-30.234 18.375 1.0781 36.609 1.2188 54.703-3 20.062-4.7812 38.859-13.312 58.922-18.141 64.688-15.609 130.22 16.312 173.86 63 51.609 55.078 69.609 130.45 69.703 204.24 0.09375 39.844-4.8281 79.547-12 118.83z"/>
</svg>
