<?xml version="1.0" encoding="UTF-8"?>
<svg width="1200pt" height="1200pt" version="1.1" viewBox="0 0 1200 1200" xmlns="http://www.w3.org/2000/svg">
 <path d="m893.06 966.61-100.92-214.45c41.062-32.625 65.766-68.062 64.688-95.297-1.3125-32.531-24.609-49.219-46.219-56.531 10.312-24.469 16.781-54.609 14.297-91.688-8.1562-119.77-60.141-243.84-143.29-249-16.312-1.0781-29.156 3.4688-38.625 9.375-16.453-15.938-35.297-27.844-54.844-27.844-22.453 0-38.297 9.1406-48.375 17.531-13.219-10.547-28.453-17.531-45.703-17.531-16.922 0-31.312 10.312-41.625 20.859-30.375-49.078-68.062-93-106.22-93-43.219 0-72.141 29.625-72.141 73.781 0 45.938 31.922 127.55 87.234 209.86-12.469 13.078-30.141 37.922-30.141 74.062 0 35.531 30.141 113.39 94.688 168.14 25.078 21.234 52.688 36.234 82.078 45.234-4.3125 19.078-5.3906 48.938 19.547 73.922 11.531 11.391 32.062 16.453 57 16.453 31.312 0 69.609-8.0625 105.23-20.859l97.312 206.86c9.9375 21.141 30.938 33.609 52.922 33.609 8.2969 0 16.781-1.7812 24.844-5.5312 29.438-13.875 41.906-48.797 28.266-77.953zm-214.69-188.16c-61.078 22.219-117.14 21.844-127.08 11.766-14.062-14.062-13.219-31.688-10.688-42.938 10.781 1.5469 21.703 2.5312 32.859 2.5312 13.453 0 27.141-1.2188 40.922-3.4688 9.1406-1.5469 15.234-10.219 13.688-19.219-1.5469-9.1406-10.219-15.141-19.219-13.688-60.469 10.219-114.7-4.6875-161.39-44.156-57.844-48.938-82.781-118.08-82.781-142.55 0-21 8.7656-36.375 16.453-45.938 19.219 26.062 40.547 51.703 63.938 76.078 3.2344 3.375 7.6875 5.1562 12 5.1562 4.2188 0 8.3906-1.5469 11.625-4.6875 6.6094-6.375 6.8438-17.062 0.375-23.625-104.06-107.77-161.63-240.24-161.63-290.76 0-25.312 14.531-40.453 38.766-40.453 40.547 0 104.77 115.69 137.29 197.76 3.375 8.5312 13.078 12.844 21.703 9.375 8.5312-3.375 12.703-13.078 9.375-21.703-5.8594-14.859-22.219-54.141-44.531-95.297 6.7031-8.3906 16.453-17.859 24-17.859 36.609 0 68.297 69.938 76.547 94.453 2.3906 6.9375 8.8594 11.391 15.844 11.391 1.7812 0 3.6094-0.23438 5.2969-0.84375 8.7656-2.8594 13.453-12.375 10.547-21.141-2.2969-6.9375-15.609-44.766-39.375-75.609 5.5312-4.0781 13.781-8.1562 25.219-8.1562 25.219 0 63.375 53.531 82.453 91.547 2.8594 5.8594 8.8594 9.2344 15 9.2344 2.5312 0 5.0625-0.60938 7.4531-1.7812 8.2969-4.0781 11.625-14.156 7.4531-22.453-4.2188-8.5312-17.062-32.766-34.781-56.297 3.6094-1.3125 8.1562-2.1562 13.781-1.9219 53.766 3.375 104.06 101.16 111.94 217.92 2.7656 40.547-6.6094 71.062-19.547 93.375-0.14062 0.23438-0.23437 0.375-0.375 0.60938-21.844 36.938-53.391 51.469-55.688 52.453-8.3906 3.6094-12.375 13.453-8.7656 21.938 2.7656 6.375 8.8594 10.219 15.375 10.219 2.1562 0 4.4531-0.46875 6.6094-1.3125 0.60938-0.23438 37.219-16.781 65.156-57.609 10.922 2.5312 28.453 9.4688 29.156 27.844 0.46875 12.469-16.922 38.859-50.859 66.469-12.703 10.312-27.609 20.859-44.859 30.844-16.266 9.1875-32.953 16.594-49.266 22.5z"/>
</svg>
