<?xml version="1.0" encoding="UTF-8"?>
<svg width="1200pt" height="1200pt" version="1.1" viewBox="0 0 1200 1200" xmlns="http://www.w3.org/2000/svg">
 <path d="m854.89 596.32c-10.039-6.6914-22.129-9.3242-36.543-7.6719-7.2266-19.387-22.754-34.578-43.41-41.516-18.871-6.4258-38.68-4.6406-55.324 4.3281-7.3164-15.793-20.969-30.52-44.66-34.531-17.891-3.0312-34.422 0.42578-47.895 9.9727l-14.656-276.71c-1.3398-28.977-25.117-51.664-54.145-51.664-29.648 0-53.984 24.137-54.207 53.496l-9.4375 381.69c-0.089844 9.8594-0.625 19.742-1.6055 29.516-20.031-50.305-57.602-108.51-124.81-113.01-17.176-1.4727-32.883 6.918-39.797 20.59-3.3672 6.6484-9.2578 24.449 7.832 44.684 13.273 20.055 51.867 85.172 55.145 120.29 1.9414 20.48 4.3945 43.633 6.582 63.266 3.6367 33.062 17.379 63.578 39.73 88.297l33.93 37.477c3.7266 4.1484 7.5625 8.1641 11.535 12.09l19.387 19.188c10.82 10.707 17.02 25.566 17.02 40.824l0.22266 132.06c0.023437 10.082 8.1875 18.25 18.27 18.25h0.023437c10.105-0.042968 18.27-8.2109 18.25-18.336l-0.22266-132.02c0-24.895-10.152-49.258-27.863-66.746l-19.34-19.188c-3.4375-3.3906-6.8281-6.8711-10.129-10.574l-33.977-37.566c-17.152-18.961-27.707-42.383-30.52-67.773-2.1406-19.453-4.5977-42.43-6.4922-62.641-4.8828-52.199-61.367-137.55-62.352-138.78-2.8789-3.457-3.793-5.6875-4.2617-6.1328 0.78125-0.42578 2.1875-0.98047 4.5977-0.80469 88.141 5.9102 111.5 154.46 111.72 155.98 1.2734 8.5234 8.3867 14.992 17 15.527 8.9688 0.17969 16.441-5.0859 18.695-13.43l5.668-20.793c7.9414-29.312 12.09-59.605 12.312-89.656l9.4375-381.69c0.089844-9.6602 8.0078-17.535 17.668-17.535 9.4609 0 17.199 7.3867 17.645 16.93l17.914 338.28c0.48828 9.4141 8.0547 16.844 17.469 17.266 9.4141 0.42578 17.602-6.4258 18.895-15.75 0.95703-6.8047 6-26.301 17.801-34.914 5.6445-4.1484 12.203-5.3984 20.855-3.9062 21.191 3.5898 21.684 29.312 21.641 32.102-0.13281 8.0977 5.0859 15.281 12.758 17.734 7.7188 2.4297 16.152-0.48828 20.703-7.1836 0.26562-0.37891 1.6055-2.2539 3.9258-4.7969 9.1016-10.039 22.398-13.363 35.426-9.0781 13.164 4.4375 21.73 15.238 23.023 30.629 0.98047 8.2773 7.4492 14.836 15.707 15.973 2.6328 0.37891 6.6914-0.089844 9.2383-0.89453 10.797-3.3672 19.051-3.5703 23.336-0.75781 4.7305 3.168 7.9844 11.934 9.1016 24.652 0.57812 6.7812 0.3125 13.652-0.35547 20.523l-4.6406 49.211c-4.6836 49.391-14.5 98.469-29.18 145.94l-6.5117 21.148c-5.043 16.152-7.5859 32.883-7.5859 49.789l0.22266 190.96c0.042968 10.129 8.2109 18.293 18.293 18.293 10.129-0.042969 18.293-8.2109 18.293-18.293l-0.22266-190.96c0-13.207 1.9648-26.324 5.8906-38.996l6.5117-21.148c15.438-49.836 25.742-101.41 30.695-153.3l4.6406-49.211c0.84766-8.9688 1.1172-18.07 0.35547-27.125-2.1523-24.699-10.672-42.145-25.219-51.871z"/>
 <path d="m556.7 157.7c10.082 0 18.27-8.1875 18.27-18.27v-68.379c0-10.082-8.1875-18.27-18.27-18.27-10.082 0-18.27 8.1875-18.27 18.27v68.375c0 10.086 8.1875 18.273 18.27 18.273z"/>
 <path d="m452.83 179.13c3.5898 4.9062 9.1445 7.5195 14.812 7.5195 3.7266 0 7.4727-1.1367 10.73-3.4805 8.1641-5.9336 9.9727-17.379 4.0391-25.543l-40.199-55.328c-5.957-8.1406-17.336-9.9492-25.543-4.0391-8.1641 5.9336-9.9727 17.379-4.0391 25.543z"/>
 <path d="m341.89 240.39 65.027 21.125c1.875 0.60156 3.7695 0.89453 5.6445 0.89453 7.7188 0 14.879-4.9062 17.379-12.625 3.125-9.5938-2.1406-19.898-11.734-23.023l-65.027-21.125c-9.5469-3.0547-19.922 2.1172-23.023 11.734-3.125 9.5898 2.1406 19.895 11.734 23.02z"/>
 <path d="m347.54 377.21c1.875 0 3.7695-0.28906 5.6445-0.89453l65.027-21.125c9.5938-3.125 14.855-13.43 11.734-23.023-3.0781-9.5703-13.406-14.77-23.023-11.734l-65.027 21.125c-9.5938 3.125-14.855 13.43-11.734 23.023 2.4961 7.7188 9.6602 12.629 17.379 12.629z"/>
 <path d="m771.5 341.56-65.008-21.125c-9.5938-3.0117-19.898 2.1641-23.066 11.734-3.0781 9.5938 2.1406 19.898 11.734 23.023l65.008 21.125c1.875 0.60156 3.793 0.89453 5.668 0.89453 7.7188 0 14.855-4.9062 17.398-12.625 3.0781-9.5977-2.1406-19.906-11.734-23.027z"/>
 <path d="m683.43 249.78c2.543 7.7188 9.6836 12.625 17.398 12.625 1.875 0 3.793-0.28906 5.668-0.89453l65.008-21.125c9.5938-3.125 14.812-13.43 11.734-23.023-3.168-9.5938-13.52-14.746-23.066-11.734l-65.008 21.129c-9.5938 3.125-14.812 13.434-11.734 23.023z"/>
 <path d="m645.75 186.65c5.6445 0 11.223-2.6094 14.793-7.5195l40.199-55.324c5.9336-8.1641 4.1484-19.609-4.0156-25.543-8.1211-5.8906-19.543-4.1484-25.52 4.0391l-40.223 55.324c-5.9336 8.1641-4.1289 19.609 4.0391 25.543 3.2578 2.3438 7.0039 3.4805 10.727 3.4805z"/>
</svg>
