<?xml version="1.0" encoding="UTF-8"?>
<svg width="1200pt" height="1200pt" version="1.1" viewBox="0 0 1200 1200" xmlns="http://www.w3.org/2000/svg">
 <path d="m309.81 236.5c-41.562 47.609-52.898 128.47-26.449 188.93 15.113 34.762 15.871 42.32 6.8008 56.68-38.543 59.703-57.434 143.59-49.121 210.09 7.5586 52.145 43.832 122.43 83.129 160.97 69.527 67.258 215.38 123.18 303.04 114.87 94.465-9.0703 225.2-71.793 275.84-133 75.57-91.441 87.664-226.71 28.719-332.52l-22.672-40.055 13.602-27.961c21.16-43.074 18.895-123.18-6.0469-170.79-23.426-43.832-34.008-49.121-45.344-23.426-5.2891 10.578-35.52 41.562-68.016 68.77-58.191 49.121-59.703 49.879-87.664 42.32-15.871-4.5352-43.074-8.3125-60.457-8.3125-35.52 0-40.809-9.0703-19.648-31.738 18.137-20.402 5.2891-26.449-15.871-6.8008l-17.383 16.625-12.09-18.137c-12.09-18.895-40.055-30.984-46.855-21.16-1.5117 3.0234 6.8008 13.602 18.895 22.672 33.25 24.184 29.473 38.543-9.8242 38.543-17.383 0-43.832 3.0234-58.191 7.5586-32.496 9.0703-44.586 1.5117-118.65-71.793-49.121-49.121-55.922-53.656-65.746-42.32zm18.137 30.23c0 3.7773 29.473 30.984 64.992 61.211 52.145 43.074 68.77 52.898 81.617 49.121 30.23-10.578 201.02-12.848 236.54-4.5352 40.055 10.578 43.832 9.0703 126.96-64.234l55.168-47.609 12.09 30.23c18.137 43.832 15.113 95.977-6.0469 139.05-18.137 34.762-18.137 37.031-6.0469 55.922l12.848 19.648-26.449-19.648c-39.297-28.719-72.547-40.055-123.94-40.055-49.879-0.75391-85.395 10.578-123.18 38.543l-24.184 17.383-35.52-21.914c-47.609-30.23-105.04-42.32-154.92-31.738-40.809 9.0703-77.082 25.695-100.51 45.344-14.359 12.09-14.359 11.336-1.5117-7.5586 12.09-19.648 12.09-21.16-6.8008-55.922-21.914-42.32-24.184-83.129-6.8008-134.52 10.578-30.984 25.695-48.367 25.695-28.719zm206.31 216.89c13.602 6.8008 35.52 21.16 49.121 30.984l25.695 18.895 19.648-18.895c48.367-44.586 112.6-58.945 178.35-40.055 167.77 49.121 188.93 277.35 33.25 355.19-45.344 22.672-104.29 26.449-145.85 9.0703-24.184-10.578-25.695-12.848-18.137-30.23 8.3125-16.625 5.2891-22.672-31.738-64.992l-40.055-46.855-29.473 33.25c-48.367 55.168-52.898 63.48-43.074 81.617 10.578 18.895 11.336 18.137-21.914 29.473-110.34 37.031-231.25-40.809-247.12-159.46-11.336-83.883 49.879-179.86 129.98-205.55 43.074-13.602 105.8-10.578 141.32 7.5586zm102.02 283.39 24.938 27.207-27.961 46.855-27.961 47.609-24.938-40.809c-14.359-21.914-25.695-44.586-25.695-50.633 0-12.09 47.609-68.016 52.898-61.969 2.2656 2.2656 15.113 16.625 28.719 31.738zm-188.93 105.04c20.402 0 52.145-5.2891 69.527-11.336 17.383-6.0469 33.25-11.336 34.762-11.336 1.5117 0 13.602 16.625 26.449 37.785 12.848 20.402 24.938 37.785 26.449 37.785s13.602-16.625 26.449-37.785c12.848-20.402 23.426-37.785 24.184-37.785 0.75391 0 15.113 5.2891 31.738 11.336 35.52 12.848 100.51 14.359 129.23 3.7773 35.52-13.602 28.719-2.2656-13.602 21.914-52.145 30.984-148.88 61.211-192.71 61.211-65.746 0-191.95-43.832-236.54-81.617l-18.895-16.625 27.961 11.336c15.871 6.0469 44.586 11.336 64.992 11.336z"/>
 <path d="m388.4 525.19c-24.184 9.8242-58.945 43.074-72.547 68.77-13.602 26.449-13.602 91.441 0.75391 118.65 24.938 48.367 87.664 81.617 141.32 74.059 117.89-15.871 156.43-179.86 57.434-245.61-33.25-21.16-95.219-29.473-126.96-15.871zm68.016 116.38c7.5586 9.0703 7.5586 13.602 0 22.672-18.895 22.672-46.098 5.2891-34.762-22.672 2.2656-6.0469 9.0703-11.336 14.359-11.336 6.0469 0 15.113 5.2891 20.402 11.336z"/>
 <path d="m717.14 528.21c-52.898 24.938-79.352 65.746-79.352 123.18 0 46.098 12.848 74.816 44.586 102.02 56.68 47.609 128.47 45.344 179.11-5.2891 52.145-52.145 58.945-120.91 17.383-179.86-30.984-43.074-111.85-63.48-161.72-40.055zm68.016 124.69c0 21.914-24.184 30.984-30.984 12.09-6.8008-18.137 3.0234-36.273 17.383-33.25 9.0703 1.5117 13.602 9.0703 13.602 21.16z"/>
</svg>
