<?xml version="1.0" encoding="UTF-8"?>
<svg width="1200pt" height="1200pt" version="1.1" viewBox="0 0 1200 1200" xmlns="http://www.w3.org/2000/svg">
 <path d="m1140 24h-540c-19.875 0-36 16.125-36 36v144h-144c-19.875 0-36 16.125-36 36v144h-144c-19.875 0-36 16.125-36 36v144h-144c-19.875 0-36 16.125-36 36v540c0 19.875 16.125 36 36 36h540c19.875 0 36-16.125 36-36v-144h144c19.875 0 36-16.125 36-36v-144h144c19.875 0 36-16.125 36-36v-144h144c19.875 0 36-16.125 36-36v-540c0-19.875-16.125-36-36-36zm-576 1080h-468v-468h468zm360-360h-108v-324c0-19.875-16.125-36-36-36h-324v-108h468z"/>
</svg>
