<?xml version="1.0" encoding="UTF-8"?>
<svg width="1200pt" height="1200pt" version="1.1" viewBox="0 0 1200 1200" xmlns="http://www.w3.org/2000/svg">
 <path d="m1158 568.78-139.97-80.812 80.812-139.97c9.9375-17.203 4.0312-39.234-13.172-49.172-5.4844-3.1875-11.719-4.8281-18.047-4.8281h-161.63v-161.63c0-19.875-16.078-36-35.953-36.047-6.3281 0-12.562 1.6406-18.047 4.8281l-139.97 80.812-80.812-139.97c-9.9375-17.25-31.922-23.156-49.172-13.219-5.4844 3.1406-10.078 7.6875-13.266 13.219l-80.812 139.97-139.97-80.812c-17.203-9.9375-39.234-4.0312-49.172 13.172-3.1875 5.4844-4.8281 11.719-4.8281 18.047v161.63h-161.63c-19.875 0-36 16.078-36.047 35.953 0 6.3281 1.6406 12.562 4.8281 18.047l80.812 139.97-139.97 80.812c-17.25 9.9375-23.156 31.922-13.219 49.172 3.1406 5.4844 7.6875 10.078 13.219 13.266l139.97 80.812-80.812 139.97c-9.9375 17.203-4.0312 39.234 13.172 49.172 5.4844 3.1875 11.719 4.8281 18.047 4.8281h161.63v161.63c0 19.875 16.078 36 35.953 36.047 6.3281 0 12.562-1.6406 18.047-4.8281l139.97-80.812 80.812 139.97c9.9375 17.25 31.922 23.156 49.172 13.219 5.5312-3.1875 10.078-7.7344 13.219-13.219l80.812-139.97 140.02 80.812c17.203 9.9375 39.234 4.0312 49.172-13.172 3.1875-5.4844 4.8281-11.719 4.8281-18.047v-161.63h161.63c19.875 0 36-16.078 36.047-35.953 0-6.3281-1.6406-12.562-4.8281-18.047l-80.812-139.97 139.97-80.812c17.25-9.9375 23.156-31.922 13.219-49.172-3.1406-5.4844-7.6875-10.078-13.219-13.266z"/>
</svg>
