<?xml version="1.0" encoding="UTF-8"?>
<svg width="1200pt" height="1200pt" version="1.1" viewBox="0 0 1200 1200" xmlns="http://www.w3.org/2000/svg">
 <path d="m882.52 835.5c-5.4844-38.344-2.7188-78-2.4844-116.62 0.375-78.281 0.79688-156.56 1.1719-234.89 0.375-66.281 1.8281-136.4-27.516-197.63-18.891-39.516-60.141-87.984-107.58-93.422-13.406-45.797-30.891-92.109-58.125-130.26-26.953-37.734-75.938-83.766-124.4-52.125-20.484 13.359-37.406 32.344-51.562 52.172-27.234 38.203-44.719 84.469-58.125 130.26-47.438 5.4375-88.641 53.906-107.58 93.422-29.344 61.266-27.844 131.34-27.516 197.63 0.375 78.281 0.79688 156.56 1.1719 234.89 0.1875 38.625 3 78.281-2.4844 116.62-5.2031 36.609-10.172 71.484-9 108.66 2.6719 84.516 11.062 169.08 23.297 252.61 0.65625 4.5 8.0625 4.125 8.0625-0.51562 0.375-35.953 0.9375-71.438-0.98438-107.39-1.9219-35.719-4.5-71.391-6.75-107.11-2.3438-36.844-3.9844-73.828 1.4062-110.44 5.0625-34.266 8.7656-66.609 8.5781-101.3-0.32812-72.938-0.79688-145.87-1.2188-218.76-0.375-67.688-6.375-138.79 8.1562-205.4 7.2188-33.094 20.531-64.734 43.125-90.328 16.172-18.328 34.406-28.922 54.797-37.828-1.125 4.125-2.1562 8.25-3.2344 12.281-15.938 61.125-25.875 125.06-26.859 188.29-0.70312 45.328 6.75 98.906 46.453 127.31 32.344 23.109 74.953 20.438 112.73 20.344 28.359-0.046875 56.766-0.98438 85.125-2.8125 26.438-1.7344 53.25-1.3125 75.703-17.531 39.656-28.359 47.109-81.984 46.406-127.31-0.98438-63.234-10.922-127.18-26.859-188.29-1.0781-4.0781-2.1562-8.1562-3.2344-12.281 20.391 8.9062 38.625 19.5 54.797 37.828 22.594 25.641 35.859 57.234 43.125 90.328 14.531 66.609 8.5312 137.72 8.1562 205.4-0.42188 72.938-0.89062 145.87-1.2188 218.76-0.1875 34.688 3.5156 67.031 8.5781 101.3 5.4375 36.609 3.7969 73.641 1.4062 110.44-2.25 35.719-4.7812 71.391-6.75 107.11-1.9219 35.953-1.4062 71.438-0.98438 107.39 0.046875 4.6406 7.4062 4.9688 8.0625 0.51562 12.234-83.578 20.625-168.1 23.297-252.61 1.0312-37.219-3.9375-72.047-9.1406-108.7zm-120-408.19c-0.32812 25.688-3.3281 52.875-16.031 75.703-13.406 24.141-34.078 34.359-60.984 37.219-31.828 3.4219-157.97 7.6406-187.22-0.79688-49.125-14.25-60.188-67.312-60.797-112.12-0.75-55.359 7.4062-111.61 19.453-165.47 11.953-53.438 28.078-108.19 53.203-157.03 13.641-26.484 31.266-51.797 55.547-69.562 53.25-38.953 102.66 27.797 124.08 69.562 25.125 48.844 41.25 103.59 53.203 157.03 12.141 53.859 20.297 110.16 19.547 165.47zm-273.84 400.78c-26.625-6-56.484-6.375-83.203-0.046876-2.5781 0.60938-3.75-3.3281-1.3594-4.4062 25.172-11.016 48.188-15.422 75.797-11.625 12.188 1.6875 24.094 5.0156 36.281 6.375 14.438 1.5938 28.781 0.046876 43.125-1.6406 25.312-3 50.672-5.4375 75.984-8.2969 14.297-1.5938 28.688-3.2812 42.75-6.2812 12.891-2.7656 25.172-7.7344 38.016-10.453 5.4844-1.1719 9.9375 6.3281 5.2031 10.078-19.641 15.609-48.562 19.172-72.703 22.125-27 3.3281-54.094 5.9531-81.188 8.625-27.516 2.7188-51.703 1.6406-78.703-4.4531zm259.03 18.375c-35.625 13.828-71.906 20.25-109.83 24.375-34.969 3.8438-76.078 8.0625-110.44-0.89063-4.0781-1.0781-3.1406-7.0781 0.5625-7.875 33.375-7.2188 69.703-5.7188 103.73-9.5625 37.688-4.2188 74.953-11.203 112.59-15.656 5.3438-0.5625 9.1406 7.3594 3.375 9.6094zm-27.188-546.74c23.156 50.719 27.375 117.42 8.1562 170.44-7.3594 20.391-20.203 39.281-41.297 46.969-27.328 9.9375-60.938 5.0625-89.203 3.4219-4.3125-0.23438-4.7344-7.0312-0.46875-7.5938 24.234-3.1875 49.781-2.6719 73.734-7.125 25.734-4.7812 38.344-25.547 44.953-49.172 14.016-50.438 7.125-104.02-3.75-154.31-0.9375-4.5938 5.9062-6.8906 7.875-2.625zm-63.891-163.5c-1.7812-4.1719 3.9375-8.4844 6.8906-4.5469 24.375 32.531 42.938 77.859 45.234 118.73 0.23438 4.5-7.3125 6.0469-8.8125 1.7812-7.125-20.297-11.719-41.25-19.594-61.359-7.2656-18.469-15.844-36.375-23.719-54.609z"/>
</svg>
