<?xml version="1.0" encoding="UTF-8"?>
<svg width="1200pt" height="1200pt" version="1.1" viewBox="0 0 1200 1200" xmlns="http://www.w3.org/2000/svg">
 <path d="m193.55 300.47c18.469 23.391 36.469 47.156 54.516 70.922-0.23438 0.28125-0.42188 0.5625-0.65625 0.79688-34.312 43.922-78.75 82.969-90.984 139.64-4.7812 20.953-4.4062 46.922 10.172 64.031 12 13.125 26.906-1.5 30.188-14.391 16.453-20.156 31.5-41.203 45-63.516 15.656-24.422 31.594-48.656 47.625-72.844 23.062 29.438 46.688 58.312 71.906 85.969 8.625 9.5625 18.703 17.578 28.594 25.781-0.65625-0.51562-1.2656-1.0781-1.875-1.5938 1.4531 1.2188 3.4688 2.9531 5.5312 4.6406 2.3906 2.0156 7.875 6.9844 13.312 12 14.391 14.344 27.188-5.4844 29.906-19.031 4.1719-16.922 3.4688-35.859-4.0312-51.75-1.4531-2.9531-3.2812-5.625-5.4844-8.0625-8.1094-7.7812-15.844-15.844-23.391-24.094-21.375-24.75-48.797-43.125-73.594-64.172-3-2.5781-6-5.1094-9-7.6875 14.578-22.031 29.109-44.109 43.359-66.375 29.109-44.297 55.031-91.031 85.359-134.39 5.1094-11.625 6.1406-32.156-6.3281-39.281-8.625-3.1875-29.672 34.266-38.297 41.672-42.656 52.875-86.062 105.19-129.05 157.82-27.891-26.297-55.219-53.203-84.516-78-18.328-15.562-37.922-30.188-56.344-45.328-1.5-0.42188-2.5781 1.2188-2.9531 2.4375-2.2969 6.2812 2.1094 12.422 5.6719 17.203 4.6406 6.1875 9.4688 12.234 14.344 18.281 13.359 16.594 27.422 32.672 40.922 49.266zm603.52 21c-37.5 35.344-74.344 71.438-109.12 109.31-12.844 16.969-31.125 31.688-35.578 53.391-5.9062 28.312-6.8438 71.484 21.938 87.375 20.953 12.422 94.734-109.59 112.12-128.86 20.578-27.938 42-55.312 63.984-82.172 3.2344 2.3906 6.4688 4.7812 9.7031 7.2188 58.359 42.375 106.83 97.547 167.39 136.74 37.078 14.203 41.297-56.062 33.891-79.266-14.531-49.828-108.98-97.828-152.68-130.64-0.46875-0.28125-0.9375-0.60938-1.3594-0.89062 17.719-20.109 35.719-39.984 54-59.625 20.812-21.375 38.906-46.641 63.891-63.328 11.719-6.0938 10.734-50.719-7.2188-43.406-56.25 37.312-102.66 87.141-153.37 131.29-1.7344 1.5938-3.4219 3.1406-5.1094 4.7344-46.359-28.453-93.938-54.891-142.82-78.703-17.016-6.375-72.234-39.609-85.875-27.703-12.422 12.234-13.688 60 9.6094 59.625 53.438 32.859 105.61 68.156 156.71 104.86zm-342.37 534.24c-16.453-14.438-33.234-28.359-51-41.062 10.172-11.672 20.297-23.297 30.469-34.922 15-15.328 28.969-34.594 48.609-43.734 5.2031 0.09375 8.3438-5.9062 9.8438-9.9844 12.797-63.281-34.688-33.516-61.406-9.6094-25.5 22.031-49.828 45.375-74.062 68.812-38.906-22.266-79.734-41.344-118.78-63.422-9.1406-3.7969-29.344-21.891-37.828-18.375-8.8125 7.6406-8.5781 22.359-5.2031 32.719 4.4062 9.5625 14.438 15.891 20.953 24.281 27.75 27.188 58.641 50.672 89.859 73.734-16.828 15.703-33.938 31.078-51.703 45.703-39.328 35.203-109.08 79.219-114.94 135-0.9375 19.969 0.75 48.562 21.047 58.594 26.484 1.3594 75.469-64.969 94.219-85.266 33.469-39.234 66.984-78.422 100.59-117.52 11.297 8.5781 22.453 17.391 33.328 26.484 46.5 40.453 84.047 89.859 130.5 130.36 37.547 26.766 43.453-64.547 25.688-82.969-24.797-34.594-58.453-60.75-90.094-88.734zm604.03 91.781c-7.9688-15.141-23.25-24.656-33.891-37.828-33.562-37.875-72.516-69.562-113.77-98.391 16.922-18.094 33.891-36.141 50.719-54.328 18.422-19.406 36.703-38.953 56.062-57.422 15.75-9.2344 22.172-20.062 18.938-38.812-1.0781-6.4219-6.3281-21.516-15.609-15.609-32.719 17.297-61.312 41.438-90.328 64.266-26.062 21.141-52.219 42.234-78.469 63.188-31.406-19.828-63.234-38.953-94.219-58.781-19.875-13.219-40.875-24.797-61.266-36.938-2.2969-2.4375-5.3906-4.0781-8.8594-2.9531-15.562 9.6562-14.344 36-6 50.391 34.453 33.75 69.891 66.609 105.23 99.609-8.0625 6.2812-16.172 12.516-24.281 18.703-40.547 28.734-76.078 62.766-111.56 97.359-5.25 4.5-8.6719 12.562-11.016 18.844-9.7031 30.891-10.781 74.438 15.516 97.359 14.812 10.219 26.859-6.5625 37.922-14.766 42-30.938 73.547-72.656 107.95-111.33 14.906-16.781 30-33.422 45.188-49.969 16.922 16.172 33.703 32.484 50.203 49.078 39.797 42.422 78.75 83.062 124.64 119.02 19.312 20.297 39.516-8.1094 42.562-27.047 5.9531-24.094 4.9688-51-5.7188-73.688z"/>
</svg>
