<?xml version="1.0" encoding="UTF-8"?>
<svg width="1200pt" height="1200pt" version="1.1" viewBox="0 0 1200 1200" xmlns="http://www.w3.org/2000/svg">
 <path d="m1029.2 120h-332.71c-5.3711 0-10.09 3.5703-11.547 8.7344-0.24609 0.86328-23.867 85.48-33.355 186.87l-123.89 0.003906c-10.75-74.102-27.945-129.88-28.707-132.32-1.5586-5.0156-6.2031-8.4297-11.453-8.4297l-319.42-0.003906c-5.2734 0-9.9258 3.4414-11.473 8.4805-3.6133 11.785-87.348 290.11 13.059 425.92 32.902 44.504 81.934 68.262 145.49 71.293v315.13h-100.2c-6.6289 0-12 5.3711-12 12 0 6.6289 5.3711 12 12 12h224.41c6.6289 0 12-5.3711 12-12 0-6.6289-5.3711-12-12-12h-100.2v-314.96c27.246-0.96484 52-5.7305 73.812-14.27 1.8828 3.082 3.7773 6.1602 5.8516 9.1289 33.469 47.922 87.82 73.215 161.2 75.859l-0.003906 304.57h-97.477c-6.6289 0-12 5.3711-12 12s5.3711 12 12 12h218.95c6.6289 0 12-5.3711 12-12s-5.3711-12-12-12h-97.477v-304.52c73.918-2.3945 128.52-27.66 161.92-75.758 1.2969-1.8672 2.4375-3.8281 3.6602-5.7461 23.98 11.316 51.469 17.75 82.027 19.098v306.6h-113.84c-6.6289 0-12 5.3711-12 12 0 6.6289 5.3711 12 12 12h251.67c6.6289 0 12-5.3711 12-12 0-6.6289-5.3711-12-12-12h-113.84l0.003906-306.82c63.754-2.6523 113.59-26.754 147.91-72.297 112.49-149.3 21.094-474.11 17.148-487.87-1.4766-5.1484-6.1836-8.6953-11.539-8.6953zm-323.48 24h314.28c4.6484 17.852 15.301 61.586 23.672 116.5-16.777 5.7852-37.289 10.539-68.133 10.539-44.934 0-68.77-10.055-94.004-20.703-26.316-11.105-53.52-22.586-103.29-22.586-43.73 0-70.043 8.8438-93.605 18.52 7.7578-48.082 16.887-85.961 21.082-102.27zm-268.97 195.61h309.57c6.9062 20.605 25 79.32 31.469 144.96-17.633 7.0898-39.055 13.195-72.414 13.195-45.441 0-69.57-11.293-95.121-23.25-26.797-12.539-54.504-25.508-105.25-25.508-45.891 0-72.91 10.578-97.449 21.867 7.0859-59.953 22.871-112.05 29.195-131.27zm-259.58-140.75h301.38c5.0508 17.852 16.777 62.34 24.902 116.75h-75.277c-5.0352 0-9.5352 3.1406-11.266 7.8672-1.2305 3.3516-12.254 34.023-21.977 77.508-26.324-3.1602-43.711-11.195-61.91-19.715-24.609-11.516-50.055-23.422-96.699-23.422-42.492 0-67.363 9.8594-90.035 20.316 5.3945-81.277 24.137-154.93 30.883-179.3zm151.8 458.3c-62.359 0-109.45-20.906-139.94-62.145-36.199-48.949-45.812-120.46-44.012-189.8l4.6797-2.1719c23.258-10.898 45.223-21.188 86.617-21.188 41.309 0 63.27 10.277 86.523 21.16 18.785 8.793 38.203 17.816 67.23 21.582-12.465 66.266-18.547 152.66 11.746 220.43-21.195 7.8945-45.531 12.129-72.844 12.129zm417.29 4.9023c-30.387 43.723-82.059 65.895-153.57 65.895-71.625 0-123.48-22.234-154.12-66.086-31.078-44.484-37.305-105.7-33.551-163.35l4.8086-2.2344c25.547-11.965 49.676-23.273 95.18-23.273 45.41 0 69.539 11.293 95.078 23.242 26.801 12.547 54.516 25.512 105.29 25.512 32.926 0 56.047-5.6172 74.246-12.23 2.5898 54.422-4.3984 110.85-33.363 152.53zm258.14-59.93c-31.637 41.973-78.859 63.254-140.37 63.254-31.379 0-59.023-5.7852-82.691-16.68 58.121-124.73-12-316.58-15.242-325.29-1.7461-4.6953-6.2344-7.8086-11.242-7.8086l-79.176-0.003906c1.3672-14.293 3.0117-28.207 4.8359-41.59l3.6641-1.5352c25.227-10.66 49.055-20.73 94.066-20.73 44.914 0 68.734 10.055 93.961 20.695 26.32 11.109 53.539 22.594 103.33 22.594 31.516 0 53.887-4.7305 71.535-10.395 13.688 104.84 15.977 239.67-42.668 317.48z"/>
</svg>
