<?xml version="1.0" encoding="UTF-8"?>
<svg width="1200pt" height="1200pt" version="1.1" viewBox="0 0 1200 1200" xmlns="http://www.w3.org/2000/svg">
 <path d="m1140 492h-352.92l176.39-305.68c9.9375-17.203 4.0781-39.234-13.172-49.172 0 0-0.046875 0-0.046875-0.046875l-124.69-72c-17.203-9.9375-39.234-4.0781-49.172 13.172 0 0 0 0.046875-0.046874 0.046875l-176.34 305.68-176.48-305.68c-9.9375-17.25-31.922-23.156-49.172-13.219 0 0-0.046875 0-0.046875 0.046875l-124.69 72c-17.25 9.9375-23.156 31.922-13.219 49.172 0 0 0 0.046875 0.046876 0.046875l176.48 305.63h-352.92c-19.875 0-36 16.125-36 36v144c0 19.875 16.125 36 36 36h352.92l-176.44 305.68c-9.9375 17.203-4.0781 39.234 13.172 49.172 0 0 0.046874 0 0.046874 0.046875l124.69 72c17.203 9.9375 39.234 4.0781 49.172-13.172 0 0 0-0.046875 0.046875-0.046875l176.39-305.68 176.48 305.68c9.9375 17.25 31.922 23.156 49.172 13.219 0 0 0.046874 0 0.046874-0.046875l124.69-72c17.25-9.9375 23.156-31.922 13.219-49.172 0 0 0-0.046875-0.046875-0.046875l-176.48-305.63h352.92c19.875 0 36-16.125 36-36v-144c0-19.875-16.125-36-36-36z"/>
</svg>
