<?xml version="1.0" encoding="UTF-8"?>
<svg width="1200pt" height="1200pt" version="1.1" viewBox="0 0 1200 1200" xmlns="http://www.w3.org/2000/svg">
 <path d="m149.39 1003.9c-0.79688 7.9219 11.203 9.0469 11.953 1.1719 9.2344-94.922-24.328-154.69-32.203-183.84-24.891-91.922 28.359-204.79 77.625-283.78 12.609-20.156 21.703-31.547 36.141-15.141 8.7188 9.8906 15.375 21.703 19.172 34.031 2.3438 7.5938 13.828 4.0312 11.484-3.5625-6.0469-19.594-24.562-52.031-45.234-50.344-14.625 1.2188-24.516 17.062-32.016 29.062-50.297 80.531-104.77 196.74-78.797 292.82 8.3906 30.75 40.875 87.234 31.875 179.58z"/>
 <path d="m257.81 917.68c-5.5781 5.6719 2.9531 14.062 8.5312 8.4375 31.359-31.828 60.422-87.797 52.547-130.31-2.9531-15.75-10.594-30.047-17.953-43.828-3.7969-7.0312-14.344-1.3125-10.594 5.6719 6.9844 13.031 14.156 26.484 16.734 40.359 6.9844 37.5-19.781 89.766-49.266 119.67z"/>
 <path d="m429.74 558.79c-29.016-3.8906-59.719-3.7969-93.562 0.75-40.547 5.3906-82.828 6.4219-104.95 44.016-2.9531 5.0625-6.6094 12.75-4.5 20.766 2.4844 10.875 16.547 26.203 41.391 30.375-3.1875 2.0156-4.7812 3.0938-15.469 10.125-8.3906 5.4375-19.266 7.7344-21.516 22.922-3.3281 25.688 16.125 48 54.328 46.875 26.719-0.98438 58.781-13.312 104.58 8.625 1.125 7.0312 2.8594 14.016 4.9688 20.812 2.3438 7.7344-3.5156 15.562-10.406 19.922-9.9375 6.2812-18.188 12-25.922 23.062-15.656 22.312-23.062 49.5-20.812 76.594 0.65625 7.9688 12.609 6.9375 11.953-0.98438-2.0156-24.281 4.5938-48.703 18.656-68.719 6.5156-9.2812 13.453-14.062 22.547-19.828 9.9375-6.2812 19.969-18.844 15.469-33.562-4.2188-13.828-7.6406-28.359-4.0781-41.062 2.1562-7.6875-9.375-10.828-11.578-3.2344-1.2656 4.4531-1.6875 9-1.7812 13.547-47.438-20.062-78.375-8.1094-103.92-7.1719-31.781 0.65625-44.344-15.844-42.094-33.234 1.2656-8.3906 6.4219-8.25 16.172-14.531 38.156-25.312 39.609-28.359 138.74-27.375 19.734 0.32812 39.891 1.875 50.062 17.016 23.812 35.438 59.578 93.234 72.562 120.71 18.797 39.609 15.328 65.484 18.234 69.844-31.219 86.531-72.797 116.86-134.9 175.08-24.375 23.297-31.688 32.062-45.75 80.156-2.2031 7.6406 9.3281 10.969 11.531 3.375 15-51.562 20.203-54.609 62.578-93.328 31.406-28.688 63.891-58.359 87.094-96.516 27.094-44.812 44.062-94.688 50.438-148.18 4.4531-37.125-3.0469-43.828-22.266-100.41 3.5625-62.016 17.906-128.34-6.8906-191.48 40.406-8.8594 123.71-27.469 155.63-35.25 0.375 0.046875 0.65625 0.32812 1.0312 0.28125 3.6562-0.09375 6.2812-3.7031 7.0781-7.2656 0.046876-0.14062 0-0.23438 0.046876-0.375 3.9375-6.2812 6.0469-14.297 6.3281-23.438 4.3125-9.6562 2.2969-18.422-0.60937-29.25-1.6875-6.2344-3.9844-11.812-10.219-12.469-3.5625-6-7.5938-11.297-12.281-15.188-4.0781-8.0156-11.203-8.3438-19.688-4.875-34.828 5.2969-71.109 11.438-116.77 20.156 3.5625-15.938 5.3438-32.203 0.1875-46.781-6.375-17.438-31.5-24.234-48.188-18.234-6.7031 2.5312-12.469 6.6094-18.141 12.844-5.2969 5.9062 3.5625 13.922 8.9062 8.0625 4.3125-4.7812 8.5781-7.875 13.406-9.6562 9.9375-3.6562 28.641-0.09375 32.719 11.016 4.6875 13.266 2.0625 29.391-1.875 45.188-13.219 2.5781-26.719 5.2969-40.406 8.1094-11.25-20.906-22.875-41.578-34.5-62.25-5.3438-9.4688-10.594-18.984-20.25-24.891-10.453-6.4219-22.125-5.1094-29.625 3.4688-22.641 26.438-28.5 60.469-18.703 106.55-30.375 7.0312-62.953 15.094-102.19 25.312-9.9375 2.6719-17.953 10.266-20.906 19.828-6.8906 22.266-3.4688 44.109 10.031 64.781 5.2969 8.3438 14.766 13.266 24.75 13.266 5.7656 0 73.641-14.391 118.92-23.906 4.8281 19.312 6.2812 35.484 4.4062 50.016zm-7.6875-61.641c-14.156 2.9531-28.125 5.7656-42.188 8.7188-13.828-22.922-21.797-48.469-22.594-75.047 14.016-3.4219 27.281-6.6094 40.125-9.5625 7.7812 30.609 17.625 53.297 24.656 75.891zm135.79 277.08c-2.25 18.938-5.9062 37.359-10.875 55.266-5.4844-31.453-15.75-51.047-29.672-75.656-17.391-30.984-36.797-62.344-59.391-95.953-13.406-19.922-37.922-21.938-59.859-22.312-19.781-0.1875-40.312 0.09375-62.625 0.79688-17.859 0.65625-31.406 1.6875-46.781 7.6875-23.062 0.42188-37.406-4.7344-46.312-15.656-5.0625-6.2344-5.9062-9.8438-0.75-18.75 19.172-32.578 59.203-33.281 96.188-38.203 49.359-6.6562 121.97-6.6094 160.22 24.984 13.969 11.297 18.047 29.906 25.125 47.25 11.203 27.422 16.547 47.906 25.547 71.297 9.2812 23.906 12.188 34.125 9.1875 59.25zm90.234-402.98c-4.2188 7.875-8.1562 19.688-3.0469 27.047 2.0625 2.9531 5.3906 5.25 8.1562 7.7344 3.6562 15.094 4.7344 8.1094 1.5469 15.375-3.3281 7.5469-0.84375 18.375 9.375 22.266-42.938 9.9375-85.547 19.547-127.97 28.875-13.359-32.203-18.188-47.156-32.578-74.766 51.234-10.5 98.719-19.219 144.52-26.531zm-225.56-60.375c4.875-5.5781 11.062-3.0938 14.25-1.0781 7.5469 4.6406 11.906 13.359 16.078 20.531 58.688 104.02 49.266 92.906 74.156 151.5l0.23438-0.09375c0.23438 0.51562 0.51562 0.9375 0.84375 1.3594l-0.42188 0.375c22.219 51.891 14.953 107.91 9.9375 164.68-10.875-28.312-15.797-47.812-32.062-60.984-19.031-15.703-40.078-22.359-63.984-26.578 1.9219-14.297 1.3594-34.828-6.0469-60.469-13.453-48.328-59.812-134.58-12.984-189.24zm-112.55 209.44c-7.1719 1.5-14.531-1.5-18.281-7.4062-11.672-17.859-14.484-35.766-8.6719-54.703 1.7344-5.5781 6.7031-10.172 12.562-11.766 15.516-4.0312 29.719-7.6406 43.406-11.062-1.5469 26.156 3.7969 51.984 15.188 75.797-14.672 3-29.531 6.1875-44.203 9.1406z"/>
 <path d="m907.87 177.32c-3.0938-1.4531-6.3281-2.3906-9.5625-2.9531-7.0312-39.797-36.375-82.734-81.562-91.031-29.484-5.5312-62.25 6.75-80.531 29.953-43.547 10.031-66.328 52.594-63.703 94.969 1.3594 17.297 6.0469 29.25 22.594 43.125 10.219 8.625 21.891 15.328 34.594 20.109-12.516 30.562 6.2812 87.375 57.422 93.281-0.79688 17.672 9.7969 33.141 32.953 38.484 7.875 1.8281 10.359-9.9375 2.7188-11.672-17.719-4.0781-24.703-15-23.766-27 0.60938-8.2031 6.7031-12.797 14.578-15.609 7.5469-2.6719 3.375-14.016-3.9844-11.297-10.734 3.7969-16.5 9.5156-19.547 15.328-21-1.875-36.281-13.5-43.547-29.156-3.7969-8.3438-7.7344-16.969-8.3438-26.25-0.84375-12.422 0.89062-27.516 12.328-32.438 8.3906-3.6562 1.5938-21.188-14.297-4.0781-17.625-6.2344-40.969-20.531-48.281-37.406-8.25-19.875-3.5156-59.391 20.344-82.453 17.672-16.875 44.578-22.688 65.438-14.109 7.3125 3.0469 11.906-8.0625 4.5469-11.109-7.4062-3.0469-15.469-4.4531-23.625-4.5938 47.531-40.359 117.14-8.0156 131.39 62.766-7.5938 1.1719-14.719 4.6406-19.781 10.266-5.3438 5.8594 3.5625 13.969 8.8594 8.0625 3.2812-3.6094 8.0625-5.7656 13.219-6.4688 1.2656 5.1094 8.0156 6.0938 10.688 1.0312 12.281 3.6094 19.547 14.859 21.609 26.203 1.4531 7.7812 13.219 5.6719 11.812-2.1562-1.9219-10.547-7.3125-20.016-14.672-26.812 19.219-26.391 57.328-31.125 73.5-31.828 43.5-1.875 78.422 27.328 84.938 70.875 9.8438 65.438-53.391 118.59-116.16 97.828-7.4531-2.5312-11.344 8.9062-3.7969 11.391 7.3594 2.4375 14.953 3.6562 22.641 4.2656-2.5312 20.625-16.828 39.609-35.766 46.406-17.719 6.3281-38.953 2.25-54.188-10.031 1.3594-2.2969 2.5781-4.6875 3.4219-7.2188 2.5312-7.5-8.8125-11.391-11.391-3.8438-3.2344 9.6562-12.047 16.875-22.031 19.031-2.2031-4.5938-4.7344-8.9531-7.4062-12.938-4.5-6.6094-14.344 0.1875-9.9375 6.75 29.531 43.406-15.797 36.516-8.6719 50.766 1.5 3 5.1094 4.1719 8.0625 2.6719 15.469-7.7344 25.031-17.531 21.984-35.578 6.9844-1.7812 13.406-5.4375 18.609-10.359 43.781 35.203 103.78 8.1094 109.36-45.328 64.406-2.25 105.66-58.875 97.172-115.59-7.4531-49.828-47.438-83.062-97.312-81.047-37.359 1.5469-67.031 14.953-82.922 36.797z"/>
 <path d="m770.86 451.22c-9.3281 23.109-40.969 27.75-56.297 7.3125-4.6875-6.3281-14.344 0.79688-9.6094 7.2188 20.719 27.609 64.031 22.031 77.016-10.031 3-7.4062-8.1562-11.812-11.109-4.5z"/>
 <path d="m657.74 330.56c7.5469-4.8281 17.016-6.9375 25.828-5.7656 8.0156 0.89062 9.3281-10.875 1.5469-11.906-11.625-1.5-24 1.2188-33.891 7.5938-6.7031 4.3594-0.046874 14.391 6.5156 10.078z"/>
 <path d="m318.98 377.06-9.6094-54.234c-1.4062-7.875-13.172-5.6719-11.812 2.1094l9.6094 54.234c1.4062 7.8281 13.219 5.7188 11.812-2.1094z"/>
 <path d="m287.58 388.6c-16.266-18.984-31.594-39.234-45.422-60.047-4.4062-6.6094-14.391 0-9.9844 6.6562 14.156 21.234 29.719 41.859 46.312 61.219 5.1094 5.9531 14.297-1.7344 9.0938-7.8281z"/>
 <path d="m200.76 384.56c-7.3125-3.1406-12.047 7.875-4.7344 11.016 67.031 28.453 63.047 27.422 65.391 27.422 6.4688 0 8.3438-8.9531 2.3906-11.531z"/>
 <path d="m748.13 630.74c5.9531-8.0625 6.0469-23.484 9.8438-32.953 3.9844-9.9844 15.891-22.875 10.312-34.266-8.25-16.828-51.234-9.2344-48.797 5.625 0.375 2.1562 1.7344 4.0312 2.8594 5.9062 11.719 19.922-3.6094 25.969-4.6406 43.922-0.89062 14.109 21.797 23.391 30.422 11.766z"/>
 <path d="m699.24 681.61c-1.5 5.2969-4.5938 11.906-10.078 11.344-10.125-8.9062-35.109 15.844-37.594 25.031-4.125 15.328 13.641 27.375 26.391 17.906 7.4531-5.5312 10.125-16.969 18.984-19.922 3-0.98438 6.2812-0.79688 9.375-1.4531 14.766-3.0938 21.562-22.969 8.5781-39.516-6.375-8.1562-12.938-3-15.656 6.6094z"/>
</svg>
