<?xml version="1.0" encoding="UTF-8"?>
<svg width="1200pt" height="1200pt" version="1.1" viewBox="0 0 1200 1200" xmlns="http://www.w3.org/2000/svg">
 <path d="m870 24c-50.578 1.3125-98.812 21.703-135 57.094-36.188-35.391-84.422-55.781-135-57.094-50.578 1.3125-98.812 21.703-135 57.094-36.188-35.391-84.422-55.781-135-57.094-171.61 0-306 253.03-306 576s134.39 576 306 576c50.578-1.3125 98.812-21.703 135-57.094 36.188 35.391 84.422 55.781 135 57.094 50.578-1.3125 98.812-21.703 135-57.094 36.188 35.391 84.422 55.781 135 57.094 171.61 0 306-253.03 306-576s-134.39-576-306-576zm-540 1080c-56.953 0-114.8-50.391-158.72-138.28-48.562-97.078-75.281-226.97-75.281-365.72 0-138.76 26.719-268.64 75.281-365.72 43.922-87.891 101.77-138.28 158.72-138.28 32.953 1.6406 64.078 15.516 87.328 38.953-75.328 103.97-123.32 271.97-123.32 465.05s48 361.08 123.32 465.05c-23.25 23.438-54.375 37.312-87.328 38.953zm158.72-138.28c-7.125 14.344-15.047 28.266-23.719 41.719-8.6719-13.453-16.594-27.375-23.719-41.719-48.562-97.078-75.281-226.97-75.281-365.72 0-138.76 26.719-268.64 75.281-365.72 7.125-14.344 15.047-28.266 23.719-41.719 8.6719 13.453 16.594 27.375 23.719 41.719 48.562 97.078 75.281 226.97 75.281 365.72 0 138.76-26.719 268.64-75.281 365.72zm246.28 41.766c-8.6719-13.453-16.594-27.375-23.719-41.719-48.562-97.125-75.281-227.02-75.281-365.76 0-138.74 26.719-268.64 75.281-365.72 7.125-14.344 15.047-28.266 23.719-41.719 8.6719 13.453 16.594 27.375 23.719 41.719 48.562 97.078 75.281 226.97 75.281 365.72 0 138.76-26.719 268.64-75.281 365.72-7.125 14.344-15.047 28.312-23.719 41.766zm135 96.516c-32.953-1.6406-64.078-15.516-87.328-38.953 75.328-103.97 123.32-271.97 123.32-465.05s-48-361.08-123.32-465.05c23.25-23.438 54.375-37.312 87.328-38.953 56.953 0 114.8 50.391 158.72 138.28 48.562 97.078 75.281 226.97 75.281 365.72 0 138.76-26.719 268.64-75.281 365.72-43.922 87.891-101.77 138.28-158.72 138.28z"/>
</svg>
