<?xml version="1.0" encoding="UTF-8"?>
<svg width="1200pt" height="1200pt" version="1.1" viewBox="0 0 1200 1200" xmlns="http://www.w3.org/2000/svg">
 <path d="m600 297.71c-91.844 0-166.26 74.414-166.26 166.26v105.8h-15.113c-16.746 0-30.23 13.48-30.23 30.23v272.06c0 16.746 13.48 30.23 30.23 30.23h362.74c16.746 0 30.23-13.48 30.23-30.23v-272.06c0-16.746-13.48-30.23-30.23-30.23h-15.113v-105.8c0-91.844-74.41-166.26-166.26-166.26zm0 30.23c75.621 0 136.03 60.406 136.03 136.03v105.8h-272.06v-105.8c0-75.621 60.406-136.03 136.03-136.03z"/>
</svg>
