<?xml version="1.0" encoding="UTF-8"?>
<svg width="1200pt" height="1200pt" version="1.1" viewBox="0 0 1200 1200" xmlns="http://www.w3.org/2000/svg">
 <path d="m976.74 151.69c-23.953-41.156-70.875-78.984-120.94-71.906-88.078 14.531-188.86 199.87-223.4 278.58-133.13-493.69-515.68-196.36-420.84 183.47 57.797 198.14 219.79 347.68 383.76 463.22-9.75 35.062-14.297 103.03 28.922 116.06 28.828-1.2188 42.094-50.812 60.562-70.734 36.609 11.578 42.234-40.828 36.938-66.328 113.62-215.11 254.34-428.16 280.5-675.84 3.7031-53.016-0.84375-108.56-25.5-156.47zm-86.531 266.72c-65.859 180.66-177.52 339.74-261.66 511.74-8.7656-6.0469-17.297-12.375-25.875-18.703-134.72-103.59-342-317.29-342.89-495.42-5.8125-104.62 97.594-227.68 206.06-171.05 38.203 21.516 57.562 62.531 75.656 100.55 27.844 55.688 36.188 118.17 53.906 177.1 22.969 50.438 57.797 6.75 67.5-26.438 13.219-31.406 26.203-62.953 41.906-93.188 26.859-48.891 96.797-166.22 151.82-176.81 26.672-1.5938 50.484 18.469 64.734 39.328 11.953 51.469-15.656 104.53-31.219 152.95z"/>
</svg>
