<?xml version="1.0" encoding="UTF-8"?>
<svg width="1200pt" height="1200pt" version="1.1" viewBox="0 0 1200 1200" xmlns="http://www.w3.org/2000/svg">
 <path d="m1171.2 582-270-467.68c-6.4219-11.156-18.328-18-31.219-18h-540c-12.844 0-24.75 6.8438-31.219 18l-270 467.68c-6.4219 11.156-6.4219 24.844 0 36l270 467.68c6.4219 11.156 18.328 18 31.219 18h540c12.844 0 24.75-6.8438 31.219-18l270-467.68c6.4219-11.156 6.4219-24.844 0-36zm-805.22-413.68h369.61l-369.61 213.42zm-72 98.438v426.79l-184.78-106.78zm-135.61 431.63 369.61 213.37-184.78 106.69zm675.61 333.28h-369.61l369.61-213.42zm-162-743.44 184.78-106.69 184.82 320.06zm234 645.05v-426.79l184.78 106.73z"/>
</svg>
