<?xml version="1.0" encoding="UTF-8"?>
<svg width="1200pt" height="1200pt" version="1.1" viewBox="0 0 1200 1200" xmlns="http://www.w3.org/2000/svg">
 <path d="m1165.5 240.56-206.02-206.02c-6.75-6.75-15.891-10.547-25.453-10.547h-291.32c-19.875 0-36 16.125-36 36v255.32h-255.32c-19.875 0-36 16.125-36 36v255.32h-255.32c-19.875 0-36 16.125-36 36v291.32c0 9.5625 3.7969 18.703 10.547 25.453l206.02 206.02c6.75 6.75 15.891 10.547 25.453 10.547h873.98c19.875 0 36-16.125 36-36v-873.98c0-9.5625-3.7969-18.703-10.547-25.453zm-246.37-144.56 133.97 134.02h-189.47l-133.97-134.02zm-291.32 291.32 134.02 134.02h-189.52l-134.02-134.02zm-480.84 291.32h189.52l133.97 134.02h-189.47zm957.1 425.34h-801.98v-219.32h255.32c19.875 0 36-16.125 36-36v-255.32h255.32c19.875 0 36-16.125 36-36v-255.32h219.32z"/>
</svg>
