<?xml version="1.0" encoding="UTF-8"?>
<svg width="1200pt" height="1200pt" version="1.1" viewBox="0 0 1200 1200" xmlns="http://www.w3.org/2000/svg">
 <path d="m933.19 120c-89.438-43.125-178.5 98.25-249.74 212.06-18.797 33.234-40.641 64.594-65.25 93.75-14.062-12.562-41.625-68.25-62.25-109.69-51.938-105-110.81-223.87-183.74-243.74-22.547-6.1875-46.688-1.9688-65.812 11.438-25.266 16.453-42.188 43.078-46.312 72.938-12.938 80.062 46.312 193.13 95.25 270-43.734 10.781-82.406 36.188-109.69 72-22.312 35.109-28.125 78.188-15.938 117.94 4.5 17.953 9.9375 35.672 16.312 53.062 3.0938 70.266 12.281 140.16 27.375 208.87 14.578 76.312 19.359 154.22 14.25 231.74-0.84375 10.312 6.75 19.359 17.062 20.25h1.5c9.7969 0.046875 17.953-7.5 18.75-17.25 5.7656-81.562 0.70312-163.5-15-243.74-9.1406-42.234-16.031-84.891-20.625-127.87 9.0469 9.3281 20.531 15.844 33.188 18.75 3.9375 0.75 7.9688 1.125 12 1.125 27.188 0 55.125-18.75 84.562-55.125 21.375 26.016 45.234 49.875 71.25 71.25-55.312 21.844-90.141 76.969-86.062 136.31 1.2188 9.375 9.2812 16.406 18.75 16.312h2.25c4.9688-0.5625 9.4688-3.0938 12.562-6.9844s4.5-8.8594 3.9375-13.828c0-3.375-8.25-81.938 92.062-106.5 7.0781-1.7344 12.516-7.4531 13.922-14.578 1.4062-7.1719-1.4531-14.484-7.3594-18.797-33.75-24.562-122.06-100.31-126.37-154.87-1.3125-11.953 3.1406-23.766 12-31.875 57.188-57.375 210 67.125 258.94 115.12 3.4219 3.9375 8.3438 6.2812 13.547 6.4219 5.25 0.1875 10.266-1.8281 13.969-5.5781 3.6562-3.7031 5.625-8.7656 5.3438-14.016-0.23437-5.2031-2.625-10.078-6.6094-13.453-21.938-21.75-218.06-208.87-311.81-115.12-16.547 15.891-24.891 38.484-22.688 61.312 2.4844 19.969 9.375 39.188 20.062 56.25-26.062 35.062-49.875 52.688-66.75 49.312-10.5-2.0625-28.875-14.062-47.812-65.062-6.1875-16.875-11.438-34.125-15.75-51.562-9.375-29.391-5.4844-61.453 10.688-87.75 25.875-38.812 77.625-54.75 100.31-60 20.25 29.438 35.25 48.75 37.5 51.375 3.0938 3.9375 7.5938 6.5156 12.562 7.125 4.9688 0.5625 9.9375-0.84375 13.875-3.9375 7.6406-6.5625 8.7188-18 2.4375-25.875-1.5-2.0625-165.19-211.69-146.63-325.13 2.3906-19.5 13.312-36.984 29.812-47.625 10.172-7.5 23.25-9.8906 35.438-6.5625 56.25 15.375 116.25 136.13 159.94 225 46.125 93.75 71.438 144.19 106.5 129.94 21.938-9 44.625-44.062 86.25-110.62 56.625-90 142.13-227.26 201.74-198.74 54.75 26.438-5.0625 153.19-53.25 255.19-33 69.938-61.5 131.26-61.5 168.74v517.5c0 10.359 8.3906 18.75 18.75 18.75s18.75-8.3906 18.75-18.75v-516.74c0-30.562 29.438-93.75 57.938-153.56 58.688-123 123.94-262.31 35.625-304.87z"/>
</svg>
