<?xml version="1.0" encoding="UTF-8"?>
<svg width="1200pt" height="1200pt" version="1.1" viewBox="0 0 1200 1200" xmlns="http://www.w3.org/2000/svg">
 <path d="m158.4 1080h218.4c20.398 0 37.199-18 37.199-39.602l0.003906-489.6c0-44.398-16.801-87.602-46.801-117.6-27.602-28.801-43.199-64.801-43.199-104.4v-108c7.1992-4.8008 13.199-12 13.199-21.602v-55.199c0-13.199-10.801-25.199-25.199-25.199h-90c-13.199 0-25.199 10.801-25.199 25.199v55.199c0 10.801 6 19.199 15.602 22.801v102c0 40.801-15.602 79.199-43.199 106.8-31.199 30-49.199 74.398-49.199 120v488.4c1.1953 22.801 17.996 40.801 38.395 40.801zm231.6-120h-244.8v-336h244.8zm-13.199 96h-218.4c-7.1992 0-13.199-7.1992-13.199-15.602v-56.398h244.8v56.398c0 8.4023-6 15.602-13.199 15.602zm-139.2-730.8v-100.8h63.602v105.6 6h-64.801c1.1992-3.6016 1.1992-7.1992 1.1992-10.801zm-15.602-180v0l91.199-1.1992s1.1992 0 1.1992 1.1992v55.199s0 1.1992-1.1992 1.1992h-90s-1.1992 0-1.1992-1.1992zm-34.801 303.6c24-24 39.602-54 46.801-88.801h69.602c6 33.602 21.602 64.801 46.801 90 25.199 26.398 39.602 62.398 39.602 100.8v48h-244.8v-48c0-38.402 15.602-76.801 42-102z"/>
 <path d="m494.4 1080h218.4c20.398 0 37.199-18 37.199-39.602l0.003906-489.6c0-44.398-16.801-87.602-46.801-117.6-27.602-28.801-43.199-64.801-43.199-104.4v-108c7.1992-4.8008 13.199-12 13.199-21.602v-55.199c0-13.199-10.801-25.199-25.199-25.199h-90c-13.199 0-25.199 10.801-25.199 25.199v55.199c0 10.801 6 19.199 15.602 22.801v102c0 40.801-15.602 79.199-43.199 106.8-31.199 30-49.199 74.398-49.199 120v488.4c1.1953 22.801 17.996 40.801 38.395 40.801zm231.6-120h-244.8v-336h244.8zm-13.199 96h-218.4c-7.1992 0-13.199-7.1992-13.199-15.602v-56.398h244.8v56.398c0 8.4023-6 15.602-13.199 15.602zm-139.2-730.8v-100.8h63.602v105.6 6h-64.801c-0.003906-3.6016 1.1992-7.1992 1.1992-10.801zm-15.602-180v0l91.199-1.1992s1.1992 0 1.1992 1.1992v55.199s0 1.1992-1.1992 1.1992h-90s-1.1992 0-1.1992-1.1992zm-34.801 303.6c24-24 39.602-54 46.801-88.801h69.602c6 33.602 21.602 64.801 46.801 90 25.199 26.398 39.602 62.398 39.602 100.8v48h-244.8v-48c0-38.402 15.602-76.801 42-102z"/>
 <path d="m997.2 330v-108c7.1992-4.8008 13.199-12 13.199-21.602v-55.199c0-13.199-10.801-25.199-25.199-25.199h-90c-13.199 0-25.199 10.801-25.199 25.199v55.199c0 10.801 6 19.199 15.602 22.801v102c0 40.801-15.602 79.199-43.199 106.8-31.199 30-49.199 74.398-49.199 120v488.4c0 21.602 16.801 39.602 37.199 39.602h218.4c20.398 0 37.199-18 37.199-39.602v-489.6c0-44.398-16.801-87.602-46.801-117.6-27.598-27.598-42-64.801-42-103.2zm-87.598-4.8008v-100.8h63.602v105.6 6h-64.801c-0.003906-3.6016 1.1992-7.1992 1.1992-10.801zm-16.801-180c0-1.1992 1.1992-1.1992 0 0l91.199-1.1992s1.1992 0 1.1992 1.1992v55.199s0 1.1992-1.1992 1.1992h-90s-1.1992 0-1.1992-1.1992zm169.2 814.8h-244.8v-336h244.8zm-13.199 96h-218.4c-7.1992 0-13.199-7.1992-13.199-15.602v-56.398h244.8v56.398c0 8.4023-6 15.602-13.199 15.602zm13.199-456h-244.8v-48c0-39.602 15.602-76.801 42-103.2 24-24 39.602-54 46.801-88.801h69.602c6 33.602 21.602 64.801 46.801 90 25.199 26.398 39.602 62.398 39.602 100.8z"/>
</svg>
