<?xml version="1.0" encoding="UTF-8"?>
<svg width="1200pt" height="1200pt" version="1.1" viewBox="0 0 1200 1200" xmlns="http://www.w3.org/2000/svg">
 <path d="m840 610.87c39.188-11.25 91.125 7.3125 138.94 50.062 59.438 52.875 96.375 26.062 106.31 16.5 35.812-34.312 33.375-120.56-27.188-194.63-23.203-29.156-53.859-51.469-88.688-64.688-5.25-51.938-24.938-86.812-59.062-103.31-39.562-18.75-90-8.8125-134.06 8.4375 40.5-63.938 54.938-135.19 39.938-180.37-8.625-30.422-36.844-51.094-68.438-50.25-67.688 0-96.75 60.562-133.31 137.06-26.812 61.312-61.125 119.06-102.19 171.94-114.56 140.81-407.06 276.94-409.87 278.26-8.0625 3.6562-12.422 12.469-10.547 21.094 1.9219 8.625 9.5625 14.766 18.422 14.719 2.6719 0 5.3438-0.60938 7.6875-1.875 12.375-5.625 303.37-141 423.37-288.37 42.844-55.266 78.75-115.59 106.88-179.63 36.375-75 57.375-115.69 99.562-115.69 15.469-0.9375 29.344 9.4688 32.812 24.562 17.812 53.812-24 162.94-104.44 222.94-7.9219 6.2344-9.5156 17.578-3.6094 25.734s17.156 10.172 25.547 4.6406c36-25.5 141.37-85.688 195.94-59.438 21.094 12.656 34.594 34.875 36.188 59.438-108.19-16.875-214.31 51.375-215.81 52.312-4.1719 2.7656-7.0781 7.0312-8.0625 11.953-0.98437 4.875 0.046876 9.9844 2.8125 14.109 5.7188 8.5781 17.25 10.875 25.875 5.25 1.875-1.125 184.13-118.88 294 15 48.375 59.062 50.25 124.69 30.375 143.81-15.938 15.375-46.5-9.5625-56.25-17.625-58.312-51.938-121.87-73.125-174.37-57.938-37.969 11.766-66.891 42.703-76.125 81.375-15.188 52.172-3.2812 108.47 31.688 150 25.406 31.453 65.203 47.672 105.38 42.938 32.016-6.5156 61.547-21.844 85.312-44.25 34.125-27.188 47.062-37.5 75-3 16.172 18.703 20.25 45 10.5 67.688-21.375 58.125-101.06 110.25-193.69 126.94-142.13 25.312-217.5-41.25-255.94-101.44-5.1562-8.1094-15.609-11.016-24.188-6.75-26.25 12.938-258 128.63-303.74 188.81-6.2344 8.25-4.6406 19.969 3.5625 26.25 3.2812 2.5312 7.3125 3.9375 11.438 3.9375 5.8125-0.046875 11.297-2.8125 14.812-7.5 32.062-42 198.19-131.26 276-170.63 46.875 65.812 132.94 131.26 284.63 104.06 106.88-18.75 196.31-79.688 222.37-150 14.203-35.297 7.7812-75.516-16.688-104.62-51.75-62.625-95.625-27.75-127.5-2.25-18.562 17.719-41.531 30.188-66.562 36-27.656 3-54.891-8.3906-72.188-30.188-26.531-31.969-35.531-75-24-114.94 5.5312-26.719 25.125-48.328 51.188-56.438z"/>
</svg>
