<?xml version="1.0" encoding="UTF-8"?>
<svg width="1200pt" height="1200pt" version="1.1" viewBox="0 0 1200 1200" xmlns="http://www.w3.org/2000/svg">
 <path d="m1035.6 400.65v-0.003906c-0.050781-0.14844-0.10938-0.28906-0.16016-0.4375l-0.007812-0.015626h0.003906c-18.934-56.699-56.203-105.48-105.93-138.65-49.727-33.172-109.08-48.848-168.7-44.555s-116.11 28.312-160.57 68.266c-0.15625 0.14062-0.39453 0.14453-0.54688 0-50.559-45.961-116.79-70.828-185.1-69.5-68.312 1.3242-133.53 28.746-182.26 76.637-108.5 106.31-105.24 286.42 1.4961 394.51l309.39 313.31-0.003906 0.003907c1.8438 1.8633 4.3516 2.9141 6.9727 2.9141h100.23c3.0781-0.019531 5.9414-1.5781 7.6328-4.1484l312.95-316.92h0.003906c35.883-36.25 60.941-81.793 72.355-131.51 11.41-49.711 8.7266-101.62-7.7578-149.89zm-429.06-95.723 0.003906-0.003907h0.003907c38.793-37.332 88.586-61.168 141.99-67.973 53.41-6.8008 107.59 3.7891 154.5 30.199-12.285-4.7656-24.961-8.4453-37.883-11.008h-0.003906c-22.012-4.3086-44.543-5.3164-66.848-2.9883h-0.003907c-14.945 1.5586-29.703 4.582-44.051 9.0352-7.1914 2.2344-14.383 4.8672-21.371 7.8242h-0.007812c-29.051 12.336-55.301 30.422-77.176 53.172l-100.95 102.23c-0.074219 0.082031-0.17969 0.12891-0.29297 0.13281-0.11328 0-0.21875-0.042969-0.29688-0.12109-15.461-15.543-39.219-39.41-40.512-40.574-48.992-44.246-127-38.73-177.61 12.527-27.086 27.078-42.117 63.93-41.695 102.23 0 0.20703-0.14453 0.38672-0.34766 0.42578-0.19922 0.039063-0.40234-0.074218-0.47656-0.26953-10.27-26.473-12.379-55.418-6.0547-83.105 6.3242-27.684 20.793-52.844 41.539-72.234 29.988-27.859 69.441-43.289 110.38-43.168 40.934 0.11719 80.293 15.781 110.12 43.816l1.8984 1.9375c1.7539 1.793 4.1602 2.8047 6.668 2.8125 2.4922-0.082031 4.8672-1.0664 6.6836-2.7734 0 0 40.062-40.43 41.793-42.121zm120.24 76.637c24.832-12.695 53.371-16.133 80.512-9.7031 27.137 6.4336 51.098 22.32 67.586 44.812 17.105 23.953 25.113 53.215 22.586 82.539-2.5273 29.324-15.422 56.789-36.371 77.461l-255.6 258.84c-0.078126 0.082031-0.1875 0.125-0.30469 0.125-0.11328 0-0.22266-0.042969-0.30078-0.125l-260.86-264.17-2.6719-2.7109c-40.824-41.344-37.23-112.26 8.0156-158.08 43.555-44.121 110.19-49.281 151.62-11.871 1.7695 1.6719 28.902 28.93 46.762 46.891h-0.003906c1.8242 1.8359 4.3125 2.8555 6.8984 2.8398h93.52-0.003906c2.6211-0.003907 5.1328-1.0508 6.9727-2.918l41.141-41.656c8.9102-9.0078 19.211-16.527 30.504-22.273zm-448.75-90.668c18.695-18.449 40.551-33.398 64.527-44.133l0.0625-0.023437c41.527-13.59 85.906-15.988 128.66-6.9453 42.75 9.0391 82.359 29.195 114.83 58.438 0.089844 0.074219 0.14453 0.18359 0.15234 0.30078 0.007812 0.11328-0.035156 0.23047-0.11328 0.3125-7.8633 7.9219-20.203 20.363-27.996 28.223-0.15234 0.15234-0.39844 0.15234-0.55469 0.003907-33.617-29.316-76.895-45.152-121.49-44.453-44.602 0.69922-87.363 17.883-120.04 48.238-30.551 28.547-48.812 67.844-50.93 109.6-2.1211 41.758 12.066 82.703 39.566 114.2l4.3477 5.1992c8.8906 10.672 17.141 20.504 20.367 23.586 0.51172 0.49609 0.96484 0.87109 1.418 1.2461l0.015626-0.015625 260.88 264.19c0.16406 0.16797 0.16406 0.43359 0 0.59766l-35.004 35.449c-0.082032 0.082032-0.1875 0.12891-0.30469 0.12891-0.11328 0-0.22266-0.046874-0.30078-0.12891l-276.43-279.94c-21.055-20.691-37.773-45.371-49.176-72.598-11.402-27.23-17.258-56.457-17.227-85.977-0.089844-28.922 5.5938-57.574 16.711-84.273s27.449-50.914 48.039-71.227zm271.67 689.2-307.32-311.22c-43.789-44.699-69.785-103.82-73.125-166.31-3.3398-62.484 16.207-124.05 54.98-173.16 0.13281-0.17578 0.38281-0.21484 0.5625-0.089844 0.18359 0.125 0.24219 0.36719 0.12891 0.55859-20.02 35.562-30.488 75.703-30.395 116.52-0.042969 31.98 6.293 63.645 18.633 93.148 12.344 29.504 30.445 56.25 53.25 78.672l283.34 286.93c1.7617 1.7852 4.1641 2.7891 6.668 2.7891 2.5078 0 4.9102-1.0039 6.6719-2.7891l311.14-315.09c24.957-24.715 39.922-57.766 42.031-92.828 2.1094-35.059-8.7891-69.668-30.605-97.195-21.312-26.035-51.492-43.281-84.742-48.43-0.21094-0.03125-0.36328-0.21484-0.36328-0.42578 0.003907-0.21484 0.16016-0.39062 0.37109-0.41797 51.531-6.1484 102.44 15.562 133.68 57 21.648 29.625 31.945 66.031 29.023 102.61-2.9219 36.574-18.871 70.883-44.949 96.695l-368.36 373.04c-0.078125 0.078126-0.1875 0.125-0.30078 0.125s-0.22266-0.042968-0.30469-0.125zm407.96-311.22-311.42 315.37c-0.078125 0.078125-0.1875 0.125-0.30078 0.125h-72.488c-0.17188 0-0.32812-0.10156-0.39453-0.26172-0.066407-0.15625-0.03125-0.33984 0.089843-0.46094l362.05-366.64c31.031-31.656 48.414-74.223 48.414-118.55 0-44.332-17.383-86.895-48.414-118.55-28.219-28.629-65.949-45.926-106.06-48.625-40.105-2.6953-79.812 9.3945-111.61 33.988-12.793 6.6016-24.469 15.172-34.598 25.398l-38.387 38.871c-0.082031 0.082032-0.19141 0.12891-0.30469 0.12891h-66.324c-0.17188 0-0.32812-0.10547-0.39453-0.26172-0.066407-0.16016-0.03125-0.34375 0.089843-0.46484l88.461-89.582 0.003906 0.003906 3.0312-3.0703c20.141-20.969 44.316-37.641 71.078-49.008 6.4219-2.7148 13.02-5.1289 19.621-7.1797l-0.003906-0.003907c13.172-4.0859 26.719-6.8672 40.434-8.2969 20.461-2.125 41.121-1.1992 61.309 2.7422 13.551 2.6562 26.801 6.6602 39.559 11.949h-0.003907c26.582 11.074 50.594 27.504 70.539 48.27 20.039 20.746 35.762 45.258 46.266 72.117 15.305 44.953 17.773 93.285 7.1328 139.57-10.641 46.281-33.977 88.676-67.379 122.43z"/>
</svg>
