<?xml version="1.0" encoding="UTF-8"?>
<svg width="1200pt" height="1200pt" version="1.1" viewBox="0 0 1200 1200" xmlns="http://www.w3.org/2000/svg">
 <path d="m588 570v486h-108c-7.1992 0-12 4.8008-12 12s4.8008 12 12 12h240c7.1992 0 12-4.8008 12-12s-4.8008-12-12-12h-108v-486c108-2.3984 183.6-34.801 223.2-98.398 82.801-129.6-10.801-336-15.602-344.4-2.3984-4.8008-6-7.1992-10.801-7.1992l-418.8-0.003906c-4.8008 0-8.3984 2.3984-10.801 7.1992-3.6016 8.3984-96 214.8-13.199 344.4 40.801 62.402 115.2 96.004 222 98.402zm-189.6-426h403.2c8.3984 20.398 32.398 81.602 40.801 150-22.801 7.1992-51.602 14.398-96 14.398-60 0-91.199-12-124.8-24-33.602-13.199-68.398-26.398-133.2-26.398-61.199 0-96 12-128.4 24 9.6016-63.602 30-118.8 38.398-138zm-40.797 164.4 7.1992-2.3984c33.602-12 64.801-24 124.8-24s91.199 12 124.8 24c33.602 13.199 68.398 26.398 133.2 26.398 44.398 0 74.398-6 98.398-14.398 3.6016 49.199-3.6016 99.602-28.801 140.4-37.199 57.602-109.2 87.602-213.6 87.602-105.6 0-177.6-30-214.8-87.602-29.996-43.199-35.996-97.199-31.195-150z"/>
</svg>
