<?xml version="1.0" encoding="UTF-8"?>
<svg width="1200pt" height="1200pt" version="1.1" viewBox="0 0 1200 1200" xmlns="http://www.w3.org/2000/svg">
 <path d="m1146.9 664.18-197.48-64.172 197.44-64.172c18.891-6.1406 29.25-26.438 23.109-45.375l-44.438-136.92c-6.1406-18.891-26.438-29.25-45.375-23.109l-197.48 64.172 122.06-168c11.672-16.078 8.1094-38.578-7.9688-50.297l-116.48-84.609c-16.078-11.672-38.578-8.1562-50.297 7.9219l-122.06 168v-207.61c0-19.875-16.125-36-36-36h-144c-19.875 0-36 16.125-36 36v207.61l-122.02-168c-11.672-16.078-34.219-19.641-50.297-7.9688l-116.48 84.656c-16.078 11.672-19.641 34.219-7.9688 50.297l122.02 168-197.44-64.172c-18.891-6.1875-39.234 4.1719-45.375 23.062v0.046875l-44.391 136.92c-6.1406 18.891 4.2188 39.234 23.109 45.375l197.39 64.172-197.48 64.172c-18.891 6.1875-29.203 26.484-23.062 45.375l44.391 136.92c6.1406 18.891 26.438 29.25 45.375 23.109l197.44-64.172-122.02 168c-11.672 16.078-8.1094 38.578 7.9688 50.297l116.53 84.656c16.078 11.672 38.578 8.1094 50.297-7.9688l122.02-168v207.61c0 19.875 16.125 36 36 36h144c19.875 0 36-16.125 36-36v-207.61l122.02 168c11.672 16.078 34.219 19.641 50.297 7.9688l116.48-84.656c16.078-11.672 19.641-34.219 7.9688-50.297l-122.06-168 197.44 64.172c18.891 6.1406 39.234-4.2188 45.375-23.109l44.484-136.92c6.1406-18.891-4.1719-39.234-23.109-45.375z"/>
</svg>
