<?xml version="1.0" encoding="UTF-8"?>
<svg width="1200pt" height="1200pt" version="1.1" viewBox="0 0 1200 1200" xmlns="http://www.w3.org/2000/svg">
 <path d="m600 112.5c-152.11 0-291.75 23.328-395.14 94.738-103.39 71.414-167.36 191.61-167.36 374.01 0 182.4 63.438 311.18 166.41 392.1 102.97 80.938 243.21 114.15 396.09 114.15 152.88 0 293.12-33.211 396.09-114.15 102.97-80.938 166.41-209.7 166.41-392.1 0-182.4-63.973-302.61-167.36-374.01-103.39-71.414-243.04-94.738-395.14-94.738zm0 37.5c148.2 0 280.41 23.547 373.84 88.074 93.414 64.523 151.17 169.32 151.17 343.18s-58.258 288.82-152.09 362.59c-27.664 21.746-58.684 39.816-92.359 54.602 125.09-88.297 206.95-233.87 206.95-398.44 0-138.04-94.309-247.43-204.13-290.32-54.906-21.457-114.35-26.547-168.42-9.1562-45.105 14.508-85.234 46.086-114.95 93.566-29.719-47.48-69.848-79.059-114.95-93.566-27.039-8.6953-55.414-11.738-83.898-9.9609-28.484 1.7773-57.066 8.3867-84.52 19.117-109.82 42.91-204.13 152.29-204.13 290.32 0 164.58 81.859 310.14 206.95 398.44-33.676-14.785-64.695-32.859-92.359-54.602-93.828-73.75-152.09-188.74-152.09-362.59 0-173.85 57.758-278.64 151.17-343.18 93.414-64.523 225.62-88.074 373.84-88.074zm-126.45 186.22c44.363 14.27 83.191 46.066 109.42 102.91 6.7031 14.535 27.355 14.535 34.059 0 26.234-56.84 65.059-88.637 109.42-102.91s95.082-10.453 143.3 8.3867c96.434 37.68 180.25 134.55 180.25 255.39 0 248.76-201.24 450-450 450-248.76 0-450-201.24-450-450 0-120.84 83.816-217.71 180.25-255.39 24.109-9.4219 48.844-15.066 73.094-16.59 23.672-1.3281 49.809 1.7773 70.203 8.2031zm-42.297 95.031c-41.309 0-86.219 15.957-122.5 41.969s-65.004 63.488-65.004 108.03c0 82.621 67.379 150 150 150s150-67.379 150-150c0-38.078-5.1328-73.957-22.41-102.5s-48.777-47.496-90.09-47.496zm337.5 0c-41.309 0-72.809 18.953-90.09 47.496-17.277 28.547-22.41 64.426-22.41 102.5 0 82.621 67.379 150 150 150s150-67.379 150-150c0-44.543-28.727-82.023-65.004-108.03-36.277-26.012-81.188-41.969-122.5-41.969zm-282.17 318.75c-3.9609 0.19922-7.7539 1.6484-10.84 4.1367-8.0703 6.4922-9.3516 18.297-2.8555 26.367l77.234 95.875c25.383 31.508 74.375 31.508 99.754 0l77.234-95.875c6.4961-8.0703 5.2148-19.875-2.8555-26.367-3.875-3.1133-8.8281-4.5625-13.77-4.0273-4.9453 0.53125-9.4766 3.0078-12.598 6.8867l-77.199 95.836c-10.895 13.523-30.488 13.523-41.383 0l-77.199-95.836c-3.7578-4.6836-9.5312-7.2852-15.527-6.9961z" fill-rule="evenodd"/>
</svg>
