<?xml version="1.0" encoding="UTF-8"?>
<svg width="1200pt" height="1200pt" version="1.1" viewBox="0 0 1200 1200" xmlns="http://www.w3.org/2000/svg">
 <path d="m961.79 754.55-154.55-154.55 154.55-154.55c40.414-40.414 40.414-105.86 0-146.28-29.699-29.699-72.77-37.52-109.63-23.617-2.7383-1.9766-5.4453-4.0039-8.3359-5.7383-47.008-28.086-106.89-20.645-145.64 18.113l-101.52 101.5-90.273-90.273c-29.711-29.711-72.797-37.527-109.66-23.605-2.7109-1.9609-5.3828-3.9648-8.2969-5.7461-47.023-28.086-106.92-20.645-145.65 18.113-46.539 46.539-46.539 122.25 0 168.79l143.3 143.29-143.31 143.3c-46.539 46.539-46.539 122.25 0 168.79 22.574 22.566 52.566 34.996 84.449 34.996 21.535 0 42.703-5.8398 61.34-16.977 2.9062-1.7812 5.5859-3.7891 8.3047-5.7656 11.738 4.4258 24.086 6.8242 36.43 6.8242 26.418 0 52.828-10.18 73.086-30.336l90.273-90.273 101.52 101.53c23.055 23.055 53.578 35.023 84.441 35.023 21.008 0 42.188-5.5508 61.246-16.941 2.8789-1.7266 5.5703-3.7422 8.2969-5.7109 36.852 13.902 79.93 6.0859 109.63-23.617 20.156-20.156 30.336-46.68 30.336-73.191 0-26.422-10.191-52.84-30.34-73.102zm-241.11 135.04-154.56-154.55c-3.1016-3.1016-7.1797-4.6602-11.25-4.6602-4.0703 0-8.1484 1.5547-11.25 4.6602l-154.55 154.55c-4.9961 4.9883-10.742 9.4883-16.961 13.293-13.555 8.1016-29.082 12.383-44.879 12.383-23.383 0-45.383-9.1211-61.949-25.68-34.125-34.125-34.125-89.652 0-123.79l154.56-154.55c2.9805-2.9805 4.6602-7.0312 4.6602-11.25s-1.6797-8.2695-4.6602-11.25l-154.56-154.55c-34.125-34.125-34.125-89.652 0-123.79 28.426-28.426 72.336-33.898 106.69-13.379 6.3477 3.8828 12.102 8.3828 17.09 13.379l154.55 154.55c6.2148 6.2148 16.285 6.2148 22.5 0l154.55-154.55c28.414-28.426 72.336-33.883 106.77-13.312 6.1484 3.7031 11.867 8.1836 17.008 13.312 34.125 34.125 34.125 89.652 0 123.79l-154.54 154.55c-2.9805 2.9805-4.6602 7.0312-4.6602 11.25s1.6797 8.2695 4.6602 11.25l154.53 154.53c16.574 16.668 25.695 38.645 25.695 61.875 0 23.391-9.1133 45.383-25.668 61.941-5.1367 5.1367-10.855 9.6094-16.969 13.293-34.453 20.578-78.41 15.121-106.82-13.293z"/>
</svg>
