<?xml version="1.0" encoding="UTF-8"?>
<svg width="1200pt" height="1200pt" version="1.1" viewBox="0 0 1200 1200" xmlns="http://www.w3.org/2000/svg">
 <path d="m348 753.6c66 0 120-54 120-120s-54-120-120-120-120 54-120 120 54 120 120 120zm0-192c39.602 0 72 32.398 72 72 0 39.602-32.398 72-72 72s-72-32.398-72-72c0-39.602 32.398-72 72-72z"/>
 <path d="m852 513.6c-66 0-120 54-120 120s54 120 120 120 120-54 120-120-54-120-120-120zm0 192c-39.602 0-72-32.398-72-72 0-39.602 32.398-72 72-72s72 32.398 72 72c0 39.598-32.398 72-72 72z"/>
 <path d="m1070.4 427.2 21.602-338.4c1.1992-9.6016-3.6016-18-12-22.801s-18-3.6016-25.199 1.1992l-210 144c-75.602-38.398-159.6-58.801-244.8-58.801s-170.4 20.398-244.8 58.801l-208.8-144c-7.1992-4.8008-18-6-25.199-1.1992-8.3984 4.8008-13.199 13.199-13.199 22.801l21.602 338.4c-45.602 80.402-69.602 172.8-69.602 266.4v372c0 39.602 32.398 72 72 72h936c39.602 0 72-32.398 72-72v-372c0-93.602-24-186-69.602-266.4zm9.6016 194.4c0 126-102 228-228 228s-228-102-228-228 102-228 228-228 228 102 228 228zm-373.2 234-106.8 124.8-106.8-124.8c46.801-28.801 84-72 106.8-122.4 22.801 50.402 60 93.602 106.8 122.4zm-367.2-596.4c7.1992 4.8008 16.801 6 25.199 1.1992 72-39.602 153.6-60 235.2-60 81.602 0 163.2 20.398 234 60 8.3984 4.8008 18 3.6016 25.199-1.1992l181.2-124.8-16.801 270c-46.801-37.199-106.8-60-171.6-60-111.6 0-208.8 67.199-252 163.2-43.199-96-140.4-163.2-252-163.2-64.801 0-124.8 22.801-171.6 60l-16.801-270zm8.3984 134.4c126 0 228 102 228 228s-102 228-228 228-228-102-228-228 102-228 228-228zm744 672c0 13.199-10.801 24-24 24h-936c-13.199 0-24-10.801-24-24v-308.4c48 84 136.8 140.4 240 140.4 36 0 69.602-7.1992 100.8-19.199l133.2 154.8c4.8008 6 10.801 8.3984 18 8.3984s13.199-2.3984 18-8.3984l133.2-154.8c31.199 12 66 19.199 100.8 19.199 103.2 0 192-56.398 240-140.4z"/>
</svg>
