<svg xmlns="http://www.w3.org/2000/svg" xmlns:xlink="http://www.w3.org/1999/xlink" version="1.1" x="0px" y="0px" viewBox="0 0 100 125" enable-background="new 0 0 100 100" xml:space="preserve"><path d="M81.7,15.7c-9.5-6.7-21.6-6.3-32.4-4c-8.1,1.7-16,4.7-23,9c-0.4-0.4-1-0.6-1.8-0.6c-10,1-15.7,9.4-18.2,18.5  c-3.3,12.1-0.6,25.7,7,35.6c6.7,8.7,16.8,14,27.6,15.4c12.7,1.7,25.3-4.6,35.1-12.1c9.6-7.3,18.9-16.9,19.1-29.7  c0.1-6.1-2.1-12.8-4-18.6C89.2,24,86.2,18.9,81.7,15.7z M76.7,70.5c-15.6,13.9-37.2,20.3-54.6,5.8c-8.2-6.8-12-16.7-12.1-27.1  c-0.1-5.6,1.3-13,4.9-18.1c0.2,1.9,2.6,3.4,4.2,1.7C32,19.6,55.7,10.9,73.6,17C84.2,20.5,86.8,31.7,89,41.3  C91.9,53.8,85.7,62.4,76.7,70.5z"/><path d="M37.7,34.7c-1.4,2.9,2.9,5.4,4.3,2.5c2.1-4.5,8.6-4.1,12.4-2.2c6.6,3.3,1.9,9.2-1.8,12.1c-4.1,3.1-6.8,7.5-4.6,12.6  c1.3,2.9,5.6,0.4,4.3-2.5c-1.8-4,7.5-9,9.4-12.3c2.1-3.6,0.7-8.3-1.7-11.4C55,27,41.4,26.8,37.7,34.7z"/><path d="M50.1,66.2c-3.2,0-3.2,5,0,5S53.3,66.2,50.1,66.2z"/><text x="0" y="115" fill="#000000" font-size="5px" font-weight="bold" font-family="'Helvetica Neue', Helvetica, Arial-Unicode, Arial, Sans-serif">Created by Arthur Shlain</text><text x="0" y="120" fill="#000000" font-size="5px" font-weight="bold" font-family="'Helvetica Neue', Helvetica, Arial-Unicode, Arial, Sans-serif">from the Noun Project</text></svg>