<?xml version="1.0" encoding="UTF-8"?>
<svg width="1200pt" height="1200pt" version="1.1" viewBox="0 0 1200 1200" xmlns="http://www.w3.org/2000/svg">
 <path d="m201.6 268.68c-76.082 94.199-145.08 200.04-174.48 318.84-27.602 111.96-12.48 232.08 57.602 325.8 65.277 87.48 162.48 146.64 268.2 171.12 128.76 29.879 263.28 13.801 390.48-16.078 114-26.879 227.04-71.281 308.88-158.28 71.281-75.719 117.48-174.84 132.96-277.44 15.961-106.56 0.48047-213.72-47.16-310.44-45.961-93.238-119.88-172.68-208.32-227.04-191.28-117.36-440.04-94.801-619.32 35.398-23.039 16.68-44.879 34.801-65.398 54.48-24.359 23.398 12.719 60.359 37.078 37.078 144.84-138.96 369.6-195.84 557.64-114.84 175.68 75.602 301.08 253.2 299.64 446.16-0.71875 94.32-29.16 188.04-81.719 266.4-58.082 86.52-145.08 141.72-242.88 174.12-112.44 37.32-235.8 59.52-354.48 53.039-103.08-5.7617-205.2-39.238-282.84-109.08-75.48-67.801-116.4-160.92-111.12-262.68 5.7617-110.76 60.602-214.44 122.64-303.72 15.719-22.559 32.281-44.52 49.559-65.879 8.8789-11.039 10.801-26.281 0-37.078-9.1172-9.1211-28.078-11.043-36.957 0.11719z"/>
 <path d="m448.2 519.84v13.078c-0.12109 3.6016 0.60156 6.9609 2.2812 10.078 1.0781 3.2383 2.8789 6 5.3984 8.3984 2.3984 2.5195 5.1602 4.3203 8.3984 5.3984 3.1211 1.6797 6.4805 2.3984 10.078 2.2812 2.2812-0.35938 4.6797-0.60156 6.9609-0.96094 4.4414-1.1992 8.2812-3.4805 11.52-6.7188 1.3203-1.8008 2.7617-3.4805 4.0781-5.2812 2.3984-4.0781 3.6016-8.5195 3.6016-13.199v-13.078c0.12109-3.6016-0.60156-6.9609-2.2812-10.078-1.0781-3.2383-2.8789-6-5.3984-8.3984-2.3984-2.5195-5.1602-4.3203-8.3984-5.3984-3.1211-1.6797-6.4805-2.3984-10.078-2.2812-2.2812 0.35937-4.6797 0.60156-6.9609 0.96094-4.4414 1.1992-8.2812 3.4805-11.52 6.7188-1.3203 1.8008-2.7617 3.4805-4.0781 5.2812-2.4023 4.0781-3.6016 8.5195-3.6016 13.199z"/>
 <path d="m691.44 516.36v15.84c-0.12109 3.6016 0.60156 6.9609 2.2812 10.078 1.0781 3.2383 2.8789 6 5.3984 8.3984 2.3984 2.5195 5.1602 4.3203 8.3984 5.3984 3.1211 1.6797 6.4805 2.3984 10.078 2.2812 2.2812-0.35938 4.6797-0.60156 6.9609-0.96094 4.4414-1.1992 8.2812-3.4805 11.52-6.7188 1.3203-1.8008 2.7617-3.4805 4.0781-5.2812 2.3984-4.0781 3.6016-8.5195 3.6016-13.199v-15.84c0.12109-3.6016-0.60156-6.9609-2.2812-10.078-1.0781-3.2383-2.8789-6-5.3984-8.3984-2.3984-2.5195-5.1602-4.3203-8.3984-5.3984-3.1211-1.6797-6.4805-2.3984-10.078-2.2812-2.2812 0.35938-4.6797 0.60156-6.9609 0.96094-4.4414 1.1992-8.2812 3.4805-11.52 6.7188-1.3203 1.8008-2.7617 3.4805-4.0781 5.2812-2.4023 4.0781-3.6016 8.5195-3.6016 13.199z"/>
 <path d="m853.92 847.32c0.83984-45.84-7.1992-91.922-34.078-130.08-29.281-41.641-70.32-75.84-118.44-92.879-50.16-17.762-108-20.039-160.68-15.238-27.602 2.5195-55.078 7.4414-80.762 18-26.281 10.801-49.32 26.398-71.281 44.398-47.641 38.879-83.039 90.719-91.078 152.52-1.8008 14.039 13.32 26.16 26.16 26.16 15.719 0 24.359-12.121 26.16-26.16 5.3984-41.52 33.238-77.52 63.359-104.76 33.48-30.359 71.52-50.52 116.52-56.52 45.602-6.2383 96-4.9219 140.52 6.9609 40.199 10.801 72.602 35.281 99 67.078 26.281 31.801 33 69.719 32.16 110.52-0.60156 33.719 51.84 33.719 52.441 0z"/>
</svg>
