<svg xmlns="http://www.w3.org/2000/svg" viewBox="0 0 32 40" x="0px" y="0px"><title>40</title><g data-name="Layer 2"><path d="M27,6H24V3a1,1,0,0,0-1-1H5A1,1,0,0,0,4,3V25a1,1,0,0,0,1,1H8v3a1,1,0,0,0,1,1H27a1,1,0,0,0,1-1V7A1,1,0,0,0,27,6ZM9,11a5,5,0,1,1,6,4.9V17a1,1,0,0,1-2,0V15a1,1,0,0,1,1-1,3,3,0,1,0-3-3,1,1,0,0,1-2,0Zm6,9v1a1,1,0,0,1-2,0V20a1,1,0,0,1,2,0Zm11,8H10V26H23a1,1,0,0,0,1-1V8h2Z"/></g><text x="0" y="47" fill="#000000" font-size="5px" font-weight="bold" font-family="'Helvetica Neue', Helvetica, Arial-Unicode, Arial, Sans-serif">Created by bamicon</text><text x="0" y="52" fill="#000000" font-size="5px" font-weight="bold" font-family="'Helvetica Neue', Helvetica, Arial-Unicode, Arial, Sans-serif">from the Noun Project</text></svg>