<?xml version="1.0" encoding="UTF-8"?>
<svg width="1200pt" height="1200pt" version="1.1" viewBox="0 0 1200 1200" xmlns="http://www.w3.org/2000/svg">
 <path d="m311.44 461.63c-23.531 29.953-47.531 66.984-42.703 106.73 0.46875 10.781 11.484 15.609 17.953 6.0938 8.0156-8.6719 9.6094-22.125 9.75-33.328 13.5-29.625 39.328-51.609 64.266-71.531 74.719-55.219 168.37-88.594 261.89-82.125 105.23 6.6094 214.69 80.109 211.26 194.9-0.70312 66.469-36.094 127.13-80.859 174.28-73.781 74.578-201.56 71.391-279.61 5.0156-22.5-22.688-49.875-54.656-37.875-88.688 20.438-47.016 67.828-79.453 115.55-94.594 32.906-7.5 58.312 21.797 60.562 52.594-4.875 25.125-11.812 54.141 0.70312 78.562 32.953 49.922 73.266-34.688 78.656-64.875 28.219-101.81-22.969-271.4-155.95-207.05-231.37 107.11-275.48 494.76 34.594 515.9 3.0938 0.09375 6.1875 0.14062 9.2344 0.14062 170.58 0 279.89-171.94 309.47-324.32 68.859-386.29-381.84-406.22-576.84-167.81zm-40.875-298.13c25.875 55.922 41.625 108.14 76.547 163.13 5.1094 6.4688 10.172 9.2344 15 9.2344 23.484 0 41.062-65.25 28.031-83.203-21.188-38.156-41.391-77.766-72.281-109.17-10.734-9.1406-26.906-40.266-42.984-28.453-10.875 11.203-19.125 37.688-4.3125 48.469zm258.74 106.36c0.89062 7.4062 4.5938 17.484 12.75 19.5 33.891-1.7812 37.594-56.906 32.531-82.547-4.6406-46.406-7.4531-94.641-19.5-139.4-15.938-8.8125-24.281 47.953-26.391 58.922-3.3281 22.359-3.75 45.094-3.8906 67.641 0-1.3125 0-2.6719 0.046874-3.9844-0.14062 26.25 1.3594 53.156 4.5 79.922zm253.64 57.797c17.859 0 39.375-40.875 52.266-52.031 36.562-41.906 69.656-87 109.59-125.9 27.047-8.2969 40.969-65.016 20.297-84.422-15.938-11.859-64.641 48.469-80.391 59.297-38.297 33.562-70.406 73.031-101.3 113.34-15.328 20.438-23.297 48.516-16.594 73.688 4.6406 11.578 10.172 16.031 16.125 16.031zm140.48 127.18c-0.89062 10.969 2.4844 33.516 15.75 33.516 1.5 0 3.1406-0.28125 4.875-0.9375 40.453-12.75 81.234-24.938 119.2-44.156 22.922-10.312 45.609-21.281 69.328-29.625 5.0625-0.32812 8.8125-3.75 11.531-7.8281 6.8906-9.2812 14.344-41.859-4.3594-40.406-19.453 5.8125-40.781 5.3906-60.938 8.2031-44.672 2.9531-84.609 14.156-128.16 28.453-18.891 8.9062-25.547 33.469-27.281 52.734zm208.69 283.87c-42.047-4.6875-73.828-30.562-113.53-45.469-19.969-7.4062-40.594-12.375-61.266-17.297-35.531 0-48.938 62.625-40.688 90.328 5.0625 23.156 33.562 18.938 51.703 23.531 11.578 1.9688 23.109 2.6719 34.688 2.6719 26.578 0 53.203-3.75 79.781-4.9219 23.766-1.5469 58.172 1.4062 63.422-28.969 4.4531-9.75-1.4062-33.516-14.156-19.828zm-160.55 237.66c-40.5-31.266-77.906-66.188-122.95-91.219-43.781-16.641-70.875 92.438-39.703 114.56 43.641 28.5 92.344 47.203 142.36 61.078 3.9844 1.5 7.7344 2.1562 11.25 2.1562 29.578 0 41.859-48.188 31.406-72.609-4.2188-9.7031-15.562-7.4062-22.406-14.016zm-451.03 37.125c-12.844 25.734-28.875 92.953-12 117.52 3.6094 3.7031 7.3594 5.25 11.016 5.25 12 0 23.25-16.547 27.281-27.234 6.9375-14.766 6.9375-31.125 9.7031-46.875 2.9531-24.844 18.984-50.203 8.0625-74.859-15.281-24.375-36.656 12.328-44.062 26.203zm-186.74-83.859c-19.922-1.5469-40.875 24.609-55.781 36.562-25.641 28.875-60.75 62.672-49.406 105.05 1.9688 8.9531 8.0156 13.312 14.531 13.312 5.2969 0 10.875-2.9062 14.812-8.6719 24.75-27.703 44.953-58.453 65.062-89.484 17.625-5.4844 28.688-47.156 10.734-56.766zm-50.672-289.82c-3.4219-19.359-24.047-18.797-39.703-19.453-58.219 0.14063-113.3 24.891-170.29 34.5-21.797-1.5-35.859 54.75-13.266 60.797 16.828 8.4375 36.516 7.3594 54.844 8.8125 42.516 2.7188 85.453-0.89063 127.64 5.8125 36.141-1.0312 48.75-61.781 40.734-90.422zm-163.22-292.31c35.297 22.594 69.516 47.156 105.14 69.422 1.4062 0.375 2.7656 0.51562 4.0312 0.51562 16.922 0 23.062-29.859 21-43.781-3.9375-19.078-39.75-30.422-54.797-42.984-20.297-12.188-40.266-25.312-62.156-34.453-11.953-8.3906-21.141 11.812-23.203 21.234-2.4844 9.6094-4.0312 29.859 10.031 30.047z"/>
</svg>
