<?xml version="1.0" encoding="UTF-8"?>
<svg width="1200pt" height="1200pt" version="1.1" viewBox="0 0 1200 1200" xmlns="http://www.w3.org/2000/svg">
 <path d="m581.26 495.94c32.203-7.0781 65.906-2.7188 95.25 12.375 22.875 15.516 38.203 39.844 42.375 67.125 1.875 8.8125 9.75 15 18.75 14.812h3.9375c4.875-1.0312 9.1406-3.9844 11.859-8.1562s3.6562-9.2812 2.5781-14.156c-6.1875-37.359-27.75-70.406-59.438-91.125-37.875-20.578-81.938-26.578-123.94-16.875-8.4844 3.5625-13.172 12.703-11.016 21.656s10.453 15.047 19.641 14.344z"/>
 <path d="m1036.3 154.5c-77.625-4.5-173.81 50.438-241.87 139.31-20.062 8.25-121.31-2.0625-203.06-10.312-97.125-9.75-204.56-20.625-275.81-15.75-10.5 0-20.25 1.875-29.062 3.375-1.875-3.1875-4.125-6.1875-6-9.375-39.938-66-87.188-75-115.5-61.312-8.1562 3.6562-15.375 9.1875-21 16.125-32.109-3.0938-61.922 16.922-71.25 47.812-18.75 53.625 63.75 105 91.875 120.94 104.62 240.37 272.26 316.69 324.94 335.44-9.1406 102.56-8.4844 205.78 1.875 308.26 0.98438 9.6094 9.0938 16.922 18.75 16.875h1.875c4.9688-0.51562 9.4688-3 12.609-6.8438 3.1406-3.8906 4.5938-8.8125 4.0781-13.781 0-1.6875-18.75-182.63 0-314.81 1.3594-9.4688-4.6406-18.422-13.875-20.812-2.4375 0-237.74-65.625-345.19-396.56-10.5-32.062-1.6875-52.688 10.688-58.5s42.562 4.875 67.875 46.875c4.5 7.3125 9.375 14.438 14.438 21.75 66.188 92.812 181.69 169.87 187.5 173.44 8.625 5.4844 20.062 3.0469 25.734-5.5312 5.625-8.5312 3.3281-20.016-5.1094-25.781-55.688-38.203-106.73-82.828-152.06-132.94 56.25 39.938 190.13 82.312 206.26 87.562 1.875 0.28125 3.75 0.28125 5.625 0 9.1875-0.09375 16.922-6.8438 18.328-15.891 1.3594-9.0469-3.9844-17.812-12.703-20.672-53.578-16.734-106.12-36.703-157.31-59.812 61.875 1.875 137.81 9.375 208.31 16.5 164.44 17.438 219 20.812 235.87-1.3125 69-92.062 157.5-129.94 210.56-126.19 22.031-0.28125 42.562 11.25 53.812 30.188 4.8281 7.3594 6.2812 16.453 3.9375 24.938-7.5 25.125-51 48.562-82.688 65.438s-51 27.562-59.062 43.125c-8.5312 18.281-6.6094 39.75 5.0625 56.25 17.203 33.328 22.125 71.625 13.875 108.19-14.25 95.625-56.25 110.62-56.25 110.62-6.9375 1.7812-12.281 7.4062-13.688 14.438-17.062 85.312 11.062 305.06 12.375 314.44 1.2188 9.375 9.2812 16.406 18.75 16.312h2.4375c10.266-1.3594 17.438-10.734 16.125-21 0-2.25-26.438-206.26-14.25-292.87 19.125-12 57.75-43.875 71.625-137.63 9.2812-44.062 3.1875-90-17.25-130.13-7.3125-15.188-7.5-17.062-5.4375-21.562 13.172-11.062 27.844-20.25 43.5-27.375 39.562-21.375 88.875-47.812 100.69-87.938 5.25-18.047 2.7188-37.5-6.9375-53.625-17.391-30.094-49.219-48.984-84-49.875zm-928.31 122.06c2.8125-9.9844 10.5-17.906 20.438-21-1.6406 16.453 0.23438 33.047 5.4375 48.75l6.5625 18.75c-20.812-16.688-36.375-35.062-32.438-46.5z"/>
</svg>
