<?xml version="1.0" encoding="UTF-8"?>
<svg width="1200pt" height="1200pt" version="1.1" viewBox="0 0 1200 1200" xmlns="http://www.w3.org/2000/svg">
 <path d="m552.1 100.21c-410.94 37.977-604.77 562.29-309.69 857.37 295.11 295.11 819.4 101.26 857.38-309.69 3.9727-43.008-44.777-70.48-79.508-44.809-118.73 87.762-289.59 75.023-393.99-29.375-104.4-104.4-117.14-275.25-29.383-393.98 25.676-34.73-1.8008-83.48-44.809-79.508zm-89.898 122.14-1.7773 4.9492c-48.688 142.4-15.07 306.89 95.156 417.11l9.8672 9.5234c110.02 102.61 269.04 132.88 407.25 85.629l4.9023-1.8164-0.30078 1.0117c-96.625 256.21-454.77 357.52-664.18 148.11-206.22-206.22-111.08-556.72 136.57-659.6z"/>
</svg>
