<?xml version="1.0" encoding="UTF-8"?>
<svg width="1200pt" height="1200pt" version="1.1" viewBox="0 0 1200 1200" xmlns="http://www.w3.org/2000/svg">
 <path d="m600 322.73c-153.13 0-277.27 124.14-277.27 277.27 0 153.14 124.14 277.28 277.27 277.28s277.27-124.14 277.27-277.28c0-153.13-124.14-277.27-277.27-277.27zm0 100c97.906 0 177.27 79.367 177.27 177.27 0 97.906-79.367 177.28-177.27 177.28-97.902 0-177.27-79.371-177.27-177.28 0-97.902 79.371-177.27 177.27-177.27z"/>
 <path d="m600 62.5c18.984 0 34.676 14.109 37.156 32.41l0.34375 5.0898v90.91c0 20.711-16.789 37.5-37.5 37.5-18.984 0-34.676-14.109-37.156-32.414l-0.34375-5.0859v-90.91c0-20.711 16.789-37.5 37.5-37.5z"/>
 <path d="m600 971.59c18.984 0 34.676 14.105 37.156 32.41l0.34375 5.0898v90.91c0 20.707-16.789 37.5-37.5 37.5-18.984 0-34.676-14.109-37.156-32.414l-0.34375-5.0859v-90.91c0-20.711 16.789-37.5 37.5-37.5z"/>
 <path d="m219.85 219.85c13.312-13.312 34.145-14.523 48.824-3.6328l4.207 3.6328 64.547 64.543c14.645 14.648 14.645 38.391 0 53.035-13.316 13.312-34.148 14.523-48.828 3.6289l-4.207-3.6289-64.543-64.547c-14.645-14.645-14.645-38.387 0-53.031z"/>
 <path d="m862.58 862.57c13.312-13.312 34.148-14.523 48.828-3.6289l4.207 3.6289 64.543 64.547c14.645 14.645 14.645 38.387 0 53.031-13.312 13.316-34.145 14.523-48.828 3.6328l-4.2031-3.6328-64.547-64.543c-14.645-14.645-14.645-38.391 0-53.035z"/>
 <path d="m190.91 562.5c20.711 0 37.5 16.789 37.5 37.5 0 18.984-14.109 34.672-32.414 37.156l-5.0859 0.34375h-90.91c-20.711 0-37.5-16.793-37.5-37.5 0-18.988 14.109-34.676 32.41-37.16l5.0898-0.33984z"/>
 <path d="m1100 562.5c20.711 0 37.5 16.789 37.5 37.5 0 18.984-14.109 34.672-32.41 37.156l-5.0898 0.34375h-90.91c-20.711 0-37.5-16.793-37.5-37.5 0-18.988 14.109-34.676 32.41-37.16l5.0898-0.33984z"/>
 <path d="m284.39 862.57c14.645-14.645 38.391-14.645 53.035 0 13.312 13.316 14.523 34.148 3.6289 48.828l-3.6289 4.207-64.547 64.543c-14.645 14.645-38.387 14.645-53.031 0-13.316-13.312-14.523-34.145-3.6328-48.824l3.6328-4.207z"/>
 <path d="m927.12 219.85c14.645-14.645 38.387-14.645 53.031 0 13.312 13.312 14.523 34.145 3.6328 48.828l-3.6328 4.2031-64.543 64.547c-14.645 14.645-38.391 14.645-53.035 0-13.312-13.312-14.523-34.148-3.6289-48.828l3.6289-4.2031z"/>
</svg>
