<svg xmlns="http://www.w3.org/2000/svg" viewBox="0 0 128 160" x="0px" y="0px"><path d="M68.435,75.268c0,.138-1,.016-1.825-.13-.844,1.1.03,2.324,1.518,2.454a.889.889,0,0,1,.851.652c.123.644.023,1.534.606,1.94a.948.948,0,0,1,.407,1c-.185,1.189-1.251,1.986-1.55,3.213-.736.56-.59.606.453.123A1.56,1.56,0,0,1,69.01,84a.885.885,0,0,1,1.081-.614c1.917.437,1.963,4.195,1.243,5.56-1.082,2.032,1.556,1.035,2.009,2.239.621,1.649-.575,3.2-.146,4.793.391,1.434.33,1.688-.606,2.777-.828.958-4.348,3.6-.575,2.553a2.09,2.09,0,0,1,1.948.744c.667,1.143.376,1.289,1.534,1.856a10.2,10.2,0,0,0,.843-4.433,53.781,53.781,0,0,1-.659-5.659,11.045,11.045,0,0,1,2.032-5.545c-.023-.169-.046-.345-.054-.521-2.538.168-5.2-1.381-4.049-4.617,2.907-8.175-2.285-1.066-4.371-5.261A11.311,11.311,0,0,1,68.435,75.268ZM62.767,23.473a.113.113,0,0,0-.03.046c-.077.145-.131.3-.2.444a3.346,3.346,0,0,1,2.194,2.416c.23,1.181.974,1.986,1.288,3.052.767-1.135,1.657-2.178,3.175-1.319,1,.568,1.933.445,2.477,1.641.077.162.245.53.429.905a1.715,1.715,0,0,0-.674-1.556,4.038,4.038,0,0,1-.982-1.964c-.391-1.112.414-1.986-.1-3.144a1.6,1.6,0,0,1-.138-.7.873.873,0,0,1,.5-1.472,1.147,1.147,0,0,1,.682-.284,11.552,11.552,0,0,0,.982-.982L73.7,19.224c.391-.391.829-1.035,1.411-1.143a3.419,3.419,0,0,0-.015-.974.027.027,0,0,0-.023.008,1.064,1.064,0,0,1-1-.307,2.884,2.884,0,0,1-.468-1.035v-.008c-.03.016-.038.039-.069.062-.36.383-.636.836-1.012,1.211-.43.43-.936.775-1.38,1.189-.821.782-2.071-.46-1.243-1.242.437-.414.959-.752,1.381-1.189.23-.245.421-.514.621-.767a1.042,1.042,0,0,0-.683-.284,4.39,4.39,0,0,0-1.38.254,2.222,2.222,0,0,1-2.078-.407,5.835,5.835,0,0,1-2.309,1.166,7.2,7.2,0,0,1,1.12,1.741,5.944,5.944,0,0,1,3.029.751,3.1,3.1,0,0,1,1.48,2.285c.238,1.112-1.457,1.58-1.695.468-.076-.337-.03-.7-.306-.943a2.56,2.56,0,0,0-.729-.445,3.794,3.794,0,0,0-.629-.207,2.23,2.23,0,0,1-.7,1.94,6.652,6.652,0,0,1-1.71,1.235c-.644.284-1.342.43-2.009.652A.84.84,0,0,1,62.767,23.473Zm.039-.039c-.008,0-.016.008-.031.016v.015C62.783,23.457,62.8,23.45,62.806,23.434ZM84.792,86.9a1.836,1.836,0,0,1,.7-1.35c1.013-.59,2.746.882,3,.7a.974.974,0,0,1,.207-.115l.023-.276c.314-2.3.752-4.778-.545-6.933-.084-.138-.161-.26-.222-.368a.891.891,0,0,1-.406.008,4.1,4.1,0,0,1-2.692-2.247,3.252,3.252,0,0,1-.353-1.365c-.069-.675-.437-.483-1-.744-1.035-.491-2.293-1.219-2.638-2.4a7.892,7.892,0,0,1-.583-2.155,7.775,7.775,0,0,1,.292-1.626.628.628,0,0,1,.023-.13c-3.405-.077-7.086.329-10.484-.023-.138.966-.307,2.178.99,2.339a.9.9,0,0,1,.851,1.119,1.293,1.293,0,0,1-.5.928c-2.968,2.04,1.68.905,2.439.184.966-.912,3.1.353,4.111.261,1.081-.092,1.725.8,1.917,1.856.122.675-.161,3.029.529,2.239a.85.85,0,0,1,.859-.23,2.772,2.772,0,0,1,2.132,3.29c-.261,1.426-1.68,3.512.276,4.034a1.494,1.494,0,0,1,.8.751A13.392,13.392,0,0,1,84.792,86.9ZM84.11,31.786a.775.775,0,0,1-.146.061c-.015.046-.023.1-.038.146a2.35,2.35,0,0,1,.307.314,38.86,38.86,0,0,1,5.36,10.66c.039.123.054.245.085.368.314.061.322,0,.421-.468.23-1.119,1.895-.636,1.695.476-.015.1-.023.207-.038.314.031.023.069.046.1.069.513.43,2.062,1.871,2.783,1.7a1.266,1.266,0,0,1,1.189.476c.982.973,1.043.138,1.879-.093.943-.26,1.817.169,2.761-.3,1.02-.5,1.917,1.02.9,1.526-1.166.568-2.684.139-3.643.905-1.066.859-1.349.184-2.047-.23a3.868,3.868,0,0,0-1.381-.605,7.684,7.684,0,0,1-2.53-1.235c.161,1.71.513,3.42.007,4.992.982.016,2-.046,2.968-.107a.816.816,0,0,1,.522-.192,42.9,42.9,0,0,0,4.969-.115,9.716,9.716,0,0,0,4.762-1.825.815.815,0,0,1,.553-.245.889.889,0,0,1,.4.015c.361.092,4.471.636,4.54-1.158.077-2.14-1.779-3.29-3.688-3.382-2.27-.107-4.487.682-6.757.644a14.912,14.912,0,0,1-7.431-2.063.818.818,0,0,1-.406-.6A18.082,18.082,0,0,1,89,38.143c-1.465-1.856-3.244-3.888-3.988-6.112-.046-.153-.069-.276-.107-.406A1.508,1.508,0,0,0,84.11,31.786Zm-5.721,3.167c-.153,0-.008-.429.038-.614a5.717,5.717,0,0,1,.33-.912,4.107,4.107,0,0,1,1.565-1.672c-1.143-.56-2.332-1.028-3.267-1.557a13.994,13.994,0,0,0,.935,4.87C78.128,35.03,78.251,35,78.389,34.953Zm39.188,21.465a9.481,9.481,0,0,1-2.362,6.411c-2.009,2.24-6.373,3.559-9.272,4a.871.871,0,0,1-.475.422c-2.025.782-4.862,4.77-5.706,6.595a20.65,20.65,0,0,0-1.794,7.224,101.886,101.886,0,0,1-1.549,10.967,41.188,41.188,0,0,1-4.019,10.33.667.667,0,0,1,.13.13c1.642,1.986,4.763,2.393,6.588,4.341,1.917,2.039,4,3.98,5.828,6.081,1.043,1.2,4.226,7.638,2.83,9.034-.981.982-3.152.866-4.386,1-2.57.284-5.131.537-7.708.728-5.03.361-10.59.76-15.5-.828a3.832,3.832,0,0,1-1.027.131c-3.474,0-6.956.069-10.438.122a.92.92,0,0,1-.92.016c-2.254.03-4.509.061-6.756.053-.192,0-.384-.015-.575-.015a1.315,1.315,0,0,1-.483.092h-.767a.738.738,0,0,1-.407-.13c-2.622-.1-5.23-.292-7.86-.223a1.637,1.637,0,0,1-.207-.023,1.327,1.327,0,0,1-.729.2c-3.834,0-7.945.138-11.979.038-3.052-.077-5.866-.713-8.9-.989-5.935-.545-11.894-.484-17.853-.484a.9.9,0,0,1-.851-1.119c.368-1.971,3-2.784,4.5-3.62,3.213-1.787,5.138-5.069,8.558-6.587,1.933-.859,4.034-1.151,5.982-2.063a17.531,17.531,0,0,0,3.619-2.876c1.228-1.051,2.324-2.2,3.451-3.359,1.181-1.212,2.846-1.871,3.889-3.275a.887.887,0,0,1,.452-.33,9.867,9.867,0,0,0,1.38-1.763,20.887,20.887,0,0,1,2.293-2.961,31.017,31.017,0,0,0,4.863-8.6,22.031,22.031,0,0,0,1.5-6.335c-.138.154-.269.307-.407.453-.445.468-1.257.828-1.787.238a2.461,2.461,0,0,1-.506-.959,5.588,5.588,0,0,1-1.373,3.482.894.894,0,0,1-1.073.138c-.828-.583-.759-1.4-.775-2.37-.038-3.252-2.423-6.756-4.992-8.8A33.6,33.6,0,0,1,34.247,65.3a6.718,6.718,0,0,1-1.534-2.355c-1.12-.636-2.216-1.326-3.3-2.078a4.982,4.982,0,0,1-2.04-3.466.816.816,0,0,1-.506-.253c-4.341-4.341-5.568-12.056-4.732-17.922a31.947,31.947,0,0,1,3.635-10.277c.89-1.633,1.572-3.359,2.538-4.946.729-1.189,2.171-2.186,2.109-3.75a.913.913,0,0,1,.437-.759,2.311,2.311,0,0,1,2.386.138A15.033,15.033,0,0,1,34.492,17.3c1.02-1.595,2.378-2.415,3.635-3.781a11.233,11.233,0,0,1,6.212-3.857,1.015,1.015,0,0,1,.4-.13c.138-.008.391-.161.575-.2a4.17,4.17,0,0,1,.867-.084.847.847,0,0,1,.475.146A123.84,123.84,0,0,1,58.611,4.17c1.58-.575,3.535.476,5.061.69,1.925.269,4.379.207,6.227.875,2.478.881,7.209,2.806,8.429,5.375,2.538-.513,5.314-1.633,6.6-1.924,1.671-.384,3.535-.829,5.007.322,1.266.981,2.7,2.438,2.217,4.248a4.682,4.682,0,0,0,2.691,5.583c.7.353.905.4,1.212.974a5.026,5.026,0,0,1,3.121,3.1c1.381,3.375,2.37,6.833,4.2,9.978a90.723,90.723,0,0,0,5.675,8.888.4.4,0,0,1,.077.13,3.735,3.735,0,0,1,2.224,1.687,5.034,5.034,0,0,1,.774,3.52.838.838,0,0,1,.468.529C113.605,51.173,117.454,52.967,117.577,56.418Zm-2.653,3.612c.835-2.392.866-4.938-.921-6.909a14.652,14.652,0,0,1-2.853-3.85,6.163,6.163,0,0,1-5.276.905c-2.277,1.856-5.575,2.116-8.535,2.147a1.448,1.448,0,0,1-.545.1c-1.533,0-2.952.291-4.509.23-1.143-.054-1.449-.345-1.764.253-.621,1.189-1.7.974-2.707.544-1.3-.559-.376-.828-2.094-.483a.663.663,0,0,1-.176.008,1.969,1.969,0,0,1,.782.843c.675,1.458,2.769.821,4.088,1.189.7.192,1.181.928,1.58,1.457.759.99-.085,2.96.283,4.042a4.7,4.7,0,0,1,.3,2.569,6.9,6.9,0,0,1-2.262,3.3h.345c.545,0,1.066-.023,1.595-.046.951-.959,2.316-2.492,2.516-3.857.161-1.089-.384-2.255-.506-3.359-.169-1.511-.913-3.068.72-3.927a7.622,7.622,0,0,1,3.812-.115,1.628,1.628,0,0,1,1.058,1.005c.445.889.92-.736,1.066-1.059a.908.908,0,0,1,.767-.437c2.186-.184,2.891,3.137,3.052,4.709.246,2.462-1.211,4.118-2.216,6.089.483-.031.966-.061,1.449-.1a.835.835,0,0,1,.154-.176c1.58-1.4,3.228-2.814,3.213-5.153-.015-1.3-1.449-2.232-.66-3.582.775-1.319,1.948-.636,3.014-1.257a1.242,1.242,0,0,1,1.757.789,6.511,6.511,0,0,1,.3,1.5,1.068,1.068,0,0,1,1.2-.376c1.3.353,1.35,2.622,1.127,4.34A3.472,3.472,0,0,0,114.924,60.03Zm-2.961,2.585a6.527,6.527,0,0,0,.169-2.255v-.1a1.517,1.517,0,0,1-.322.146c-1.9.522-1.7-2.017-1.94-3.413a2.487,2.487,0,0,1-.376.192c-.56.176-1.5-.046-.821.905a3.639,3.639,0,0,1,.376,2.508,12.2,12.2,0,0,1-1.2,3.435,3.489,3.489,0,0,1-.644.806,10.669,10.669,0,0,0,3.474-1.373c.391-.245.813-.46,1.242-.683A.769.769,0,0,1,111.963,62.615Zm-6.925-20.492a16.356,16.356,0,0,1,1.672-.076,73.448,73.448,0,0,1-4.494-6.9,41.646,41.646,0,0,1,.989,7.17C103.8,42.254,104.417,42.185,105.038,42.123Zm.744,78.706c1.258-.038-1.165-4.494-1.449-5.176-.851-2.033-3.428-4.126-4.9-5.836a13.765,13.765,0,0,0-4.01-3.421c-.031.169-.077.361-.115.6-.1.621,1.188,1.073,1.579,1.395,1.235,1,1.319,1.588,1.365,3.06.039,1.289-.046,2.638-1.234,3.436-.821.552-1.595,1.258-2.462,1.748.675,1.5,2.163,3.428,2.055,5.07C99.693,121.328,102.784,120.914,105.782,120.829Zm-5.245-55.3c1.119-2.669,3.228-4.555,2.109-7.861-.253-.253-.445-.468-.591-.644-.038.1-.084.207-.123.307a2.274,2.274,0,0,1-.759.721,2.336,2.336,0,0,1-2.224-.269c-.36-.283-.79-1.112-1.3-1.058a7.1,7.1,0,0,1-1.266.084c-1.281-.061-.023,3.451.092,4.142a6.675,6.675,0,0,1-1.718,5.222c1.6-.138,3.175-.337,4.847-.544C99.908,65.59,100.222,65.56,100.537,65.529Zm2.055,1.572-.936.069a.946.946,0,0,1-.943.084c-.038.008-.077.008-.107.016-1.7.207-3.229.951-4.962.92-.66-.015-1.319-.023-1.971-.038a8.163,8.163,0,0,1,.077,1.5,29.486,29.486,0,0,0,.353,4.317,3.664,3.664,0,0,0,.751-.506c.445-.291.361-.406.514-.882A.892.892,0,0,1,96.84,72.2c.46.414.6,1,1.1,1.419A22.44,22.44,0,0,1,102.592,67.1ZM94.356,41.364a13.38,13.38,0,0,0,7.086,1.105,35.3,35.3,0,0,0-3.191-12.685,4.323,4.323,0,0,1-2.929-.36,4.6,4.6,0,0,1-1.12.475,5.782,5.782,0,0,1-1.449.3.092.092,0,0,1-.008.046,3.854,3.854,0,0,1-2.6,1.68,1.449,1.449,0,0,1-.859,1.119c-.391.207-.774.445-1.173.645,1.549,1.963,3.137,6.165,5.66,7.032A.863.863,0,0,1,94.356,41.364ZM98.7,26.985a13.472,13.472,0,0,0-1.565-3.742,1.976,1.976,0,0,0-1.763-1.082,3.021,3.021,0,0,1,.291,1.2c.038,1.135-1.726,1.135-1.772,0a1,1,0,0,0-.053-.33,7.1,7.1,0,0,0-1,.161c0,.092.007.192.015.284a1.3,1.3,0,0,0,.223.467,3.389,3.389,0,0,1,.23.537c.368.146.728.315,1.081.414C96.1,25.375,97.546,25.451,98.7,26.985Zm-1.473,48.3a1.093,1.093,0,0,1-.115-.069,4.158,4.158,0,0,1-.751-.714c-.261.215-.537.384-.8.591a3.293,3.293,0,0,1-1.181.644c.039.261.085.514.131.767a21.951,21.951,0,0,1-.368,8.06c-1.281,6.8-2.539,13.306-5.507,19.571-1.1,2.324-2.369,4.555-5.176,4.747h-.008a11.42,11.42,0,0,1-1.971,5.9c-1.3,1.787-1.925,4.011-2.814,6.059a4.539,4.539,0,0,0,2.761-1.588c1.227-1.265,2.63-2.561,3.2-4.294a.866.866,0,0,1,.231-.361A44.035,44.035,0,0,1,88,108.344c1.112-2.078,1.618-4.348,2.669-6.442a51.267,51.267,0,0,0,4.8-14.839C96.089,83.252,95.928,78.988,97.231,75.284Zm-1.917,38.5c1.35-.506,1.2-1.825,1.189-2.837-.008-1.043-1.074-1.411-1.787-1.9a2.65,2.65,0,0,1-1.166-1.672c-.145-.59.261-1.081.138-1.656-.03-.008-.069-.023-.1-.031a4.058,4.058,0,0,1-1.987-1.565,46.489,46.489,0,0,1-2.009,4.962c.476.8.568,1.526,1.718,2.009a6.467,6.467,0,0,1,2.178,1.174,3.281,3.281,0,0,1,.675,2.408A3.426,3.426,0,0,1,95.314,113.789Zm-.613,8.129c.214-.383-.644-2.623-.829-2.9a8.469,8.469,0,0,1-1.472-3.972c-.153-1.012-.046-1.6-1.135-2.063a6.832,6.832,0,0,1-1.8-1,3.658,3.658,0,0,1-.874-1.1,24.918,24.918,0,0,0-2.163,4.555.859.859,0,0,1-.245.384,15.638,15.638,0,0,1-3.5,4.816c-.284.3-.514.575-.729.828C85.958,122.608,90.3,122.394,94.7,121.918Zm-.276-95.14c-.161-.061-.33-.123-.5-.184a2.039,2.039,0,0,0-2.5.5,9.644,9.644,0,0,1,.89,1.051.949.949,0,0,0,.889.215c.468-.138,1.059-.2,1.135-.552a5.071,5.071,0,0,1-.061-.514A.815.815,0,0,1,94.425,26.778ZM92.783,82.362A23.132,23.132,0,0,0,92.4,74.64c-.222-1.258.123-5.568-.544-6.373a.941.941,0,0,1-.1-.146l-2.868-.046c.069,2.078.352,4.141.352,6.235,0,2.438.905,4.141,1.5,6.426.751,2.876-.4,7.1-.737,10.008-.345,2.983-2.431,5.568-3.957,8.122a10.162,10.162,0,0,1-5.322,4.256c-.92,1.787-1.419,5.184,1.4,3.535a1.285,1.285,0,0,1,1.4.146c2.094,2.093,5.093-8.382,5.867-9.793C91.7,92.769,92.009,87.117,92.783,82.362Zm.959-61.85c-1.112-.605-2.807-.812-3.359-2.193-1.327-3.313,1.557-8.98-4.985-7.431-3.589.851-10.782,4.479-13.428.36-.613-.966.913-1.848,1.526-.9.537.844,1.641,1.1,2.968,1.02C75.505,10.228,73.021,9.546,72,8.779c-1.91-1.426-3.881-1.564-6.174-1.794-3.29-.33-5.7-1.665-8.942-.123-5.329,2.538-14.6,4.609-16.756,10.882.146-.008.276-.008.391-.008,1.91.054,2.446-.966,3.558-2.2A1.742,1.742,0,0,1,45.221,15a4.766,4.766,0,0,1,3.114,1.6,2.85,2.85,0,0,1,.59,1.749,4.714,4.714,0,0,0,1.841,3.1.8.8,0,0,1,.536.008,8.874,8.874,0,0,1,1.849.859,34.162,34.162,0,0,1,2.63-4.763c-.008-.046-.031-.084-.038-.138-.039-1.672-.345-2.369.414-4A8.923,8.923,0,0,1,58.02,10.75c.99-1.12,2.922-1.419,4.165-2.132a6.027,6.027,0,0,1,3.681-.56c2.078.445,4.325,1.189,3.6,3.842a6,6,0,0,1-.559,1.312c.452.222.851-.131,1.395-.2a4.609,4.609,0,0,1,1.519.008,3.011,3.011,0,0,1,1.334.79,1.089,1.089,0,0,1,.637-.154c.836.077,1.188.721,1.449,1.427a1.07,1.07,0,0,1,.867.13c.605-.751,1.38-1.349,2.362-.966,1.25.475,1.319,1.91,1.3,3.121a.9.9,0,0,1,.061.874c-.583,1.3-.422,2.5-.729,3.8.077-.314,2.056.023,2.493-.314.383-.292,1.656-1.043,1.166-1.81-1.235-1.948.276-3.006,1.533-4.471.852-1,2.677-2.791,4.027-1.442,1.434,1.434-.691,3.137-1.12,4.41-.361,1.066-2.063.606-1.695-.476a6.426,6.426,0,0,1,.568-1.457c.015-.015.115-.145.23-.291a1.187,1.187,0,0,1-.261-.146,26.3,26.3,0,0,0-1.894,2.232c-.322.383.866,1.733.651,2.523a4.356,4.356,0,0,1-1.909,2.14c-1.051.8-4.548,1.587-5.3-.131-.591-1.38-.161-3.244.406-4.709a.029.029,0,0,0-.007-.015,4.44,4.44,0,0,0-.131-2.132,1.026,1.026,0,0,0-.084.069,2.92,2.92,0,0,0-.4.353,6.987,6.987,0,0,0-.529.859,4.846,4.846,0,0,1-.851,3.405l-.092.092a1.987,1.987,0,0,0-.008.928c.483,1.027-1.035,1.925-1.519.9a2.752,2.752,0,0,1-.253-.9c-.061-.038-.13-.061-.191-.107-.016-.008-.023-.008-.039-.016-.092.092-.184.184-.276.269a15.372,15.372,0,0,1-1.135,1.073c.851.882,3.006-.153,3.973,1.1.6.775,1.5,1.434,1.595,2.347.951-.338,1.848-.069,3.236.084,1.718.192,1.48-.8,2.838-1.664,1.012-.644,1.311-1.856,2.523-2.163.859-.214,1.434.177,2.285-.329A3.221,3.221,0,0,1,90.2,22,6.091,6.091,0,0,1,93.742,20.512Zm-2.354,3.965a3.015,3.015,0,0,1-.169-.322,1.9,1.9,0,0,1-.107-.483.831.831,0,0,1-.783.123c-.506.107-.736.437-1.349.606-.767.207-1.879-.545-2.263.536a1.913,1.913,0,0,1-1.71,1.411c-.422.031-.874,1.013-1.472,1.611a.8.8,0,0,1-.069.253c-.315.7.168,1.212.491,1.764a3.737,3.737,0,0,1,.835-.107,8.394,8.394,0,0,1,1.6-2.654,2.017,2.017,0,0,1,1.395-.813,3.931,3.931,0,0,0,3.306-1.656A2.275,2.275,0,0,1,91.388,24.477ZM91,29.638c.092-.061.046-.2-.053-.375-.307-.353-.583-.744-.913-1.066a.782.782,0,0,1-.13-.154c-.767.115-1.642-.053-2.209.43.46.544.744,1.219,1.227,1.733.046.054.1.1.146.146A5.045,5.045,0,0,0,91,29.638ZM87.745,66.349c1.749-1.679,3.374-2.446,2.83-5.368a12.018,12.018,0,0,1-.131-2.73c.1-2.776-2.6-1.281-3.665-1.641a2.872,2.872,0,0,1-1.327-.775c-.6-.552-.253-1.38-1.25-.943a5.069,5.069,0,0,1-2.638.414,3.628,3.628,0,0,1-.123.882,1.255,1.255,0,0,1-.452.721c.859,1.219,1.48,2.485.567,4.042-.644,1.1-2.293.49-3.106.03-1.05-.59-5.537-4.624-4.08-6.242a5.409,5.409,0,0,1-.674-3.528c.268-1,2.76-1.94,2.76-2.646a8.912,8.912,0,0,0-.237-1.9.809.809,0,0,1-.422.1,6.79,6.79,0,0,1-1.572-.222c-.161-.031-.476.705-.56.851a5.248,5.248,0,0,0-.391,1.825,9.293,9.293,0,0,1-.637,1.979c-.391.989-2.231,3.458-3.328,1.595a1.4,1.4,0,0,1-.161-.943,2.048,2.048,0,0,0-.514-1.665,3.971,3.971,0,0,1-1-2.362,1.84,1.84,0,0,1-.89.276c-.437.016-2.193-.36-2.362.131-.407,1.219-1.5,1.058-2.431.667-.545,2.362-2.193,2.861-4.5.775C56.7,49,55.8,48.949,54.884,48.236c-.759-.583-.782-1.764-1.848-.384-.507.644-.79,1.143-1.6,1.365a2.723,2.723,0,0,1-2.508-.744.447.447,0,0,0-.046.077,1.356,1.356,0,0,1-.736.583,1.653,1.653,0,0,1-1.687-.483c-.79-.974-1.826-2.853-.568-3.865.154-.123-.115-.238-.376-.752a2.391,2.391,0,0,1-.352-1.311A6.074,6.074,0,0,1,46,39.685a3.017,3.017,0,0,1,2.2-1.335,1.056,1.056,0,0,1-.023-.322c.115-1.188.306-1.572-.783-2.377-1.227-.913-.437-2.3.391-3.106.767-.736-1.349-1.833-1.817-2.408-.33-.391-.5-1.856-.805-2.086A4.907,4.907,0,0,1,43.2,25.735c-1.081.8-2.293.928-3.1-.79a2.483,2.483,0,0,1-.33-1.917c.323-.943-.36-.729-.974-1.173a2.373,2.373,0,0,1-1.119-2.669,1.353,1.353,0,0,1,.452-.759c.008-.031.008-.062.016-.1a10.174,10.174,0,0,1,2.791-5.046,1.446,1.446,0,0,1-.084-.192.458.458,0,0,1-.054.054,19.435,19.435,0,0,1-1.856,1.948A10.376,10.376,0,0,0,36.011,18.2c-.192.376-.637,1.2-.936,1.757a.8.8,0,0,1,.13.1,5.893,5.893,0,0,1,1.358,3.865,1.071,1.071,0,0,1,.268.162,8.747,8.747,0,0,1,2.914,5.567,1.236,1.236,0,0,1,.384.476c1.334,3.159,1.235,4.754.667,8.136-.261,1.58-.613,5.131.943,6.1a6.869,6.869,0,0,1,1.58,1.979c.506.851,2.362,3.451.913,4.34-1.189.721-1.572-.238-2.278.836l-.008.008a.833.833,0,0,1-.4.782c-.092.061-.913.422-.921.307A1.5,1.5,0,0,0,41.1,53.78c.207.292.184.43.138.476a2.437,2.437,0,0,1,.453-.062,5.966,5.966,0,0,1,1.986-.015,1.835,1.835,0,0,1,.981.675,4.209,4.209,0,0,1,1.511.544,8.134,8.134,0,0,1,1.887,1.273c.736.852-.506,2.109-1.25,1.243a5.716,5.716,0,0,0-1.342-.875,3.817,3.817,0,0,0-.491-.253,2.084,2.084,0,0,1-1.426,1.549,5.025,5.025,0,0,0-2.493.921,10.671,10.671,0,0,1-1.564,1.2,1.715,1.715,0,0,1-2.454-.621c-.652-1.012-1.956-1.756-1.5-3.167a17.548,17.548,0,0,1,1.342-3.359c-2-.215-4.318.375-4.7,2.4-.269,1.442,1.457,1.587,2.285,2.071A8.636,8.636,0,0,1,36.1,59.7c2.975,3.665,4.034-.4,7.339.291,1.112.23.644,1.925-.468,1.7-1.081-.223-2.37,1.165-3.367,1.442a3.662,3.662,0,0,1-1.771-.039,3.181,3.181,0,0,1-.422.591A7.652,7.652,0,0,0,41.2,64.747c.621-.039,8.229-2.439,7.048-3.958-.7-.881.544-2.139,1.242-1.242a2.864,2.864,0,0,1,.8,1.634V61.2a.76.76,0,0,1,.353.268c4.333,5.5,11.872,3.428,17.915,4.418,3.6.6,7.531.084,11.181.207C82.407,66.188,85.069,66.3,87.745,66.349ZM89.754,51c.859-1.388.307-2.814.307-4.356,0-.521-.031-1.043-.054-1.557h-.184c-.23,3.083-3.09,5.016-6.334,4.126,1.188.89,5.2,2.753,5.92,2.032A1.6,1.6,0,0,1,89.754,51Zm-1.265,37.14a1.56,1.56,0,0,1-1.15-.276c-1.458-1.043-.461-.682-.974.2-1.043,1.779-3.229.429-3.743-.921-.03-.061.154-1.679.131-1.687a5.2,5.2,0,0,1-1.649-.951,1.686,1.686,0,0,1-.568-1.679,7.25,7.25,0,0,1,.353-.966,3.436,3.436,0,0,0,.475-3.436c-.191.222-.406.544-.728.613a2.6,2.6,0,0,1-2.37-.536.92.92,0,0,1-.406-.99c.3-1.549,1.089-3.044-1.1-3.044-.751,0-1.541-.629-2.239-.215a6.1,6.1,0,0,1-4.279.867c.483,1.25.828,2.668,2.73,2.124,1.572-.453,2.431-.476,3.4,1.166,1.227,2.093-3.3,8.873,1.879,7.461a.893.893,0,0,1,1.12.852,9.842,9.842,0,0,0,.153,1.5c1.595.89,1.281,2.753,1.281,4.586,0,1.948.836,3.743.8,5.683a21.984,21.984,0,0,1-.253,2.392,12.4,12.4,0,0,0,4.717-5.69c.8-1.764,2.07-3.351,2.27-5.322C88.4,89.3,88.443,88.72,88.489,88.144ZM83.343,47.331c1.35.621,5.246.337,4.9-2.309A17.391,17.391,0,0,0,86.349,40.1c-.452-1-.912-2.071-1.411-3.129a3.742,3.742,0,0,1-1.863,1.173c-.169.031-.345.054-.522.077a2.106,2.106,0,0,1,.077.575,5.85,5.85,0,0,1-.966,2.339,3.345,3.345,0,0,1-1.8,1.342,26.6,26.6,0,0,0,2.086,5.131.788.788,0,0,1,1.2-.376.781.781,0,0,0,.085.061C83.266,47.308,83.305,47.315,83.343,47.331Zm4.632-15.576c-.046-.046-.092-.084-.13-.123a13.271,13.271,0,0,1-1.1-1.541,2.471,2.471,0,0,0,.307,2.147.7.7,0,0,1,.107-.046A4.574,4.574,0,0,0,87.975,31.755Zm-.537,44.664c.092-2.822-.268-5.576-.33-8.375q-2.392-.034-4.785-.107c0,.031.015.054.015.092a8.484,8.484,0,0,0,.062,2.83c.483,1.641,1.725,1.418,2.952,2.063,1.465.774.575,2.991,2.086,3.742ZM84.509,52.791a2.55,2.55,0,0,1-.46-.223c-.223-.138-.438-.283-.652-.429-.016.046-.023.092-.039.138a.894.894,0,0,1-1.3.552c-.659-.483-.667.123-.567.683C82.653,53.527,83.466,52.906,84.509,52.791ZM84.064,35.26c-.253-.445-.522-.882-.8-1.281a5.346,5.346,0,0,0-1.22-1.2,5.694,5.694,0,0,0-1.257.821,2.846,2.846,0,0,0-.683,1.5c-.031.122-.061.245-.1.36a4.123,4.123,0,0,1,1.473.989,1.481,1.481,0,0,0,.276.023A2.888,2.888,0,0,0,84.064,35.26Zm-1.588-4.233a6.5,6.5,0,0,1-.529-1.013,3.537,3.537,0,0,1-.291-1.641c-1.173-.207-2.492-.767-3.466-.146C78.581,29.04,80.805,30.076,82.476,31.027Zm-.69,19.663c0-.108,0-.207-.007-.315a3.033,3.033,0,0,1-.33-1.334,3.414,3.414,0,0,1-1.618-1.358c-1.887-3.3-1.672-6.9-2.93-10.36a20.669,20.669,0,0,1-1.6-7.316c0-.944.9-3.428.361-4.126-.989-1.273-2.347-1.112-3.451-1.3a12.468,12.468,0,0,0,1.357,3.934.809.809,0,0,1,.4.92,14.8,14.8,0,0,0-.153,3.022,1,1,0,0,1-.046.276.915.915,0,0,1-.008.245c2.715,3.305,2.324,7.891,3.658,11.9.429,1.273,1.12,2.976.775,4.41.529.843,1.273,1.679,1.94,2.561C80.368,50.966,80.843,50.406,81.786,50.69Zm-2.615,64.441c1.135-2.04,2.27-3.827,2.5-6.15a4.465,4.465,0,0,1-1.227.736c-3.742,1.028-1.863-6.6-1-7.914l.023-.023c.177-1.948.614-3.628-.015-5.714a17.779,17.779,0,0,1-.414-5.222c0-2.347-.844,1.005-.859,1.051a10.159,10.159,0,0,0-.414,5.475,12.366,12.366,0,0,1,.245,4.08c-.414,4.21-2.922,8.451-.59,12.431.966,1.657-1.526,4.947-2.822,7.063h2.085C77.63,119.065,78.144,116.964,79.171,115.131Zm1.718-76.589c.038-.092-.161-.322-.445-.583-.56-.276-1.05-.659-1.71-.521a14.727,14.727,0,0,1,.407,1.787c.076.506.23,1,.352,1.5C80.368,40.314,80.483,39.37,80.889,38.542ZM79.34,59.463c1.2.567-1.081-3.321-1.043-3.26A.888.888,0,0,1,79.509,55a36.551,36.551,0,0,0-1.856-3.312s0-.008.007,0l-.015-.016c-.184-.207-.345-.445-.506-.667-.982.959-2.009,1.357-.867,3.635a.891.891,0,0,1-.521,1.3C75.82,55.935,78.8,59.2,79.34,59.463ZM75.736,45c-.254-.751-.537-1.5-.79-2.247a1.065,1.065,0,0,1-.3.085,1.382,1.382,0,0,1-.66-.054c-.261-.1-.176-.222-.368-.084a2.489,2.489,0,0,1-.828.475,4.521,4.521,0,0,1-1.726.054,12.318,12.318,0,0,1-1.4,1.165,2.987,2.987,0,0,1-1.288.652c-.023.192.054.353.33.506a1.84,1.84,0,0,1,.567.461c.445.582.039,1.135.123,1.786.115.967,1.02,1.764,1.411,2.623.038.092.077.2.107.3a12,12,0,0,0,.8-2.9,11.11,11.11,0,0,1,.821-2.093C73.074,44.2,74.6,44.953,75.736,45Zm-1.105,71.927c.46-.874,1.595-1.825.545-2.646a.846.846,0,0,1-.223-.383,9.752,9.752,0,0,1-.276-4.287c.1-1.1.062-2.776.292-4.011-.844-.384-2.546-.706-2.546-2.017,0-.514-.905-.4-1.688-.322-.023.03-.038.061-.061.092a2.432,2.432,0,0,1-.2.207c.015.046.03.084.046.13,1.211,3.421,1.656,9.586,1.656,9.586,0,.767-1.764.767-1.764,0a24.766,24.766,0,0,0-1.449-8.474,8.947,8.947,0,0,0-1.127,2.017,1.153,1.153,0,0,1-.1.146c1.2,2.9,2.124,5.928,1.756,8.9-.138,1.112-1.9,1.12-1.764,0a13.63,13.63,0,0,0-.7-5.7,8.212,8.212,0,0,1-.253,2.715c-.246.4-.76,1.089-1.212,1.779a14.794,14.794,0,0,1,.1,3.981c-.123,1.119-1.887,1.127-1.764,0,.03-.3.053-.6.069-.905-.859.56-2.163.667-2.293,2.392a2.531,2.531,0,0,1-.2.829c1.227-.008,2.454-.016,3.689-.016h3.075c.414-.5.844-.974,1.22-1.51a5,5,0,0,0,.767-3.283.882.882,0,0,1,1.763,0,6.489,6.489,0,0,1-.575,3.5,9.74,9.74,0,0,1-.935,1.3h2.093C73.166,119.556,73.918,118.291,74.631,116.926Zm-.169-75.861c-.03-.138-.069-.276-.1-.414-.376-1.979-.407-3.85-1.281-5.514a2.57,2.57,0,0,1-.59,1.02c-.5.537-1.22.353-1.872.276-.069.215-.115.491-.184.721a1.987,1.987,0,0,1,.691,1.258,11.561,11.561,0,0,0,.444,2.446,2.7,2.7,0,0,1,.177.69,1.275,1.275,0,0,0,.391-.023c.3-.076.46-.307.721-.445a1.413,1.413,0,0,1,.928-.2C74.025,40.912,74.232,41.027,74.462,41.065Zm-3.144-6.3c.184,0,.338-1.073.414-1.633a5.23,5.23,0,0,1-1.564-2.362c-.284-.874-2.086-1.473-2.638-.606-.315.483-.591,1.02-.928,1.511a1.131,1.131,0,0,1,.138.652,4.743,4.743,0,0,1,.966,2.277,3.036,3.036,0,0,1-.184,1.2,3.143,3.143,0,0,0,1.066.4c.491.092.3.192.414-.314a1.6,1.6,0,0,1,.7-1.112C70.222,34.462,70.774,34.769,71.318,34.761ZM71.4,94.134c1.442-2.4.092-1.917-1.3-2.439-2.04-.774-.1-4.256-.046-5.844-.614.8-1.519,1.028-2.945.522a.887.887,0,0,1-.652-.851,9.065,9.065,0,0,1,.6-2.485c.483-1.38,2.04-1.143.537-1.979-1.242-.682.338-1.717-.514-1.794a3.647,3.647,0,0,1-1.51-.453,3.933,3.933,0,0,1-.606,1.358c-.836,1.165-1.68.928-3.006.6-.645-.161-.913-.621-1.7-.66a1.645,1.645,0,0,1-.951-.406c-.967-.974.122-2.354.153-3.535a2.967,2.967,0,0,1-2.109.475A4.838,4.838,0,0,1,56.1,75.015a.9.9,0,0,1-1-.406c-.139-.23-.269-.491-.407-.729-.038.131-.077.284-.138.491a10.991,10.991,0,0,1-1.572,2.922.9.9,0,0,1-.483.345,25.491,25.491,0,0,1-.483,6.1c-.384,1.994-2.079,4.072-2.784,6a23.27,23.27,0,0,1-2.769,4.425,47.3,47.3,0,0,1-4.616,5.6,17.668,17.668,0,0,1-1.749,1.918c-.061.076-.13.153-.2.23a.914.914,0,0,1-.215.176c-1.442,1.342-3.052,2.569-4.44,3.75-1.979,1.68-3.5,3.329-5.882,4.356-3.482,1.511-6.688,2.055-9.471,4.893a15.037,15.037,0,0,1-3.1,2.776,30.708,30.708,0,0,0-3.811,1.994,143.024,143.024,0,0,1,16.013.491c3.949.429,9.985.682,14.578.813a3.354,3.354,0,0,0-.552-1.887,11.718,11.718,0,0,1-1.051-1.725c-.475-1.028,1.043-1.918,1.519-.89.4.859,1.073,1.564,1.442,2.439a5.255,5.255,0,0,1,.406,2.109c1.986.053,3.52.076,4.233.092-.7-3.712,3.681-7.638,6.227-9.379.944-.645,1.826.866.9,1.5-2.73,1.863-4.763,4-5.223,7.446-.069.545,2.193.108,2.669.108q2.508,0,5-.016a3.49,3.49,0,0,0,.759-1.5,5.134,5.134,0,0,1,1.174-2.1,5.257,5.257,0,0,1,2.162-1.2c-.429.161-.061-1.481.154-1.7l.268-.292a10.845,10.845,0,0,0-.4-1.342c-.391-1.027,1.181-1.488,1.649-.575a6.686,6.686,0,0,0,.3-3.474,2.584,2.584,0,0,1,.46-2.155c-.583-1.342-1.2-2.63-1.748-3.842-.46-1.028,1.058-1.925,1.526-.89.429.959.905,1.956,1.373,2.976a3.679,3.679,0,0,1,.789-1.235,6.536,6.536,0,0,1,.721-.575c-.191-.5-.4-1.012-.613-1.534-1.2-2.929-1.687-5.981-2.539-9a.879.879,0,0,1,1.7-.46c.713,2.515,1.434,4.939,2.217,7.362,1.372-1.472,2.185-1.871,2.185-4.18A2.24,2.24,0,0,1,71.4,94.134ZM69.332,42.453c.79-.529.314-3.666-.383-4.287a.739.739,0,0,1-.131-.138,3.971,3.971,0,0,1-1.242-.261,1.543,1.543,0,0,1-.223.491c-.421.6-1.127.959-1.533,1.549-.43.629-.9.813-1.066,1.619a4.685,4.685,0,0,1-.453,1.158c.7.023,1.35-.069,1.641-.867a.887.887,0,0,1,1.734.238C67.676,43.519,68.5,43.005,69.332,42.453Zm-.583,31.036a8.676,8.676,0,0,1,1.074-1.81c-1.534-.59-1.641-1.894-1.442-4.034-3.374-.46-7.094-.184-10.537-.621-.2,1.58,1.933,3.49,2.968,4.08a19.4,19.4,0,0,0,7.9,2.37C68.726,73.474,68.734,73.482,68.749,73.489Zm-1.84-60.806c.122-.146,1.48-1.895.682-2.27-2.07-.974-3.972-.476-5.913.467-1.066.514-3.236,1.082-3.627,2.454-.13.491-.238.951-.322,1.419a4.145,4.145,0,0,1,1.8-.744,6.681,6.681,0,0,1,3.934.307,1.027,1.027,0,0,1,.353-.084A3.331,3.331,0,0,0,66.909,12.683ZM66.74,46.188c-.008-.008-.008-.015-.015-.023a2.017,2.017,0,0,1-.016-1.687,2.641,2.641,0,0,1-.4-.6,3.7,3.7,0,0,1-2.446.46c-.82-.1-.89.6-1.534,1.112a2.067,2.067,0,0,1-.667.352,3.226,3.226,0,0,1,.621,1.312c.453.284.437.414.736-.154a1.563,1.563,0,0,1,1-.651C64.922,46.058,65.95,46.541,66.74,46.188ZM64.991,20.727c.292-.207,1.381-.905.974-1.4a.794.794,0,0,1-.138.023c-3.037.038-6.02,1.848-8.658,3.144-.8.4-1.6.383-2.308,1.02,1.557,1.112,3.466.913,5.314.66a.871.871,0,0,1,.146-.192,3.02,3.02,0,0,0,.56-.644c.13-.23.2-.484.337-.706a1.736,1.736,0,0,1,1.074-.843.81.81,0,0,1,.238-.139A11.5,11.5,0,0,0,64.991,20.727Zm.752,14.609a1.644,1.644,0,0,0-.268-1.556c-.008-.016-.016-.039-.023-.054a4.84,4.84,0,0,1-3.329-.215c-.491-.291-.629-.882-1.273-.552-.491.253-1.725.6-1.879,1.135-.352,1.227-1.1,2.354-1.579,3.566a1.442,1.442,0,0,1-.453.621,5.233,5.233,0,0,1,.353.445c.261.368.79.353,1.3.4a.933.933,0,0,1,.621-.353c1.119-.146.889-2.147,1.833-2.692.72-.429,2.224-.912,3.021-.444a1.616,1.616,0,0,1,.667.989c-.138-.353.545-.077.545-.069.023-.192.054-.391.084-.591A1.373,1.373,0,0,1,65.743,35.336ZM64.5,74.693a.648.648,0,0,1,.053-.1,22.766,22.766,0,0,1-5.4-2.446c-1.748-1.089-3.267-3.328-3.006-5.414a11.106,11.106,0,0,1-6.756-4.026.515.515,0,0,1-.054-.077,25.934,25.934,0,0,1-4.233,2.991,14.189,14.189,0,0,1,7.094,9.6c.49-.859.958-1.894.744-2.377a1.109,1.109,0,0,1,.145-1.143.9.9,0,0,1,1-.4,2.962,2.962,0,0,1,2.224,1.878,1.809,1.809,0,0,1,1.25.66c.491.475.284,1.35,1.3.713a2.2,2.2,0,0,1,.982-.376.9.9,0,0,1,1,.4,3.583,3.583,0,0,1,.222,2.408c-.253,1.649-.683,1.151.782,1.695.66.245,1.3.943,1.749.084C64.294,77.4,63.994,76.043,64.5,74.693ZM63.7,39.37c.353-.36.721-.751,1.1-1.1a2.062,2.062,0,0,1-1.411-.483.863.863,0,0,1-.23-.384l-.069-.138c-.315.1-.645.154-.951.269-.33.13-.752,1.687-1.028,2.024a2.478,2.478,0,0,1-1.143.806c.207,1.119-.966,1.733-2.009,2.231.621.56,1.411,1.112,2.155,1.7a1.129,1.129,0,0,1,.253-.062c1.38-.03,1.158-.974,1.933-1.472a10.83,10.83,0,0,0,.8-2.147A2.215,2.215,0,0,1,63.7,39.37Zm.284-7.646a1.052,1.052,0,0,1,.115-.23,1.077,1.077,0,0,1-.115-.467c0-1.066.9-.921-.215-1.964s-.383-2.929-1.933-3.52a1.006,1.006,0,0,1-.306.184A9.131,9.131,0,0,1,58.3,27.276c-1.2.33-2.124,2.017-3.244,2.692-.6.361-1.02,1.066-1.541,1.488a26.446,26.446,0,0,0,1.227,4.325,2.989,2.989,0,0,1,.307,1.059c1.357-.1.5-.737,1.388-1.948A26.216,26.216,0,0,0,57.783,32.4c.559-.928,3.412-2.017,4.432-1.234a5.4,5.4,0,0,0,1.718.751C63.956,31.847,63.971,31.786,63.987,31.724Zm.675-14.041c-1.427-2.025-5.077-3.459-6.5-.783-.759,1.435-1.7,2.761-2.484,4.18,1.219-.414,2.224-1.1,3.405-1.611A21.766,21.766,0,0,1,64.662,17.683ZM60.344,47.8a.929.929,0,0,1,.222-.506c-.214-1.035-2.224-1.61-2.684-2.3-.575-.859-1.495-1.4-2.109-2.209a.881.881,0,0,1,.315-1.2c.406-.261.859-.376,1.242-.675a1.22,1.22,0,0,1,.154-.092c-1.4-.238-1.872-1.894-3.129-2.155a4.315,4.315,0,0,1-2.017.583c-1.956.123-.514.429-2.086,1.074.951-.392,2.791,1.549,2.515,2.538a1.3,1.3,0,0,1-.79.913c-1.012.3.092,1-.153,1.625a15.8,15.8,0,0,0-1,2.04c.322.046,1.986-1.748,2.385-2.017,1.35-.92,1.94-.283,2.615.951.982,1.787,1.25.4,2.094,1.2C58.964,48.542,60.152,50.306,60.344,47.8ZM56.188,26.1a5.379,5.379,0,0,1-1.1-.3c-1.534-.644-2.623-2.124-4.256-2.653a1.416,1.416,0,0,1-.154-.062.86.86,0,0,1-.9-.161A8.255,8.255,0,0,1,48,20.858a.88.88,0,0,1-.828,0c-.192-.1-.675.023-.9.023a2.972,2.972,0,0,0-1,.161c-1.074.391-1.534-1.312-.475-1.7a5.2,5.2,0,0,1,1.648-.23,5.441,5.441,0,0,1,.867.007,6.133,6.133,0,0,1-.146-.774c-.176-1.312-2.017-1.388-2.715-.491a3.763,3.763,0,0,1-1.641,1.495,3.511,3.511,0,0,1-1.518.169,1.247,1.247,0,0,0-1.6.8c.568.276,1.526.338,1.887.951a1.886,1.886,0,0,1,.076,1.7q.978,2.047,1.664.223a4.234,4.234,0,0,0,.484-1.128.884.884,0,0,1,1.725.33.924.924,0,0,1-.023.429c-.368,1.181,1.68,1,2.186,1.3.92.537,1.441,1.626,2.392,2.109,1.941.966,2.048,1.887,2.8,3.781C52.545,29.178,55.52,26.747,56.188,26.1ZM50.543,37.491c1.5.1,3.037.422,2.194-1.848-.5-1.334-.614-2.86-1.074-4.195-1.219-.851-.552-2.576-2.477-3.688-.951-.545-2-1.956-3.037-2.209a5.749,5.749,0,0,1-1.319-.476c.245.99,1.081,1.181,1.779,1.879,1.028,1.028-.322,1.273,1.741,2.83.82.621,1.817,1.511,1.817,2.654a1.409,1.409,0,0,1-.49.935c-1.059,1.059-1.028.8-.192,1.534.79.69.345,2.055.46,2.822A.8.8,0,0,1,50.543,37.491Zm.338,38.675a8.49,8.49,0,0,0-.568-2.339,13.187,13.187,0,0,0-5.56-6.366,38.514,38.514,0,0,1,3.129,7.692c.368.445,1.043.583,1.357,1.151a9.758,9.758,0,0,1,.5,1.081,3.1,3.1,0,0,1,.322-.414C50.328,76.695,50.605,76.434,50.881,76.166Zm-.338-33.813c-.92.277-1.894-1.38-2.132-2.27-.836-.015-1.257,1.266-1.38,1.918a2.512,2.512,0,0,0,.36,1.863,1.893,1.893,0,0,1,.115,1.887c-.184.33-.475.3-.314.736a2.954,2.954,0,0,0,.391.736c.245-.583.483-1.043,1.143-1.227A.872.872,0,0,1,49.27,46a1.627,1.627,0,0,0,.568-1.419C49.677,43.841,49.577,42.637,50.543,42.353Zm-5.13,31.918a.972.972,0,0,1,.145-.115,58.1,58.1,0,0,0-3.113-7.408,1.218,1.218,0,0,1-.054-.145,4.584,4.584,0,0,1-2.508-.215C38.419,65.8,37,65.176,35.62,64.494a28.417,28.417,0,0,0,2.17,2.339c1.089,1.027,2.385,1.809,3.474,2.837A28.625,28.625,0,0,1,45.413,74.271ZM43.2,56.518a1.972,1.972,0,0,0,.031-.268.86.86,0,0,1-.177-.376.575.575,0,0,0-.437.015,11.093,11.093,0,0,1-1.426.077,1.835,1.835,0,0,1-1.588-.844.831.831,0,0,1-.122-.445.332.332,0,0,0-.008-.092,1,1,0,0,1-.376-.506,1.459,1.459,0,0,1-.046-.169.847.847,0,0,1-.222-.076c-.062-.031-.131-.054-.2-.085-.812,1.235-1.855,3.045-.766,4.287.452.53.521,1.1,1.2.553.376-.3.751-.591,1.12-.9a4.084,4.084,0,0,1,2.185-1.05A3.441,3.441,0,0,0,43.2,56.518ZM42.2,48.872c1.826.337-2.27-3.574-2.3-3.612a3.734,3.734,0,0,1-.905-2.3c-.1-3.443.7-6.825.1-10.107a4.409,4.409,0,0,1-.6,1.342c-.736.951-1.472,1.894-2.239,2.822-2.807,3.4-1.334,7.4-.844,11.358.162-.008.323-.008.491-.016a.878.878,0,0,1,.737-.161,10.407,10.407,0,0,1,3.374,1.143,5.557,5.557,0,0,1,1.02.8.928.928,0,0,1,.168-.874A.91.91,0,0,1,42.2,48.872Zm-3.213,2.845a.985.985,0,0,1,.23-.445,18.788,18.788,0,0,0-2.53-1.219,1.752,1.752,0,0,1-.476.069c-2.3,0-7.186,1.181-7.1,4.931.084,3.505,2.247,5,4.739,6.519a.807.807,0,0,1,.33.2c.122.077.245.146.368.223.391.237.82.506,1.281.789.061-.061.13-.115.191-.176a1.742,1.742,0,0,1,.123-.13,8.324,8.324,0,0,1-1.94-2.339c-.851-1.174-2.623-1.235-3.336-2.393a4.254,4.254,0,0,1,1.794-5.614,8.966,8.966,0,0,1,6.281-.145C38.956,51.894,38.963,51.809,38.986,51.717ZM37.46,32.5c.284-.644.391-1.273.621-1.841a8.473,8.473,0,0,0-1.365-4.087c-.813,2.715-2.646,5.161-3.489,7.953-1.457,4.793-3.1,9.517-1.672,14.586a7.933,7.933,0,0,1,2.109-.591c-.4-3.06-2.347-7.883-.284-10.667C34.676,36.1,36.6,34.493,37.46,32.5Zm-2.232-7.224a.868.868,0,0,1-.383-.667,11.71,11.71,0,0,0-.253-2.01h-.031a14.723,14.723,0,0,1-1.8,3.3,23.36,23.36,0,0,0-3.942,7.761c-1.457,5.023-1.978,12.631-.061,17.83a7.023,7.023,0,0,1,1.25-1.4.149.149,0,0,0-.015-.031c-1.365-4.272-.836-9.479.536-13.674a50.084,50.084,0,0,1,1.994-5.46C33.35,29.155,34.822,27.177,35.228,25.275Zm-2.07-3.206c.038-.115.069-.23.1-.345-.783-.843-.844-.935-1.381.292a18.041,18.041,0,0,1-2.047,2.875A45.118,45.118,0,0,0,25.6,33.726c-2.454,6.373-2.983,15.683,1.771,21.35A8.845,8.845,0,0,1,27.79,53.4a.725.725,0,0,1-.3-.353c-2.263-5.292-2.293-13.229-.721-18.659a31.56,31.56,0,0,1,3.182-7.546C30.9,25.252,32.575,23.81,33.158,22.069Z"/><path d="M68.059,51.848a3.427,3.427,0,0,1,.069,2.247,2.241,2.241,0,0,1-1.871,1,3.223,3.223,0,0,1-2.148-.3.445.445,0,0,1-.084-.084.79.79,0,0,1-.682-.422,2.892,2.892,0,0,1,1.265-3.919,1.769,1.769,0,0,1,2.14-.122A3.474,3.474,0,0,1,68.059,51.848Zm-1.618,1.426a.111.111,0,0,1,.038-.023,1.829,1.829,0,0,0-.675-1.526,1.853,1.853,0,0,0-.958.813.657.657,0,0,1,.107.207c.13.353.054.6.322.6.253,0,.522.015.775,0A.837.837,0,0,0,66.441,53.274Z"/><path d="M65.244,86.58a.893.893,0,0,1-.613,1.089.9.9,0,0,1-1.089-.614c-.008-.023-.077-.207-.077-.214-.03-.046-.046-.062-.053-.077a.877.877,0,0,1,.951-1.472A2.473,2.473,0,0,1,65.244,86.58Z"/><path d="M63.711,97.8a.884.884,0,0,1-1.7.467c-.107-.421-.268-.828-.383-1.242a.884.884,0,0,1,1.7-.475C63.435,96.971,63.6,97.378,63.711,97.8Z"/><path d="M62.468,108.321c.691.913-.843,1.787-1.518.9-.031,0-.514,1.993-.514,1.993A17.827,17.827,0,0,1,60.2,113.7a18.386,18.386,0,0,1-2.04,4.916.886.886,0,0,1-1.526-.9,11.589,11.589,0,0,0,1.91-5.445,9.655,9.655,0,0,1,.491-3.183C59.723,107.585,61.379,106.887,62.468,108.321Z"/><path d="M52.8,17.736c.6-.966,2.124-.076,1.526.89-.215.345-.284.751-.514,1.081a6.338,6.338,0,0,1-.774.921.885.885,0,0,1-1.25-1.251,2.934,2.934,0,0,0,.567-.667C52.522,18.4,52.606,18.043,52.8,17.736Z"/><path d="M53.02,108.774c.928-.66,1.81.874.89,1.526-2.27,1.6-4.924,4.049-5.123,7-.077,1.127-1.841,1.135-1.764,0C47.269,113.643,50.183,110.783,53.02,108.774Z"/><path d="M50.543,106.8c.874-.713,2.124.529,1.243,1.25-1.02.828-2.079,1.618-3.068,2.492-.844.752-2.094-.491-1.242-1.25C48.457,108.421,49.516,107.639,50.543,106.8Z"/><path d="M43.779,111.489a.884.884,0,0,1-1.526.889,28.844,28.844,0,0,0-1.817-2.776.883.883,0,0,1,.314-1.212.91.91,0,0,1,1.2.315A30.434,30.434,0,0,1,43.779,111.489Z"/><path d="M41.954,113.981c.614.966-.913,1.848-1.518.89a13.968,13.968,0,0,0-1.327-2.209c-.468-.5-1.02-.882-1.511-1.35-.82-.79.43-2.032,1.25-1.25a13.987,13.987,0,0,1,1.8,1.7C41.141,112.462,41.494,113.252,41.954,113.981Z"/><text x="0" y="143" fill="#000000" font-size="5px" font-weight="bold" font-family="'Helvetica Neue', Helvetica, Arial-Unicode, Arial, Sans-serif">Created by Hey Rabbit</text><text x="0" y="148" fill="#000000" font-size="5px" font-weight="bold" font-family="'Helvetica Neue', Helvetica, Arial-Unicode, Arial, Sans-serif">from the Noun Project</text></svg>