<?xml version="1.0" encoding="UTF-8"?>
<svg width="1200pt" height="1200pt" version="1.1" viewBox="0 0 1200 1200" xmlns="http://www.w3.org/2000/svg">
 <path d="m243.37 354.98c14.109 11.156 30.375-9.0469 37.031-20.438 8.0156-14.625 16.312-35.531 5.625-50.672-34.172-46.969-83.812-76.828-126.24-115.08-5.4844-4.5938-9.8438-10.5-15.141-15.094-12.141-1.8281-19.031 13.828-21.188 23.766-0.28125 21.469 21.234 36.984 30.844 55.125 26.578 43.172 55.031 84.75 89.062 122.39zm125.06-166.22c48.375 38.531 78 95.438 113.16 145.31 20.297 26.484 46.359 48 65.297 75.75 17.719 8.9531 31.406-21.328 32.25-35.906-3.0469-22.641-26.438-38.391-37.688-57.891-36.188-51.844-93.422-83.812-140.29-125.16-8.9062-5.0625-26.484-25.969-33.328-9.2344-0.65625 1.6875-1.7812 6.1406 0.65625 7.125zm319.26 58.5c43.547 20.953 70.969 66.281 100.31 103.17 17.812 27.047 46.031 46.734 57.328 77.906 7.2188 12.281 22.312-0.75 27.281-8.8594 7.5469-11.297 14.156-26.812 8.7656-40.266-11.719-27.844-27.141-56.766-52.969-73.781-44.25-27.094-87.75-55.734-130.87-84.422-10.922-8.0156-26.719 29.625-9.8438 26.203zm-328.31 261.71c28.594 40.406 52.547 83.906 75.938 127.36 12.656 21.375 30.234 39.656 39.938 62.766 30.609 34.266 74.953-54.234 59.156-80.578-25.828-69.797-91.969-106.31-147-150.52-14.109-23.438-43.219 28.969-28.031 40.969zm412.69 325.6c30.609-3.0938 47.344-43.031 46.875-70.594-4.7812-21.656-23.109-38.344-33.375-57.797-36.375-66.047-112.73-102.8-143.58-171.47-15.75-10.453-30.281 13.172-35.062 25.922-7.7344 15.984-0.5625 31.547 8.2969 45.234 36.188 60.141 70.5 122.53 114.47 177.28 14.203 12.703 27.375 45.234 42.375 51.422zm145.13-195c-3.375-2.5781-6.5156-5.5312-10.125-7.6875-11.062-1.5938-17.953 15.469-16.406 24.797 46.031 64.969 77.719 145.18 134.81 200.76 23.859-1.5469 36.938-30.375 41.297-51.047 5.0625-19.969-11.578-34.734-21.094-50.344-30.188-51.328-87.891-74.719-128.53-116.48zm-654.19 126.71c-39.047-28.594-76.594-59.859-110.86-93.984-7.0312-14.672-20.438 10.922-16.031 19.359 24.562 49.781 60.609 93.562 90.75 140.16 20.625 32.391 47.25 60.047 70.594 90.375 5.8594 6.5625 8.2031 18.141 17.859 19.969 24.891-1.6406 38.578-31.641 43.078-53.25 5.3438-19.5-10.219-34.734-20.344-49.547-20.203-29.203-45.328-53.484-75-73.078zm297.19 124.5c-29.578-28.828-63.141-53.344-89.719-85.266-21.75-35.484-47.016 3.8438-49.125 29.578-0.1875 4.8281 0.375 13.5 5.7188 15.984 8.1562 10.781 14.25 22.922 21.375 34.406 32.578 56.484 69.75 110.02 115.27 156.94 17.953 13.781 37.969-11.203 46.406-25.594 9.9844-18.188 20.625-44.766 7.0781-63.516-19.172-20.672-37.5-42.141-57.047-62.531zm204.1 7.9219c-16.359 11.156-31.125 38.484-19.875 57.141 7.7812 7.7344 16.828 14.109 25.125 21.328 22.734 18.75 47.906 34.312 71.625 51.703 26.391 14.672 55.078-46.547 39.422-65.719-17.062-11.719-101.72-75.141-116.3-64.453zm278.72-420.42c23.531-2.7656 38.906-37.219 31.734-58.406-23.719-36.891-48.562-73.266-72.141-110.11-10.406-22.031-32.578 9.8438-34.688 22.969-12.469 17.203 58.734 135.79 75.094 145.6z"/>
</svg>
