<?xml version="1.0" encoding="UTF-8"?>
<svg width="1200pt" height="1200pt" version="1.1" viewBox="0 0 1200 1200" xmlns="http://www.w3.org/2000/svg">
 <path d="m954.24 575.53c-6.7031 4.2656-0.1875 14.391 6.4688 10.078 32.531-20.812 69.234-10.641 78.422 9.5625 2.1094 4.4062 3.0938 9.6094 3.2812 16.922 2.1562 51.047-59.109 67.547-56.672 124.5 3.6094 84.75 37.453 180.47-56.297 224.81-25.453 12-56.016 15-84.891 8.6719 5.8594-16.453 8.3438-33.609 8.7188-51.094 22.031-7.3594 42.328-23.859 53.578-44.109 42.422-76.125-17.109-163.87 20.016-247.03 3.1875-7.2188-7.6875-12.141-10.969-4.875-38.812 87.141 20.484 174.32-19.5 246.05-9.2344 16.641-25.547 30.094-43.453 37.031-1.7344-46.078-16.359-94.453-36.141-132.32-28.781-55.266-79.031-95.391-128.02-131.76-6.4219-4.7344-13.5 4.9219-7.1719 9.6562 47.859 35.531 96.938 74.672 124.55 127.69 25.453 48.797 44.344 121.78 30.516 175.5-7.9219 31.734-26.531 54.422-55.359 67.359-7.2656 3.2344-2.2969 14.203 4.9219 10.922 10.266-4.5938 19.219-10.406 27.141-17.156 2.3906 3.1406 5.8594 2.2031 7.125 7.5 1.4062 6-2.625 14.719-6.9844 20.297-32.578 41.719-93.938 45.891-144.89 47.859-18.469 0.75-44.766 1.0312-53.344-16.875-6.0469-12.562 2.2031-22.078 15.516-35.156 1.5938-0.9375 21.469-24.703 56.016-17.531 16.406 3.4219 32.438 9.8906 46.359 18.656 6.7969 4.2188 13.078-5.9531 6.4219-10.172-15.094-9.5156-32.531-16.547-50.344-20.25-11.297-2.3438-23.156-1.7812-34.219 1.2656-0.09375-0.14063-0.09375-0.32813-0.1875-0.51563-13.359-20.812-12.281-49.219 2.6719-69.094 3.8906-5.2031-2.1562-12-7.6875-8.8594l-10.031 5.5312c12.047-36.141 28.875-39.562 23.25-47.766-4.1719-6.0938-7.875 0.42188-26.859 2.1094 24.75-43.031 79.688-70.5 132.1-64.781 8.1094 0.65625 9.0469-11.109 1.2656-11.953-60.75-6.5156-124.78 28.031-148.78 80.484-1.7812 3.8438 0.9375 8.3438 5.25 8.4844 5.7656 0.14063 11.531-0.1875 17.25-1.0781-9.0469 13.875-15.469 29.297-18.75 45.281-0.46875 2.2969 0.42188 4.6406 2.2969 6.0469 4.4531 3.2344 8.4375-1.125 11.109-2.1562-7.3125 20.344-5.3906 43.688 5.8125 62.391-7.0781 3.2812-13.641 7.5938-19.125 12.984-15.656 15.375-30.234 30.234-20.156 51.094 11.25 23.484 40.641 24.516 64.641 23.672 55.031-2.1094 118.36-6.9375 153.89-52.453 11.25-14.484 15.094-34.453-0.98438-43.359 7.1719-7.7344 13.266-16.5 17.953-26.438 34.641 8.1094 67.453 3.8906 94.641-8.9531 102.61-48.562 66.516-156.28 63.188-236.16-1.8281-42.375 38.156-58.125 52.969-98.109 5.2031-14.672 5.2031-35.438-0.65625-47.859-12.328-26.766-57.188-39.375-95.859-14.531z"/>
 <path d="m202.18 595.18 46.969-13.078c4.5-1.2656 9.2812 1.2188 10.875 5.625l27.844 77.25c4.6406 12.891 20.297 18 31.688 10.266 30-20.344 54.328-45.844 72.375-75.797 2.8594-4.7344 9.7031-6 13.969-1.6406l77.906 78.656c8.5781 8.625 22.406 8.1562 30.422-0.60938l74.859-81.984c2.4844-2.7188 6.375-3.6562 9.8438-2.3438l18.562 6.9844c16.5 54.281 7.9219 114.52-11.109 167.68-3.2344-5.625-6.0469-10.969-8.625-16.266-2.2031-4.7344-8.9531-4.4531-10.922 0.23438-16.406 38.344-35.719 75.328-57.375 110.02-3.7031-6.7031-4.6875-9.7031-8.2031-10.406-10.875-2.1094-43.828 51.75-86.625 45.234-38.484-5.2031-66.422-58.688-75.188-42.141-1.3125 2.4844-2.6719 4.9219-4.0312 7.4062-22.125-35.578-41.391-72.562-57.281-110.06-2.0156-4.7344-8.7188-4.9688-10.922-0.23437-2.625 5.4844-5.5312 10.734-8.6719 16.219-14.625-40.453-21.328-79.125-19.922-115.08 0.28125-7.6406-11.672-8.8594-12-0.46875-1.5 38.906 6 80.766 22.406 124.45 0.51562 1.3594 2.1094 5.4375 6.2344 6.5625 2.2969 10.922 5.1094 21.75 8.2969 32.438-28.031 30-19.688 100.08-2.1562 138.52 9.6094 21.047 23.812 39.516 40.969 53.531-3.8438 2.625-7.5 5.4844-11.016 8.4375-12.656 10.734-18.562 16.781-20.906 33.047-2.2969 16.172 6.3281 22.594 19.781 19.594-3.3281 19.828 15.422 35.578 17.719 36.422 37.922 28.547 95.156 13.031 110.67-30.234 5.625-15.703 5.7656-38.672 7.2188-77.672 0.89062-24.703 1.9219-50.109 4.4062-74.859 5.8594 61.688 2.8125 125.48 11.25 148.97 7.2188 20.156 25.312 36.328 47.156 42.234 39.375 10.594 80.578-14.438 81.656-42 0.65625-16.594-11.812-28.453-21.422-38.578-10.359-11.109-10.734-19.031-9.0469-34.453 9.6094-89.016 70.641-173.29 66.375-254.11 11.25-40.406 17.438-90.094 4.875-139.22l66 24.891c17.016 6.4219 33.656-10.406 26.906-27.422l-41.953-105.66c-1.5469-3.9375-0.14062-8.4844 3.4219-10.828l21.234-13.969c10.125-6.6562 12.516-20.531 5.2031-30.188l-24.797-32.812c-4.5-6-2.7656 5.0156 45.281-264.94 2.2031-12.094-6.4219-23.484-18.703-24.656l-44.297-4.1719c-7.9219-0.70312-9 11.203-1.125 11.953 43.781 5.0625 46.453 2.25 50.625 7.7344 4.5 6 2.7656-5.0156-45.281 264.94-1.0312 5.7656 0.375 11.719 3.9375 16.406 23.25 32.203 27.656 33.094 26.484 39.75-1.0781 6.4219-6.0938 6.4688-25.125 19.969-8.2969 5.4375-11.625 16.078-7.9688 25.266l41.953 105.66c2.9531 7.3594-4.3594 14.531-11.531 11.719l-98.203-37.031c-8.1094-3.0938-17.109-0.89062-22.922 5.4844-79.312 85.359-74.391 84.797-81.328 84.891-7.5469 0-4.6875-2.4844-84.469-81.328-9.5156-9.6094-25.688-7.875-32.766 3.8906-17.109 28.453-40.266 52.688-68.812 72.047-2.3906 1.5938-5.2969 1.9688-7.9688 1.125-7.5-2.4375-3.8906-4.125-33.562-82.781-3.7031-10.312-14.859-16.031-25.406-13.125l-46.922 13.078c-7.3125 2.1094-13.734-5.3438-10.5-12.516 10.453-23.109 18.188-52.359 24.281-92.109 2.2031-14.344-9.75-20.766-19.078-33.609-10.969-12.844 22.594-25.828 17.906-47.297l-19.359-88.828c-1.6875-7.7344-13.406-5.25-11.719 2.5312l19.359 88.828c1.4531 6.7969-3.9375 9-16.031 26.156-6 7.8281-5.6719 18.891 0.70312 26.391 11.812 15.094 17.391 17.25 16.312 24-5.8594 38.062-13.5 67.172-23.344 88.969-7.4062 16.453 7.5469 33.891 24.656 29.062zm90.234 352.36c-14.531-31.969-22.453-92.25-4.5938-119.62 18.938 58.078 47.531 116.53 52.922 176.16-20.484-13.359-37.641-32.953-48.328-56.531zm135.05 121.69c-5.9531 16.5-20.859 29.812-39 34.688-1.5469 0.42188-3.1875 0.42188-4.7344 0.70312-4.0781-12.703 0.75-28.219 11.578-36.047 6.4688-4.6406-0.60938-14.344-6.9844-9.75-14.391 10.359-21 29.812-16.688 46.922-12.984-0.1875-25.875-4.0781-36.047-11.672-1.9688-11.672 6.0938-20.859 14.719-28.875 5.8125-5.3438-2.25-14.203-8.1562-8.8125-7.8281 7.2656-14.625 14.859-17.672 25.172-7.1719-13.922 2.1562-24.188 13.078-35.766l2.5312-2.7188c14.109-15.141 13.969-27.75 12.188-43.922-8.3906-77.578-50.672-146.81-65.859-222.79 1.5469-2.4375 4.7812-8.2031 5.7656-10.031 16.453 37.125 36.141 73.641 58.547 108.75 1.125 1.7812 3.7031 2.9531 5.25 2.7656 4.4531-0.14063 5.4844-3.7031 10.641-13.172 24.422 20.578 40.312 40.406 73.078 42.703-8.0625 65.109-3.9844 138.74-12.234 161.86zm120.56-73.547c-1.7344 16.172-1.9219 28.781 12.188 43.922 13.312 15.375 27.609 27.422 10.688 45.609-2.0625-9.1875-6.7031-17.812-13.266-24.516-5.5312-5.6719-14.156 2.6719-8.5781 8.3906 6.3281 6.5156 10.172 15.328 10.875 24.375-8.8594 5.2969-18.984 8.25-29.484 8.6719 0.46875-17.484-8.5312-35.109-23.25-44.578-6.7031-4.2656-13.172 5.8125-6.5156 10.078 11.156 7.1719 17.859 20.484 17.625 33.75-2.1562-0.32812-4.3125-0.375-6.4219-0.9375-18.094-4.875-33.047-18.188-39-34.688-7.9688-22.172-4.4062-97.406-12.188-160.78 23.297-6.9375 41.297-26.297 57.656-40.172 5.2031 9.3281 5.9062 13.031 10.5 13.219 2.3438 0.375 4.1719-0.9375 5.2969-2.7656 22.031-34.219 41.719-70.781 58.641-108.75 4.4062 8.1094 8.4375 17.297 16.312 15.328 1.3594-0.32813 2.3906-0.89063 3.2812-1.5938-14.531 73.828-56.109 139.26-64.359 215.44z"/>
 <path d="m161.39 223.78c1.6875 7.7812 13.406 5.2031 11.719-2.5312l-15.375-70.547c-1.125-5.1562 2.4844-10.453 8.1094-10.875 66.797-4.7344 138.71-13.547 166.36-42.562 11.156 111.94 12.234 205.08 3.1875 284.21-0.23437 2.25-0.1875 0.5625 10.641 34.594l-33.656 24.797c-2.25 1.6406-3.0469 4.6406-1.9688 7.1719l19.219 44.859-25.969 37.453c-4.5938 6.6094 5.4375 13.219 9.8438 6.8438 26.391-39.703 30.797-40.547 28.453-45.938l-18.656-43.5 33.328-24.562c2.0625-1.5469 2.9531-4.2188 2.1562-6.7031l-11.297-34.969c9-79.922 7.875-173.76-3.4219-286.36l198.98 18.797c7.9219 0.70312 9-11.203 1.125-11.953-147-13.828 173.39 16.406-204-19.219-2.1094-1.125-4.2656-1.0781-6.375 0.51562-20.531 4.4531-5.4375 32.953-168.84 44.578-12.703 0.89062-21.656 12.938-18.938 25.359z"/>
 <path d="m455.02 238.45c-26.672-5.3438-55.406 25.875-64.172 69.75-8.7656 43.828 5.7188 83.719 32.391 89.062s55.406-25.875 64.172-69.75c8.7656-43.828-5.7188-83.719-32.391-89.062z"/>
 <path d="m578.29 395.06c24.891 4.9688 51.75-24.188 59.953-65.109 8.2031-40.969-5.3438-78.188-30.234-83.156s-51.75 24.188-59.953 65.109 5.3438 78.188 30.234 83.156z"/>
 <path d="m528.42 423.05c2.7656-1.0781 5.1562-1.6406 5.5312-4.875 0.70312-6.3281-5.3906-16.641-17.344-20.438-11.156-3.5625-24.797-0.51562-30.328 3.7031-5.9062 4.4531-7.125 15.328-0.79688 20.016 4.2188 3.1406 8.625 2.3438 13.312 8.5312 1.4062 1.875 2.7188 3.5625 4.125 4.875 0.60938 5.1094 0.5625 9.8438-0.046875 14.25-17.203-12.234-39.938-6.9375-50.297 9.9375-4.125 6.75 6 13.031 10.219 6.2812 7.0312-11.438 22.688-15.234 35.297-4.9219 9.1406 7.7344 14.25 5.9062 23.812-0.42188 9.4688-5.7188 21.938-1.0781 25.312 9.4688 2.4375 7.5938 13.828 3.9375 11.438-3.6562-5.7188-17.812-26.719-25.969-42.938-16.078l-0.89062 0.60938c0.65625-5.0625 0.70312-10.406 0.09375-16.031 6.75-5.2969 2.8125-7.0312 13.5-11.25z"/>
 <path d="m824.63 152.58-49.453 24.047c-5.6719 2.7656-3.7031 11.391 2.625 11.391 2.5781 0 0.70312 0.09375 52.078-24.656 7.125-3.4688 1.9219-14.25-5.25-10.781z"/>
 <path d="m784.31 208.78c-8.25-0.28125-8.5781 11.344-0.98438 11.953 25.312 2.0625 51 2.5781 76.641 1.5 3.3281-0.14062 5.8594-2.9531 5.7656-6.2344-0.46875-11.25-9.0469-1.3594-81.422-7.2188z"/>
 <path d="m773.68 251.76 58.688 35.109c6.7969 4.0781 12.938-6.2812 6.1406-10.312l-58.688-35.109c-6.8438-4.0312-12.984 6.2812-6.1406 10.312z"/>
</svg>
