<?xml version="1.0" encoding="UTF-8"?>
<svg width="1200pt" height="1200pt" version="1.1" viewBox="0 0 1200 1200" xmlns="http://www.w3.org/2000/svg">
 <path d="m711.06 130.4c121.71 26.074 227.43 95.223 300.46 190.71 76.711-0.27344 129.91-49.152 146.09-66.809-4.8086 134.65-27.777 268.59-42.328 336.34 1.1484 14.031 1.7344 28.223 1.7344 42.551 0 206.64-121.89 384.82-297.7 466.55v47.664c0 22.422-18.172 40.598-40.594 40.598s-40.598-18.176-40.598-40.598c0 22.422-18.176 40.598-40.594 40.598-22.422 0-40.598-20.992-40.598-43.41-17.789 1.8594-35.844 2.8125-54.125 2.8125s-36.34-0.95312-54.129-2.8125c0 22.418-18.176 43.41-40.594 43.41-22.422 0-40.598-18.176-40.598-40.598 0 22.422-18.176 40.598-40.594 40.598-22.422 0-40.598-18.176-40.598-40.598v-47.664c-175.81-81.727-297.7-259.9-297.7-466.55 0-14.328 0.58984-28.52 1.7383-42.551-14.555-67.746-37.523-201.69-42.332-336.34 16.188 17.656 69.383 66.535 146.09 66.809 73.023-95.488 178.75-164.64 300.46-190.71 26.574-5.6953 67.59-64.238 91.625-109.77 6.0703-11.5 27.195-11.5 33.266 0 24.035 45.535 65.051 104.08 91.621 109.77zm106.77 924.9c135.4-69.113 233.15-201.46 254.3-358.12-46.324 67.586-124.09 111.93-212.22 111.93-80.988 0-153.23-37.441-200.36-95.965l-35.102 46.801c-10.824 14.434-32.477 14.434-43.301 0l-35.102-46.801c-47.125 58.523-119.37 95.965-200.35 95.965-88.129 0-165.9-44.34-212.23-111.93 21.156 156.65 118.9 289 254.3 358.12 4.7695-17.121 20.473-29.68 39.113-29.68 22.418 0 40.594 18.176 40.594 40.598 0-22.422 18.176-40.598 40.598-40.598 22.418 0 40.594 18.176 40.594 40.598v37.535c17.762 2.0195 35.824 3.0586 54.129 3.0586 18.305 0 36.363-1.0391 54.125-3.0586v-37.535c0-22.422 18.176-40.598 40.598-40.598 22.418 0 40.594 18.176 40.594 40.598 0-22.422 18.176-40.598 40.598-40.598 18.637 0 34.344 12.559 39.109 29.68zm-217.46-538.82c-17.305-125.18-124.73-221.58-254.67-221.58-30.055 0-58.906 5.1562-85.715 14.633-1.4492 0.51562-2.8945 1.0078-4.3359 1.4844 64.91-69.918 150.68-120.2 247.41-140.92 16.969-3.6328 30.918-13.977 40.453-22.363 10.457-9.1992 20.523-20.516 29.688-32.148 10.359-13.145 20.453-27.824 29.609-42.52 9.1523 14.695 19.25 29.375 29.605 42.52 9.168 11.633 19.234 22.949 29.688 32.148 9.5391 8.3867 23.488 18.73 40.457 22.363 96.727 20.727 182.5 71.004 247.4 140.92-1.4375-0.47656-2.8828-0.96875-4.3359-1.4844-26.809-9.4766-55.656-14.633-85.711-14.633-129.94 0-237.37 96.398-254.67 221.58l-2.4336-5.0703zm-38.164 35.523c0 97.156-78.758 175.91-175.91 175.91s-175.91-78.758-175.91-175.91c0-97.152 78.758-175.91 175.91-175.91s175.91 78.762 175.91 175.91zm257.11 175.91c-97.152 0-175.91-78.758-175.91-175.91 0-97.152 78.762-175.91 175.91-175.91 97.156 0 175.91 78.762 175.91 175.91 0 97.156-78.758 175.91-175.91 175.91zm-324.77-121.79c0 29.895-24.23 54.129-54.125 54.129s-54.129-24.234-54.129-54.129c0-29.895 24.234-54.129 54.129-54.129s54.125 24.234 54.125 54.129zm270.64 54.129c-29.895 0-54.129-24.234-54.129-54.129 0-29.895 24.234-54.129 54.129-54.129 29.895 0 54.125 24.234 54.125 54.129 0 29.895-24.23 54.129-54.125 54.129z" fill-rule="evenodd"/>
</svg>
