<?xml version="1.0" encoding="UTF-8"?>
<svg width="1200pt" height="1200pt" version="1.1" viewBox="0 0 1200 1200" xmlns="http://www.w3.org/2000/svg">
 <path d="m961.16 341.75c32.008-44.293 83.551-143.08 2.8203-242.95v0.003907c-2.8398-3.5195-6.8555-5.8945-11.309-6.6836-4.4531-0.78516-9.043 0.066406-12.914 2.3984l-250.8 150.48h-177.85l-250.86-150.48c-3.8711-2.3359-8.4609-3.1875-12.914-2.3984-4.4531 0.78906-8.4727 3.1602-11.309 6.6836-80.73 99.867-29.188 198.65 2.8203 242.95-312.56 254.77-131.94 765.91 272.27 766.4l177.79 0.003906c404.16-0.60547 584.88-511.5 272.26-766.41zm-272.26 728.91h-177.8c-82.887 0.003906-163.66-26.133-230.84-74.684-67.18-48.555-117.34-117.05-143.34-195.76-26.004-78.703-26.531-163.6-1.5-242.62 25.027-79.016 74.332-148.13 140.91-197.51 4.1484-3.0859 6.8398-7.7461 7.4336-12.879 0.59766-5.1367-0.95312-10.289-4.2852-14.242-26.918-31.988-80.75-113-23.934-197.54l240.88 144.52c2.9844 1.793 202.78 2.4922 207.16 0l240.88-144.52c56.816 84.539 2.9844 165.55-23.934 197.54h0.007813c-3.3008 3.9688-4.832 9.1133-4.2344 14.234 0.59375 5.125 3.2617 9.7812 7.3828 12.887 303.25 224.32 142.41 710.15-234.78 710.57z"/>
 <path d="m802.46 456.76c-42.957 0.058594-84.965 12.605-120.91 36.121-35.945 23.512-64.281 56.973-81.547 96.301-20.371-46.52-56.141-84.613-101.29-107.87-45.148-23.258-96.93-30.27-146.64-19.848-49.707 10.418-94.312 37.629-126.32 77.059-32.008 39.43-49.469 88.68-49.445 139.46-3.1328 165.17 185.73 276.01 327.86 193.69l80.867 102.76c3.5742 4.4648 8.9805 7.0703 14.699 7.0781 5.7227 0.011719 11.137-2.5742 14.727-7.0234l81.488-102.73v-0.003906c32.602 18.027 69.254 27.473 106.51 27.445 293.37-12.086 293.51-430.29 0-442.44zm-588.65 221.23c0.054688-48.711 19.426-95.41 53.871-129.86 34.445-34.445 81.145-53.82 129.86-53.871 243.71 10.094 243.65 357.38 0 367.44-48.707-0.054687-95.406-19.426-129.85-53.867-34.441-34.438-53.816-81.137-53.875-129.84zm386.02 254.61-64.453-81.895v-0.003907c27.988-22.355 50.156-51.148 64.617-83.918 14.484 32.816 36.695 61.641 64.734 84.008zm202.62-70.898c-48.707-0.058593-95.402-19.43-129.84-53.871-34.441-34.441-53.816-81.133-53.871-129.84 10.09-243.75 357.39-243.66 367.44 0-0.058594 48.711-19.434 95.406-53.879 129.85-34.441 34.438-81.141 53.809-129.85 53.863z"/>
 <path d="m397.54 611.13c-23.707 0.26563-45.5 13.062-57.277 33.641-11.777 20.574-11.777 45.852 0 66.426 11.777 20.574 33.574 33.375 57.281 33.637 23.707-0.26172 45.5-13.062 57.277-33.641 11.777-20.574 11.777-45.848 0-66.426-11.777-20.574-33.574-33.375-57.281-33.637zm0 96.203c-10.383-0.15234-19.91-5.7812-25.059-14.801-5.1484-9.0156-5.1484-20.086 0-29.105 5.1484-9.0156 14.676-14.645 25.062-14.797 10.383 0.15234 19.91 5.7812 25.059 14.801 5.1484 9.0195 5.1484 20.086 0 29.105-5.1484 9.0156-14.68 14.645-25.062 14.797z"/>
 <path d="m802.46 611.13c-23.703 0.26953-45.492 13.07-57.266 33.645-11.773 20.574-11.773 45.844 0 66.418 11.773 20.57 33.562 33.371 57.266 33.641 23.703-0.26953 45.492-13.07 57.266-33.645 11.773-20.574 11.773-45.844 0-66.418-11.773-20.57-33.562-33.371-57.266-33.641zm0 96.203c-10.383-0.15625-19.906-5.7852-25.051-14.805-5.1445-9.0156-5.1445-20.078 0-29.098 5.1445-9.0156 14.672-14.645 25.051-14.801 10.379 0.15625 19.906 5.7852 25.051 14.805 5.1445 9.0156 5.1445 20.078 0 29.098-5.1445 9.0156-14.672 14.645-25.051 14.801z"/>
</svg>
