<?xml version="1.0" encoding="UTF-8"?>
<svg width="1200pt" height="1200pt" version="1.1" viewBox="0 0 1200 1200" xmlns="http://www.w3.org/2000/svg">
 <path d="m312 820.93c0.53906 1.7344 0.36328 3.6094-0.48828 5.2109-0.85156 1.6016-2.3086 2.8008-4.0469 3.3203-1.7305 0.86328-3.75 0.92969-5.5352 0.18359-1.7852-0.74219-3.1562-2.2266-3.7617-4.0625-0.60547-1.8359-0.38672-3.8477 0.60547-5.5078 0.99219-1.6602 2.6562-2.8086 4.5586-3.1445 1.6797-0.64062 3.5469-0.57812 5.1797 0.17188 1.6289 0.75391 2.8867 2.1328 3.4883 3.8281zm-25.199 35.867c-1.6836 0.45703-3.0977 1.5938-3.9062 3.1367-0.8125 1.543-0.94141 3.3516-0.35938 4.9961 1.2031 3.5312 4.9062 5.5586 8.5312 4.668 1.707-0.42969 3.1562-1.5508 3.9922-3.0977 0.83594-1.5469 0.98438-3.375 0.40625-5.0391-1.207-3.5938-4.9961-5.6367-8.6641-4.6641zm42.133-21.332v-0.003906c-3.2031 0.84766-5.1133 4.1328-4.2656 7.3359 1.2891 3.0625 4.6758 4.6719 7.8672 3.7344 1.5547-0.375 2.8945-1.3711 3.6992-2.7578 0.80469-1.3828 1.0117-3.0391 0.56641-4.5781-1.1875-3.1602-4.668-4.8125-7.8672-3.7344zm1.8672-25.465v-0.003906c3.3047-0.96875 5.2109-4.4219 4.2656-7.7344-0.58984-1.5234-1.7773-2.7422-3.2891-3.375-1.5078-0.62891-3.2109-0.61328-4.7109 0.042969-3.2109 1.082-5.0664 4.4375-4.2656 7.7344 0.58984 1.5234 1.7773 2.7422 3.2891 3.375 1.5078 0.62891 3.2109 0.61328 4.7109-0.042969zm33.734 120c-3.7344 2.668-2.1328 5.7344 0.80078 4.3984 90.535-45.066 194.54-9.8672 236.27 47.867 11.465 15.867 30.535-3.332 18.934-20.133-44.137-63.602-164.93-94.535-256-31.738zm-119.33-81.066-0.003906-0.003906c-1.1367 0.41797-2.0547 1.2734-2.5547 2.375-0.50391 1.1055-0.54297 2.3594-0.10938 3.4922 0.82031 2.3672 3.2852 3.7422 5.7305 3.1992 1.1602-0.39062 2.1133-1.2383 2.6406-2.3438 0.52734-1.1016 0.58594-2.375 0.16016-3.5234-0.875-2.3672-3.4766-3.6055-5.8672-2.8008zm-18.535-20.004c-3.1836 1.457-4.6953 5.125-3.4688 8.3984 0.42969 1.6055 1.5039 2.9648 2.9688 3.7461 1.4688 0.78516 3.1914 0.92578 4.7656 0.38672 3.2852-1.3516 4.8828-5.0859 3.6016-8.3984-0.46094-1.6172-1.5625-2.9727-3.0508-3.7539-1.4844-0.78125-3.2266-0.91797-4.8164-0.37891zm43.734-33.199h-0.003906c-4.0977 1.7227-6.1875 6.3086-4.7969 10.531 0.625 1.9375 2.0312 3.5273 3.8789 4.3867 1.8438 0.85938 3.9648 0.91406 5.8516 0.14844 4.1602-1.6719 6.3555-6.2422 5.0664-10.535-0.6875-1.9219-2.1211-3.4844-3.9805-4.3398-1.8555-0.85156-3.9766-0.92188-5.8828-0.19141zm-13.332 22h-0.003906c-2.1758 0.92188-3.2773 3.3555-2.5312 5.5977 0.30469 1.1016 1.0508 2.0234 2.0586 2.5547 1.0117 0.53125 2.1953 0.62109 3.2734 0.24609 2.2461-0.92578 3.4062-3.418 2.668-5.7344-0.74219-1.9375-2.7656-3.0625-4.8008-2.6641zm11.199 17.602-0.003906-0.003907c-3.832 1.3281-5.9023 5.4727-4.6641 9.3359 1.2734 3.8867 5.3984 6.0703 9.332 4.9336 1.918-0.57812 3.5195-1.918 4.4258-3.707 0.90625-1.7891 1.043-3.8711 0.375-5.7617-1.2656-3.625-5.0703-5.6992-8.8008-4.8008zm368.13 41.734-0.003906-0.003906c-4.4922-0.55078-8.5781 2.6406-9.1328 7.1328-0.55078 4.4922 2.6406 8.582 7.1328 9.1328 4.4922 0.55469 8.582-2.6406 9.1367-7.1328 0.55078-4.4922-2.6445-8.582-7.1367-9.1328zm74.668-25.602-0.003906-0.003906c-2.5625-0.29688-5.0547 0.96875-6.3203 3.2148-1.2656 2.25-1.0586 5.0352 0.52344 7.0742 1.5859 2.0352 4.2344 2.9219 6.7266 2.2461 2.4883-0.67188 4.332-2.7773 4.6719-5.332 0.43359-3.3086-1.6914-6.4141-4.9336-7.2031zm-122.54 7.0664c0.39062-3.4219-2.0508-6.5195-5.4688-6.9336-3.25-0.10156-6.0352 2.2969-6.418 5.5273-0.38281 3.2266 1.7695 6.2109 4.9531 6.8711 1.7422 0.39062 3.5742 0.015625 5.0234-1.0273 1.4531-1.0469 2.3906-2.6602 2.5742-4.4375zm81.332-6c-3.0547-0.35938-6.0273 1.1602-7.5234 3.8477-1.5 2.6875-1.2266 6.0117 0.68359 8.4219 1.9141 2.4102 5.0898 3.4297 8.0508 2.582 2.957-0.84766 5.1094-3.3945 5.457-6.4531 0.26172-2.0039-0.30078-4.0273-1.5586-5.6133-1.2539-1.582-3.0977-2.5859-5.1094-2.7852zm527.6-312c30 300.54-213.33 570.8-543.33 603.6-330 32.797-621.73-184.27-651.6-484.8-29.867-300.53 213.33-570.66 543.33-603.46 330-32.801 621.73 184.13 651.6 484.67zm-95.332 30c-25.867-259.47-283.33-446.4-575.33-417.34-292 29.066-507.47 262.93-481.73 522.54 25.734 259.6 283.47 446.4 575.33 416.8 291.87-29.602 507.6-262.4 481.73-522zm-380.13 209.33c-82-2.2656-168.27-49.199-192.67-118.27-4.5352-13.332-36.266-4.9336-26.668 22.535 24.668 66.668 116.13 125.73 217.07 106.67 8.0039-1.4727 8.0039-10.805 2.2695-10.938zm-32.266 103.46c-3.4961-0.39062-6.6484 2.1094-7.0664 5.6016-0.26562 1.707 0.18359 3.4453 1.2461 4.8086 1.0586 1.3633 2.6328 2.2266 4.3516 2.3906 3.5039 0.32422 6.6523-2.125 7.1992-5.5977 0.39062-3.5703-2.168-6.7852-5.7305-7.2031zm-243.87-203.33c11.066-24.266-18.535-31.734-23.602-20.535-26.668 61.199-111.46 101.33-188.67 101.73-5.332 0-5.8672 8.3984 1.332 9.8672 94.27 19.066 184.14-31.867 210.94-91.066zm169.07 140.93c0.55078-4.8477-2.8945-9.2422-7.7344-9.8672-4.8594-0.58984-9.2773 2.875-9.8672 7.7344-0.58594 4.8594 2.875 9.2773 7.7344 9.8672 4.8281 0.47656 9.1758-2.9336 9.8672-7.7344zm40-9.1992c-2.6641-0.64453-5.4766-0.11328-7.7305 1.4492-2.25 1.5664-3.7227 4.0195-4.0469 6.7422-0.32812 2.7227 0.52734 5.4531 2.3438 7.5039 1.8164 2.0547 4.4258 3.2305 7.168 3.2383 4.8672 0.007812 8.9727-3.625 9.5508-8.4609 0.57812-4.832-2.5508-9.3359-7.2852-10.473zm-35.066 38.398c-2.3359-0.30078-4.6992 0.34766-6.5508 1.8008-1.8555 1.457-3.0508 3.5938-3.3164 5.9336-0.47656 4.8281 2.9297 9.1758 7.7344 9.8672 4.8477 0.55078 9.2422-2.8945 9.8672-7.7344 0.33984-2.4297-0.36328-4.8906-1.9414-6.7734-1.5742-1.8789-3.875-3.0039-6.3281-3.0938z"/>
</svg>
