<?xml version="1.0" encoding="UTF-8"?>
<svg width="1200pt" height="1200pt" version="1.1" viewBox="0 0 1200 1200" xmlns="http://www.w3.org/2000/svg">
 <path d="m1158 880.69c-155.02-89.531-208.13-287.76-118.59-442.74 28.453-49.266 69.328-90.141 118.59-118.59 17.203-9.9375 23.109-31.969 13.125-49.172-3.1406-5.4375-7.6875-9.9844-13.125-13.125-189.42-109.31-431.63-44.391-540.94 145.03-6.1875 10.734-11.906 21.797-17.062 33.094-91.078-198.94-326.06-286.31-524.9-195.24-11.297 5.1562-22.312 10.875-33.094 17.062-17.203 9.9375-23.109 31.969-13.125 49.172 3.1406 5.4375 7.6875 9.9844 13.125 13.125 100.08 58.078 161.76 164.95 162 280.69-0.23438 115.73-61.922 222.61-162 280.69-17.203 9.9375-23.109 31.969-13.125 49.172 3.1406 5.4375 7.6875 9.9844 13.125 13.125 189.42 109.31 431.63 44.391 540.94-145.03 6.1875-10.734 11.906-21.797 17.062-33.094 91.078 198.84 326.06 286.22 524.9 195.19 11.297-5.1562 22.312-10.875 33.094-17.062 17.203-9.9375 23.109-31.969 13.125-49.172-3.1406-5.4844-7.6875-9.9844-13.125-13.125zm-918 43.312c-36.797 0-73.312-6.2344-108-18.469 35.672-29.438 65.906-64.875 89.391-104.67 35.812-60.891 54.656-130.26 54.609-200.86 0.046875-70.641-18.844-139.97-54.656-200.81-23.484-39.797-53.719-75.234-89.344-104.67 168.74-59.578 353.81 28.875 413.39 197.63 59.578 168.74-28.875 353.81-197.63 413.39-34.594 12.188-71.062 18.469-107.77 18.469z"/>
</svg>
