<?xml version="1.0" encoding="UTF-8"?>
<svg width="1200pt" height="1200pt" version="1.1" viewBox="0 0 1200 1200" xmlns="http://www.w3.org/2000/svg">
 <path d="m967.27 341.02c-6.5625-43.594-19.453-64.922-44.297-93.516-16.172-24.375-35.625-46.641-57.422-66.562-72.188-90-300-142.27-309.61-144.38h-0.23438c-54.375-9.375-98.906-0.9375-135.94 25.312-31.875 22.734-52.969 54.844-71.484 83.203-15.234 22.969-28.125 43.125-43.828 52.969-35.859 22.969-42.656 55.078-49.922 88.828-4.6875 21.562-9.375 43.594-21.562 66.094-25.781 47.578-12.188 110.16-1.4062 160.08 3.0469 14.297 6.0938 27.891 7.9688 39.844 7.0312 46.406 36.328 70.781 47.344 79.922 1.4062 1.1719 2.8125 2.3438 3.2812 2.8125 18.047 36.094 50.156 105.7 64.219 168.05 8.4375 37.5-3.75 88.828-16.641 143.44-18.516 78.281-37.969 159.38 7.9688 201.8 14.531 13.594 27.188 18.047 37.5 18.047 8.4375 0 15.469-3.0469 20.859-6.7969 37.266-25.781 51.328-125.62 26.484-187.5-17.578-43.828-14.531-115.78 7.0312-160.31 8.4375-17.344 18.75-28.594 30.234-32.812 6.5625 3.75 13.125 9.375 19.922 17.109 1.6406 12.422 2.5781 26.25 3.0469 41.016 0.23438 11.016-5.3906 26.25-11.719 42.422-11.953 31.406-26.953 70.781-0.23438 97.734 18.516 18.75 49.688 20.625 73.828 4.6875 24.375-16.172 42.891-52.5 21.094-105.7-11.719-28.594-16.172-54.141-13.594-76.172 12.656 6.3281 26.953 10.312 42.891 11.484 27.188 46.641 37.5 102.89 26.953 147.66-1.1719 4.9219-2.3438 10.078-3.75 15-11.953 47.578-26.953 107.11 30.469 137.81 26.25 14.062 55.781 11.25 76.641-7.5 24.141-21.562 40.547-67.969 14.297-134.3-24.375-61.641-23.906-136.41-18.75-190.08 6.5625 0.9375 13.594 3.0469 21.094 5.3906 22.5 7.0312 50.391 15.469 63.984-21.797 10.078-27.656 18.281-34.219 26.484-37.031 2.5781 33.516-13.125 81.562-28.125 124.22-16.172 45.703-5.1562 106.17 23.203 129.38 15.469 12.656 34.688 13.125 54.375 1.4062 28.125-16.875 44.531-46.875 47.344-86.484 2.8125-42.188-9.8438-83.203-17.812-103.83-15.234-39.609 5.8594-123.28 19.688-169.69 0.9375-2.5781 1.6406-4.9219 2.1094-7.2656 6.7969-21.797 12.188-36.797 12.656-38.203 18.75-43.594 28.359-89.531 28.359-136.88-0.23438-33.281-5.1562-66.797-15-98.906zm-211.88-116.95s37.031 3.0469 50.156 29.766-14.297 39.375-2.8125 61.172-15 63.281-47.344 54.609c-32.344-8.4375-32.812-35.625-27.656-58.594 5.1562-22.734 6.5625-39.375-2.3438-52.969-9.1406-13.359 1.6406-30.703 30-33.984zm-350.39 93.75c2.1094-18.516-6.3281-50.391 14.531-75 0 0 15.234-21.328 44.531-16.875 29.531 4.4531 14.766 63.75 28.828 86.953s0.23438 47.578-40.312 56.719c-40.547 8.9062-49.688-33.281-47.578-51.797zm419.3 163.59c-1.4062 20.156-10.312 32.578-10.312 45.703 0.70312 8.9062 2.1094 17.344 4.4531 23.672 9.6094 25.312-27.422 46.172-26.484 28.594 1.1719-17.578-22.734 27.656-24.844 43.125s-21.797 39.609-38.203 35.391-27.422 14.531-45.234 19.922-45.234 34.922-85.312 18.984-53.906-37.266-79.219-28.125-69.609-33.516-73.125-51.562c-3.0469-15.703-38.672-47.344-46.875-71.719-0.46875-2.1094-7.7344-11.719-6.7969-25.781s9.375-56.25 5.1562-60.469c0 0 3.2812-13.359 14.531-4.6875s-0.46875 19.453 8.2031 36.328-0.46875 54.844 19.922 63.984 15.234 15.469 35.625 29.297c20.391 14.062 46.172 37.734 72.656 44.531s75.234 29.531 93.047 16.406c17.578-13.125 77.578-7.0312 85.781-45.234 7.9688-38.203 28.828-28.594 37.5-36.797s24.375-18.047 23.906-40.312 13.359-75 20.625-69.375 16.641 6.3281 15 28.125z"/>
</svg>
