<?xml version="1.0" encoding="UTF-8"?>
<svg width="1200pt" height="1200pt" version="1.1" viewBox="0 0 1200 1200" xmlns="http://www.w3.org/2000/svg">
 <path d="m571.33 167.33c53.332-30.535 116.4-15.066 143.33 18 11.066 13.332-5.4648 24.133-10.535 17.734-26.668-34.266-85.332-43.867-131.87-29.199-3.1953 1.0664-5.0625-4.2656-0.92969-6.5352zm136.67 146.67c-129.6-26.668-196.54-143.07-270.27-58.133-159.87 184.13-73.867 569.6 181.2 604.93 255.07 35.332 447.2-254.67 377.07-493.33-32.266-110.8-141.46-23.469-288-53.734zm63.734-96.133c32.801-19.332 83.066-9.0664 116.4 17.199 2.2656 1.8672 5.4648-1.8672 2.8008-4.9336-33.734-41.332-90-48.398-122.13-29.867-13.199 7.1992-3.0664 20.934 2.9336 17.336zm348.66 382.13c0 331.33-232.93 600-520 600-287.07 0-520.8-268.67-520.8-600s233.07-600 520-600c286.93 0 520.8 268.67 520.8 600zm-30.535-31.867c0-293.33-206.54-531.87-461.33-531.87s-461.33 238.13-461.33 531.87c0 293.73 206.54 532 461.33 532 254.8 0 461.34-238.13 461.34-532z"/>
</svg>
