<?xml version="1.0" encoding="UTF-8"?>
<svg width="1200pt" height="1200pt" version="1.1" viewBox="0 0 1200 1200" xmlns="http://www.w3.org/2000/svg">
 <path d="m572.48 682.57c11.512 2.5117 23.23 3.9492 35.008 4.293-0.37109 34.855 2.3945 69.676 8.2578 104.04 5.1211 30.203 8.5039 60.676 10.129 91.266 0 6.8242 0.87891 21.027 1.3203 37.543 1.6523 62.312 3.4141 94.02 5.9453 110.75h-1.543c-1.1016 0-112.52 7.8164-124.73 22.02l0.003906-0.003907c-2.1719 2.4453-3.2773 5.6562-3.082 8.918 1.2109 28.074 94.02 34.898 95.008 34.898h26.973c43.484 0 86.203-3.082 126.39-6.6055 0 0 56.809-6.6055 56.809-28.293 0-6.0547 0-22.02-130.02-30.055-7.4844 0-15.191-0.76953-23.559-0.99219-3.6328-18.496-5.3945-80.477-6.1641-111.74 0-17.395-0.87891-31.156-1.4297-38.312h-0.003906c-1.6016-31.332-5.0586-62.543-10.352-93.469-5.582-33.355-8.2344-67.133-7.9258-100.95 23.191-2.3242 45.402-10.551 64.516-23.891 74.641-52.293 100.07-176.15 113.84-277.32 11.008-79.047 13.211-140.81 7.375-183.3v0.003906c-0.32422-2.2305-1.3242-4.3047-2.8633-5.9453 0.42969-8.168-2.5625-16.148-8.2578-22.02-23.121-24.66-93.469-26.312-157.43-25.98h-23.34c-20.695-1.6523-43.156-2.4219-70.457-2.5312l-0.003906-0.003906c-11.605-0.44531-23.223 0.58984-34.566 3.0859-22.02 0-140.7 0-150.5 51.633-1.2812 1.7656-2.0117 3.8711-2.0898 6.0547-2.3125 83.668 15.082 185.61 51.742 302.97 31.047 97.98 84.66 158.31 155.01 173.95zm105.14 371.12c16.734 0.99219 62.973 5.9453 91.266 11.008v-0.003907c-6.0781 1.8203-12.301 3.1094-18.605 3.8555-50.109 5.0078-100.47 7.0312-150.82 6.0547-20.062-1.668-39.906-5.3594-59.23-11.008 29.727-5.2852 83.781-11.008 91.375-11.008 17.949-0.44141 32.59-0.003906 46.133 0.76953zm108.44-671.56c-13.211 97.211-36.992 214.9-104.7 262.24-28.844 20.258-62.973 25.652-104.15 16.734-63.191-13.762-110.09-67.484-138.61-159.52-1.2109-3.9648-2.2031-7.8164-3.4141-11.668v-0.003906c0.43359-0.62109 0.80469-1.2852 1.1016-1.9844 10.719-35.191 29.574-67.363 55.047-93.906 4.7344-4.8438 6.3867-5.0625 6.6055-5.0625s2.5312 1.4297 4.625 10.02c2.5312 11.008 4.7344 22.02 6.8242 33.027 6.6055 34.789 13.543 70.789 36.441 99.082v-0.003907c6.6914 10.184 17.781 16.629 29.945 17.395h3.1914c8.4453-1.375 16.191-5.5156 22.02-11.781 21.508-23.102 38.035-50.383 48.551-80.145 4.1836-10.02 7.375-11.891 8.1484-11.781 0.76953 0.10938 5.1758 3.6328 7.4844 6.0547 2.9297 4.043 6.8789 7.2383 11.438 9.2656 4.5625 2.0312 9.5781 2.8203 14.543 2.2969 7.1094-1.8633 13.199-6.4531 16.953-12.773 7.293-11.375 13.137-23.617 17.395-36.438 2.3125-6.1641 4.7344-12.332 7.4844-18.273l0.003907-0.003906c6.3438-13.941 15.102-26.648 25.871-37.539l1.2109 2.4219c5.2773 10.191 14.93 17.414 26.199 19.594 0 0.77344 0 1.543-0.10938 2.4219zm-268.62-213.14c1.2461 0.09375 2.5 0.09375 3.7461 0 1.4883-0.074219 2.9492-0.44922 4.293-1.1016 9.0195-1.1797 18.098-1.875 27.191-2.0938 26.863 0 48.66 0.87891 68.809 2.4219h25.32c36.66 0 122.64-0.76953 141.14 19.047 1.6719 1.4531 2.5352 3.6289 2.3125 5.8359-0.76953 11.008-20.035 19.047-57.137 22.898h-2.9727c-74.758 9.5273-150.12 13.426-225.47 11.668h-16.73c-24.332 0-81.359 1.4297-96-14.973h-0.003907c-2.4336-2.7227-3.4531-6.4297-2.75-10.016 3.6328-23.891 84.219-36 128.25-33.688zm-29.062 81.469h15.414c13.43 0.55078 26.863 0.76953 40.184 0.76953 63.043-0.73047 126-4.9219 188.59-12.551h2.8633c20.793-1 41.117-6.5234 59.559-16.184 2.1367 45.152 0.10938 90.41-6.0547 135.19-3.9922-1.1523-7.3555-3.8477-9.3594-7.4844l-0.87891-1.8711c-2.2031-6.3125-7.0195-11.363-13.211-13.875-4.1445-1.0156-8.4922-0.80859-12.516 0.59766-4.0273 1.4102-7.5586 3.9531-10.164 7.332-12.539 12.812-22.746 27.715-30.164 44.035-2.9727 6.4961-5.6133 13.211-8.0352 19.707h-0.003906c-3.6992 11.145-8.6875 21.824-14.859 31.816-1.9805 2.7539-2.9727 3.4141-2.8633 3.5234-2.3242-1.5117-4.4336-3.3242-6.2773-5.3945-5.2695-6.7617-12.898-11.281-21.355-12.66-12.66-0.99219-22.898 7.5977-30.273 25.32h-0.003906c-9.4453 26.898-24.449 51.504-44.035 72.219-2.4531 2.7734-5.6094 4.8281-9.1367 5.9453-3.5234 0-8.3672-2.9727-13.43-9.1367-19.484-24.441-25.652-56.258-32.035-89.836-2.0898-11.008-4.293-22.68-7.0469-33.91-4.9531-20.258-15.414-25.652-23.34-26.641h-0.003907c-9.75-0.21875-19.039 4.1406-25.102 11.781-21.168 22.156-38.207 47.922-50.309 76.074-20.824-70.625-33.242-143.46-36.992-216.99 24.219 12.332 63.852 12.883 101.17 12.219z"/>
</svg>
