<svg xmlns="http://www.w3.org/2000/svg" viewBox="0 0 128 160" x="0px" y="0px"><path d="M93.831,52.631c0-.091.678-.06,1.146-.06a.838.838,0,0,1,.71,1.3c.2-.007.422,0,.709.008.332-.046.663-.1.988-.144a7.054,7.054,0,0,0,3.108-1.569c.189-.151.385-.332.581-.513a27.662,27.662,0,0,1-1.117-8.118c.046-1.011.129-1.984.114-2.958-.626.068-1.494.189-1.6.8-.121.709.287,1.109.438,1.743a1.383,1.383,0,0,1-.3,1.411,5.007,5.007,0,0,1-1.494.7c-.007,0-.022.008-.03.008a.789.789,0,0,1-.686.392c-.37.008-.159-.083-.106.332a1.686,1.686,0,0,0,.46.943,7.8,7.8,0,0,1,.936,1.057,2.354,2.354,0,0,1-.076,2.648c-.732.732-2.067.581-3.01.581-.732,0-1.306-.649-1.924-1.064-.49.8-1.162,1.569-1.615,2.339.023.015.038.023.061.037.377-.263.762-.52,1.154-.754a.818.818,0,0,1,1.215.438A.83.83,0,0,1,93.831,52.631ZM79.608,73.024a.894.894,0,0,1-.105-.5c-.717-.807-1.509-1.524-2.294-2.256a10.7,10.7,0,0,0-2.437-2.007H74.7c-1.011-.045-.86.054-1.079.906-.257,1-1.478,1.629-2.362,1.893-1.486.438-1.328.83-.92,2.5a2.774,2.774,0,0,1-.354,2.324,3.411,3.411,0,0,1,.5.483c.769.965,1.312,2.059,2.044,3.04a29.978,29.978,0,0,0,5.463,5.81c.158-1.215.264-2.43.4-3.645C78.651,79.143,80.929,75.416,79.608,73.024ZM121.716,102.4c-.09,2.942,1.637,5.485-.476,7.929a.718.718,0,0,1-.6.28,8.472,8.472,0,0,1,.136,3c-.3,2.317-.2,4.6-.566,6.9a.721.721,0,0,1-.279.491.926.926,0,0,1-.808,1.154c-2.678.219-5.092,1.509-7.793,1.509-2.271,0-4.527.249-6.791.249-6.028,0-12.086.211-18.107,0a4.763,4.763,0,0,1-4.61-3.4c-.566-2.535-1.32-5.213-1.818-7.793a39.9,39.9,0,0,0-1.7-5.191,7.507,7.507,0,0,0-1.012.664c-1.177.943-3.885,1.23-5.417,1.29a.788.788,0,0,1-.611-.256.678.678,0,0,1-.611-.453,14.8,14.8,0,0,1-1.026-6.383.053.053,0,0,1-.03-.008c-2.747-1.147-4.813-2.353-5.508-5.386-.068-.272-.12-.544-.181-.815-1.388-.2-2.663-.665-4.029.03-.89.452-2.09.566-2.709,1.366a6.609,6.609,0,0,1-1.561,3.643c-1.2,1.079-1.306-.181-2.694,1.962a4.968,4.968,0,0,1-1.252,1.524c-4.255,2.89-7.787,6.474-12.328,9.031a.824.824,0,0,1-.415.113c-.347.31-.71.6-1.094.891-1.472,1.1-.9,2.21-2.769,3.018-1.479.641-3.591.46-5.153.415a49.143,49.143,0,0,0-7.6.407c-1.8.226-17.307,1.773-17.232-1.811.037-2.143.589-4.255.7-6.42a10.5,10.5,0,0,1,1.215-4.716c1.208-2.18,1.516-5.273,3.705-6.609-.038-.03-.075-.053-.114-.083A9.657,9.657,0,0,1,7.6,94.874c-1.117-3.131.437-5.553,2.2-7.734a3.832,3.832,0,0,1-.574-2.112c-.136-1.879-.475-3.969.385-5.757a6.163,6.163,0,0,1,1.554-1.984.917.917,0,0,1-.053-.362A4.947,4.947,0,0,1,12.8,73.334a.859.859,0,0,1-.174-.468c-.15-2.988,1.8-5.523,3.516-7.794.475-.634-.219-3.274-.136-4.089a23.123,23.123,0,0,1,.415-3.328C15.7,55.958,17.5,54,17.847,52.17a.745.745,0,0,1,.083-.234c.687-2.746,2.513-5.054,2.52-7.831.015-3.425-.015-6.684,1.071-9.951.724-2.173,2.415-5.561,4.436-6.851,1.683-1.064,4.112-2.354,6.135-2.444.875-5.433,3.568-10.669,8.058-13.815a.874.874,0,0,1,.037-.671c1.358-2.9,6.1-5.84,9.378-5.018.528.129,1.11.257,1.72.393a3.672,3.672,0,0,1,1.872-.958A9.8,9.8,0,0,1,57.3,4.027a6.731,6.731,0,0,1,5.146,2.958c1.886-1.562,6.036.762,6.4,3.123.219,1.434.408,1.464,1.524,2.339a7.343,7.343,0,0,1,2.392,2.762,19.544,19.544,0,0,1,.747,2.105c1.653.007,2.943.837,4.662,1.343,2.762.8,5.47,1.629,8.179,2.588,2.218.792,4.414,2.625,6.262,4.021a3.945,3.945,0,0,1,1.3,1.494,24.4,24.4,0,0,1,5.3-.868.881.881,0,0,1,.837.634c.5,1.735-1.6,1.9-1.561,3.146a.847.847,0,0,1-.423.732c2.233,1.939,3.4,6.375,3.7,8.948.271,2.369-.174,4.678.181,7.062.234,1.539.437,3.229.823,4.768a.75.75,0,0,1,.407.506c.06.317.091.626.136.943,2.044,1.018,2.119,3.289,2.384,5.455.287,2.361,2.4,3.078,3.682,4.783a4.067,4.067,0,0,1,.4,2.573c1.448.467,2.24,2.369,2.572,3.757.2.838.234,1.728.446,2.558a11.045,11.045,0,0,1,.656,1.991,5.13,5.13,0,0,1-.777,2.641,4.588,4.588,0,0,1,1.5,2.407c1.282,4.218,3.1,8.028,4.6,12.147C120.049,94.451,121.829,98.624,121.716,102.4Zm-1.63,6.579c1-1.531-.188-8.171-.543-9.6A79.992,79.992,0,0,0,117.1,91.4c-1.057-2.9-2.6-5.47-3.539-8.42-.392-1.23-.619-2.512-1.064-3.727-.815-2.248-2.739-2.105-4.36-1.931a7.091,7.091,0,0,1,.218,3.04,3.3,3.3,0,0,1,.664,1.321,13.671,13.671,0,0,1,.362,2.753,5.04,5.04,0,0,1,1.992,2.943,17.3,17.3,0,0,1,.445,2.165.824.824,0,0,1,1.011.362c1.132,1.834,2.746,4.316,3.109,6.489.317,1.939-.642,4.512.158,6.337a.888.888,0,0,1,.061.566.284.284,0,0,1,.037.061c.9,1.931,2.739,3.312,3.675,5.153C119.95,108.673,120.019,108.824,120.086,108.975Zm-1.3,5.447a5.92,5.92,0,0,0-1.787-6.36c-2.007-1.788-1.758-4.338-4.324-5.319.212,1.57.438,3.131.551,4.7.128,1.712.83,3.462.611,5.2a44.975,44.975,0,0,0-.392,5.621,1.491,1.491,0,0,1-.03.173,25.211,25.211,0,0,0,2.294,2.226.818.818,0,0,1,.248.332,18.964,18.964,0,0,1,2.61-.513,1.071,1.071,0,0,1-.037-.438C118.834,118.112,118.283,116.331,118.788,114.422Zm-4.527-15.564c.174-2.377-.973-4.769-2.195-6.859.12,1.781.129,3.592.129,5.138a34.408,34.408,0,0,0,.24,3.72,8.017,8.017,0,0,1,1.721.566A24.461,24.461,0,0,1,114.261,98.858Zm-.2,22.664c-1.471-1.381-2.942-3.727-5-3.9-1.109-.1-1.116-1.833,0-1.735a5.159,5.159,0,0,1,2.671,1.056,45.116,45.116,0,0,0-.135-8.239c-.37-2.519-.454-5.04-.861-7.567-.3-1.886.128-10.427-1.275-13.943a34.852,34.852,0,0,1,.438,3.871c-.091,2.505-1.886,3.953-2.58,6.224a3.709,3.709,0,0,1-3.358,3.018,3.039,3.039,0,0,1-1.773,1.969,89.636,89.636,0,0,1-9.431,2.83c-2.422.528-5.07-.031-7.5-.159a.731.731,0,0,1-.129-.03c-1.6.762-3.508,1.2-5.243,1.871,1.124,3.607,2.973,7.25,3.53,10.985.257,1.75.634,4.512,3.011,4.512h6.262c5.123,0,10.231-.113,15.346-.272A25.553,25.553,0,0,0,114.065,121.522Zm-2.92-45.827c.363-.687.725-1.456.34-2.045a7.347,7.347,0,0,1-.5-1.938c-.166-.672-.369-3.562-1.342-4.407-.159.649-1.706.619-1.706-.1,0-2.263-.091-3.795-2.127-5.175a5.1,5.1,0,0,1-1.479-2.136c-.6-1.38-.113-3.485-.838-4.821.075,2.928-.256,5.863-.007,8.805.151,1.833,2.324,3.259,2.2,5.025-.068.981-.076,2.452-.068,3.666a6.709,6.709,0,0,0,3.576-2.459c.717-.86,1.939.377,1.23,1.23a8.038,8.038,0,0,1-4.784,3c.008.256.008.407.008.407,0,.045-.015.076-.015.113.347.227.709.438,1.094.649a2.046,2.046,0,0,1,.392.287.851.851,0,0,1,.43-.159A11.8,11.8,0,0,1,111.145,75.695ZM107.69,89.464c0-1.086.1-2.489.03-3.893a.94.94,0,0,1-.158-1.539,4.762,4.762,0,0,0-2.414-3.848,17.051,17.051,0,0,1-2.784-1.38c-.883-.664-.016-2.173.882-1.5a27.078,27.078,0,0,0,3.373,1.743c-.513-2.822-4.588-3.72-6.074-5.93a31.692,31.692,0,0,1-3.667-7.658c-.362-1.064,1.313-1.517,1.668-.46a18.353,18.353,0,0,0,5.394,8.631c.038-1.434.114-3.222.016-4.723-.053-.694-1.744-1.283-1.895-2.316-.482-3.282-.075-6.451-.165-9.695a9.65,9.65,0,0,0-1.388.784,3.9,3.9,0,0,1-2.226.679c-1.125.046-1.116-1.69,0-1.727a3.065,3.065,0,0,0,1.735-.747c.521-.34,1.14-.544,1.69-.838.023-.007.038-.015.06-.022-.044-.461-.1-.9-.158-1.336a.508.508,0,0,1-.091-.128A7.554,7.554,0,0,1,99.36,55.03c-1.546.483-4.534,1.456-5.869.121a3.724,3.724,0,0,1-.256.317c-.31.324-.544.709-.853,1.033-.77.823-1.992-.407-1.222-1.222.3-.332.543-.709.844-1.041a1.978,1.978,0,0,0,.3-.445c-.694.467-1.373.965-2.068,1.433a.774.774,0,0,1-.5.113,4.163,4.163,0,0,0-.656.815c-.422.709-.7,1.486-1.079,2.218-.377.717-.829,1.653-1.237,2.633a4.57,4.57,0,0,1,1.184-1.131,21.594,21.594,0,0,1,6.519-2.46c1.086-.256,1.554,1.419.46,1.668-2.414.558-5.892,1.244-7.145,3.666a21.729,21.729,0,0,0-2.263,5.229c1.139.09,2.286.06,3.425.06a.868.868,0,0,1,0,1.735c-1.139,0-2.278.031-3.4-.06a5.951,5.951,0,0,0,.536,1.109c1.169,1.034,3.47.77,4.8,1.9a17.678,17.678,0,0,0,8.865,3.645c1.1.15.626,1.825-.468,1.674-2.572-.354-6.013-1.237-8.11-2.866a9.564,9.564,0,0,0-4.286-2.2c-.075.716-.852,1.591-1.162,2.21a2.588,2.588,0,0,0,2.023.785,10.2,10.2,0,0,1,2.662.4.883.883,0,0,1,.6.6,3.013,3.013,0,0,1,2.294,1.849,1.423,1.423,0,0,1,.181-.03c.71,0,1.3-.679,1.97-.4a.875.875,0,0,1,.527-.037,1.855,1.855,0,0,1,.974.543c1.486.083,2.248.853,3.523,1.6,1.547.921,3.184,2.287,4.934,2.762a.866.866,0,0,1-.467,1.667,15.89,15.89,0,0,1-4.074-2.157c-.566-.363-1.215-.876-1.9-1.306.483.559.966,1.117,1.441,1.675,1.4,1.637,2.792,3.252,3.154,5.44.181,1.094-1.494,1.562-1.675.46-.347-2.105-1.773-3.6-3.123-5.161-.347-.4-.68-.8-1.019-1.2a11.346,11.346,0,0,1,.664,4.24c-.06,1.117-1.8,1.124-1.735,0a10.163,10.163,0,0,0-.785-4.353,13.58,13.58,0,0,0-1.026-2.309,1.413,1.413,0,0,1-.445.241,2.134,2.134,0,0,1-.6.046c.128.679.218,1.388.316,2.09.257,1.833-.663,4-1.229,5.681-.823,2.444-1.555,4.912-2.452,7.326-.386,1.041-2.06.588-1.668-.46,1.041-2.822,1.931-5.712,2.829-8.586.287-.936,1.389-6.451-.437-7.7a25.673,25.673,0,0,1-.31,3.871c-.106,1.108-1.841,1.116-1.743,0,.159-1.728.612-3.2.1-4.9-1.8-.332-3.6.052-4.926-1.555-.852-1.026-1.049-2.1-2.55-2.6-.053-.015-.091-.03-.144-.045a15.12,15.12,0,0,1-.9,6.051A20.472,20.472,0,0,0,80,85.979a15.245,15.245,0,0,1-1.071,3.342c-.951,3.071-1.63,6.624-3.117,9.491-1.41,2.739-1.833,5.855-2.708,8.805a14.5,14.5,0,0,0,2.588-.6c.679-.256,1.222-.928,1.886-1.132a45.731,45.731,0,0,0,6.866-2.558.925.925,0,0,1,.573-.082.806.806,0,0,1,.242-.031c1.674.083,3.327.3,5,.28,2.889-.031,5.009-1.2,7.688-1.947.883-.249,1.871-.3,2.723-.6,1.856-.619,1.4-1.034,2.136-2.784,1.071-2.528,1.931-4.157,1.048-7.062-.332-1.072,1.343-1.532,1.668-.46a8.149,8.149,0,0,1-.068,6.119.7.7,0,0,1,.128.075c.581-1.033,1.064-2.256,1.471-2.822C108.248,92.346,107.69,91.313,107.69,89.464ZM99.919,38.869a8.329,8.329,0,0,0-.392-1.441C98.9,35.791,98.093,32,96.441,31.355a.022.022,0,0,1-.015-.008c-.845,1.011-.257,2.414-1.954,3.32-1.811.958-3.524,1.554-5.018,2.972a4.934,4.934,0,0,1,.212.7,8.145,8.145,0,0,1,2.384,1.645,5.037,5.037,0,0,1,.37,3.78c-.431,1.72.347,2.459.762,3.983a2.092,2.092,0,0,1,.075.74c.687.415,1.3,1.011,2.1.973.31-.022.619-.068.929-.083-.008-.045-.016-.091-.03-.158-.114-.581-.514-.83-.876-1.26-1.1-1.283-1.245-3.644.558-4.014a.814.814,0,0,1,.3-.219c.219-.091.838-.468,1-.159a5.475,5.475,0,0,1-.355-.837,3.348,3.348,0,0,1,0-2.067C97.286,39.367,98.7,39.043,99.919,38.869Zm-3.38-9.936c.31-.046.045-.529.362-.913-.287.06-.566.113-.845.181a27.264,27.264,0,0,1-3.81.543c-1.064.091-1.109-1.471-.151-1.7-.716-.883-2.429-1.539-3.1-2.1a19,19,0,0,0-4.926-2.633c-2.038-.906-4.308-1.147-6.36-1.985a13.354,13.354,0,0,0-3.773-1.282c.166.792.3,1.592.408,2.429v.023a68.7,68.7,0,0,1,10.781,7.378c.853.725-.385,1.947-1.23,1.223a63.684,63.684,0,0,0-8.986-6.27,15.66,15.66,0,0,1,.928,3.983c2.588,1.223,4.112,4.437,4.98,7.447a12.177,12.177,0,0,1,1.81.491c.619.181,1.23.309,1.834.543,1.026.4.581,2.075-.468,1.667-.6-.226-1.23-.324-1.826-.535-.294-.106-.588-.227-.9-.317.1.453.182.89.249,1.3a15.891,15.891,0,0,1-2.859,11.325c-1.645,2.233-1.094,4.2-.7,6.737l.022.159a62.916,62.916,0,0,1,4.647-11.544c.5-1,2-.12,1.5.876a54.432,54.432,0,0,0-5.009,13.377.836.836,0,0,1-.107.279.9.9,0,0,1,.076.1,5.935,5.935,0,0,1,.883,1.23,6.029,6.029,0,0,1-2.053,7.635c.174.158.34.317.521.475a24.232,24.232,0,0,1,1.849,1.75,7.849,7.849,0,0,0,1.425-.754,8.351,8.351,0,0,0,1.358-1.064c-.128-8.11,3.267-15.617,3.961-23.653.1-1.109,1.834-1.116,1.744,0a90.276,90.276,0,0,1-2.461,12.525c.061-.121.121-.242.182-.355a35.428,35.428,0,0,1,1.765-3.244,3.155,3.155,0,0,1,.71-.709c.324-1.6,1.811-2.913,2.278-4.5.46-1.547-1.192-3-.785-4.61.982-3.938-2.49-3.772-3.236-6.368a1.429,1.429,0,0,1,.445-1.26c.008-.015.022-.022.03-.037a18.892,18.892,0,0,1,2.5-2.037c1.645-1.434,3.23-.876,3.735-3.358A3.009,3.009,0,0,1,96.539,28.933ZM84.664,73.379a1.574,1.574,0,0,0-.053-1.3A10.094,10.094,0,0,1,84,70.5a8.2,8.2,0,0,1-1.637,1.147c-.182.1-.37.2-.552.317.468.234,1.223.325,1.63.528A3.359,3.359,0,0,1,84.664,73.379ZM79.955,40.59c.023-3.162-1.32-8.541-4.1-10.714a12.428,12.428,0,0,1-.408,2.384c0,.007-.008.015-.008.023a1.819,1.819,0,0,1,.317.407c1.034,1.743,2.5,4.112,2.362,6.224a28.89,28.89,0,0,1-1.275,5.6c-.249,2.588-1.8,4.225-2.2,6.541a7.028,7.028,0,0,0,1.555,6.3c.007-2.46-1.487-4.421-.212-6.791C77.73,47.334,79.933,44.467,79.955,40.59ZM76.907,67.17c2.867-2.271,1.932-4.927-.12-7.387-.008-.007-.008-.015-.015-.022a.789.789,0,0,1-.89-.219,16.544,16.544,0,0,1-2.105-2.55,9.218,9.218,0,0,0,.249,4.511A21.96,21.96,0,0,0,76.907,67.17Zm-.316,23.486a16.507,16.507,0,0,0,1.078-3.523,21.8,21.8,0,0,1-2.73-2.43c-.235-.233-.491-.452-.74-.663-.641,1.607-1.524,3.093-1.486,4.874.052,2.067-.551,3.863-.724,5.922-.31,3.539-1.253,8.028-.31,11.672a22.579,22.579,0,0,0,.769-2.845c.2-1.063.3-2.942.845-3.885C75,96.851,75.247,93.674,76.591,90.656Zm-.815-48.513a10.5,10.5,0,0,0,.6-3.229c0-2.3-1.728-4.783-3.221-6.33-2.09-2.165-.664-7.243-2.687-9.159.076.4.137.807.182,1.26a24.887,24.887,0,0,1-.641,8.148C72.532,35.927,74.644,38.258,75.776,42.143ZM74.094,66.475a.712.712,0,0,1,.052-.309c-1.4-2.354-2.5-5.146-2.278-7.726a5.05,5.05,0,0,0-.023-1.011.8.8,0,0,1-.589-.264c-.052-.06-.105-.121-.158-.173a1.292,1.292,0,0,1-.875.339c-.415.031-.754-.362-1.14-.437a2.917,2.917,0,0,0-.573-.053c-.105.015-.151.007-.166-.015a.852.852,0,0,1-.475.158c-.008.106-.023.211-.03.324-.068.559-.453.891-.377,1.509a9.692,9.692,0,0,1,.03,2.558,3.815,3.815,0,0,1-1.26,2.739c1.124,2.082,1.32,5.138-.724,6.722a1.339,1.339,0,0,1-.347.2c.445.453,1.116.777,1.425,1.29.317.543.536,1.177.883,1.7q.374.974,1.245.384c-.136-1.078-1.238-3.9-.287-4.8a1.35,1.35,0,0,1,1.185-.445c2.067.068,2.226-.242,2.528-1.736a1.436,1.436,0,0,1,.912-.874,6.005,6.005,0,0,1,.9-.069C74.01,66.483,74.048,66.483,74.094,66.475Zm-.129-35.6A14.473,14.473,0,0,0,72.8,22.618a.347.347,0,0,0-.053-.023.767.767,0,0,1-.392-.9,15.682,15.682,0,0,0-7.507-7.4.936.936,0,0,1-.566-1.026.334.334,0,0,1-.038-.09A10.694,10.694,0,0,1,63.47,10.8c-.218-1.456-2.037-1.57-3.131-1.366-1.025.189-3.538,2.158-4.089,2.6a4.382,4.382,0,0,0,.144.52c.075.106.082.182.022.234,0,.008,0,.016.008.016,2.459-1.389,5.65.151,7.7,2.029,2.693,2.475,4.753,3.893,5.817,6.632a.872.872,0,0,1,.762,0c2.044.958,2.105,2.965,2.565,4.949.309,1.321.06,2.656.476,4.014A1.588,1.588,0,0,0,73.965,30.872ZM72.238,48.021c1.539-1.441,2.806-2.769,1.651-5.976a21.641,21.641,0,0,0-3.87-6.458c.468,1.917,1.7,3.667,1.939,5.651A24.969,24.969,0,0,1,72.238,48.021Zm.4,35.272a.84.84,0,0,1,.272-.378,4.434,4.434,0,0,1-.657-.837c-1.3-2.248-2.852-4.919-5.326-5.923a1.465,1.465,0,0,1-.189-.1h-.008a2.955,2.955,0,0,1-2.052.03c-.459.891-.973,2.6-1.667,3.848,0,.038.015.061.015.1a4.57,4.57,0,0,0,.438,2.113c.159.339.339.521.317.905-.069,1.147-.589,2.558-.158,3.667a.712.712,0,0,1-.039.671.475.475,0,0,1,.039.083,31.156,31.156,0,0,1,1.539,5.765,23.325,23.325,0,0,0,.829,4.074c.581,1.773,2.166,2.58,3.735,3.244.113-1.479.287-2.95.408-4.346.24-2.821.829-5.537.859-8.367C71,86.273,72.109,84.7,72.637,83.293Zm-.03-30.277a8.929,8.929,0,0,1,.935-3.69,8.943,8.943,0,0,0-1.961,1.909.823.823,0,0,1-.777.392,7.685,7.685,0,0,1-.536.71,10.976,10.976,0,0,1,2.467,2A7.369,7.369,0,0,1,72.607,53.016Zm-.875-35.4c.045-.008.1-.008.143-.015a8.569,8.569,0,0,0-.619-1.517c-.95-1.773-2.157-2.015-3.485-3.342a2.425,2.425,0,0,1-.506-1.562A3.053,3.053,0,0,0,65.04,8.441,1.606,1.606,0,0,0,63.75,8.4a4.778,4.778,0,0,1,.89.747c.5.528.4,1.139.573,1.78s.475,1.192.7,1.811a.684.684,0,0,1,.045.166A13.237,13.237,0,0,1,71.732,17.616ZM70.163,55.452a1.264,1.264,0,0,1,.656-.316,6.99,6.99,0,0,0-3.893-2.181c-1.366-.294-2.679-1.916-3.84-2.746a.846.846,0,0,1-.416.007c-.173.129-.347.265-.512.408A4.319,4.319,0,0,1,64.089,51.7a3.982,3.982,0,0,1,1.162,1.66,4.492,4.492,0,0,1,1.652.589,2.064,2.064,0,0,1,.913,1.244,2.494,2.494,0,0,1,.838-.075,3.687,3.687,0,0,1,1.146.2C69.906,55.347,70.035,55.4,70.163,55.452ZM68.684,51.5c2.829-3.169,2.361-8.382.905-12.14-1.237-3.2-1.833-4.587-1.056-7.914.747-3.161,1.343-9.6-1.72-11.966-2.052-1.577-7.289-7.786-10.269-4.564-.038.037-.075.067-.113.1C57.623,16.62,57.7,20.407,60.89,19.5a6.3,6.3,0,0,1,3.214.558c2.2,1.29,3.5,6.549,2.852,8.9-.807,2.89-2.777,5.9.038,8.646a6.315,6.315,0,0,1,1.493,3.01,17.621,17.621,0,0,1-.588,4.844v.008c.83,1.214-.272,4.127-.77,5.153C67.635,50.918,68.156,51.212,68.684,51.5Zm-2.316-8.322c.369-1.758-.076-3.523-1.713-5.628-1.668-2.151-.83-4.489-.068-6.79.777-2.309,1.245-8.964-2.716-9.462-1.155-.143-2.082.265-3.244-.03-2.075-.528-2.279-2.934-3.1-4.512-.053.129-.114.272-.173.416-1.208,3,.633,7.107,4.451,7.107.958,0,1.833-.136,2.519.716,2.121,2.626.514,4.565.514,7.7,0,1.8.324,5.463,1.3,6.918A18.569,18.569,0,0,1,66.368,43.177ZM64.821,74.239a1.306,1.306,0,0,0,1.011.257,4.543,4.543,0,0,0-.989-1.487,6.528,6.528,0,0,1-1.44-1.448,8.823,8.823,0,0,1-3.931-.189,5.935,5.935,0,0,1-3.011-1.894,2.192,2.192,0,0,1-.354.136c-.189.053-.046.453.218.966a.734.734,0,0,1,.408.256c.453.528,1.056.574,1.622.905a6.728,6.728,0,0,1,1.516,1.547c.936,1.079,1.555,1.887,1.358,3.35-.052.393-.1.785-.166,1.177-.279.7-.022.921.762.664a11.571,11.571,0,0,0,.438-1.6,4.589,4.589,0,0,1,1.509-2.5A.88.88,0,0,1,64.821,74.239Zm.935-16.508c.113-.672,1.291-2.271-.362-2.573a7.275,7.275,0,0,0-2.105-.09,1.084,1.084,0,0,1-.023.226c.9,1.758,2.181,5.84,1.3,6.964-.68.86-1.811,1.245-.854,2.452a4.107,4.107,0,0,1,.861,1.237,10.288,10.288,0,0,1,.241,1.26h.4c.038-.151.083-.309.128-.468a4.132,4.132,0,0,0-.822-2.112,1.4,1.4,0,0,1-.091-.189.9.9,0,0,1,.212-1.282C66.556,61.881,65.447,59.58,65.756,57.731Zm-.264-8.1a11.6,11.6,0,0,0,.053-1.448.855.855,0,0,1-.392.022.754.754,0,0,1-.136.069,6.011,6.011,0,0,1-.581.709C64.791,49.206,65.145,49.424,65.492,49.635Zm-1.373-5.816a.473.473,0,0,1,.257-.408A15.217,15.217,0,0,0,63.3,41.472a8.491,8.491,0,0,1-1.049-2.218,4.749,4.749,0,0,1-.852.785,2.747,2.747,0,0,1-1.932.392,3.1,3.1,0,0,1-1.788-.619.5.5,0,0,1-.347.212,3.505,3.505,0,0,0,.792,2.135,1.757,1.757,0,0,1,.49,1.35,3.423,3.423,0,0,1-.241.89c.362.152.732.3,1.094.423.566.189.921.7,1.366,1,.988.664.988,1.547.973,2.792a2.536,2.536,0,0,1,.543-.091c.03-.007.053.008.083.008.2-.212.4-.4.611-.6a5.85,5.85,0,0,0,.725-.876c.015-.023.045-.037.06-.06.083-.4.2-.792.264-1.192A13.085,13.085,0,0,0,64.119,43.819ZM63.38,69.727a7.636,7.636,0,0,1-.2-1.479c-.12-1.614-.634-1.773-1.343-2.987a2.56,2.56,0,0,1-.286-.7.861.861,0,0,1-.393-.09c-2.935-1.434-6.066-3.29-9.363-3.75a4.194,4.194,0,0,1,.113,1.109c1.54.06,3.689.362,4.693,1.562a.882.882,0,0,1,.083,1.048,2.6,2.6,0,0,0-.392.906,14.508,14.508,0,0,1,1.878.55c.551.249,1.139.212,1.7.468,1.011.468.128,1.962-.883,1.5a4.215,4.215,0,0,0-.829-.106,3.354,3.354,0,0,1-.71-.294c-.023-.015-.045-.015-.075-.031a1.112,1.112,0,0,1,.007.152.756.756,0,0,1,.053.143C57.94,69.538,61.766,70.572,63.38,69.727ZM62.4,53.453a7.6,7.6,0,0,1,.845-.128,2.4,2.4,0,0,0-.807-.7c-.627-.354-.973-.143-1.592-.219a1.649,1.649,0,0,1-1.041-.4c-.159-.159-.31-.581-.506-.853a1.693,1.693,0,0,1-.958-.5.016.016,0,0,1-.015-.015c-.023.022-.045.038-.068.06a6.163,6.163,0,0,1-1.66.951,1.816,1.816,0,0,1,.287.2A2.059,2.059,0,0,1,57.51,52.9c.053.2.121.415.188.619,1.057.008,2.106.045,3.162.128a4.864,4.864,0,0,1,1.011.166A.74.74,0,0,1,62.4,53.453Zm-.535,9.431c.475-.928,1.192-1.494.882-2.814-.174-.747-.784-3.765-1.336-4.5a1.136,1.136,0,0,1-.075-.121,5.778,5.778,0,0,0-1.629-.113c-.906,0-1.819-.1-2.739-.09a.791.791,0,0,1-.822-.8.025.025,0,0,1-.009-.023,2.6,2.6,0,0,0-.2-.641c-.037-.106-.068-.513-.144-.581a1.589,1.589,0,0,0-.829-.4l-.355.792a2.659,2.659,0,0,0-.158.974.949.949,0,0,1-.083.339,3.851,3.851,0,0,1,.181,1.366c2.2.89,4.527,1.215,6.73,2.165,1.026.446.143,1.939-.875,1.5-2.279-.989-4.693-1.29-6.979-2.264a.672.672,0,0,1-.453-.626.745.745,0,0,1-.166-.5,2.057,2.057,0,0,0-.257-1.4,3.569,3.569,0,0,0-.784-.725.633.633,0,0,0-.536-.045.925.925,0,0,1-.581.264.9.9,0,0,0-.384.438.742.742,0,0,1-.091.234,3.436,3.436,0,0,1,.468,1,1.968,1.968,0,0,1,.022,1.086,2.26,2.26,0,0,1,.83,1.532C55.186,59.338,58.566,61.269,61.864,62.884Zm1.667,31.5c-.363-1.735-.71-3.447-1.192-5.168-1.178,1.6-2.837,3.094-3.916,4.572-.287.4-.559.868-.837,1.343a.461.461,0,0,1,.022.106c.589-.241,1.2-.445,1.788-.732C60.83,93.8,62.113,94.157,63.531,94.383ZM61.984,83.775c.151-1.01-.476-1-.611-1.84-.023-.167-.038-.355-.053-.551a1.772,1.772,0,0,1-1.214-.634,2.975,2.975,0,0,1-.831-2.286c.053-.694.582-2.429.151-2.988a10.677,10.677,0,0,0-1.637-1.841,6.514,6.514,0,0,1-1.109,2.5.886.886,0,0,1-.272.317.93.93,0,0,1-.43.362c-1.9.8-3.3-2.347-3.349-3.8-.031-.657-.454-.777-.642-1.336a1.039,1.039,0,0,0-.234-.4A6.342,6.342,0,0,1,52.04,74.9a2.559,2.559,0,0,1-1.5,1.562,2.125,2.125,0,0,1-.822,1.516c.694,1.245,1.607,3.373,2.913,4.082a1.977,1.977,0,0,1,.935,1.011c.611,2.233-.535,4.73-.128,7.1a.9.9,0,0,1,.128.559.232.232,0,0,0,.015.075,17.129,17.129,0,0,0,1.781,4.006.4.4,0,0,1,.075.084c.06-.091.128-.174.2-.264A58.862,58.862,0,0,1,59.185,89.8a12.66,12.66,0,0,0,2.6-3.041c.007-.015.015-.022.022-.037A9.029,9.029,0,0,1,61.984,83.775ZM61.6,36.2c-.082-.52-.173-1.041-.279-1.577-.369-1.84,1.275-8.472-1.516-8.608a5.485,5.485,0,0,1-4.278-1.683c-.415-.512-.913-1.108-1.358-1.758a3.719,3.719,0,0,1-4.308,1.366.74.74,0,0,1-.091.068,6.976,6.976,0,0,1-3.546.589h-.242a.731.731,0,0,1-.475.256c-.611.091.151,5.734.038,6.466-.159,1.1-1.509,1.509-1.033,3.123a8.117,8.117,0,0,1,.445,2,8.964,8.964,0,0,1,3.855.6c.52.144,1.184.121,1.607.506.241.211.725,1.222.988,1.252a.922.922,0,0,1,.792.694.7.7,0,0,1,.046.687,5.329,5.329,0,0,0-.438,2.188,4.53,4.53,0,0,1-.211,1.366.778.778,0,0,1-.317,1.116c-.656.347.249,1.713.611,2.007a5.239,5.239,0,0,0,2.067,1.17c.4-.287.929-.445,1.351-.717s1.516-.905,1.456-1.517c-.008,0-.151-.113-.3-.226a.742.742,0,0,1-.437-.347.275.275,0,0,1-.046-.038.873.873,0,0,1,.657-1.471.79.79,0,0,1,.241-.211c-.068-.325-.543-.808-.7-1.132a6.251,6.251,0,0,1-.574-2.211c-.739.476-1.72-.618-1.033-1.388.588-.656,1.486-.52,2.014-1.35A1.942,1.942,0,0,1,57.9,36.41,11.881,11.881,0,0,1,61.6,36.2ZM60.626,7.656h.158A5.036,5.036,0,0,0,56.7,5.74a12.555,12.555,0,0,0-3.244.581A5.6,5.6,0,0,1,57,8.879,8.715,8.715,0,0,1,60.626,7.656Zm.543,30.2a3.589,3.589,0,0,0-1.508.053,7.373,7.373,0,0,1-1.057.143c.015.053.038.1.053.159.143.565.746.5,1.237.5A1.6,1.6,0,0,0,61.169,37.858ZM58.257,48.481A2.764,2.764,0,0,0,59.8,48.7a2.5,2.5,0,0,0-1.456-2.09,2.143,2.143,0,0,1-.241.475,4.672,4.672,0,0,1-.853.951C57.586,48.179,57.933,48.315,58.257,48.481Zm-1.584,1.17a4.689,4.689,0,0,1-1.11-.521c-.06.038-.128.068-.188.106a1.637,1.637,0,0,1-.385.2.872.872,0,0,1-1.169.3,6,6,0,0,1-2.317-.958c-.037,1.071,2.015,1.335,2.754,1.335A4.7,4.7,0,0,0,56.673,49.651ZM55.284,75.077c.6-1.087,1.071-1.4.038-2.732a9.2,9.2,0,0,1-.988-1.961,1.727,1.727,0,0,1,.332-2.188c.452-.445,1.991-.129-.016-1.562a1.455,1.455,0,0,1-.535-.807c-.159-.581.234-1.1.619-1.592a15.332,15.332,0,0,0-3.253-.657c-.045.053-.089.113-.135.174,1.124,1.147.724,2.769-.317,3.946a1.956,1.956,0,0,0,1.554,1.788c.807.279.551,1.147,1.049,1.584S54.7,74.556,55.284,75.077ZM55.39,97.3a.907.907,0,0,1-.528-.249,10.849,10.849,0,0,1-2.475-4.2c-.513.687-1.071,1.268-1.81,2.136-1.593,1.878-2.377,4.043-3.7,6.058-1.773,2.693-2.829,5.945-4.519,8.7.92-.656,1.825-1.343,2.715-2.082,1.517-1.253,2.611-2.618,4.339-3.6,1.645-.936,2.309-2.739,3.878-3.7A4.578,4.578,0,0,0,55.39,97.3ZM54.62,11.21a4.1,4.1,0,0,1,.936-1.267c-.724-1.811-4.036-2.317-5.606-2.7a7.983,7.983,0,0,0-6.918,2.18C46.97,7.747,51.851,8.079,54.62,11.21Zm-.052,3.177a.791.791,0,0,1-.129-.234h-.007a8.411,8.411,0,0,0-3.539-1.434c-2.271-.362-3.508.732-5.236,1.879A17.5,17.5,0,0,0,43.9,16.009a8.009,8.009,0,0,1,2.6-.785c3.365,0,4.934.966,6.9,3.169C53.821,16.891,54.507,14.884,54.568,14.387Zm-1.608,38.7a4.382,4.382,0,0,1,.574-1.29,9.959,9.959,0,0,1-1.607-.256,2.517,2.517,0,0,1-1.23-.724.691.691,0,0,1-.189.067c-.2.046.061,1.321.136,1.457s.136.249.2.347a2.181,2.181,0,0,1,2.112.4Zm-1.2,31.877c.256-1.524.083-.935-.906-1.924a11.773,11.773,0,0,1-1.84-2.708c-.476,1.32-.951,3.832-2.762,2.716-.875-.536-.913-1.751-.958-2.649a12.108,12.108,0,0,0-.574-4,4.162,4.162,0,0,1-.21-.785,86.115,86.115,0,0,0-9.205,7.914c-.121.129-.249.257-.37.385a6.109,6.109,0,0,1-.55,4.987c-.838,1.585-.8,3.313-1.442,4.95-.453,1.139-1.606,1.652-2.489,2.391a.825.825,0,0,1-.34.182,11.78,11.78,0,0,1-1.336,3.84c-1.81,3.191-4.187,8.306-7.3,10.321a.865.865,0,0,1-1.245-.453.828.828,0,0,1-.309-.166,8.708,8.708,0,0,0-1.864-1.592,2.639,2.639,0,0,1-1.313-.882,3.275,3.275,0,0,1-.347-1.554c-.022-.182-.045-.34-.075-.483a.733.733,0,0,1-.181-.272c-.581-1.358-1.388-3.523-2.543-4.474a5.113,5.113,0,0,0-1.041-.649,1.021,1.021,0,0,1-.339.181c-2.264.634-2.271,3.629-3.207,5.319-1.351,2.445-1.358,4.482-1.44,7.168-.016.5-.74,3.938-.046,4.044a18.44,18.44,0,0,0,2.95.121c3.063-.046,6.224.6,9.3.249,3.825-.431,7.484-.6,11.317-.687,3.078-.068,5.658-2.588,7.688-4.844,1.524-1.69,1.811-3.267,2.882-5.1a28.666,28.666,0,0,0,1.939-2.9,55.087,55.087,0,0,1,4.346-8.42c1.154-1.758,2.836-2.83,3.863-4.738a21.163,21.163,0,0,1-.053-5.493ZM52.87,20.6a21.644,21.644,0,0,0-1.8-2.286,5.373,5.373,0,0,0-3.629-1.351c-2.5,0-5.711,1.8-7.5,3.335-1.757,1.509-2.58,4.55-3.107,6.851a15.585,15.585,0,0,0-.249,7.605c.316,1.712-1.087,4.134-1.713,5.666a15.519,15.519,0,0,0-1.366,5.953c0,3.3-.06,5.311,1.766,8.231.7,1.132.641,1.811.6,3.305a3.11,3.11,0,0,1,.468.716,5.5,5.5,0,0,1,1.622-1.72c-1.426-1.9-2.7-5.613-1.992-7.6-3.1-2.664-.981-8.979,1.177-11.582,2.754-3.334.739-5.922,1.411-9.506.423-2.211.981-5.878,2.679-7.613a8.446,8.446,0,0,1,5.915-2.829c1.712-.06,2.7,1.765,3.485,2.973a2.037,2.037,0,0,1,.241,1.486C51.739,22.218,52.4,21.682,52.87,20.6ZM49.732,74.563c-.016.212.731-.279.708-.754a15.377,15.377,0,0,0-1.576-5.032.917.917,0,0,1-.068-.483.853.853,0,0,1,.286-1.177c.476-.294,1.864-1.7.989-2.226a1.227,1.227,0,0,1-.679-1.252c-.023-.785.769-1.11.769-2a19.334,19.334,0,0,0-.618-2.678.54.54,0,0,1-.083.06,5.829,5.829,0,0,1-1.177.506c.762,1.7,1.011,3.055-.868,4.278a2.03,2.03,0,0,1-.249.135.83.83,0,0,1-.015.385c-.241.981-.935,2.211-.286,3.214a15.552,15.552,0,0,1,1.056,1.57c.543,1.146.724,2.3,1.161,3.47A6.135,6.135,0,0,1,49.732,74.563Zm-.725-63.647a8.373,8.373,0,0,1,2.6.075,9.69,9.69,0,0,0-8.91.6c-3.169,1.939-6.15,4.407-7.281,8.134-.634,2.082-1.2,4.126-1.758,6.224-.686,2.611-.211,5.13-.807,7.635-1.1,4.633-5.289,8.345-5.289,13.136,0,1.7-.355,4.346-.211,6.579a.986.986,0,0,1,.128,1.131,5.31,5.31,0,0,0,.528,1.683c.973,1.758.965,3.772,1.984,5.47a.79.79,0,0,1-.174,1.056.081.081,0,0,1,.009.045,5.417,5.417,0,0,1-.114,1.5c.083-.023.158-.053.242-.076.249-.06.513-.128.784-.2a3,3,0,0,1,.143-.724,1.553,1.553,0,0,0,.129-.415c.015-.377.083-.747.1-1.132a1.014,1.014,0,0,1,.09-.377c.265-1.947-2.059-3.8-2.429-5.923-.452-2.67-.113-5.613-.113-8.314,0-4.738,2.844-8.1,5.636-11.445a16.515,16.515,0,0,0,.022-2.89,14.8,14.8,0,0,1,.6-4.949c.461-1.977.9-5.018,2.166-6.979.241-2.188,2.279-4.791,4.172-5.938C43.575,13.421,46.314,11.414,49.007,10.916Zm1.4,29.3a1.844,1.844,0,0,1-.317-.257c0-.007-.007-.015-.015-.023-1.079,1.3-2.686,1.162-4.323.974a2.478,2.478,0,0,1-1.381-.679,2.227,2.227,0,0,0-.158.641,2.462,2.462,0,0,1-.076.709.707.707,0,0,1-.106.234,3.028,3.028,0,0,0,1.856,2.769,16.368,16.368,0,0,0,3.546.166,2.279,2.279,0,0,1,.333-.8.945.945,0,0,1,.052-.369,2.726,2.726,0,0,0,.249-.974c0-.316-.015-.641.016-.95A6.1,6.1,0,0,1,50.4,40.22Zm-.31,7.31v-.007a5.114,5.114,0,0,1-.339-.52,3.586,3.586,0,0,1-.219-.521,24.5,24.5,0,0,1-3.123-.038,12.4,12.4,0,0,1,.852,2.075,8.634,8.634,0,0,1,.121.913.715.715,0,0,1,.3-.128,3.591,3.591,0,0,0,1.5-.732,3.682,3.682,0,0,1,.823-.777C50.041,47.7,50.056,47.613,50.093,47.53Zm-.822,6.021c-.091-.181-.143-.369-.249-.551a3.062,3.062,0,0,1-.279-1.576,4.951,4.951,0,0,1,.053-.664,3.578,3.578,0,0,1-.566.188,18.226,18.226,0,0,1,.053,3.192c.158.045.3.09.445.143A2.285,2.285,0,0,1,49.271,53.551Zm-2.58,4.489c.626-.06,2.987-.218,1.984-1.8a2.353,2.353,0,0,0-1.365-.551.75.75,0,0,1-.521-.354c-1.449.4-3.025.9-4.369,1.38-2.172.778-4.322,1.585-4.964,3.833a.171.171,0,0,0,.015.061A7.925,7.925,0,0,0,38,62.544a2.195,2.195,0,0,1,.067.6,1.088,1.088,0,0,1,.121.249c.189.6.573,1.878,1.335,1.916a.613.613,0,0,1,.174.038.764.764,0,0,1,.159-.166c1.078-.853,2.474-1.155,3.658-1.834a12.018,12.018,0,0,1,2.257-.792c.792-.121,1.222-.679,1.274-1.675a9.445,9.445,0,0,1-.445-.867c-.015-.038-.023-.076-.037-.114-.8.121-1.607.2-2.392.363a6.867,6.867,0,0,0-2.361.656,7.493,7.493,0,0,0-.838.943c-.392.309-.778.445-1.2.724-.935.612-1.811-.89-.875-1.5,1.456-.958,2.286-1.984,4.127-2.362C44.224,58.478,45.476,58.161,46.691,58.04Zm2,18.4a1.456,1.456,0,0,1-.173-.083c-.762-.566-.566-1.887-.868-2.686-.076-.189-.129-.378-.189-.574a.766.766,0,0,1-.536.423.822.822,0,0,0-.1.037.75.75,0,0,1-.272.4c-.135.113-.271.219-.407.332-.241,1.049.7,2.8.807,3.523a19.5,19.5,0,0,1,.061,1.977c0,.083.007.166.015.249h.226c.121-.309.249-.611.392-.913.242-.52-.112-.792.008-1.3C47.785,77.234,48.4,76.9,48.69,76.435Zm-3.7-38.215c.626,1.238,2.9,1.645,3.765.589C47.49,38.469,46.269,37.911,44.986,38.22Zm1.237-15.353c4.459.2,1.916-4.821-1.4-2.822-.43.257-.852.521-1.268.807a6.732,6.732,0,0,0-2.112,3.018C42.632,22.663,43.808,22.754,46.223,22.867Zm.785,48.505a5.183,5.183,0,0,0-.589-1.388c-.166-.264-.317-.506-.452-.732a2.562,2.562,0,0,1-.423.03,2.277,2.277,0,0,1-1.056.6,6.543,6.543,0,0,0-.868.264c.393.664,1.071.664,1.675,1.064a1.78,1.78,0,0,0,1.109.407A1.013,1.013,0,0,0,47.008,71.372Zm-.619-17.7c.038-.347.053-.717.068-1.086a.79.79,0,0,1-.234-.31,7.479,7.479,0,0,1-.589-2.836c0-1.261-.995-2.279-1.192-3.5a.31.31,0,0,1-.007-.076c-.038-.022-.083-.037-.121-.06a3.409,3.409,0,0,1-1.011-.989,3.316,3.316,0,0,1-.166.431c-.943,2.105-3.3,5.123-1.614,7.544.467.672.852,1.411,1.312,2.09A33.879,33.879,0,0,0,46.269,53.8c.045-.015.082-.022.12-.037A.345.345,0,0,1,46.389,53.672Zm-1.184,13.89a5.918,5.918,0,0,1,.1-2.973,7.255,7.255,0,0,0-1.283.468,17.164,17.164,0,0,0-2.943,1.35,1.123,1.123,0,0,1-.1.068.909.909,0,0,1-.257.257c-.249.166.272,1.479.37,1.758.173.513.4.415.89.4.023-.008.045.007.068.007a8.278,8.278,0,0,1,1.585-.558,4.617,4.617,0,0,0,.943-.362C44.774,67.841,45,67.7,45.205,67.562Zm-.431,5.628c.031-.06.061-.1.1-.158-.075-.045-.151-.03-.226-.083-.973-.642-1.984-.679-2.573-1.826-.053-.106-.083-.143-.1-.143a2.432,2.432,0,0,1-2.565-1.849,9,9,0,0,1-.46-2.188,2.705,2.705,0,0,1-1.373-.95.943.943,0,0,1-.173.316c-.431.521.256,1.23.58,1.471a2.3,2.3,0,0,1,.792.906,7.312,7.312,0,0,1,.959,2.86.953.953,0,0,1-.046.264.7.7,0,0,1-.6.95c-.762.106-.694.7-.807,1.283a4.6,4.6,0,0,1-.446.988c.219-.49,1.585-.249,1.917.053a1.966,1.966,0,0,1,.619,1.494C41.832,75.461,43.31,74.382,44.774,73.19ZM42.745,32.456c.7-2.12,1.3-2.4.6-4.957a5.276,5.276,0,0,1,.3-2.8c-.732.2-1.328.694-2.052,1.924a.81.81,0,0,1-1.027.355c-.037.188-.075.384-.112.566-.521,2.784,1.078,6.367-.386,9-.746,1.351-1.9,2.339-2.685,3.652-.634,1.056-1.593,5.4-.77,7.2.453-1.834.581-3.728,1.622-5.357.981-1.547,2.92-2.022,3.84-3.561a.825.825,0,0,1,.612-.408C43.394,36.138,42.119,34.327,42.745,32.456Zm-3,15.6c.883-2.112,2.068-3.569,1.9-6.028-.015-.227-.023-.43-.023-.619-2.5,1.026-2.512,3.795-3.161,5.968-.823,2.746-1.147,6.376,1.026,8.684.294-.136.6-.272.928-.4.227-.09.453-.158.672-.234C39.644,53.28,38.671,50.631,39.749,48.051ZM38.437,76.97c.234-.2.543-.407.045-.407-.9,0-2.037-.113-2.331-1.17a1.578,1.578,0,0,1,.189-1.237c.316-.46.052-.89.2-1.4a2.242,2.242,0,0,1,1.411-1.487,12.084,12.084,0,0,0-.664-1.659c-.2-.544-.876-.68-1.223-1.162a2.6,2.6,0,0,1-.437-1.192c-1.358.988-2.89,1.818-4.1,2.889-1.351,1.192-2.708,2.716-4.4,3.418a9.762,9.762,0,0,1-1.184,6.556,39.055,39.055,0,0,1-2.686,4.044c-1.728,2.181-1.018,3.954-.362,6.323.143.513.264,1.041.377,1.577a47.272,47.272,0,0,0,5.568-4.452.4.4,0,0,0,.061-.052c2.082-1.917,4.036-3.976,6.005-6.119A31.849,31.849,0,0,1,37.516,78.9a.97.97,0,0,1,.038-.234A3.789,3.789,0,0,1,38.437,76.97ZM36.143,64.144a3.012,3.012,0,0,0,.121-.566,20.7,20.7,0,0,1-5.847,2.2c-2.86.823-5.576,2.52-8.533,2.86-1.109.128-1.094-1.607,0-1.735a11.044,11.044,0,0,0,2.587-.679,11.679,11.679,0,0,1-3.357-2.257,17.763,17.763,0,0,1-2.271-2.655c-.309-.46-.6-1.245-.958-1.864-.113,2,.483,3.946.136,5.9-.174.943-1.517,2.128-2.038,2.928a8.142,8.142,0,0,0-1.614,4.014,27.409,27.409,0,0,1,5.493-1.675c1.742-.438,7.363-2.068,8.389.316,1.177-.965,2.286-2.24,3.176-2.957,1.434-1.154,3.471-2.007,4.671-3.448A.9.9,0,0,1,36.143,64.144Zm-.5-2.248a.56.56,0,0,1-.069-.113c-.2-.5-.287-1-.475-1.509a1.682,1.682,0,0,1-.113-.709c-.015.022-.023.03-.038.052a18.583,18.583,0,0,1-2.135,2.415c-.023.294-.053.581-.076.867a1.642,1.642,0,0,1-.112.468A9.724,9.724,0,0,0,35.646,61.9Zm-1.495-4.127a3.347,3.347,0,0,0-.9-2.965,7.123,7.123,0,0,1-1.366-2.151c-.619-1.222-.121-3.078-.121-4.353a27.549,27.549,0,0,1,1.622-8.85,12.709,12.709,0,0,0-2.21,4.414,22.713,22.713,0,0,0-.785,6.179c0,1.743-.392,4.361.249,5.99a18.773,18.773,0,0,0,2.128,2.287,1.519,1.519,0,0,1,.325.558A4.518,4.518,0,0,1,34.151,57.769ZM32.228,89.412c.279-.951,1.486-2.77,1.373-4.112q-1.606,1.664-3.267,3.229c.038,1.833.136,3.712.038,5.56a3.307,3.307,0,0,0,1.3-2A25.138,25.138,0,0,1,32.228,89.412ZM31.111,30.525a35.409,35.409,0,0,1,.686-3.908,12.554,12.554,0,0,0-6.616,4.345,18.047,18.047,0,0,0-2.89,9.2.785.785,0,0,1,.438.393,7.53,7.53,0,0,0,.98,1.229c.287.317.6.6.913.9.483.438,1.057.838,1.577,1.26,1.185-3.146,3.3-5.757,4.422-8.948C31.179,33.422,30.982,32.117,31.111,30.525ZM27.286,99.386c1.644-2.626,1.493-6.18,1.365-9.326a46.642,46.642,0,0,1-4.723,3.645.793.793,0,0,1-.377.135,16.5,16.5,0,0,1-.083,4.874c-.355,1.947-.513,4.142-1.4,5.9a1.13,1.13,0,0,1-.151.211,12.353,12.353,0,0,0-.317,3.365,51.539,51.539,0,0,0,3.124-4.7C25.686,102.147,26.418,100.766,27.286,99.386Zm.543-36.706a1.172,1.172,0,0,1,.317-.852,7.882,7.882,0,0,1-.717-1.954.868.868,0,0,1-.324-.121c-1.743-1.1-3.878-1.562-5.561-2.739a10.927,10.927,0,0,1-2.361-2.776c-.016.037-.031.075-.045.113-.28.574-1.155,1.969-1.064,2.626a.672.672,0,0,1,.143.286c.2.143.619.392.739.642,1.592,3.184,4.165,6.707,7.975,7.243.03,0,.053.022.083.03.256-.113.513-.219.762-.325a1,1,0,0,1-.068-.52,5.857,5.857,0,0,0,.121-.974ZM25.98,72.157a2.948,2.948,0,0,0,.68-.2c-.2-.966-6.595.332-7.183.49-2.271.6-5.741,1.064-6.481,3.667a12.931,12.931,0,0,1,5.025-1.184.945.945,0,0,1,.37.052c2.021-1.139,4.4-1.742,6.737-2.859A.866.866,0,0,1,25.98,72.157Zm.762-14.622a5.459,5.459,0,0,1-.822-2.113c-.015-.309-.03-.618-.038-.92-.422-.151-.845-.294-1.26-.438-.641-.226-.973-.8-1.464-1.214-.527-.446-.973-1.019-1.509-1.441-.452-.355-.9-.694-1.35-1.049a9.265,9.265,0,0,0-.664,1.728c1.569,1.471,2.151,3.282,4.414,4.194A24.034,24.034,0,0,1,26.742,57.535Zm-.913-4.882c-.014-1.252,0-2.5,0-3.742,0-.92-.128-2-.075-3.018l-.045-.045a10.44,10.44,0,0,0-1.132-.943c-.49-.392-.928-.845-1.419-1.23a4.8,4.8,0,0,1-.837-.815,12.379,12.379,0,0,1-.272,3.773,10.485,10.485,0,0,1-.927,2.165c.874.807,1.818,1.524,2.7,2.331a6.9,6.9,0,0,0,1.6,1.381C25.551,52.563,25.694,52.608,25.829,52.653ZM21.371,83.76c2.285-2.882,4.458-6.035,4.051-9.868-3.44,1.509-7.22,2.1-9.2,5.658-.943,1.7-2.279,3.117-3.206,4.837-1.321,2.437-1.011,4.7-1.011,7.718,0,.754-1.743.754-1.743,0,0-.853-.031-1.773-.031-2.716a5.367,5.367,0,0,0-1.055,3.282,6.1,6.1,0,0,0,3.794,5.575,6.865,6.865,0,0,1,3.26,3.147c.218-3.365,1.5-6.768.045-9.839C14.724,88.272,17.6,83.64,19.25,81.007c.6-.943,2.1-.068,1.5.882-1.675,2.664-3.961,6.338-2.55,9.68a7.027,7.027,0,0,1,.618,3.509c-.219,3.364-1.652,6.156-.527,9.528a.748.748,0,0,1-.212.838.966.966,0,0,0,.015.151c.068.6-.083.838.536,1.116a4.6,4.6,0,0,1,1.2.8,18.808,18.808,0,0,1,.618-4.066.806.806,0,0,1,.393-.536,16.18,16.18,0,0,1,.4-2.452,11.721,11.721,0,0,0,.665-4.293c-.076-2.988-.9-5.485-1.54-8.352A5,5,0,0,1,21.371,83.76Zm-6.647-5.107a8.747,8.747,0,0,1,1.29-1.819,4.184,4.184,0,0,0-1.494.513c-.852.551-2.649,1.223-3.108,2.181a7.547,7.547,0,0,0-.589,4.157c.007.053.038.52.068,1.018C11.766,82.38,13.584,80.78,14.724,78.653Z"/><path d="M117.106,114.747a.879.879,0,0,1,.309,1.184.865.865,0,0,1-1.184.31,8.79,8.79,0,0,0-1.132-.566.861.861,0,0,1-.309-1.185.881.881,0,0,1,1.184-.309A6.876,6.876,0,0,1,117.106,114.747Z"/><path d="M116.072,117.2a.866.866,0,0,1-.837,1.516.841.841,0,0,1-.423-.113c-.158-.09-.309-.2-.467-.286-.981-.536-.106-2.038.875-1.5.105.053.211.121.309.182A1.258,1.258,0,0,1,116.072,117.2Z"/><path d="M108.965,114.188a1.306,1.306,0,0,0-.143-.082c.015.022-.166-.016-.015-.008a.868.868,0,1,1,0-1.735,2.216,2.216,0,0,1,1.456.664c.158.143.3.3.453.452.06.068.128.128.2.2a.748.748,0,0,0,.1.061c.973.543.1,2.044-.876,1.5a3.666,3.666,0,0,1-.836-.724c-.061-.068-.129-.136-.189-.2C109.109,114.317,108.965,114.2,108.965,114.188Z"/><path d="M109,101.634a.888.888,0,0,1,.31,1.192.865.865,0,0,1-1.185.309,2.053,2.053,0,0,0-.981-.452.864.864,0,1,1,0-1.728A3.369,3.369,0,0,1,109,101.634Z"/><path d="M109.079,104.7c.822.762-.416,1.984-1.231,1.222a10.15,10.15,0,0,0-.89-.618,7.451,7.451,0,0,0-1.011-.657c-.988-.52-.113-2.022.883-1.5.438.234.808.558,1.222.822A5.827,5.827,0,0,1,109.079,104.7Z"/><path d="M108.226,106.266a.869.869,0,0,1,.6,1.064.88.88,0,0,1-1.072.6,5.894,5.894,0,0,1-1.811-.838.871.871,0,0,1,.883-1.5A4.394,4.394,0,0,0,108.226,106.266Z"/><path d="M105.118,116.671c.739.837-.484,2.067-1.231,1.229a13.482,13.482,0,0,0-3.878-3.259c-1-.49-.128-1.992.876-1.5A14.755,14.755,0,0,1,105.118,116.671Z"/><path d="M102.145,118.587c1.117.038,1.117,1.781,0,1.735-1.434-.052-2.429-1.4-3.395-2.324a14.291,14.291,0,0,0-3.365-2.7c-1-.483-.121-1.977.882-1.5a13.008,13.008,0,0,1,2.7,2.03c.581.513,1.162,1.049,1.713,1.592C101.013,117.757,101.639,118.572,102.145,118.587Z"/><path d="M97.762,118.843c.822.755-.408,1.977-1.231,1.223a45.7,45.7,0,0,0-6.239-4.859c-.936-.6-.068-2.1.883-1.5A49.309,49.309,0,0,1,97.762,118.843Z"/><path d="M96.908,94.761a.88.88,0,0,1,.6,1.064.869.869,0,0,1-1.071.6c-.437-.166-.837-.407-1.26-.611a7.507,7.507,0,0,1-1.117-.6.871.871,0,1,1,.883-1.5,7.514,7.514,0,0,0,1.109.6A9.19,9.19,0,0,0,96.908,94.761Z"/><path d="M96.924,92.2c.988.528.113,2.029-.876,1.5-.067-.038-.135-.084-.211-.121a.847.847,0,0,1-.95-.378.877.877,0,0,1,.309-1.192A1.741,1.741,0,0,1,96.924,92.2Z"/><path d="M94.894,99a1.746,1.746,0,0,1-.438-.1.64.64,0,0,1-.067-.023.91.91,0,0,1-1.011-.392.9.9,0,0,1,.309-1.192,1.479,1.479,0,0,1,1.3-.038c.015,0,.294.068.347.083.143.045.286.106.43.166s.272.128.392.174a.889.889,0,0,1,.6,1.071.875.875,0,0,1-1.071.6c-.2-.075-.393-.165-.589-.256C95.091,99.1,94.8,99,94.894,99Z"/><path d="M96.267,35.806c.981.536.106,2.037-.882,1.5-.159-.09-.31-.2-.468-.286-.981-.536-.106-2.037.875-1.494C95.95,35.61,96.1,35.723,96.267,35.806Z"/><path d="M95.022,37.421a.88.88,0,0,1,.6,1.064.867.867,0,0,1-1.071.6c-.483-.2-.959-.415-1.434-.649a.877.877,0,0,1-.309-1.192A.891.891,0,0,1,94,36.938C94.336,37.1,94.668,37.277,95.022,37.421Z"/><path d="M94.977,67.962c.755,0,.755,1.509,0,1.509H92.714c-.755,0-.755-1.509,0-1.509Z"/><path d="M93.627,119.839a.868.868,0,0,1-.883,1.494c-.981-.588-1.6-1.818-2.475-2.588a17.816,17.816,0,0,0-3-2.5c-.988-.521-.113-2.015.883-1.494a17.511,17.511,0,0,1,3.018,2.49,18.087,18.087,0,0,1,1.433,1.418A7.306,7.306,0,0,0,93.627,119.839Z"/><path d="M90.352,110.341a.887.887,0,0,1-.309,1.184.87.87,0,0,1-1.192-.309,3.739,3.739,0,0,1-.31-1.094,5.332,5.332,0,0,0-.249-.717.866.866,0,0,1,.6-1.064.883.883,0,0,1,1.072.6,5.572,5.572,0,0,1,.256.739A4.028,4.028,0,0,0,90.352,110.341Z"/><path d="M89.175,119.975a.864.864,0,0,1-1.222,1.223,2.091,2.091,0,0,0-.49-.242.876.876,0,0,1-.31-1.185.887.887,0,0,1,1.192-.309A3.169,3.169,0,0,1,89.175,119.975Z"/><path d="M87.757,111.736a.866.866,0,0,1-.46,1.668,2.287,2.287,0,0,1-1.525-1.645c-.3-.981-.641-1.946-.965-2.92-.362-1.064,1.313-1.516,1.668-.46.248.724.512,1.449.754,2.173C87.327,110.839,87.41,111.638,87.757,111.736Z"/><path d="M87.516,30.857a.87.87,0,0,1-1.653.535c-.03-.022-.053-.045-.083-.068a.875.875,0,0,1,0-1.229.891.891,0,0,1,1.23,0A1.322,1.322,0,0,1,87.516,30.857Z"/><path d="M85.214,40.846c.777-.807,2.007.422,1.23,1.23.008-.038.023-.068.031-.1a.867.867,0,0,1-1.668-.468A1.528,1.528,0,0,1,85.214,40.846Z"/><path d="M85.629,112.151a.869.869,0,0,1-1.675.461,9.938,9.938,0,0,0-1.893-3.094c-.657-.905.852-1.773,1.5-.875A11,11,0,0,1,85.629,112.151Z"/><path d="M85.283,78.524a71.321,71.321,0,0,1-.785,10.39c-.151,1.109-1.826.611-1.676-.483.468-3.358.725-9.907.725-9.907C83.547,77.015,85.283,77.015,85.283,78.524Z"/><path d="M81.125,94.7a.87.87,0,0,1,1.675.468,18.049,18.049,0,0,1-1.758,3.606c-.77,1.359-1.615,2.656-2.482,3.954-.619.928-2.12.06-1.494-.875.762-1.147,1.539-2.294,2.211-3.493A18.3,18.3,0,0,0,81.125,94.7Z"/><path d="M49.958,88.717c.98.544.105,2.045-.876,1.494a25.753,25.753,0,0,0-4.134-2.173c-1.056-.354-.6-2.029.467-1.675A27.632,27.632,0,0,1,49.958,88.717Z"/><path d="M49.852,85.36c.815.77-.415,1.992-1.23,1.23a3.46,3.46,0,0,0-.671-.4c-.189-.114-.128-.1-.317-.106-1.117-.03-1.117-1.765,0-1.728a2.215,2.215,0,0,1,1.192.34A6.8,6.8,0,0,1,49.852,85.36Z"/><path d="M47.694,90.694a.87.87,0,0,1-.875,1.5,5.4,5.4,0,0,0-2.105-.83c-1.116-.061-1.124-1.8,0-1.728A6.994,6.994,0,0,1,47.694,90.694Z"/><path d="M44.661,94.851a.87.87,0,0,1-.467,1.675,8.924,8.924,0,0,1-1.781-.845A9.469,9.469,0,0,1,40.8,94.7a.861.861,0,0,1,0-1.229.879.879,0,0,1,1.221,0,8.481,8.481,0,0,0,1.268.716A6.589,6.589,0,0,0,44.661,94.851Z"/><path d="M43.228,82.153a.866.866,0,0,1-.543,1.638,1.422,1.422,0,0,1-.724-.461c-.174-.188-.416-.233-.612-.377A4.007,4.007,0,0,0,39.765,82a.871.871,0,0,1-.6-1.071.89.89,0,0,1,1.064-.6,4.4,4.4,0,0,1,1.856,1.018,6.256,6.256,0,0,0,.686.415,1.705,1.705,0,0,1,.423.347A.19.19,0,0,1,43.228,82.153Z"/><path d="M42.963,97.492c1.087.241.627,1.909-.467,1.675-1.456-.317-2.46-1.426-3.7-2.165a.869.869,0,0,1,.883-1.495C40.768,96.157,41.689,97.213,42.963,97.492Z"/><path d="M42.164,78.524c1.509,0,1.509,1.509,0,1.509S40.655,78.524,42.164,78.524Z"/><path d="M41.922,84.2c1.041.385.589,2.067-.459,1.667-1.095-.407-1.94-1.184-3.116-1.411-1.095-.211-.627-1.886.467-1.674a5.6,5.6,0,0,1,1.811.656A8.508,8.508,0,0,0,41.922,84.2Z"/><path d="M40.8,99.793a.869.869,0,0,1,0,1.222.885.885,0,0,1-1.231,0,8.164,8.164,0,0,0-1.8-1.184.867.867,0,0,1-.309-1.185.884.884,0,0,1,1.185-.309A9.718,9.718,0,0,1,40.8,99.793Z"/><path d="M38.927,104.184a.868.868,0,0,1,.31,1.185.893.893,0,0,1-1.192.309c-.936-.4-1.426-1.683-2.43-1.894-1.094-.219-.633-1.893.46-1.667a3.573,3.573,0,0,1,1.765,1.124A3.839,3.839,0,0,0,38.927,104.184Z"/><path d="M37.509,107.292c1,.5.128,1.992-.875,1.5a24.88,24.88,0,0,1-2.2-1.479c-.792-.5-1.614-.973-2.429-1.448a.868.868,0,0,1,.882-1.5c.808.468,1.638.929,2.422,1.442A20.926,20.926,0,0,0,37.509,107.292Z"/><path d="M35.464,110.575c1.1.113,1.117,1.848,0,1.727-1.336-.143-2.165-1.335-3.267-2-1.207-.739-2.437-1.433-3.583-2.263-.89-.65-.031-2.159.882-1.5,1.011.739,2.1,1.366,3.169,2.014a10.691,10.691,0,0,1,1.283.868C34.3,109.714,35,110.522,35.464,110.575Z"/><path d="M33.737,112.483c1.026.446.135,1.939-.876,1.494a12.412,12.412,0,0,1-2.874-1.924c-.966-.807-2.037-1.5-2.958-2.361-.823-.762.408-1.984,1.222-1.223.921.846,2,1.555,2.966,2.354A10.762,10.762,0,0,0,33.737,112.483Z"/><path d="M28.606,112.664a.873.873,0,0,1-.868.868,3.927,3.927,0,0,1-1.086-.317.885.885,0,0,1-.6-1.064.876.876,0,0,1,1.071-.6,2.614,2.614,0,0,0,.619.249A.888.888,0,0,1,28.606,112.664Z"/><text x="0" y="143" fill="#000000" font-size="5px" font-weight="bold" font-family="'Helvetica Neue', Helvetica, Arial-Unicode, Arial, Sans-serif">Created by Hey Rabbit</text><text x="0" y="148" fill="#000000" font-size="5px" font-weight="bold" font-family="'Helvetica Neue', Helvetica, Arial-Unicode, Arial, Sans-serif">from the Noun Project</text></svg>