<?xml version="1.0" encoding="UTF-8"?>
<svg width="1200pt" height="1200pt" version="1.1" viewBox="0 0 1200 1200" xmlns="http://www.w3.org/2000/svg">
 <path d="m1165.5 574.55-540-540c-14.062-14.062-36.844-14.062-50.906 0l-540 540c-14.062 14.062-14.062 36.844 0 50.906l540 540c14.062 14.062 36.844 14.062 50.906 0l540-540c14.062-14.062 14.062-36.844 0-50.906zm-565.45 514.55-489.1-489.1 489.1-489.1 489.1 489.1zm0-762.47c150.98 0 273.37 122.39 273.37 273.37s-122.39 273.37-273.37 273.37-273.37-122.39-273.37-273.37 122.39-273.37 273.37-273.37z"/>
</svg>
