<?xml version="1.0" encoding="UTF-8"?>
<svg width="1200pt" height="1200pt" version="1.1" viewBox="0 0 1200 1200" xmlns="http://www.w3.org/2000/svg">
 <path d="m184.8 1035.6 188.4 44.398h2.3984c6 0 10.801-3.6016 12-9.6016 1.1992-6-2.3984-13.199-8.3984-14.398l-82.801-19.199 70.801-302.4c10.801 2.3984 22.801 3.6016 32.398 3.6016 34.801 0 64.801-10.801 91.199-32.398 111.6-93.602 100.8-355.2 100.8-366 0-4.8008-3.6016-9.6016-9.6016-10.801l-249.6-58.801c-4.8008-1.1992-10.801 1.1992-13.199 6-4.8008 9.6016-130.8 238.8-72 372 18 40.801 50.398 67.199 97.199 81.602l-70.801 302.4-82.801-19.199c-6-1.1992-13.199 2.3984-14.398 8.3984-2.3945 5.9961 1.207 11.996 8.4062 14.398zm151.2-741.6 232.8 55.199c0 18 0 62.398-4.8008 114-14.398 1.1992-30 2.3984-54-3.6016-33.602-8.3984-49.199-19.199-66-31.199-18-13.199-37.199-26.398-74.398-36-32.398-7.1992-54-6-74.398-2.3984 15.598-45.602 32.398-80.398 40.797-96zm-67.199 344.4c-27.602-62.398-9.6016-150 15.602-223.2l4.8008-1.1992c20.398-3.6016 39.602-7.1992 73.199 1.1992 33.602 8.3984 49.199 19.199 66 31.199 18 13.199 37.199 26.398 74.398 36 18 3.6016 31.199 6 43.199 6h13.199c-10.801 74.398-33.602 157.2-84 199.2-31.199 25.199-68.398 33.602-114 21.602-45.598-10.801-75.598-34.801-92.398-70.801z"/>
 <path d="m859.2 728.4c46.801-14.398 79.199-40.801 97.199-81.602 58.801-133.2-67.199-362.4-72-372-2.3984-4.8008-8.3984-7.1992-13.199-6l-249.6 58.801c-4.8008 1.1992-8.3984 6-9.6016 10.801 0 10.801-12 272.4 100.8 366 26.398 21.602 56.398 32.398 91.199 32.398 10.801 0 21.602-1.1992 32.398-3.6016l70.801 302.4-82.797 20.406c-6 1.1992-10.801 8.3984-8.3984 14.398 1.1992 6 6 9.6016 12 9.6016h2.3984l189.6-44.398c6-1.1992 10.801-8.3984 8.3984-14.398-1.1992-6-8.3984-10.801-14.398-8.3984l-82.801 19.199zm-223.2-379.2 232.8-55.199c8.3984 15.602 25.199 50.398 42 94.801-19.199-3.6016-40.801-4.8008-74.398 2.3984-38.398 8.3984-56.398 22.801-74.398 36-16.801 12-32.398 24-66 31.199-24 6-40.801 6-54 3.6016-7.2031-50.398-7.2031-94.801-6.0039-112.8zm91.199 337.2c-50.398-42-73.199-124.8-84-199.2h13.199c12 0 26.398-1.1992 43.199-6 38.398-8.3984 56.398-22.801 74.398-36 16.801-12 32.398-24 66-31.199 33.602-8.3984 52.801-4.8008 73.199-1.1992l4.8008 1.1992c25.199 73.199 43.199 160.8 15.602 223.2-16.801 37.199-46.801 60-92.398 70.801-45.598 12-82.801 4.8008-114-21.602z"/>
 <path d="m601.2 214.8c7.1992 0 12-4.8008 12-12v-70.801c0-7.1992-4.8008-12-12-12s-12 4.8008-12 12v70.801c0 7.1992 4.8008 12 12 12z"/>
 <path d="m706.8 175.2-61.199 34.801c-6 3.6016-7.1992 10.801-4.8008 16.801 2.3984 3.6016 6 6 10.801 6 2.3984 0 3.6016 0 6-1.1992l61.199-34.801c6-3.6016 7.1992-10.801 4.8008-16.801-4.8008-6-12-8.3984-16.801-4.8008z"/>
 <path d="m484.8 195.6 61.199 34.801c2.3984 1.1992 3.6016 1.1992 6 1.1992 3.6016 0 8.3984-2.3984 10.801-6 3.6016-6 1.1992-13.199-4.8008-16.801l-61.199-34.801c-6-3.6016-13.199-1.1992-16.801 4.8008s-1.1992 13.199 4.8008 16.801z"/>
</svg>
