<?xml version="1.0" encoding="UTF-8"?>
<svg width="1200pt" height="1200pt" version="1.1" viewBox="0 0 1200 1200" xmlns="http://www.w3.org/2000/svg">
 <path d="m600 0c-326.8 0-591.73 268.67-591.73 600s264.93 600 591.73 600 591.73-268.67 591.73-600-264.93-600-591.73-600zm-4.2656 1149.6c-289.73 0-524.67-238.27-524.67-532 0-293.73 234.93-532 524.67-532 289.73 0 524.53 238.27 524.53 532 0 293.73-234.8 532-524.53 532zm-97.066-592.93c177.33-315.2-35.734-382.67-113.2-238h-0.003906c-4.1797 7.6016-10.723 13.637-18.633 17.195-7.9141 3.5586-16.77 4.4492-25.23 2.5352-150.14-33.199-263.47 154.93 111.33 238.67 8.8047 1.9844 18.012 1.0664 26.254-2.6094 8.2383-3.6758 15.074-9.9141 19.48-17.789zm-59.734-13.332c-240.8-57.336-180.67-179.34-70.668-155.34 9.043 2.0195 18.508 0.83594 26.777-3.3438 8.2656-4.1836 14.828-11.109 18.559-19.59 43.332-93.332 178.93-43.867 69.734 158.27h-0.003907c-4.2266 7.6836-10.863 13.762-18.887 17.305-8.0234 3.543-16.984 4.3477-25.512 2.2969zm420.13-179.34c-8.2969 2.7891-17.238 3.0039-25.66 0.625s-15.93-7.2422-21.539-13.957c-73.199-90.266-227.87-37.066-59.066 198.93 5.5234 7.6562 13.391 13.309 22.41 16.102 9.0195 2.7891 18.707 2.5664 27.59-0.63672 256.13-94 173.33-238.4 56.266-201.07zm-48.398 171.46c-8.457 3.3672-17.809 3.75-26.512 1.082-8.7031-2.6641-16.238-8.2227-21.355-15.746-103.6-150-13.332-190.27 40-126 4.9297 6.7266 11.914 11.668 19.902 14.074 7.9844 2.4062 16.539 2.1445 24.363-0.74219 71.066-29.598 122 65.066-36.398 127.33zm8.1328 263.46c-114.93 152.27-500.93 104.93-512.4-124.93-3.1992-65.199 71.602-68.934 100.93-30.133 71.332 94.535 195.33 202 362.67 125.6 44.797-20.398 60.93 13.469 48.797 29.469z"/>
</svg>
