<?xml version="1.0" encoding="UTF-8"?>
<svg width="1200pt" height="1200pt" version="1.1" viewBox="0 0 1200 1200" xmlns="http://www.w3.org/2000/svg">
 <path d="m598.78 371.86c6.8438 5.8594 17.531 4.5938 23.719 0.42188h0.046875c17.203-8.9062 29.766-22.547 36.188-36.234 11.109-23.391-6.7969-49.641-28.922-38.25-3.4688 0.9375-6.9375 2.6719-10.266 5.2031-0.14062 0.09375-0.28125 0.23438-0.42188 0.28125-0.84375 0.65625-1.8281 1.125-2.7188 1.6875-5.625-1.5-4.1719-9.8906-17.391-14.203-12.047-3.8906-27.281 5.625-30.984 21.469-5.0156 21.844 13.406 45.469 30.75 59.625z"/>
 <path d="m718.26 382.92c6.7969 5.8125 17.672 4.4531 23.719 0.42188h0.046875c6.5625-3.4219 12.891-7.7344 18.516-12.844 40.219-36.891 14.062-74.672-11.25-61.641-3.4688 0.9375-6.9375 2.6719-10.266 5.2031-0.14062 0.09375-0.28125 0.23438-0.42188 0.28125-0.84375 0.70312-1.8281 1.125-2.7188 1.6875-5.9062-1.5938-4.9219-12.188-19.922-14.766-12.797-2.0625-25.266 8.5781-28.406 22.031-4.9688 21.75 13.219 45.328 30.703 59.625z"/>
 <path d="m658.08 430.92c3.0469 2.9062 8.0156 2.3906 11.016 0.046875h0.046875c12.094-7.2188 23.906-24 16.453-35.719-2.9531-4.7344-6.8906-6.1875-12.141-3.3281-1.7344 0.46875-2.4375 0.65625-6.7031 3.8438-1.2656-0.375-2.0156-1.9688-2.7188-3.1406-1.0312-1.7812-2.4375-3-4.125-3.75-13.641-6.375-26.906 18.984-1.8281 42.047z"/>
 <path d="m764.39 765.19c26.344-48.797 30.094-77.531 30.562-79.172 7.0781-17.578 55.266-243.32 86.109-456.79 3.4688-18.797-8.9531-36.891-27.516-40.312-102.09-22.5-206.11-41.906-308.9-57.656-17.578-3.2344-35.953 7.2188-40.172 27.281-0.79688 1.6406-1.0312 4.1719-2.3438 10.453-2.1562 3.1406-3.75 6.75-4.5938 10.734-15.656 70.172-30.844 139.87-45.234 209.11-7.125-5.1094-13.828-2.4375-14.578 2.5312-3.8438 24.609-3.9375 50.859-2.0156 67.594-2.9531 5.9531-4.9219 12.281-6.1875 17.859-1.0781-1.6406-2.0625-3.5156-3.1406-5.1094-2.7188-3.9375-8.8125-3.1875-10.5 1.3125-5.5781 14.438-10.969 32.391-12.656 48.047-12.562 22.969-16.406 48.609-17.297 73.266-46.641-104.02-94.969-216.74-147.37-344.02-4.9688-11.484 0.28125-24.891 11.812-29.906 59.062-26.531 140.39-66.375 288.28-124.64 11.484-4.9219 24.891 0.42187 29.766 11.906 3.0469 7.2656 14.156 2.625 11.016-4.7344-7.6875-18-28.453-25.547-45.375-18.281-145.74 57.469-236.21 101.11-288.66 124.82-12.703 5.5312-31.078 26.953-22.875 47.25 53.531 137.29 108.23 271.5 164.26 401.76 0.98438 44.812-1.4531 84.375-34.688 115.78-75.656 70.781-155.21 140.21-144.14 244.64 3.1406 34.266 4.6875 66.609 23.859 94.547l1.2656 1.8281c4.4062 6.5625 14.438-0.09375 9.9375-6.7031-1.6875-4.5-15.75-11.109-21.938-78.609l-1.1719-12.281c-10.594-99.844 67.031-165.98 140.48-234.66 65.391-61.828 23.719-155.86 42.938-229.5 2.8594 13.875 11.766 29.344 26.578 34.594 7.5469 2.625 14.438 1.6875 20.297-4.0312l8.7656 64.688c11.438 81.328 2.8594 89.062 8.7188 122.21-0.375 0.60938-0.75 1.2656-1.2188 1.875-4.7812 6.4219 4.875 13.5 9.6094 7.1719 0.375-0.46875 0.60938-0.98438 0.9375-1.4531 1.9219-1.0781 3.0469-3.0938 3-5.2969 10.453-19.734 9.375-43.031 10.5-66.516 1.1719-24.328 0.51562-31.312 0.5625-31.031-3.2344-29.438-6.8438-39.984-26.766-76.688-3.2812-25.359-3.75-24.938-5.2031-42.047-1.2656-14.719-2.8594-31.219-10.406-44.016 0.60938-3.5156 1.3125-7.0781 1.9219-10.594 10.5 10.172 33 18.094 44.578 6.9375 14.344 37.125 31.453 72.047 45.609 103.83 22.688 51.844 18.422 129.79 9.9844 185.48-1.1719 7.875 10.688 9.6094 11.859 1.7812 15.047-99.797 0.84375-151.22 0.60938-155.48 0.5625-0.9375 0.9375-1.9219 0.9375-3.0938-0.51562-77.719-53.906-144.37-58.266-213.66 3.375 11.391 8.3906 22.594 18.75 30.281 5.625 4.1719 12.281 5.7656 18.141 7.1719 10.641 2.4844 22.172 0.79688 28.125-8.25 12.703 20.578 18.141 35.016 20.484 40.031 46.031 109.17 52.5 136.82 39.141 280.26-0.046875 0.046875-0.09375 0.09375-0.14062 0.09375-2.6719 1.9688-3.2344 5.7188-1.2656 8.3906 0.14062 0.1875 0.375 0.28125 0.5625 0.46875l-0.89062 9.6094c-0.65625 7.9219 11.25 8.9531 11.953 1.0781l1.2656-13.641c44.156-34.641 72.797-85.453 81.188-136.78 7.5938-43.875-3.2812-85.922 8.5781-125.21 4.4531 35.578 27.562 44.391 41.578 34.219 15.656 101.77 21.141 127.82-19.734 203.48-94.594 175.6-229.87 139.22-288.14 233.11-19.828 32.062-9.8438 75.844-1.4062 109.22 1.9219 7.6875 13.547 4.7812 11.625-2.9531-7.5469-29.859-17.484-71.719-0.046875-99.984 55.359-88.875 191.68-53.531 288.71-233.63zm-322.13-189.74c-7.5 8.1562-25.734-7.5938-27.797-28.078-1.9219-19.031 2.4844-40.406 8.5312-58.641 7.0781 12 13.781 27.984 13.125 26.391 5.5312 13.547 15.469 49.266 6.1406 60.328zm35.062 159.37c0.1875-32.484-0.375-31.922-1.4531-45.844 1.125-0.5625 2.2031-1.0312 3.2812-1.5469-0.09375 8.4844-1.5938 43.969-1.8281 47.391zm-5.2969-91.547-1.7812-0.375-0.84375-6.375c0.9375 2.2031 1.7812 4.4531 2.625 6.75zm14.156-141.74c-6.7969 4.5469-22.688-3.1406-27.328-7.8281-15.797-15.703-12.891-71.578-10.453-91.734 13.219 16.875 22.078 37.125 30.703 57.141 4.4062 10.125 16.078 36.328 7.0781 42.422zm59.531-47.484c-4.9688-1.1719-10.125-2.3906-13.781-5.1094-10.922-8.1094-14.344-22.688-17.672-36.844-4.3125-19.828-6.6562-31.781-7.4531-52.125 15.891 14.578 27.844 33.281 39.422 51.422 5.8594 9.1406 11.906 18.609 15.094 28.828 3.75 12.047-3.6094 16.641-15.609 13.828zm-7.4062-123.94c12.516-41.391 30.984-68.578 56.531-83.109 59.625-34.078 164.16-22.875 195.84 50.625 19.828 44.672 17.859 95.109-5.2031 131.68-4.2188 6.8438-10.312 12.281-17.953 16.359-1.5469-3.2812-3.2812-6.6562-5.8125-10.969-2.1094-3.9375-5.0156-9.3281-10.266-9.3281-0.98438 0-4.6406 0.375-6.6094 4.3594-4.0781 7.9688-6.9375 15.891-9.1406 24-12.891 0.84375-19.875-0.70312-27.234 1.5938-14.297 4.4531-15 16.688-15.469 25.547-0.46875 6.4219-8.3438 9.8906-13.078 4.2656-1.3594-1.6406-2.0625-3.5625-1.9219-5.2969 0.70312-6.9844-9.4688-9.375-11.672-2.3906-1.5 4.6875-6.6094 8.2031-11.531 7.3125-4.6406-0.60938-8.8125-5.2969-8.9531-10.031-0.14062-6.1406-8.3438-8.0156-11.25-2.7656-3.6094 6.6094-13.125 11.109-16.266 3.5625-5.7188-14.578 6.5625-34.594-38.531-46.078-3-0.75-8.3438-2.1094-11.203-3.3281-6.75-14.344-26.25-43.172-36.094-55.641-0.46875-12.328 1.4531-26.25 5.8125-40.359zm105.42 436.78c1.875-20.297 3.75-41.016 4.6406-61.781 13.828 0.98438 27.75 1.8281 41.719 2.4375-11.859 22.688-27.703 42.844-46.359 59.344zm55.969-80.156c-17.156-2.8125-34.078-5.6719-50.859-8.625 0.1875-77.578-18.375-116.95-46.922-186.84-7.3125-17.484-16.453-34.172-27.656-50.906 40.172 10.406 25.031 19.688 32.953 39.656 5.2969 12.891 19.031 14.719 30.234 6.4219 7.3125 11.297 21.984 13.734 32.578 5.5312 11.203 15.234 33.703 6.6562 34.922-10.359 1.0312-18.141 5.2031-15.188 27.844-15.797-2.3438 13.734-2.0625 27.094-2.1094 28.688-33.75 60.141 0.1875 113.58-30.984 192.24zm69.188-148.13c-0.60937 6.4688-1.125 7.7344-3.5156 8.5781-3.6562 1.2656-8.9062-0.42188-12.75-3.75-5.2969-5.1094-8.5781-15.141-9.4219-28.969-1.3594-26.109-0.9375-49.219 9-72.234 10.828 18.047 20.531 56.156 16.688 96.375zm12.75-7.8281c1.7344-22.406-3.1875-55.172-9.75-73.922 10.125-5.1562 18.234-12.188 23.766-21.188 25.078-39.891 27.375-94.641 6-142.82-34.547-80.109-147.61-93.469-212.76-56.203-28.312 16.125-48.609 45.562-62.062 90-3.2344 10.453-5.1094 20.812-5.9531 30.703-6.3281-6.5625-13.734-15.656-22.734-11.531-2.1562 0.98438-3.5625 3.1406-3.5156 5.5312 0.1875 22.734 2.625 35.906 4.875 48.094-23.391 40.031 31.078 136.97 46.125 195.32-16.547-36.281-31.781-68.344-44.203-102.75-1.1719-20.578-23.484-66-33.844-83.109 14.484-78.375 31.969-169.4 48.469-247.69 2.25-12.328 14.016-20.391 26.531-18.047 102.75 15.703 206.48 35.062 308.53 57.562 12.234 2.25 20.344 14.109 18.047 26.578-18.75 129.74-40.875 254.68-73.547 402.61-2.2969-24.234-9.7969-75.375-13.969-99.141z"/>
 <path d="m884.72 487.45c54.891 36.281 52.594 36.281 56.062 36.281 5.9062 0 8.25-7.6875 3.3281-10.969l-52.734-35.297c-6.6094-4.4062-13.219 5.5781-6.6562 9.9844z"/>
 <path d="m988.18 450.32c-28.922-5.2031-58.406-8.6719-87.703-10.312-7.6875-1.0312-8.8594 11.484-0.70312 11.953 28.828 1.6406 57.844 5.0625 86.297 10.172 7.9219 1.3594 9.7969-10.406 2.1094-11.812z"/>
 <path d="m899.34 414.05c1.5938-0.70312 65.25-27.797 72.609-30.891 7.2656-3.0938 2.7188-14.109-4.6406-11.062-3.2812 1.3594-71.484 30.422-72.656 30.891-7.3125 3.0938-2.6719 14.062 4.6875 11.062z"/>
</svg>
