<?xml version="1.0" encoding="UTF-8"?>
<svg width="1200pt" height="1200pt" version="1.1" viewBox="0 0 1200 1200" xmlns="http://www.w3.org/2000/svg">
 <path d="m1010.3 536.81c19.969-27.281 26.016-62.297 16.312-94.688-7.6875-28.688-27.281-52.688-53.812-66-9.6094-4.7812-19.828-8.3438-30.375-10.5 11.812-38.812 13.125-99.938-45.188-134.26-84.562-49.875-178.69 2.8125-243.74 57.75-18.75-106.31-82.312-202.5-150-220.87-39.938-10.875-77.812 5.25-106.5 45.562-51.188 71.438-23.625 109.88 3 146.81 34.781 40.781 50.625 94.406 43.688 147.56-15.375 161.06-298.13 262.5-300 262.5-8.5312 3.0938-13.594 11.812-12.094 20.766s9.2344 15.516 18.281 15.609c2.0625 0.28125 4.125 0.28125 6.1875 0 12.562-4.5 308.26-109.69 325.87-294.56 7.7344-62.156-10.547-124.78-50.438-173.06-25.688-35.625-38.625-53.438-3-103.12 19.688-27.75 41.438-37.5 66.188-31.125 58.312 15.75 117.38 116.25 126.94 215.06-18.75 17.062-36.328 35.344-52.688 54.75-6.3281 8.1562-4.9219 19.875 3.1875 26.25 3.3281 2.5781 7.4062 3.9844 11.625 3.9375 5.7188-0.046875 11.109-2.6719 14.625-7.125 1.6875-2.0625 161.63-203.63 279.94-134.06 46.875 27.75 32.062 80.812 25.875 97.688-33.234 0.375-66.188 5.9531-97.688 16.5-9.75 3.5156-14.766 14.25-11.25 24 3.5156 9.6094 14.156 14.625 23.812 11.25 0 0 85.125-29.812 136.87-3.375 17.297 8.6719 29.953 24.375 34.688 43.125 6.75 23.062 1.4531 48-14.062 66.375-28.406-11.859-58.312-19.828-88.875-23.625-4.9688-0.51562-9.9375 0.9375-13.828 4.0781-3.8906 3.1875-6.375 7.7344-6.8906 12.703-1.0781 10.359 6.4219 19.641 16.781 20.719 1.5 0 156.94 18.75 150 112.5-3.5625 48.75-18.75 81.75-42.75 98.25-24 13.078-52.219 15.984-78.375 8.0625 6.6562-12.891 12.516-26.156 17.625-39.75 1.875-4.7344 1.7344-9.9844-0.375-14.578-2.0625-4.6406-5.9062-8.2031-10.688-9.9375s-10.031-1.4531-14.578 0.79688c-4.5469 2.2031-8.0156 6.1406-9.6094 10.969 0 2.0625-81 217.31-243.74 222.94-3.6094 0.14062-7.125 1.3125-10.125 3.375-1.875 1.5-196.87 137.63-258.56 174.37-8.9062 5.2969-11.859 16.781-6.5625 25.688 3.375 5.6719 9.5156 9.1875 16.125 9.1875 3.375-0.046875 6.6562-0.9375 9.5625-2.625 58.312-34.875 226.13-151.69 256.5-172.69 117.94-7.125 194.81-102.94 235.69-173.44 16.688 4.875 33.984 7.4531 51.375 7.6875 23.344 0.51562 46.266-6.0469 65.812-18.75 35.062-23.062 55.125-65.812 59.438-126.56 3.5156-45.891-19.969-89.672-60.188-112.12z"/>
</svg>
