<?xml version="1.0" encoding="UTF-8"?>
<svg width="1200pt" height="1200pt" version="1.1" viewBox="0 0 1200 1200" xmlns="http://www.w3.org/2000/svg">
 <path d="m1012.4 786.71c-71.438-67.453-142.45-135.56-210.28-206.72 55.828-65.016 117.14-125.29 169.97-192.84 32.156-44.344 65.062-118.12 23.625-165.84-22.5-18.281-52.406-0.98438-75 8.4844-96.891 40.688-189.98 88.969-282.61 138.19-15.891-87.703-24.516-178.22-55.828-262.13-18.656-41.156-47.016-0.046874-51.469 26.062-22.219 89.719-44.109 179.58-63.141 270.1-49.594-36.141-104.81-65.672-162.52-86.531-42.141-16.219-72.938-8.2969-87.234 37.266-31.125 82.641 35.906 155.16 64.5 228.19-60.938 59.531-190.97 147.14-173.76 241.74 1.9219 16.172 12.609 36.047 31.734 32.25 84.938-8.1094 167.39-32.906 252.14-41.672 0.9375 67.453-5.7188 252.28 46.688 294.89 30.375 15.188 51.047-23.578 62.953-45.938 27.609-49.641 52.594-100.59 78.328-151.22 15.891-32.859 26.016-44.531 61.5-25.922 94.453 38.578 188.29 78.938 283.64 115.22 85.734 34.922 155.02 26.156 165.61-78.938 11.438-60.984-39.375-97.969-78.891-134.63zm-365.48-62.016c-89.719-10.594-133.64 153-172.69 215.29-13.688-72.938-3.6562-147.61-10.594-220.87-9.2812-76.266-96.281-39.094-145.6-32.578 58.875-44.578 64.359-135.14 37.969-199.45 20.672 9.1406 72.797 58.734 90.047 47.344 35.016-17.438 43.266-62.625 36.891-97.922 19.078-81.938 42.656-162.74 67.125-243.19 63.281 366.42-44.625 356.76 305.06 191.72-30.703 32.391-61.312 64.875-91.594 97.641-30.234 29.344-55.781 64.406-58.406 107.86-9.7969 84.094 67.031 141.24 116.48 198.37-58.406-20.625-114.61-49.031-174.71-64.219z"/>
</svg>
