<?xml version="1.0" encoding="UTF-8"?>
<svg width="1200pt" height="1200pt" version="1.1" viewBox="0 0 1200 1200" xmlns="http://www.w3.org/2000/svg">
 <path d="m1002.8 972.74c-22.219-19.031-46.406-20.484-74.672-14.672 44.625-54.938 43.078-118.31 17.672-155.34-18.422-26.531-47.906-36.984-86.297-30.984 6.4219-19.734 3.6094-42-0.42188-62.062-7.4062-36.234-18-72.094-31.312-106.59-11.531-29.766-21.328-57.562-34.266-89.766-2.8594-6.9844-6.8906-12.094-12-15.609-0.046875 0-0.046875-0.046875-0.09375-0.046875 17.906-25.828 17.672-42.094 43.359-62.438 3.5156-2.7656 6.9844-5.5312 10.219-8.6719 16.734-16.172 15.703-37.828 1.5-55.312-5.1094-6.3281-11.156-11.859-19.031-13.969-0.046875 0-0.09375 0-0.14062-0.046875-5.5312-1.4531-11.25-1.0312-16.125 1.3594 0.98438-8.9531-0.09375-18.094-3.375-26.297 39.562-34.828 49.266-133.5-9.375-196.92-97.641-105.75-272.29-73.594-319.31 40.688-13.547 33.797-17.812 69.891-8.2031 114.98 4.7812 22.406 14.25 39.469 30 56.953-33.281 7.875-64.688 20.062-91.641 35.578-109.97 62.062-149.48 201.47-167.72 325.64-11.156 76.359-8.2969 100.69-11.906 130.03-0.42188 3.7969-0.89062 7.6406-1.2188 11.578-50.906 38.156-49.828 98.812-25.969 127.64-22.266 9.2812-35.859 30.141-38.953 49.406-4.5938 29.625 11.109 76.547 36.75 91.219 13.922 7.7812 31.312 8.0156 47.578 7.3125 17.25 4.2656 45.656 2.4844 63.281 0.5625 39.656-4.4062 64.266-13.734 76.781-17.25 7.875 3.75 15.797 3.0469 23.578 2.3906 32.109-3.0469 61.688-6.7031 93.938-11.016 95.016 23.766 190.97 22.828 277.31 0.75 3.1875-0.89062 6.4219-1.7344 9.7031-2.8594 3.7969 1.9219 1.2656 0.42188 32.297 8.625 40.031 11.578 89.109 27.75 132.74 18.281 46.406-1.0312 79.125-24.094 93-55.453 16.547-37.547 2.2031-83.297-37.688-97.688zm-70.547-160.64c25.453 36.562 21.047 103.5-33.375 153.14-32.438 7.3594-38.859 3.9844-66.094 8.9531-8.2969 1.5938-21.094 0.42188-29.578 2.2969-6.6562-5.6719-14.719-8.2031-23.672-7.2188-12.656 1.4531-28.922-2.0625-45.797-5.3438-68.953-12.75-129.32-39.234-192.66-67.641 8.2969-1.4531 45.844-4.3125 114.89-25.406h0.09375c31.406-9.375 79.266-24.281 108.42-39.938 32.016-16.969 51.516-33.469 88.688-41.344 30.938-6.75 61.125-3.4688 79.078 22.5zm-281.9 10.125c-4.125-25.547-12.328-32.438-13.031-34.078 5.8594-31.688 17.344-62.906 33.375-90.797 4.8281 30.891 13.781 57.844 20.859 72.234 3.1406 31.922 7.8281 68.344-21.938 80.016-0.09375 0-0.23438 0.09375-0.32812 0.09375h-0.09375c-8.2031 2.7188-16.359 5.1094-24.75 7.5469 5.8125-9.0469 8.0156-21.938 5.9062-35.016zm79.172 6.7969c-0.046875 0-0.09375 0.046875-0.14062 0.046875l-0.14062 0.046875c-8.2969 3.2812-16.781 6.3281-25.312 9.1875 6-10.781 5.8594-26.156 6.2344-34.781 5.8125 8.8594 12.328 17.344 19.359 25.5zm82.969-220.08c12.984 33.703 23.344 68.625 30.562 103.97 4.2656 21.281 7.2188 45.375-3.2812 63.188-39.75 10.5-66.281 33.891-94.547 46.125-81.141-90.375-60.141-202.4-60.891-277.55-0.046875-7.2656 1.3125-13.219 3.8906-18 14.625 11.906 55.172 10.219 82.359-16.125 0.09375-0.046875 0.14062-0.09375 0.23438-0.14062 8.1094 3.8438 7.4531 10.219 41.672 98.531zm2.1094-186.56c-33.562 26.484-31.172 49.5-52.359 73.312 0 0.046875-0.046875 0.046875-0.09375 0.046875-20.859 23.391-68.625 33.047-73.312 2.5312-1.2656-8.7656 0.09375-17.953 1.875-27.797 28.266-11.672 49.547-34.266 58.453-61.969 26.672-1.5 39.516-20.391 40.594-21.281 1.5 6.1406 5.3906 11.578 5.9531 12.656-18.234 8.0156-36.562 16.875-52.359 30.234-21.562 18.234-33.797 42.047-33.562 65.344 0.046875 4.5 3.7031 8.1094 8.2031 8.1094h0.09375c4.5-0.046875 8.1562-3.75 8.1094-8.25-0.1875-18.422 9.9375-37.641 27.75-52.688 16.734-14.109 37.641-23.156 57.891-31.875 5.0156-2.1562 6.5156-8.4844 3.0938-12.656-3.1406-3.8438-7.8281-9.7969-9.1875-14.766-0.89062-3.375-0.32812-8.1094 2.2031-9.7031 8.3906-5.4844 29.531 18.562 20.672 33.938-3.8906 6.7031-3.4688 6.4688-14.016 14.812zm-337.69-134.81c-7.7344-36.234-6.5625-70.781 7.3125-105.28 42.562-103.22 202.92-132.66 292.26-35.766 52.453 56.766 43.828 148.03 7.9688 175.64 4.0312-8.2031 6.3281-17.672 6.3281-27.797 0-40.594-35.438-66.516-66-54.562-25.312 9.4688-40.453 40.078-32.625 70.781 0-0.23438-0.09375-0.32812-0.23438-0.5625-5.6719-12.094-21.141-15.141-33.047 0.32812-6.9844 8.8594-12.891 22.922-10.453 34.031 2.4844 11.953 13.828 19.922 25.219 15.375 6.1875 4.4531 16.688 3.3281 22.594-4.4531 6.8906-8.6719 5.0156-20.109 1.5469-30.562 18.188 33.281 60.234 36.375 81.797 5.5781 0.09375 1.2188 0.42188 2.3906 1.0781 3.6094 16.734 29.906-12.047 67.219-46.828 57.609-4.3594-1.1719-8.8594 1.3594-10.078 5.7188s1.3594 8.8594 5.7188 10.078c0.84375 0.23438 1.7344 0.1875 2.625 0.375-0.75 1.125-12.094 34.828-51.328 48.984-0.09375 0-0.09375 0-0.23437 0.09375-64.031 22.594-142.69-31.172-138.89-85.406 19.875 14.297 40.969 13.875 39.891 13.688 4.4062 0 8.0156-3.5156 8.1562-7.9219 0.14062-4.5-3.4219-8.2969-7.9219-8.4375-30.328-0.9375-55.125-26.672-53.203-58.547 1.6875-0.14062 3.4219-0.23438 5.0156-0.75 4.3125-1.3594 6.75-5.9062 5.3906-10.266-1.3594-4.3125-5.9062-6.7031-10.266-5.3906-3.75 1.1719-7.7812-0.70312-9.3281-4.3125-1.7812-4.1719-6.5625-6.0469-10.734-4.3125-4.1719 1.7812-6.0938 6.6094-4.3125 10.734 1.7344 4.0312 4.5938 7.5469 8.1562 10.078-1.5938 15.234 1.8281 30.844 9.6094 44.062-20.719-7.3594-39.703-37.172-45.188-62.438zm230.44-2.7656c10.875 13.031 33.094 5.25 33.094-11.672 0-4.6875-1.875-8.9062-4.9688-12.047-2.1562-2.2031-4.9688-3.75-8.0625-4.6406 24.422-11.156 47.016 10.266 47.016 37.922 0 22.594-15.281 41.016-33.938 41.016-19.875 0-34.031-19.688-34.031-41.016 0-4.9688 0.70312-8.4375 0.89062-9.5625zm-30.141 32.203c2.8125 6 10.266 24.094 5.5781 28.781-2.1094-7.6406-12.984-8.25-15.938-1.0781-0.98438-0.42188-2.0625-1.9688-2.3906-3.6094-1.7812-7.5469 7.125-22.734 11.578-24.75 1.0781 0.60938 2.25 1.2656 1.1719 0.65625zm-11.109 160.18c-9.0938 12.891-20.672 26.297-37.219 28.688-19.922 2.9062-43.641-12.375-50.25-48.188 42.469 27.375 86.344 19.453 87.469 19.5zm-418.4 234.42c14.625-99.281 45.609-236.63 144.74-304.36h0.046874c10.547 2.7188 46.312 14.906 57.422 58.641 0.9375 3.7031 4.2656 6.1875 7.9219 6.1875 5.3438 0 9.2344-5.0156 7.9219-10.172-10.125-39.844-37.031-57.844-55.406-65.719h0.09375c28.125-15.797 61.406-27.797 96.422-34.922 7.0312 4.2188 12.75 5.1562 18.562 6.2344-2.5781 23.297 7.6406 52.969 35.25 77.016h0.09375c3.1406 71.016 66.75 105.84 111.38 51.844 0.75 9.75 3.1875 14.109 4.6875 17.297-0.09375 0.09375-0.09375 0.09375 0 0.09375 0.046876 0.09375 0.09375 0.14062 0.14063 0.23438-5.9531 8.0156-9.1406 18.469-9.0469 30.844 0.46875 46.266-4.5469 81.047-0.23437 127.87-7.5469 6.6562-33.516 52.031-44.719 104.16-1.8281-0.70312-4.7344-2.4844-12.234-3.7031-60.422-9.2812-111.38-16.594-164.72-19.969l29.016-229.87c0.5625-4.4531-2.625-8.625-7.0781-9.1406-4.4531-0.5625-8.625 2.625-9.1406 7.0781l-30.094 238.6c-0.65625 4.4062 2.4844 8.7656 7.6406 9.2812 55.875 2.9531 108.66 10.594 171.94 20.203 14.625 2.2031 22.266 12.891 25.875 35.578 1.2188 7.5469 0.75 17.906-3.9375 24.422-2.5312 3.6094-10.219 3.7969-15.375 16.031-40.125 10.406-57.703 12.234-64.688 13.219-10.922 1.3125-22.922 2.8594-34.031 6.3281-60.281-27.609-125.58-58.359-191.58-61.875-40.594-27-24.281-208.4-19.641-257.26 0.42188-4.4531-2.8594-8.5312-7.3125-8.9531s-8.5312 2.9531-8.9531 7.4062c-9.2812 97.406-13.734 216.32 13.312 258.98-21.609 0.84375-45 5.625-65.766 16.453 2.5312-20.203 1.2188-57.609 11.484-128.06zm18.984 401.02c-32.109 0.28125-47.625-6.4688-61.219-39.469-11.859-29.062-13.781-58.922 8.5312-80.953 20.906 6.9375 48.094 19.031 113.91 40.125 5.7656 1.8281 9.4688 3.375 12.422 4.5-15.094 6.8906-14.672 21.984-17.016 23.578-1.125 0.75-6.0469 0.5625-7.125 0.60938-14.297 0.9375-27.516 10.5-32.906 23.766-2.2031 5.3906 1.8281 11.25 7.5938 11.25 3.2344 0 6.2812-1.9219 7.5938-5.1094 3.0469-7.4531 10.781-13.078 18.797-13.594l2.1094-0.09375c12.984-0.375 18-4.9219 21.656-17.109 0.42188-1.3125 0.75-2.6719 1.3125-3.8906 2.4375-5.3438 9.1875-7.1719 13.969-3.75 0.98438 0.70312 2.1094 1.125 3.2344 1.3125-0.375 14.672-0.75 30.469 5.4375 42.609-30.609 10.031-64.031 15.891-98.297 16.219zm140.29-17.531c-20.812 1.875-33.469 7.4531-30.984-41.25 38.766 21.141 56.297 27.938 80.391 35.766-17.109 2.0625-33.469 3.8438-49.406 5.4844zm369.37-11.25c-108.98 31.781-255.52 22.453-362.72-28.781-7.7344-3.7969-15.281-7.875-22.781-11.766-0.09375-0.09375-0.23438-0.09375-0.32812-0.09375v-0.1875c-12.562-6.4219-34.734-19.031-57.609-26.297-64.359-20.625-92.203-32.859-113.02-39.797h-0.09375c-5.5312-2.0156-10.875-4.2656-14.391-8.5312-17.344-20.953-19.688-65.625 14.531-97.406 67.453-62.531 181.31-20.719 264.74 17.578 0.09375 0 0.09375 0.09375 0.23438 0.09375 29.672 13.641 26.016 12 30.562 14.062h0.09375c40.922 18.469 78.094 35.344 116.72 49.641 59.438 21.703 96.281 26.859 106.12 29.109 34.453 6.6562 37.969 3.9375 45.281 3.9375 25.031 0 29.672 66.703 15.797 85.219-5.4844 6.6562-14.203 10.5-23.156 13.219zm28.5 4.2656c12.984-9.8438 16.828-25.125 18.234-41.344 3.2812 2.625 5.5781 4.125 6.75 6 2.625 4.3125 2.0625 25.781 30.469 19.172 5.4375-1.2656 6.9844-0.51562 7.0312-0.51562 2.8594 3.4688 8.0156 3.9844 11.531 1.125 7.9688-6.5625-0.09375-21.703-22.266-16.547-6.4688 1.5-7.7812 0.89062-8.0156 0.70312-0.5625-0.5625-1.1719-2.625-1.5938-4.2656-3.4688-12.562-7.3125-12.375-16.781-21.422 0.42188-0.65625 2.625-2.2031 6-2.25 4.6875 0.09375 7.5938 0.70312 13.359 0.79688 14.484-0.14062 28.266-8.4844 35.016-21.328 2.1094-3.9844 0.5625-8.9531-3.4219-11.062-3.9844-2.1094-8.9531-0.5625-11.062 3.4219-3.9375 7.4531-12.234 12.516-20.672 12.562-6.1875 0.32812-16.688-3.75-27.469 3.6094-0.84375-3.9375-1.7344-13.734-7.2188-24.984 6.5625-0.42188 13.594-0.046875 21.047-1.4062 20.109-3.75 38.719-3.0469 59.25-7.4062 29.484-6.8906 58.219-18.047 83.578-6.3281 49.922 22.125 47.906 102.61-18.328 128.29-20.391 7.9688-44.625 9.375-74.203 4.2656-27.094-4.6406-55.688-14.719-81.234-21.094z"/>
 <path d="m347.58 858.79c-50.109-10.406-104.62 12.281-132.61 55.125-3.5625 5.4844 0.42188 12.656 6.8438 12.656 2.6719 0 5.2969-1.3125 6.8438-3.7031 24-36.75 72.609-56.953 115.59-48.047 4.3594 0.89062 8.7656-1.9219 9.6562-6.3281 0.9375-4.4531-1.875-8.8125-6.3281-9.7031z"/>
 <path d="m405.14 873.14-21.797-7.7812c-4.2656-1.5469-8.9531 0.70312-10.453 4.9688s0.70312 8.9531 4.9688 10.453c22.688 7.9219 22.078 8.25 24.562 8.25 9.0938 0 11.344-12.797 2.7188-15.891z"/>
 <path d="m601.18 333.19h1.3125c32.719-0.65625 59.438-26.953 59.438-58.594 0-31.125-25.828-56.859-59.766-56.625-32.859 0.75-59.438 27.047-59.438 58.688-0.046875 32.719 27.141 56.531 58.453 56.531zm44.391-58.594c0 22.781-19.547 41.766-43.406 42.234-29.109 0.51562-49.031-25.688-41.672-50.203v-0.09375c3.375 4.3594 8.8125 7.0781 14.953 6.9844 19.875-0.375 25.875-26.719 7.6875-34.266 27.516-14.484 62.438 4.3594 62.438 35.344z"/>
 <path d="m631.31 379.13c-1.1719 3-5.5312 4.875-9.1406 3.9844-7.9688-2.0625-12.516-13.594-5.2031-25.312 2.3906-3.8438 1.2188-8.9062-2.625-11.25-3.8438-2.3906-8.8594-1.2188-11.25 2.625-19.312 31.031 9.9844 61.031 33.656 47.203 8.9062 10.828 23.906 13.688 36.234 5.8125 9.7969 15.141 29.625 12.516 38.578-2.5781 4.6875-7.875 5.3906-16.875 5.9062-24.141 0.32812-4.5-3.0469-8.4375-7.5469-8.7656-4.4531-0.375-8.4375 3.0469-8.7656 7.5469-0.42188 5.8125-0.9375 12.422-3.6562 16.969-1.9219 3.2344-5.8125 5.3906-8.0625 4.5469-2.3438-0.84375-4.4531-4.7344-5.5781-10.359-1.5469-7.8281-12.234-8.9531-15.469-1.7344-1.9219 4.2656-7.1719 7.125-11.719 6.5625-4.6406-0.60938-8.9062-4.6875-9.6562-9.3281-1.4062-8.2031-12.656-9.4219-15.703-1.7812z"/>
 <path d="m302.81 402.89 25.312 7.875c10.5 3.2344 15.094-12.469 4.875-15.609l-25.359-7.875c-4.3125-1.3594-8.9062 1.0781-10.219 5.3906-1.3594 4.2656 1.0781 8.8594 5.3906 10.219z"/>
 <path d="m355.92 375.14c1.0781 4.4062 5.5312 7.0781 9.8906 6 4.4062-1.0781 7.0781-5.5312 6-9.8906l-7.9688-32.297c-1.0781-4.4062-5.4844-7.0781-9.8906-6s-7.0781 5.5312-6 9.8906z"/>
</svg>
